  0
SECTION
  2
HEADER
  9
$ACADVER
  1
AC1014
  9
$HANDSEED
  5
FFFF
  9
$MEASUREMENT
 70
     1
  0
ENDSEC
  0
SECTION
  2
TABLES
  0
TABLE
  2
VPORT
  5
8
330
0
100
AcDbSymbolTable
 70
     4
  0
VPORT
  5
2E
330
8
100
AcDbSymbolTableRecord
100
AcDbViewportTableRecord
  2
*ACTIVE
 70
     0
 10
0.0
 20
0.0
 11
1.0
 21
1.0
 12
210.0
 22
148.5
 13
0.0
 23
0.0
 14
10.0
 24
10.0
 15
10.0
 25
10.0
 16
0.0
 26
0.0
 36
1.0
 17
0.0
 27
0.0
 37
0.0
 40
341.0
 41
1.24
 42
50.0
 43
0.0
 44
0.0
 50
0.0
 51
0.0
 71
     0
 72
   100
 73
     1
 74
     3
 75
     0
 76
     0
 77
     0
 78
     0
  0
ENDTAB
  0
TABLE
  2
LTYPE
  5
5
330
0
100
AcDbSymbolTable
 70
     1
  0
LTYPE
  5
14
330
5
100
AcDbSymbolTableRecord
100
AcDbLinetypeTableRecord
  2
BYBLOCK
 70
     0
  3

 72
    65
 73
     0
 40
0.0
  0
LTYPE
  5
15
330
5
100
AcDbSymbolTableRecord
100
AcDbLinetypeTableRecord
  2
BYLAYER
 70
     0
  3

 72
    65
 73
     0
 40
0.0
  0
LTYPE
  5
16
330
5
100
AcDbSymbolTableRecord
100
AcDbLinetypeTableRecord
  2
CONTINUOUS
 70
     0
  3
Solid line
 72
    65
 73
     0
 40
0.0
  0
ENDTAB
  0
TABLE
  2
LAYER
  5
2
100
AcDbSymbolTable
 70
2
  0
LAYER
  5
50
100
AcDbSymbolTableRecord
100
AcDbLayerTableRecord
  2
0
 70
0
  6
CONTINUOUS
  0
LAYER
  5
51
100
AcDbSymbolTableRecord
100
AcDbLayerTableRecord
  2
Layer_1
 70
0
  6
CONTINUOUS
  0
ENDTAB
  0
TABLE
  2
STYLE
  5
3
330
0
100
AcDbSymbolTable
 70
     1
  0
STYLE
  5
11
330
3
100
AcDbSymbolTableRecord
100
AcDbTextStyleTableRecord
  2
STANDARD
 70
     0
 40
0.0
 41
1.0
 50
0.0
 71
     0
 42
2.5
  3
txt
  4

  0
ENDTAB
  0
TABLE
  2
VIEW
  5
6
330
0
100
AcDbSymbolTable
 70
     0
  0
ENDTAB
  0
TABLE
  2
UCS
  5
7
330
0
100
AcDbSymbolTable
 70
     0
  0
ENDTAB
  0
TABLE
  2
APPID
  5
9
330
0
100
AcDbSymbolTable
 70
     2
  0
APPID
  5
12
330
9
100
AcDbSymbolTableRecord
100
AcDbRegAppTableRecord
  2
ACAD
 70
     0
  0
ENDTAB
  0
TABLE
  2
DIMSTYLE
  5
A
330
0
100
AcDbSymbolTable
 70
     1
  0
DIMSTYLE
105
27
330
A
100
AcDbSymbolTableRecord
100
AcDbDimStyleTableRecord
  2
ISO-25
 70
     0
  3

  4

  5

  6

  7

 40
1.0
 41
2.5
 42
0.625
 43
3.75
 44
1.25
 45
0.0
 46
0.0
 47
0.0
 48
0.0
140
2.5
141
2.5
142
0.0
143
0.03937007874016
144
1.0
145
0.0
146
1.0
147
0.625
 71
     0
 72
     0
 73
     0
 74
     0
 75
     0
 76
     0
 77
     1
 78
     8
170
     0
171
     3
172
     1
173
     0
174
     0
175
     0
176
     0
177
     0
178
     0
270
     2
271
     2
272
     2
273
     2
274
     3
340
11
275
     0
280
     0
281
     0
282
     0
283
     0
284
     8
285
     0
286
     0
287
     3
288
     0
  0
ENDTAB
  0
TABLE
  2
BLOCK_RECORD
  5
1
330
0
100
AcDbSymbolTable
 70
     1
  0
BLOCK_RECORD
  5
1F
330
1
100
AcDbSymbolTableRecord
100
AcDbBlockTableRecord
  2
*MODEL_SPACE
  0
BLOCK_RECORD
  5
1B
330
1
100
AcDbSymbolTableRecord
100
AcDbBlockTableRecord
  2
*PAPER_SPACE
  0
ENDTAB
  0
ENDSEC
  0
SECTION
  2
BLOCKS
  0
BLOCK
  5
20
330
1F
100
AcDbEntity
  8
0
100
AcDbBlockBegin
  2
*MODEL_SPACE
 70
     0
 10
0.0
 20
0.0
 30
0.0
  3
*MODEL_SPACE
  1

  0
ENDBLK
  5
21
330
1F
100
AcDbEntity
  8
0
100
AcDbBlockEnd
  0
BLOCK
  5
1C
330
1B
100
AcDbEntity
 67
     1
  8
0
100
AcDbBlockBegin
  2
*PAPER_SPACE
  1

  0
ENDBLK
  5
1D
330
1B
100
AcDbEntity
 67
     1
  8
0
100
AcDbBlockEnd
  0
ENDSEC
  0
SECTION
  2
ENTITIES
  0
SPLINE
  5
100
100
AcDbEntity
  8
Layer_1
 62
7
100
AcDbSpline
 70
8
 71
3
 72
8
 73
4
 74
0
 40
0
 40
0
 40
0
 40
0
 40
1
 40
1
 40
1
 40
1
 10
44.402177
 20
141.166561
 30
0.0
 10
44.654179
 20
141.427261
 30
0.0
 10
45.070852
 20
141.388951
 30
0.0
 10
45.466966
 20
141.388950
 30
0.0
  0
LINE
  5
101
100
AcDbEntity
  8
Layer_1
 62
7
100
AcDbLine
 10
45.466966
 20
141.388950
 30
0.0
 11
45.578162
 21
141.388950
 31
0.0
  0
LINE
  5
102
100
AcDbEntity
  8
Layer_1
 62
7
100
AcDbLine
 10
45.578162
 20
141.388950
 30
0.0
 11
381.476830
 21
141.388047
 31
0.0
  0
LINE
  5
103
100
AcDbEntity
  8
Layer_1
 62
7
100
AcDbLine
 10
381.476830
 20
141.388047
 30
0.0
 11
381.868830
 21
141.373047
 31
0.0
  0
LINE
  5
104
100
AcDbEntity
  8
Layer_1
 62
7
100
AcDbLine
 10
381.868830
 20
141.373047
 30
0.0
 11
382.258830
 21
141.327047
 31
0.0
  0
LINE
  5
105
100
AcDbEntity
  8
Layer_1
 62
7
100
AcDbLine
 10
382.258830
 20
141.327047
 30
0.0
 11
382.643830
 21
141.250047
 31
0.0
  0
LINE
  5
106
100
AcDbEntity
  8
Layer_1
 62
7
100
AcDbLine
 10
382.643830
 20
141.250047
 30
0.0
 11
383.021830
 21
141.144047
 31
0.0
  0
LINE
  5
107
100
AcDbEntity
  8
Layer_1
 62
7
100
AcDbLine
 10
383.021830
 20
141.144047
 30
0.0
 11
383.389830
 21
141.008047
 31
0.0
  0
LINE
  5
108
100
AcDbEntity
  8
Layer_1
 62
7
100
AcDbLine
 10
383.389830
 20
141.008047
 30
0.0
 11
383.745830
 21
140.844047
 31
0.0
  0
LINE
  5
109
100
AcDbEntity
  8
Layer_1
 62
7
100
AcDbLine
 10
383.745830
 20
140.844047
 30
0.0
 11
384.088830
 21
140.652047
 31
0.0
  0
LINE
  5
10a
100
AcDbEntity
  8
Layer_1
 62
7
100
AcDbLine
 10
384.088830
 20
140.652047
 30
0.0
 11
384.414830
 21
140.434047
 31
0.0
  0
LINE
  5
10b
100
AcDbEntity
  8
Layer_1
 62
7
100
AcDbLine
 10
384.414830
 20
140.434047
 30
0.0
 11
384.723830
 21
140.191047
 31
0.0
  0
LINE
  5
10c
100
AcDbEntity
  8
Layer_1
 62
7
100
AcDbLine
 10
384.723830
 20
140.191047
 30
0.0
 11
385.011830
 21
139.924047
 31
0.0
  0
LINE
  5
10d
100
AcDbEntity
  8
Layer_1
 62
7
100
AcDbLine
 10
385.011830
 20
139.924047
 30
0.0
 11
385.278830
 21
139.636047
 31
0.0
  0
LINE
  5
10e
100
AcDbEntity
  8
Layer_1
 62
7
100
AcDbLine
 10
385.278830
 20
139.636047
 30
0.0
 11
385.521830
 21
139.327047
 31
0.0
  0
LINE
  5
10f
100
AcDbEntity
  8
Layer_1
 62
7
100
AcDbLine
 10
385.521830
 20
139.327047
 30
0.0
 11
385.739830
 21
139.001047
 31
0.0
  0
LINE
  5
110
100
AcDbEntity
  8
Layer_1
 62
7
100
AcDbLine
 10
385.739830
 20
139.001047
 30
0.0
 11
385.931830
 21
138.658047
 31
0.0
  0
LINE
  5
111
100
AcDbEntity
  8
Layer_1
 62
7
100
AcDbLine
 10
385.931830
 20
138.658047
 30
0.0
 11
386.095830
 21
138.302047
 31
0.0
  0
LINE
  5
112
100
AcDbEntity
  8
Layer_1
 62
7
100
AcDbLine
 10
386.095830
 20
138.302047
 30
0.0
 11
386.231830
 21
137.934047
 31
0.0
  0
LINE
  5
113
100
AcDbEntity
  8
Layer_1
 62
7
100
AcDbLine
 10
386.231830
 20
137.934047
 30
0.0
 11
386.337830
 21
137.556047
 31
0.0
  0
LINE
  5
114
100
AcDbEntity
  8
Layer_1
 62
7
100
AcDbLine
 10
386.337830
 20
137.556047
 30
0.0
 11
386.414830
 21
137.171047
 31
0.0
  0
LINE
  5
115
100
AcDbEntity
  8
Layer_1
 62
7
100
AcDbLine
 10
386.414830
 20
137.171047
 30
0.0
 11
386.460830
 21
136.781047
 31
0.0
  0
LINE
  5
116
100
AcDbEntity
  8
Layer_1
 62
7
100
AcDbLine
 10
386.460830
 20
136.781047
 30
0.0
 11
386.475830
 21
136.388047
 31
0.0
  0
LINE
  5
117
100
AcDbEntity
  8
Layer_1
 62
7
100
AcDbLine
 10
386.475830
 20
136.388047
 30
0.0
 11
386.476830
 21
11.837050
 31
0.0
  0
LINE
  5
118
100
AcDbEntity
  8
Layer_1
 62
7
100
AcDbLine
 10
386.476830
 20
11.837050
 30
0.0
 11
386.460830
 21
11.445050
 31
0.0
  0
LINE
  5
119
100
AcDbEntity
  8
Layer_1
 62
7
100
AcDbLine
 10
386.460830
 20
11.445050
 30
0.0
 11
386.414830
 21
11.055050
 31
0.0
  0
LINE
  5
11a
100
AcDbEntity
  8
Layer_1
 62
7
100
AcDbLine
 10
386.414830
 20
11.055050
 30
0.0
 11
386.337830
 21
10.670050
 31
0.0
  0
LINE
  5
11b
100
AcDbEntity
  8
Layer_1
 62
7
100
AcDbLine
 10
386.337830
 20
10.670050
 30
0.0
 11
386.231830
 21
10.292050
 31
0.0
  0
LINE
  5
11c
100
AcDbEntity
  8
Layer_1
 62
7
100
AcDbLine
 10
386.231830
 20
10.292050
 30
0.0
 11
386.095830
 21
9.924050
 31
0.0
  0
LINE
  5
11d
100
AcDbEntity
  8
Layer_1
 62
7
100
AcDbLine
 10
386.095830
 20
9.924050
 30
0.0
 11
385.931830
 21
9.568050
 31
0.0
  0
LINE
  5
11e
100
AcDbEntity
  8
Layer_1
 62
7
100
AcDbLine
 10
385.931830
 20
9.568050
 30
0.0
 11
385.739830
 21
9.225050
 31
0.0
  0
LINE
  5
11f
100
AcDbEntity
  8
Layer_1
 62
7
100
AcDbLine
 10
385.739830
 20
9.225050
 30
0.0
 11
385.521830
 21
8.899050
 31
0.0
  0
LINE
  5
120
100
AcDbEntity
  8
Layer_1
 62
7
100
AcDbLine
 10
385.521830
 20
8.899050
 30
0.0
 11
385.278830
 21
8.590050
 31
0.0
  0
LINE
  5
121
100
AcDbEntity
  8
Layer_1
 62
7
100
AcDbLine
 10
385.278830
 20
8.590050
 30
0.0
 11
385.011830
 21
8.302050
 31
0.0
  0
LINE
  5
122
100
AcDbEntity
  8
Layer_1
 62
7
100
AcDbLine
 10
385.011830
 20
8.302050
 30
0.0
 11
384.723830
 21
8.035050
 31
0.0
  0
LINE
  5
123
100
AcDbEntity
  8
Layer_1
 62
7
100
AcDbLine
 10
384.723830
 20
8.035050
 30
0.0
 11
384.414830
 21
7.792050
 31
0.0
  0
LINE
  5
124
100
AcDbEntity
  8
Layer_1
 62
7
100
AcDbLine
 10
384.414830
 20
7.792050
 30
0.0
 11
384.088830
 21
7.574050
 31
0.0
  0
LINE
  5
125
100
AcDbEntity
  8
Layer_1
 62
7
100
AcDbLine
 10
384.088830
 20
7.574050
 30
0.0
 11
383.745830
 21
7.382050
 31
0.0
  0
LINE
  5
126
100
AcDbEntity
  8
Layer_1
 62
7
100
AcDbLine
 10
383.745830
 20
7.382050
 30
0.0
 11
383.389830
 21
7.218050
 31
0.0
  0
LINE
  5
127
100
AcDbEntity
  8
Layer_1
 62
7
100
AcDbLine
 10
383.389830
 20
7.218050
 30
0.0
 11
383.021830
 21
7.082050
 31
0.0
  0
LINE
  5
128
100
AcDbEntity
  8
Layer_1
 62
7
100
AcDbLine
 10
383.021830
 20
7.082050
 30
0.0
 11
382.643830
 21
6.976050
 31
0.0
  0
LINE
  5
129
100
AcDbEntity
  8
Layer_1
 62
7
100
AcDbLine
 10
382.643830
 20
6.976050
 30
0.0
 11
382.258830
 21
6.899050
 31
0.0
  0
LINE
  5
12a
100
AcDbEntity
  8
Layer_1
 62
7
100
AcDbLine
 10
382.258830
 20
6.899050
 30
0.0
 11
381.868830
 21
6.853050
 31
0.0
  0
LINE
  5
12b
100
AcDbEntity
  8
Layer_1
 62
7
100
AcDbLine
 10
381.868830
 20
6.853050
 30
0.0
 11
381.476830
 21
6.837050
 31
0.0
  0
LINE
  5
12c
100
AcDbEntity
  8
Layer_1
 62
7
100
AcDbLine
 10
381.476830
 20
6.837050
 30
0.0
 11
9.275833
 21
6.837050
 31
0.0
  0
LINE
  5
12d
100
AcDbEntity
  8
Layer_1
 62
7
100
AcDbLine
 10
9.275833
 20
6.837050
 30
0.0
 11
8.882833
 21
6.853050
 31
0.0
  0
LINE
  5
12e
100
AcDbEntity
  8
Layer_1
 62
7
100
AcDbLine
 10
8.882833
 20
6.853050
 30
0.0
 11
8.492833
 21
6.899050
 31
0.0
  0
LINE
  5
12f
100
AcDbEntity
  8
Layer_1
 62
7
100
AcDbLine
 10
8.492833
 20
6.899050
 30
0.0
 11
8.107833
 21
6.976050
 31
0.0
  0
LINE
  5
130
100
AcDbEntity
  8
Layer_1
 62
7
100
AcDbLine
 10
8.107833
 20
6.976050
 30
0.0
 11
7.729833
 21
7.082050
 31
0.0
  0
LINE
  5
131
100
AcDbEntity
  8
Layer_1
 62
7
100
AcDbLine
 10
7.729833
 20
7.082050
 30
0.0
 11
7.361833
 21
7.218050
 31
0.0
  0
LINE
  5
132
100
AcDbEntity
  8
Layer_1
 62
7
100
AcDbLine
 10
7.361833
 20
7.218050
 30
0.0
 11
7.005833
 21
7.382050
 31
0.0
  0
LINE
  5
133
100
AcDbEntity
  8
Layer_1
 62
7
100
AcDbLine
 10
7.005833
 20
7.382050
 30
0.0
 11
6.662833
 21
7.574050
 31
0.0
  0
LINE
  5
134
100
AcDbEntity
  8
Layer_1
 62
7
100
AcDbLine
 10
6.662833
 20
7.574050
 30
0.0
 11
6.336833
 21
7.792050
 31
0.0
  0
LINE
  5
135
100
AcDbEntity
  8
Layer_1
 62
7
100
AcDbLine
 10
6.336833
 20
7.792050
 30
0.0
 11
6.027833
 21
8.035050
 31
0.0
  0
LINE
  5
136
100
AcDbEntity
  8
Layer_1
 62
7
100
AcDbLine
 10
6.027833
 20
8.035050
 30
0.0
 11
5.739833
 21
8.302050
 31
0.0
  0
LINE
  5
137
100
AcDbEntity
  8
Layer_1
 62
7
100
AcDbLine
 10
5.739833
 20
8.302050
 30
0.0
 11
5.472833
 21
8.590050
 31
0.0
  0
LINE
  5
138
100
AcDbEntity
  8
Layer_1
 62
7
100
AcDbLine
 10
5.472833
 20
8.590050
 30
0.0
 11
5.229833
 21
8.899050
 31
0.0
  0
LINE
  5
139
100
AcDbEntity
  8
Layer_1
 62
7
100
AcDbLine
 10
5.229833
 20
8.899050
 30
0.0
 11
5.011833
 21
9.225050
 31
0.0
  0
LINE
  5
13a
100
AcDbEntity
  8
Layer_1
 62
7
100
AcDbLine
 10
5.011833
 20
9.225050
 30
0.0
 11
4.819833
 21
9.568050
 31
0.0
  0
LINE
  5
13b
100
AcDbEntity
  8
Layer_1
 62
7
100
AcDbLine
 10
4.819833
 20
9.568050
 30
0.0
 11
4.655833
 21
9.924050
 31
0.0
  0
LINE
  5
13c
100
AcDbEntity
  8
Layer_1
 62
7
100
AcDbLine
 10
4.655833
 20
9.924050
 30
0.0
 11
4.519833
 21
10.292050
 31
0.0
  0
LINE
  5
13d
100
AcDbEntity
  8
Layer_1
 62
7
100
AcDbLine
 10
4.519833
 20
10.292050
 30
0.0
 11
4.413833
 21
10.670050
 31
0.0
  0
LINE
  5
13e
100
AcDbEntity
  8
Layer_1
 62
7
100
AcDbLine
 10
4.413833
 20
10.670050
 30
0.0
 11
4.336833
 21
11.055050
 31
0.0
  0
LINE
  5
13f
100
AcDbEntity
  8
Layer_1
 62
7
100
AcDbLine
 10
4.336833
 20
11.055050
 30
0.0
 11
4.290833
 21
11.445050
 31
0.0
  0
LINE
  5
140
100
AcDbEntity
  8
Layer_1
 62
7
100
AcDbLine
 10
4.290833
 20
11.445050
 30
0.0
 11
4.274833
 21
11.837050
 31
0.0
  0
LINE
  5
141
100
AcDbEntity
  8
Layer_1
 62
7
100
AcDbLine
 10
4.274833
 20
11.837050
 30
0.0
 11
4.275833
 21
136.388047
 31
0.0
  0
LINE
  5
142
100
AcDbEntity
  8
Layer_1
 62
7
100
AcDbLine
 10
4.275833
 20
136.388047
 30
0.0
 11
4.290833
 21
136.781047
 31
0.0
  0
LINE
  5
143
100
AcDbEntity
  8
Layer_1
 62
7
100
AcDbLine
 10
4.290833
 20
136.781047
 30
0.0
 11
4.336833
 21
137.171047
 31
0.0
  0
LINE
  5
144
100
AcDbEntity
  8
Layer_1
 62
7
100
AcDbLine
 10
4.336833
 20
137.171047
 30
0.0
 11
4.413833
 21
137.556047
 31
0.0
  0
LINE
  5
145
100
AcDbEntity
  8
Layer_1
 62
7
100
AcDbLine
 10
4.413833
 20
137.556047
 30
0.0
 11
4.519833
 21
137.934047
 31
0.0
  0
LINE
  5
146
100
AcDbEntity
  8
Layer_1
 62
7
100
AcDbLine
 10
4.519833
 20
137.934047
 30
0.0
 11
4.655833
 21
138.302047
 31
0.0
  0
LINE
  5
147
100
AcDbEntity
  8
Layer_1
 62
7
100
AcDbLine
 10
4.655833
 20
138.302047
 30
0.0
 11
4.819833
 21
138.658047
 31
0.0
  0
LINE
  5
148
100
AcDbEntity
  8
Layer_1
 62
7
100
AcDbLine
 10
4.819833
 20
138.658047
 30
0.0
 11
5.011833
 21
139.001047
 31
0.0
  0
LINE
  5
149
100
AcDbEntity
  8
Layer_1
 62
7
100
AcDbLine
 10
5.011833
 20
139.001047
 30
0.0
 11
5.229833
 21
139.327047
 31
0.0
  0
LINE
  5
14a
100
AcDbEntity
  8
Layer_1
 62
7
100
AcDbLine
 10
5.229833
 20
139.327047
 30
0.0
 11
5.472833
 21
139.636047
 31
0.0
  0
LINE
  5
14b
100
AcDbEntity
  8
Layer_1
 62
7
100
AcDbLine
 10
5.472833
 20
139.636047
 30
0.0
 11
5.739833
 21
139.924047
 31
0.0
  0
LINE
  5
14c
100
AcDbEntity
  8
Layer_1
 62
7
100
AcDbLine
 10
5.739833
 20
139.924047
 30
0.0
 11
6.027833
 21
140.191047
 31
0.0
  0
LINE
  5
14d
100
AcDbEntity
  8
Layer_1
 62
7
100
AcDbLine
 10
6.027833
 20
140.191047
 30
0.0
 11
6.336833
 21
140.434047
 31
0.0
  0
LINE
  5
14e
100
AcDbEntity
  8
Layer_1
 62
7
100
AcDbLine
 10
6.336833
 20
140.434047
 30
0.0
 11
6.662833
 21
140.652047
 31
0.0
  0
LINE
  5
14f
100
AcDbEntity
  8
Layer_1
 62
7
100
AcDbLine
 10
6.662833
 20
140.652047
 30
0.0
 11
7.005833
 21
140.844047
 31
0.0
  0
LINE
  5
150
100
AcDbEntity
  8
Layer_1
 62
7
100
AcDbLine
 10
7.005833
 20
140.844047
 30
0.0
 11
7.361833
 21
141.008047
 31
0.0
  0
LINE
  5
151
100
AcDbEntity
  8
Layer_1
 62
7
100
AcDbLine
 10
7.361833
 20
141.008047
 30
0.0
 11
7.729833
 21
141.144047
 31
0.0
  0
LINE
  5
152
100
AcDbEntity
  8
Layer_1
 62
7
100
AcDbLine
 10
7.729833
 20
141.144047
 30
0.0
 11
8.107833
 21
141.250047
 31
0.0
  0
LINE
  5
153
100
AcDbEntity
  8
Layer_1
 62
7
100
AcDbLine
 10
8.107833
 20
141.250047
 30
0.0
 11
8.492833
 21
141.327047
 31
0.0
  0
LINE
  5
154
100
AcDbEntity
  8
Layer_1
 62
7
100
AcDbLine
 10
8.492833
 20
141.327047
 30
0.0
 11
8.882833
 21
141.373047
 31
0.0
  0
LINE
  5
155
100
AcDbEntity
  8
Layer_1
 62
7
100
AcDbLine
 10
8.882833
 20
141.373047
 30
0.0
 11
9.275833
 21
141.389047
 31
0.0
  0
LINE
  5
156
100
AcDbEntity
  8
Layer_1
 62
7
100
AcDbLine
 10
9.275833
 20
141.389047
 30
0.0
 11
23.252399
 21
141.389010
 31
0.0
  0
SPLINE
  5
157
100
AcDbEntity
  8
Layer_1
 62
7
100
AcDbSpline
 70
8
 71
3
 72
8
 73
4
 74
0
 40
0
 40
0
 40
0
 40
0
 40
1
 40
1
 40
1
 40
1
 10
23.252399
 20
141.389010
 30
0.0
 10
23.590107
 20
141.389009
 30
0.0
 10
23.861021
 20
141.401597
 30
0.0
 10
24.067840
 20
141.216035
 30
0.0
  0
SPLINE
  5
158
100
AcDbEntity
  8
Layer_1
 62
7
100
AcDbSpline
 70
8
 71
3
 72
8
 73
4
 74
0
 40
0
 40
0
 40
0
 40
0
 40
1
 40
1
 40
1
 40
1
 10
24.067840
 20
141.216035
 30
0.0
 10
24.225055
 20
141.074978
 30
0.0
 10
24.265522
 20
140.872337
 30
0.0
 10
24.265522
 20
140.614002
 30
0.0
  0
SPLINE
  5
159
100
AcDbEntity
  8
Layer_1
 62
7
100
AcDbSpline
 70
8
 71
3
 72
8
 73
4
 74
0
 40
0
 40
0
 40
0
 40
0
 40
1
 40
1
 40
1
 40
1
 10
24.265522
 20
140.614002
 30
0.0
 10
24.265522
 20
140.614002
 30
0.0
 10
24.265522
 20
134.919814
 30
0.0
 10
24.265522
 20
132.072720
 30
0.0
  0
SPLINE
  5
15a
100
AcDbEntity
  8
Layer_1
 62
7
100
AcDbSpline
 70
8
 71
3
 72
8
 73
4
 74
0
 40
0
 40
0
 40
0
 40
0
 40
1
 40
1
 40
1
 40
1
 10
24.265522
 20
132.072720
 30
0.0
 10
24.265522
 20
131.917511
 30
0.0
 10
24.260122
 20
131.776047
 30
0.0
 10
24.356282
 20
131.684223
 30
0.0
  0
SPLINE
  5
15b
100
AcDbEntity
  8
Layer_1
 62
7
100
AcDbSpline
 70
8
 71
3
 72
8
 73
4
 74
0
 40
0
 40
0
 40
0
 40
0
 40
1
 40
1
 40
1
 40
1
 10
24.356282
 20
131.684223
 30
0.0
 10
24.459321
 20
131.585863
 30
0.0
 10
24.606204
 20
131.606663
 30
0.0
 10
24.776483
 20
131.606443
 30
0.0
  0
SPLINE
  5
15c
100
AcDbEntity
  8
Layer_1
 62
7
100
AcDbSpline
 70
8
 71
3
 72
8
 73
4
 74
0
 40
0
 40
0
 40
0
 40
0
 40
1
 40
1
 40
1
 40
1
 10
24.776483
 20
131.606443
 30
0.0
 10
30.972070
 20
131.598443
 30
0.0
 10
37.112273
 20
131.584933
 30
0.0
 10
43.310990
 20
131.577263
 30
0.0
  0
SPLINE
  5
15d
100
AcDbEntity
  8
Layer_1
 62
7
100
AcDbSpline
 70
8
 71
3
 72
8
 73
4
 74
0
 40
0
 40
0
 40
0
 40
0
 40
1
 40
1
 40
1
 40
1
 10
43.310990
 20
131.577263
 30
0.0
 10
43.597217
 20
131.576909
 30
0.0
 10
43.913519
 20
131.519423
 30
0.0
 10
44.109138
 20
131.704673
 30
0.0
  0
SPLINE
  5
15e
100
AcDbEntity
  8
Layer_1
 62
7
100
AcDbSpline
 70
8
 71
3
 72
8
 73
4
 74
0
 40
0
 40
0
 40
0
 40
0
 40
1
 40
1
 40
1
 40
1
 10
44.109138
 20
131.704673
 30
0.0
 10
44.253255
 20
131.841153
 30
0.0
 10
44.233748
 20
132.051927
 30
0.0
 10
44.234848
 20
132.286709
 30
0.0
  0
LINE
  5
15f
100
AcDbEntity
  8
Layer_1
 62
7
100
AcDbLine
 10
44.234848
 20
132.286709
 30
0.0
 11
44.274028
 21
140.428686
 31
0.0
  0
SPLINE
  5
160
100
AcDbEntity
  8
Layer_1
 62
7
100
AcDbSpline
 70
8
 71
3
 72
8
 73
4
 74
0
 40
0
 40
0
 40
0
 40
0
 40
1
 40
1
 40
1
 40
1
 10
44.274028
 20
140.428686
 30
0.0
 10
44.275528
 20
140.748768
 30
0.0
 10
44.228688
 20
140.987053
 30
0.0
 10
44.402184
 20
141.166540
 30
0.0
  0
LINE
  5
161
100
AcDbEntity
  8
Layer_1
 62
7
100
AcDbLine
 10
44.402184
 20
141.166540
 30
0.0
 11
44.402177
 21
141.166561
 31
0.0
  0
LINE
  5
162
100
AcDbEntity
  8
Layer_1
 62
7
100
AcDbLine
 10
382.503833
 20
11.125047
 30
0.0
 11
382.706833
 21
11.522047
 31
0.0
  0
LINE
  5
163
100
AcDbEntity
  8
Layer_1
 62
7
100
AcDbLine
 10
382.706833
 20
11.522047
 30
0.0
 11
382.776833
 21
11.962047
 31
0.0
  0
LINE
  5
164
100
AcDbEntity
  8
Layer_1
 62
7
100
AcDbLine
 10
382.776833
 20
11.962047
 30
0.0
 11
382.706833
 21
12.403047
 31
0.0
  0
LINE
  5
165
100
AcDbEntity
  8
Layer_1
 62
7
100
AcDbLine
 10
382.706833
 20
12.403047
 30
0.0
 11
382.503833
 21
12.800047
 31
0.0
  0
LINE
  5
166
100
AcDbEntity
  8
Layer_1
 62
7
100
AcDbLine
 10
382.503833
 20
12.800047
 30
0.0
 11
382.188833
 21
13.115047
 31
0.0
  0
LINE
  5
167
100
AcDbEntity
  8
Layer_1
 62
7
100
AcDbLine
 10
382.188833
 20
13.115047
 30
0.0
 11
381.791833
 21
13.318047
 31
0.0
  0
LINE
  5
168
100
AcDbEntity
  8
Layer_1
 62
7
100
AcDbLine
 10
381.791833
 20
13.318047
 30
0.0
 11
381.351833
 21
13.387047
 31
0.0
  0
LINE
  5
169
100
AcDbEntity
  8
Layer_1
 62
7
100
AcDbLine
 10
381.351833
 20
13.387047
 30
0.0
 11
380.910833
 21
13.318047
 31
0.0
  0
LINE
  5
16a
100
AcDbEntity
  8
Layer_1
 62
7
100
AcDbLine
 10
380.910833
 20
13.318047
 30
0.0
 11
380.513833
 21
13.115047
 31
0.0
  0
LINE
  5
16b
100
AcDbEntity
  8
Layer_1
 62
7
100
AcDbLine
 10
380.513833
 20
13.115047
 30
0.0
 11
380.198833
 21
12.800047
 31
0.0
  0
LINE
  5
16c
100
AcDbEntity
  8
Layer_1
 62
7
100
AcDbLine
 10
380.198833
 20
12.800047
 30
0.0
 11
379.995833
 21
12.403047
 31
0.0
  0
LINE
  5
16d
100
AcDbEntity
  8
Layer_1
 62
7
100
AcDbLine
 10
379.995833
 20
12.403047
 30
0.0
 11
379.926833
 21
11.962047
 31
0.0
  0
LINE
  5
16e
100
AcDbEntity
  8
Layer_1
 62
7
100
AcDbLine
 10
379.926833
 20
11.962047
 30
0.0
 11
379.995833
 21
11.522047
 31
0.0
  0
LINE
  5
16f
100
AcDbEntity
  8
Layer_1
 62
7
100
AcDbLine
 10
379.995833
 20
11.522047
 30
0.0
 11
380.198833
 21
11.125047
 31
0.0
  0
LINE
  5
170
100
AcDbEntity
  8
Layer_1
 62
7
100
AcDbLine
 10
380.198833
 20
11.125047
 30
0.0
 11
380.513833
 21
10.810047
 31
0.0
  0
LINE
  5
171
100
AcDbEntity
  8
Layer_1
 62
7
100
AcDbLine
 10
380.513833
 20
10.810047
 30
0.0
 11
380.910833
 21
10.607047
 31
0.0
  0
LINE
  5
172
100
AcDbEntity
  8
Layer_1
 62
7
100
AcDbLine
 10
380.910833
 20
10.607047
 30
0.0
 11
381.351833
 21
10.538047
 31
0.0
  0
LINE
  5
173
100
AcDbEntity
  8
Layer_1
 62
7
100
AcDbLine
 10
381.351833
 20
10.538047
 30
0.0
 11
381.791833
 21
10.607047
 31
0.0
  0
LINE
  5
174
100
AcDbEntity
  8
Layer_1
 62
7
100
AcDbLine
 10
381.791833
 20
10.607047
 30
0.0
 11
382.188833
 21
10.810047
 31
0.0
  0
LINE
  5
175
100
AcDbEntity
  8
Layer_1
 62
7
100
AcDbLine
 10
382.188833
 20
10.810047
 30
0.0
 11
382.503833
 21
11.125047
 31
0.0
  0
LINE
  5
176
100
AcDbEntity
  8
Layer_1
 62
7
100
AcDbLine
 10
308.113833
 20
11.125047
 30
0.0
 11
308.316833
 21
11.522047
 31
0.0
  0
LINE
  5
177
100
AcDbEntity
  8
Layer_1
 62
7
100
AcDbLine
 10
308.316833
 20
11.522047
 30
0.0
 11
308.385833
 21
11.962047
 31
0.0
  0
LINE
  5
178
100
AcDbEntity
  8
Layer_1
 62
7
100
AcDbLine
 10
308.385833
 20
11.962047
 30
0.0
 11
308.316833
 21
12.403047
 31
0.0
  0
LINE
  5
179
100
AcDbEntity
  8
Layer_1
 62
7
100
AcDbLine
 10
308.316833
 20
12.403047
 30
0.0
 11
308.113833
 21
12.800047
 31
0.0
  0
LINE
  5
17a
100
AcDbEntity
  8
Layer_1
 62
7
100
AcDbLine
 10
308.113833
 20
12.800047
 30
0.0
 11
307.798833
 21
13.115047
 31
0.0
  0
LINE
  5
17b
100
AcDbEntity
  8
Layer_1
 62
7
100
AcDbLine
 10
307.798833
 20
13.115047
 30
0.0
 11
307.401833
 21
13.318047
 31
0.0
  0
LINE
  5
17c
100
AcDbEntity
  8
Layer_1
 62
7
100
AcDbLine
 10
307.401833
 20
13.318047
 30
0.0
 11
306.960833
 21
13.387047
 31
0.0
  0
LINE
  5
17d
100
AcDbEntity
  8
Layer_1
 62
7
100
AcDbLine
 10
306.960833
 20
13.387047
 30
0.0
 11
306.520833
 21
13.318047
 31
0.0
  0
LINE
  5
17e
100
AcDbEntity
  8
Layer_1
 62
7
100
AcDbLine
 10
306.520833
 20
13.318047
 30
0.0
 11
306.123833
 21
13.115047
 31
0.0
  0
LINE
  5
17f
100
AcDbEntity
  8
Layer_1
 62
7
100
AcDbLine
 10
306.123833
 20
13.115047
 30
0.0
 11
305.807833
 21
12.800047
 31
0.0
  0
LINE
  5
180
100
AcDbEntity
  8
Layer_1
 62
7
100
AcDbLine
 10
305.807833
 20
12.800047
 30
0.0
 11
305.605833
 21
12.403047
 31
0.0
  0
LINE
  5
181
100
AcDbEntity
  8
Layer_1
 62
7
100
AcDbLine
 10
305.605833
 20
12.403047
 30
0.0
 11
305.535833
 21
11.962047
 31
0.0
  0
LINE
  5
182
100
AcDbEntity
  8
Layer_1
 62
7
100
AcDbLine
 10
305.535833
 20
11.962047
 30
0.0
 11
305.605833
 21
11.522047
 31
0.0
  0
LINE
  5
183
100
AcDbEntity
  8
Layer_1
 62
7
100
AcDbLine
 10
305.605833
 20
11.522047
 30
0.0
 11
305.807833
 21
11.125047
 31
0.0
  0
LINE
  5
184
100
AcDbEntity
  8
Layer_1
 62
7
100
AcDbLine
 10
305.807833
 20
11.125047
 30
0.0
 11
306.123833
 21
10.810047
 31
0.0
  0
LINE
  5
185
100
AcDbEntity
  8
Layer_1
 62
7
100
AcDbLine
 10
306.123833
 20
10.810047
 30
0.0
 11
306.520833
 21
10.607047
 31
0.0
  0
LINE
  5
186
100
AcDbEntity
  8
Layer_1
 62
7
100
AcDbLine
 10
306.520833
 20
10.607047
 30
0.0
 11
306.960833
 21
10.538047
 31
0.0
  0
LINE
  5
187
100
AcDbEntity
  8
Layer_1
 62
7
100
AcDbLine
 10
306.960833
 20
10.538047
 30
0.0
 11
307.401833
 21
10.607047
 31
0.0
  0
LINE
  5
188
100
AcDbEntity
  8
Layer_1
 62
7
100
AcDbLine
 10
307.401833
 20
10.607047
 30
0.0
 11
307.798833
 21
10.810047
 31
0.0
  0
LINE
  5
189
100
AcDbEntity
  8
Layer_1
 62
7
100
AcDbLine
 10
307.798833
 20
10.810047
 30
0.0
 11
308.113833
 21
11.125047
 31
0.0
  0
LINE
  5
18a
100
AcDbEntity
  8
Layer_1
 62
7
100
AcDbLine
 10
233.723833
 20
11.125047
 30
0.0
 11
233.925833
 21
11.522047
 31
0.0
  0
LINE
  5
18b
100
AcDbEntity
  8
Layer_1
 62
7
100
AcDbLine
 10
233.925833
 20
11.522047
 30
0.0
 11
233.995833
 21
11.962047
 31
0.0
  0
LINE
  5
18c
100
AcDbEntity
  8
Layer_1
 62
7
100
AcDbLine
 10
233.995833
 20
11.962047
 30
0.0
 11
233.925833
 21
12.403047
 31
0.0
  0
LINE
  5
18d
100
AcDbEntity
  8
Layer_1
 62
7
100
AcDbLine
 10
233.925833
 20
12.403047
 30
0.0
 11
233.723833
 21
12.800047
 31
0.0
  0
LINE
  5
18e
100
AcDbEntity
  8
Layer_1
 62
7
100
AcDbLine
 10
233.723833
 20
12.800047
 30
0.0
 11
233.408833
 21
13.115047
 31
0.0
  0
LINE
  5
18f
100
AcDbEntity
  8
Layer_1
 62
7
100
AcDbLine
 10
233.408833
 20
13.115047
 30
0.0
 11
233.010833
 21
13.318047
 31
0.0
  0
LINE
  5
190
100
AcDbEntity
  8
Layer_1
 62
7
100
AcDbLine
 10
233.010833
 20
13.318047
 30
0.0
 11
232.570833
 21
13.387047
 31
0.0
  0
LINE
  5
191
100
AcDbEntity
  8
Layer_1
 62
7
100
AcDbLine
 10
232.570833
 20
13.387047
 30
0.0
 11
232.130833
 21
13.318047
 31
0.0
  0
LINE
  5
192
100
AcDbEntity
  8
Layer_1
 62
7
100
AcDbLine
 10
232.130833
 20
13.318047
 30
0.0
 11
231.733833
 21
13.115047
 31
0.0
  0
LINE
  5
193
100
AcDbEntity
  8
Layer_1
 62
7
100
AcDbLine
 10
231.733833
 20
13.115047
 30
0.0
 11
231.417833
 21
12.800047
 31
0.0
  0
LINE
  5
194
100
AcDbEntity
  8
Layer_1
 62
7
100
AcDbLine
 10
231.417833
 20
12.800047
 30
0.0
 11
231.215833
 21
12.403047
 31
0.0
  0
LINE
  5
195
100
AcDbEntity
  8
Layer_1
 62
7
100
AcDbLine
 10
231.215833
 20
12.403047
 30
0.0
 11
231.145833
 21
11.962047
 31
0.0
  0
LINE
  5
196
100
AcDbEntity
  8
Layer_1
 62
7
100
AcDbLine
 10
231.145833
 20
11.962047
 30
0.0
 11
231.215833
 21
11.522047
 31
0.0
  0
LINE
  5
197
100
AcDbEntity
  8
Layer_1
 62
7
100
AcDbLine
 10
231.215833
 20
11.522047
 30
0.0
 11
231.417833
 21
11.125047
 31
0.0
  0
LINE
  5
198
100
AcDbEntity
  8
Layer_1
 62
7
100
AcDbLine
 10
231.417833
 20
11.125047
 30
0.0
 11
231.733833
 21
10.810047
 31
0.0
  0
LINE
  5
199
100
AcDbEntity
  8
Layer_1
 62
7
100
AcDbLine
 10
231.733833
 20
10.810047
 30
0.0
 11
232.130833
 21
10.607047
 31
0.0
  0
LINE
  5
19a
100
AcDbEntity
  8
Layer_1
 62
7
100
AcDbLine
 10
232.130833
 20
10.607047
 30
0.0
 11
232.570833
 21
10.538047
 31
0.0
  0
LINE
  5
19b
100
AcDbEntity
  8
Layer_1
 62
7
100
AcDbLine
 10
232.570833
 20
10.538047
 30
0.0
 11
233.010833
 21
10.607047
 31
0.0
  0
LINE
  5
19c
100
AcDbEntity
  8
Layer_1
 62
7
100
AcDbLine
 10
233.010833
 20
10.607047
 30
0.0
 11
233.408833
 21
10.810047
 31
0.0
  0
LINE
  5
19d
100
AcDbEntity
  8
Layer_1
 62
7
100
AcDbLine
 10
233.408833
 20
10.810047
 30
0.0
 11
233.723833
 21
11.125047
 31
0.0
  0
LINE
  5
19e
100
AcDbEntity
  8
Layer_1
 62
7
100
AcDbLine
 10
159.333833
 20
11.125047
 30
0.0
 11
159.535833
 21
11.522047
 31
0.0
  0
LINE
  5
19f
100
AcDbEntity
  8
Layer_1
 62
7
100
AcDbLine
 10
159.535833
 20
11.522047
 30
0.0
 11
159.605833
 21
11.962047
 31
0.0
  0
LINE
  5
1a0
100
AcDbEntity
  8
Layer_1
 62
7
100
AcDbLine
 10
159.605833
 20
11.962047
 30
0.0
 11
159.535833
 21
12.403047
 31
0.0
  0
LINE
  5
1a1
100
AcDbEntity
  8
Layer_1
 62
7
100
AcDbLine
 10
159.535833
 20
12.403047
 30
0.0
 11
159.333833
 21
12.800047
 31
0.0
  0
LINE
  5
1a2
100
AcDbEntity
  8
Layer_1
 62
7
100
AcDbLine
 10
159.333833
 20
12.800047
 30
0.0
 11
159.017833
 21
13.115047
 31
0.0
  0
LINE
  5
1a3
100
AcDbEntity
  8
Layer_1
 62
7
100
AcDbLine
 10
159.017833
 20
13.115047
 30
0.0
 11
158.620833
 21
13.318047
 31
0.0
  0
LINE
  5
1a4
100
AcDbEntity
  8
Layer_1
 62
7
100
AcDbLine
 10
158.620833
 20
13.318047
 30
0.0
 11
158.180833
 21
13.387047
 31
0.0
  0
LINE
  5
1a5
100
AcDbEntity
  8
Layer_1
 62
7
100
AcDbLine
 10
158.180833
 20
13.387047
 30
0.0
 11
157.740833
 21
13.318047
 31
0.0
  0
LINE
  5
1a6
100
AcDbEntity
  8
Layer_1
 62
7
100
AcDbLine
 10
157.740833
 20
13.318047
 30
0.0
 11
157.342833
 21
13.115047
 31
0.0
  0
LINE
  5
1a7
100
AcDbEntity
  8
Layer_1
 62
7
100
AcDbLine
 10
157.342833
 20
13.115047
 30
0.0
 11
157.027833
 21
12.800047
 31
0.0
  0
LINE
  5
1a8
100
AcDbEntity
  8
Layer_1
 62
7
100
AcDbLine
 10
157.027833
 20
12.800047
 30
0.0
 11
156.825833
 21
12.403047
 31
0.0
  0
LINE
  5
1a9
100
AcDbEntity
  8
Layer_1
 62
7
100
AcDbLine
 10
156.825833
 20
12.403047
 30
0.0
 11
156.755833
 21
11.962047
 31
0.0
  0
LINE
  5
1aa
100
AcDbEntity
  8
Layer_1
 62
7
100
AcDbLine
 10
156.755833
 20
11.962047
 30
0.0
 11
156.825833
 21
11.522047
 31
0.0
  0
LINE
  5
1ab
100
AcDbEntity
  8
Layer_1
 62
7
100
AcDbLine
 10
156.825833
 20
11.522047
 30
0.0
 11
157.027833
 21
11.125047
 31
0.0
  0
LINE
  5
1ac
100
AcDbEntity
  8
Layer_1
 62
7
100
AcDbLine
 10
157.027833
 20
11.125047
 30
0.0
 11
157.342833
 21
10.810047
 31
0.0
  0
LINE
  5
1ad
100
AcDbEntity
  8
Layer_1
 62
7
100
AcDbLine
 10
157.342833
 20
10.810047
 30
0.0
 11
157.740833
 21
10.607047
 31
0.0
  0
LINE
  5
1ae
100
AcDbEntity
  8
Layer_1
 62
7
100
AcDbLine
 10
157.740833
 20
10.607047
 30
0.0
 11
158.180833
 21
10.538047
 31
0.0
  0
LINE
  5
1af
100
AcDbEntity
  8
Layer_1
 62
7
100
AcDbLine
 10
158.180833
 20
10.538047
 30
0.0
 11
158.620833
 21
10.607047
 31
0.0
  0
LINE
  5
1b0
100
AcDbEntity
  8
Layer_1
 62
7
100
AcDbLine
 10
158.620833
 20
10.607047
 30
0.0
 11
159.017833
 21
10.810047
 31
0.0
  0
LINE
  5
1b1
100
AcDbEntity
  8
Layer_1
 62
7
100
AcDbLine
 10
159.017833
 20
10.810047
 30
0.0
 11
159.333833
 21
11.125047
 31
0.0
  0
LINE
  5
1b2
100
AcDbEntity
  8
Layer_1
 62
7
100
AcDbLine
 10
84.943833
 20
11.125047
 30
0.0
 11
85.145833
 21
11.522047
 31
0.0
  0
LINE
  5
1b3
100
AcDbEntity
  8
Layer_1
 62
7
100
AcDbLine
 10
85.145833
 20
11.522047
 30
0.0
 11
85.215833
 21
11.962047
 31
0.0
  0
LINE
  5
1b4
100
AcDbEntity
  8
Layer_1
 62
7
100
AcDbLine
 10
85.215833
 20
11.962047
 30
0.0
 11
85.145833
 21
12.403047
 31
0.0
  0
LINE
  5
1b5
100
AcDbEntity
  8
Layer_1
 62
7
100
AcDbLine
 10
85.145833
 20
12.403047
 30
0.0
 11
84.943833
 21
12.800047
 31
0.0
  0
LINE
  5
1b6
100
AcDbEntity
  8
Layer_1
 62
7
100
AcDbLine
 10
84.943833
 20
12.800047
 30
0.0
 11
84.627833
 21
13.115047
 31
0.0
  0
LINE
  5
1b7
100
AcDbEntity
  8
Layer_1
 62
7
100
AcDbLine
 10
84.627833
 20
13.115047
 30
0.0
 11
84.230833
 21
13.318047
 31
0.0
  0
LINE
  5
1b8
100
AcDbEntity
  8
Layer_1
 62
7
100
AcDbLine
 10
84.230833
 20
13.318047
 30
0.0
 11
83.790833
 21
13.387047
 31
0.0
  0
LINE
  5
1b9
100
AcDbEntity
  8
Layer_1
 62
7
100
AcDbLine
 10
83.790833
 20
13.387047
 30
0.0
 11
83.349833
 21
13.318047
 31
0.0
  0
LINE
  5
1ba
100
AcDbEntity
  8
Layer_1
 62
7
100
AcDbLine
 10
83.349833
 20
13.318047
 30
0.0
 11
82.952833
 21
13.115047
 31
0.0
  0
LINE
  5
1bb
100
AcDbEntity
  8
Layer_1
 62
7
100
AcDbLine
 10
82.952833
 20
13.115047
 30
0.0
 11
82.637833
 21
12.800047
 31
0.0
  0
LINE
  5
1bc
100
AcDbEntity
  8
Layer_1
 62
7
100
AcDbLine
 10
82.637833
 20
12.800047
 30
0.0
 11
82.434833
 21
12.403047
 31
0.0
  0
LINE
  5
1bd
100
AcDbEntity
  8
Layer_1
 62
7
100
AcDbLine
 10
82.434833
 20
12.403047
 30
0.0
 11
82.365833
 21
11.962047
 31
0.0
  0
LINE
  5
1be
100
AcDbEntity
  8
Layer_1
 62
7
100
AcDbLine
 10
82.365833
 20
11.962047
 30
0.0
 11
82.434833
 21
11.522047
 31
0.0
  0
LINE
  5
1bf
100
AcDbEntity
  8
Layer_1
 62
7
100
AcDbLine
 10
82.434833
 20
11.522047
 30
0.0
 11
82.637833
 21
11.125047
 31
0.0
  0
LINE
  5
1c0
100
AcDbEntity
  8
Layer_1
 62
7
100
AcDbLine
 10
82.637833
 20
11.125047
 30
0.0
 11
82.952833
 21
10.810047
 31
0.0
  0
LINE
  5
1c1
100
AcDbEntity
  8
Layer_1
 62
7
100
AcDbLine
 10
82.952833
 20
10.810047
 30
0.0
 11
83.349833
 21
10.607047
 31
0.0
  0
LINE
  5
1c2
100
AcDbEntity
  8
Layer_1
 62
7
100
AcDbLine
 10
83.349833
 20
10.607047
 30
0.0
 11
83.790833
 21
10.538047
 31
0.0
  0
LINE
  5
1c3
100
AcDbEntity
  8
Layer_1
 62
7
100
AcDbLine
 10
83.790833
 20
10.538047
 30
0.0
 11
84.230833
 21
10.607047
 31
0.0
  0
LINE
  5
1c4
100
AcDbEntity
  8
Layer_1
 62
7
100
AcDbLine
 10
84.230833
 20
10.607047
 30
0.0
 11
84.627833
 21
10.810047
 31
0.0
  0
LINE
  5
1c5
100
AcDbEntity
  8
Layer_1
 62
7
100
AcDbLine
 10
84.627833
 20
10.810047
 30
0.0
 11
84.943833
 21
11.125047
 31
0.0
  0
LINE
  5
1c6
100
AcDbEntity
  8
Layer_1
 62
7
100
AcDbLine
 10
10.552833
 20
11.125047
 30
0.0
 11
10.755833
 21
11.522047
 31
0.0
  0
LINE
  5
1c7
100
AcDbEntity
  8
Layer_1
 62
7
100
AcDbLine
 10
10.755833
 20
11.522047
 30
0.0
 11
10.825833
 21
11.962047
 31
0.0
  0
LINE
  5
1c8
100
AcDbEntity
  8
Layer_1
 62
7
100
AcDbLine
 10
10.825833
 20
11.962047
 30
0.0
 11
10.755833
 21
12.403047
 31
0.0
  0
LINE
  5
1c9
100
AcDbEntity
  8
Layer_1
 62
7
100
AcDbLine
 10
10.755833
 20
12.403047
 30
0.0
 11
10.552833
 21
12.800047
 31
0.0
  0
LINE
  5
1ca
100
AcDbEntity
  8
Layer_1
 62
7
100
AcDbLine
 10
10.552833
 20
12.800047
 30
0.0
 11
10.237833
 21
13.115047
 31
0.0
  0
LINE
  5
1cb
100
AcDbEntity
  8
Layer_1
 62
7
100
AcDbLine
 10
10.237833
 20
13.115047
 30
0.0
 11
9.840833
 21
13.318047
 31
0.0
  0
LINE
  5
1cc
100
AcDbEntity
  8
Layer_1
 62
7
100
AcDbLine
 10
9.840833
 20
13.318047
 30
0.0
 11
9.400833
 21
13.387047
 31
0.0
  0
LINE
  5
1cd
100
AcDbEntity
  8
Layer_1
 62
7
100
AcDbLine
 10
9.400833
 20
13.387047
 30
0.0
 11
8.959833
 21
13.318047
 31
0.0
  0
LINE
  5
1ce
100
AcDbEntity
  8
Layer_1
 62
7
100
AcDbLine
 10
8.959833
 20
13.318047
 30
0.0
 11
8.562833
 21
13.115047
 31
0.0
  0
LINE
  5
1cf
100
AcDbEntity
  8
Layer_1
 62
7
100
AcDbLine
 10
8.562833
 20
13.115047
 30
0.0
 11
8.247833
 21
12.800047
 31
0.0
  0
LINE
  5
1d0
100
AcDbEntity
  8
Layer_1
 62
7
100
AcDbLine
 10
8.247833
 20
12.800047
 30
0.0
 11
8.044833
 21
12.403047
 31
0.0
  0
LINE
  5
1d1
100
AcDbEntity
  8
Layer_1
 62
7
100
AcDbLine
 10
8.044833
 20
12.403047
 30
0.0
 11
7.975833
 21
11.962047
 31
0.0
  0
LINE
  5
1d2
100
AcDbEntity
  8
Layer_1
 62
7
100
AcDbLine
 10
7.975833
 20
11.962047
 30
0.0
 11
8.044833
 21
11.522047
 31
0.0
  0
LINE
  5
1d3
100
AcDbEntity
  8
Layer_1
 62
7
100
AcDbLine
 10
8.044833
 20
11.522047
 30
0.0
 11
8.247833
 21
11.125047
 31
0.0
  0
LINE
  5
1d4
100
AcDbEntity
  8
Layer_1
 62
7
100
AcDbLine
 10
8.247833
 20
11.125047
 30
0.0
 11
8.562833
 21
10.810047
 31
0.0
  0
LINE
  5
1d5
100
AcDbEntity
  8
Layer_1
 62
7
100
AcDbLine
 10
8.562833
 20
10.810047
 30
0.0
 11
8.959833
 21
10.607047
 31
0.0
  0
LINE
  5
1d6
100
AcDbEntity
  8
Layer_1
 62
7
100
AcDbLine
 10
8.959833
 20
10.607047
 30
0.0
 11
9.400833
 21
10.538047
 31
0.0
  0
LINE
  5
1d7
100
AcDbEntity
  8
Layer_1
 62
7
100
AcDbLine
 10
9.400833
 20
10.538047
 30
0.0
 11
9.840833
 21
10.607047
 31
0.0
  0
LINE
  5
1d8
100
AcDbEntity
  8
Layer_1
 62
7
100
AcDbLine
 10
9.840833
 20
10.607047
 30
0.0
 11
10.237833
 21
10.810047
 31
0.0
  0
LINE
  5
1d9
100
AcDbEntity
  8
Layer_1
 62
7
100
AcDbLine
 10
10.237833
 20
10.810047
 30
0.0
 11
10.552833
 21
11.125047
 31
0.0
  0
LINE
  5
1da
100
AcDbEntity
  8
Layer_1
 62
7
100
AcDbLine
 10
382.503833
 20
73.275047
 30
0.0
 11
382.706833
 21
73.673047
 31
0.0
  0
LINE
  5
1db
100
AcDbEntity
  8
Layer_1
 62
7
100
AcDbLine
 10
382.706833
 20
73.673047
 30
0.0
 11
382.776833
 21
74.113047
 31
0.0
  0
LINE
  5
1dc
100
AcDbEntity
  8
Layer_1
 62
7
100
AcDbLine
 10
382.776833
 20
74.113047
 30
0.0
 11
382.706833
 21
74.553047
 31
0.0
  0
LINE
  5
1dd
100
AcDbEntity
  8
Layer_1
 62
7
100
AcDbLine
 10
382.706833
 20
74.553047
 30
0.0
 11
382.503833
 21
74.951047
 31
0.0
  0
LINE
  5
1de
100
AcDbEntity
  8
Layer_1
 62
7
100
AcDbLine
 10
382.503833
 20
74.951047
 30
0.0
 11
382.188833
 21
75.266047
 31
0.0
  0
LINE
  5
1df
100
AcDbEntity
  8
Layer_1
 62
7
100
AcDbLine
 10
382.188833
 20
75.266047
 30
0.0
 11
381.791833
 21
75.468047
 31
0.0
  0
LINE
  5
1e0
100
AcDbEntity
  8
Layer_1
 62
7
100
AcDbLine
 10
381.791833
 20
75.468047
 30
0.0
 11
381.351833
 21
75.538047
 31
0.0
  0
LINE
  5
1e1
100
AcDbEntity
  8
Layer_1
 62
7
100
AcDbLine
 10
381.351833
 20
75.538047
 30
0.0
 11
380.910833
 21
75.468047
 31
0.0
  0
LINE
  5
1e2
100
AcDbEntity
  8
Layer_1
 62
7
100
AcDbLine
 10
380.910833
 20
75.468047
 30
0.0
 11
380.513833
 21
75.266047
 31
0.0
  0
LINE
  5
1e3
100
AcDbEntity
  8
Layer_1
 62
7
100
AcDbLine
 10
380.513833
 20
75.266047
 30
0.0
 11
380.198833
 21
74.951047
 31
0.0
  0
LINE
  5
1e4
100
AcDbEntity
  8
Layer_1
 62
7
100
AcDbLine
 10
380.198833
 20
74.951047
 30
0.0
 11
379.995833
 21
74.553047
 31
0.0
  0
LINE
  5
1e5
100
AcDbEntity
  8
Layer_1
 62
7
100
AcDbLine
 10
379.995833
 20
74.553047
 30
0.0
 11
379.926833
 21
74.113047
 31
0.0
  0
LINE
  5
1e6
100
AcDbEntity
  8
Layer_1
 62
7
100
AcDbLine
 10
379.926833
 20
74.113047
 30
0.0
 11
379.995833
 21
73.673047
 31
0.0
  0
LINE
  5
1e7
100
AcDbEntity
  8
Layer_1
 62
7
100
AcDbLine
 10
379.995833
 20
73.673047
 30
0.0
 11
380.198833
 21
73.275047
 31
0.0
  0
LINE
  5
1e8
100
AcDbEntity
  8
Layer_1
 62
7
100
AcDbLine
 10
380.198833
 20
73.275047
 30
0.0
 11
380.513833
 21
72.960047
 31
0.0
  0
LINE
  5
1e9
100
AcDbEntity
  8
Layer_1
 62
7
100
AcDbLine
 10
380.513833
 20
72.960047
 30
0.0
 11
380.910833
 21
72.758047
 31
0.0
  0
LINE
  5
1ea
100
AcDbEntity
  8
Layer_1
 62
7
100
AcDbLine
 10
380.910833
 20
72.758047
 30
0.0
 11
381.351833
 21
72.688047
 31
0.0
  0
LINE
  5
1eb
100
AcDbEntity
  8
Layer_1
 62
7
100
AcDbLine
 10
381.351833
 20
72.688047
 30
0.0
 11
381.791833
 21
72.758047
 31
0.0
  0
LINE
  5
1ec
100
AcDbEntity
  8
Layer_1
 62
7
100
AcDbLine
 10
381.791833
 20
72.758047
 30
0.0
 11
382.188833
 21
72.960047
 31
0.0
  0
LINE
  5
1ed
100
AcDbEntity
  8
Layer_1
 62
7
100
AcDbLine
 10
382.188833
 20
72.960047
 30
0.0
 11
382.503833
 21
73.275047
 31
0.0
  0
LINE
  5
1ee
100
AcDbEntity
  8
Layer_1
 62
7
100
AcDbLine
 10
10.552833
 20
73.275047
 30
0.0
 11
10.755833
 21
73.673047
 31
0.0
  0
LINE
  5
1ef
100
AcDbEntity
  8
Layer_1
 62
7
100
AcDbLine
 10
10.755833
 20
73.673047
 30
0.0
 11
10.825833
 21
74.113047
 31
0.0
  0
LINE
  5
1f0
100
AcDbEntity
  8
Layer_1
 62
7
100
AcDbLine
 10
10.825833
 20
74.113047
 30
0.0
 11
10.755833
 21
74.553047
 31
0.0
  0
LINE
  5
1f1
100
AcDbEntity
  8
Layer_1
 62
7
100
AcDbLine
 10
10.755833
 20
74.553047
 30
0.0
 11
10.552833
 21
74.951047
 31
0.0
  0
LINE
  5
1f2
100
AcDbEntity
  8
Layer_1
 62
7
100
AcDbLine
 10
10.552833
 20
74.951047
 30
0.0
 11
10.237833
 21
75.266047
 31
0.0
  0
LINE
  5
1f3
100
AcDbEntity
  8
Layer_1
 62
7
100
AcDbLine
 10
10.237833
 20
75.266047
 30
0.0
 11
9.840833
 21
75.468047
 31
0.0
  0
LINE
  5
1f4
100
AcDbEntity
  8
Layer_1
 62
7
100
AcDbLine
 10
9.840833
 20
75.468047
 30
0.0
 11
9.400833
 21
75.538047
 31
0.0
  0
LINE
  5
1f5
100
AcDbEntity
  8
Layer_1
 62
7
100
AcDbLine
 10
9.400833
 20
75.538047
 30
0.0
 11
8.959833
 21
75.468047
 31
0.0
  0
LINE
  5
1f6
100
AcDbEntity
  8
Layer_1
 62
7
100
AcDbLine
 10
8.959833
 20
75.468047
 30
0.0
 11
8.562833
 21
75.266047
 31
0.0
  0
LINE
  5
1f7
100
AcDbEntity
  8
Layer_1
 62
7
100
AcDbLine
 10
8.562833
 20
75.266047
 30
0.0
 11
8.247833
 21
74.951047
 31
0.0
  0
LINE
  5
1f8
100
AcDbEntity
  8
Layer_1
 62
7
100
AcDbLine
 10
8.247833
 20
74.951047
 30
0.0
 11
8.044833
 21
74.553047
 31
0.0
  0
LINE
  5
1f9
100
AcDbEntity
  8
Layer_1
 62
7
100
AcDbLine
 10
8.044833
 20
74.553047
 30
0.0
 11
7.975833
 21
74.113047
 31
0.0
  0
LINE
  5
1fa
100
AcDbEntity
  8
Layer_1
 62
7
100
AcDbLine
 10
7.975833
 20
74.113047
 30
0.0
 11
8.044833
 21
73.673047
 31
0.0
  0
LINE
  5
1fb
100
AcDbEntity
  8
Layer_1
 62
7
100
AcDbLine
 10
8.044833
 20
73.673047
 30
0.0
 11
8.247833
 21
73.275047
 31
0.0
  0
LINE
  5
1fc
100
AcDbEntity
  8
Layer_1
 62
7
100
AcDbLine
 10
8.247833
 20
73.275047
 30
0.0
 11
8.562833
 21
72.960047
 31
0.0
  0
LINE
  5
1fd
100
AcDbEntity
  8
Layer_1
 62
7
100
AcDbLine
 10
8.562833
 20
72.960047
 30
0.0
 11
8.959833
 21
72.758047
 31
0.0
  0
LINE
  5
1fe
100
AcDbEntity
  8
Layer_1
 62
7
100
AcDbLine
 10
8.959833
 20
72.758047
 30
0.0
 11
9.400833
 21
72.688047
 31
0.0
  0
LINE
  5
1ff
100
AcDbEntity
  8
Layer_1
 62
7
100
AcDbLine
 10
9.400833
 20
72.688047
 30
0.0
 11
9.840833
 21
72.758047
 31
0.0
  0
LINE
  5
200
100
AcDbEntity
  8
Layer_1
 62
7
100
AcDbLine
 10
9.840833
 20
72.758047
 30
0.0
 11
10.237833
 21
72.960047
 31
0.0
  0
LINE
  5
201
100
AcDbEntity
  8
Layer_1
 62
7
100
AcDbLine
 10
10.237833
 20
72.960047
 30
0.0
 11
10.552833
 21
73.275047
 31
0.0
  0
LINE
  5
202
100
AcDbEntity
  8
Layer_1
 62
7
100
AcDbLine
 10
84.943833
 20
135.426047
 30
0.0
 11
85.145833
 21
135.823047
 31
0.0
  0
LINE
  5
203
100
AcDbEntity
  8
Layer_1
 62
7
100
AcDbLine
 10
85.145833
 20
135.823047
 30
0.0
 11
85.215833
 21
136.263047
 31
0.0
  0
LINE
  5
204
100
AcDbEntity
  8
Layer_1
 62
7
100
AcDbLine
 10
85.215833
 20
136.263047
 30
0.0
 11
85.145833
 21
136.704047
 31
0.0
  0
LINE
  5
205
100
AcDbEntity
  8
Layer_1
 62
7
100
AcDbLine
 10
85.145833
 20
136.704047
 30
0.0
 11
84.943833
 21
137.101047
 31
0.0
  0
LINE
  5
206
100
AcDbEntity
  8
Layer_1
 62
7
100
AcDbLine
 10
84.943833
 20
137.101047
 30
0.0
 11
84.627833
 21
137.416047
 31
0.0
  0
LINE
  5
207
100
AcDbEntity
  8
Layer_1
 62
7
100
AcDbLine
 10
84.627833
 20
137.416047
 30
0.0
 11
84.230833
 21
137.619047
 31
0.0
  0
LINE
  5
208
100
AcDbEntity
  8
Layer_1
 62
7
100
AcDbLine
 10
84.230833
 20
137.619047
 30
0.0
 11
83.790833
 21
137.688047
 31
0.0
  0
LINE
  5
209
100
AcDbEntity
  8
Layer_1
 62
7
100
AcDbLine
 10
83.790833
 20
137.688047
 30
0.0
 11
83.349833
 21
137.619047
 31
0.0
  0
LINE
  5
20a
100
AcDbEntity
  8
Layer_1
 62
7
100
AcDbLine
 10
83.349833
 20
137.619047
 30
0.0
 11
82.952833
 21
137.416047
 31
0.0
  0
LINE
  5
20b
100
AcDbEntity
  8
Layer_1
 62
7
100
AcDbLine
 10
82.952833
 20
137.416047
 30
0.0
 11
82.637833
 21
137.101047
 31
0.0
  0
LINE
  5
20c
100
AcDbEntity
  8
Layer_1
 62
7
100
AcDbLine
 10
82.637833
 20
137.101047
 30
0.0
 11
82.434833
 21
136.704047
 31
0.0
  0
LINE
  5
20d
100
AcDbEntity
  8
Layer_1
 62
7
100
AcDbLine
 10
82.434833
 20
136.704047
 30
0.0
 11
82.365833
 21
136.263047
 31
0.0
  0
LINE
  5
20e
100
AcDbEntity
  8
Layer_1
 62
7
100
AcDbLine
 10
82.365833
 20
136.263047
 30
0.0
 11
82.434833
 21
135.823047
 31
0.0
  0
LINE
  5
20f
100
AcDbEntity
  8
Layer_1
 62
7
100
AcDbLine
 10
82.434833
 20
135.823047
 30
0.0
 11
82.637833
 21
135.426047
 31
0.0
  0
LINE
  5
210
100
AcDbEntity
  8
Layer_1
 62
7
100
AcDbLine
 10
82.637833
 20
135.426047
 30
0.0
 11
82.952833
 21
135.111047
 31
0.0
  0
LINE
  5
211
100
AcDbEntity
  8
Layer_1
 62
7
100
AcDbLine
 10
82.952833
 20
135.111047
 30
0.0
 11
83.349833
 21
134.908047
 31
0.0
  0
LINE
  5
212
100
AcDbEntity
  8
Layer_1
 62
7
100
AcDbLine
 10
83.349833
 20
134.908047
 30
0.0
 11
83.790833
 21
134.838047
 31
0.0
  0
LINE
  5
213
100
AcDbEntity
  8
Layer_1
 62
7
100
AcDbLine
 10
83.790833
 20
134.838047
 30
0.0
 11
84.230833
 21
134.908047
 31
0.0
  0
LINE
  5
214
100
AcDbEntity
  8
Layer_1
 62
7
100
AcDbLine
 10
84.230833
 20
134.908047
 30
0.0
 11
84.627833
 21
135.111047
 31
0.0
  0
LINE
  5
215
100
AcDbEntity
  8
Layer_1
 62
7
100
AcDbLine
 10
84.627833
 20
135.111047
 30
0.0
 11
84.943833
 21
135.426047
 31
0.0
  0
LINE
  5
216
100
AcDbEntity
  8
Layer_1
 62
7
100
AcDbLine
 10
159.333833
 20
135.426047
 30
0.0
 11
159.535833
 21
135.823047
 31
0.0
  0
LINE
  5
217
100
AcDbEntity
  8
Layer_1
 62
7
100
AcDbLine
 10
159.535833
 20
135.823047
 30
0.0
 11
159.605833
 21
136.263047
 31
0.0
  0
LINE
  5
218
100
AcDbEntity
  8
Layer_1
 62
7
100
AcDbLine
 10
159.605833
 20
136.263047
 30
0.0
 11
159.535833
 21
136.704047
 31
0.0
  0
LINE
  5
219
100
AcDbEntity
  8
Layer_1
 62
7
100
AcDbLine
 10
159.535833
 20
136.704047
 30
0.0
 11
159.333833
 21
137.101047
 31
0.0
  0
LINE
  5
21a
100
AcDbEntity
  8
Layer_1
 62
7
100
AcDbLine
 10
159.333833
 20
137.101047
 30
0.0
 11
159.017833
 21
137.416047
 31
0.0
  0
LINE
  5
21b
100
AcDbEntity
  8
Layer_1
 62
7
100
AcDbLine
 10
159.017833
 20
137.416047
 30
0.0
 11
158.620833
 21
137.619047
 31
0.0
  0
LINE
  5
21c
100
AcDbEntity
  8
Layer_1
 62
7
100
AcDbLine
 10
158.620833
 20
137.619047
 30
0.0
 11
158.180833
 21
137.688047
 31
0.0
  0
LINE
  5
21d
100
AcDbEntity
  8
Layer_1
 62
7
100
AcDbLine
 10
158.180833
 20
137.688047
 30
0.0
 11
157.740833
 21
137.619047
 31
0.0
  0
LINE
  5
21e
100
AcDbEntity
  8
Layer_1
 62
7
100
AcDbLine
 10
157.740833
 20
137.619047
 30
0.0
 11
157.342833
 21
137.416047
 31
0.0
  0
LINE
  5
21f
100
AcDbEntity
  8
Layer_1
 62
7
100
AcDbLine
 10
157.342833
 20
137.416047
 30
0.0
 11
157.027833
 21
137.101047
 31
0.0
  0
LINE
  5
220
100
AcDbEntity
  8
Layer_1
 62
7
100
AcDbLine
 10
157.027833
 20
137.101047
 30
0.0
 11
156.825833
 21
136.704047
 31
0.0
  0
LINE
  5
221
100
AcDbEntity
  8
Layer_1
 62
7
100
AcDbLine
 10
156.825833
 20
136.704047
 30
0.0
 11
156.755833
 21
136.263047
 31
0.0
  0
LINE
  5
222
100
AcDbEntity
  8
Layer_1
 62
7
100
AcDbLine
 10
156.755833
 20
136.263047
 30
0.0
 11
156.825833
 21
135.823047
 31
0.0
  0
LINE
  5
223
100
AcDbEntity
  8
Layer_1
 62
7
100
AcDbLine
 10
156.825833
 20
135.823047
 30
0.0
 11
157.027833
 21
135.426047
 31
0.0
  0
LINE
  5
224
100
AcDbEntity
  8
Layer_1
 62
7
100
AcDbLine
 10
157.027833
 20
135.426047
 30
0.0
 11
157.342833
 21
135.111047
 31
0.0
  0
LINE
  5
225
100
AcDbEntity
  8
Layer_1
 62
7
100
AcDbLine
 10
157.342833
 20
135.111047
 30
0.0
 11
157.740833
 21
134.908047
 31
0.0
  0
LINE
  5
226
100
AcDbEntity
  8
Layer_1
 62
7
100
AcDbLine
 10
157.740833
 20
134.908047
 30
0.0
 11
158.180833
 21
134.838047
 31
0.0
  0
LINE
  5
227
100
AcDbEntity
  8
Layer_1
 62
7
100
AcDbLine
 10
158.180833
 20
134.838047
 30
0.0
 11
158.620833
 21
134.908047
 31
0.0
  0
LINE
  5
228
100
AcDbEntity
  8
Layer_1
 62
7
100
AcDbLine
 10
158.620833
 20
134.908047
 30
0.0
 11
159.017833
 21
135.111047
 31
0.0
  0
LINE
  5
229
100
AcDbEntity
  8
Layer_1
 62
7
100
AcDbLine
 10
159.017833
 20
135.111047
 30
0.0
 11
159.333833
 21
135.426047
 31
0.0
  0
LINE
  5
22a
100
AcDbEntity
  8
Layer_1
 62
7
100
AcDbLine
 10
233.723833
 20
135.426047
 30
0.0
 11
233.925833
 21
135.823047
 31
0.0
  0
LINE
  5
22b
100
AcDbEntity
  8
Layer_1
 62
7
100
AcDbLine
 10
233.925833
 20
135.823047
 30
0.0
 11
233.995833
 21
136.263047
 31
0.0
  0
LINE
  5
22c
100
AcDbEntity
  8
Layer_1
 62
7
100
AcDbLine
 10
233.995833
 20
136.263047
 30
0.0
 11
233.925833
 21
136.704047
 31
0.0
  0
LINE
  5
22d
100
AcDbEntity
  8
Layer_1
 62
7
100
AcDbLine
 10
233.925833
 20
136.704047
 30
0.0
 11
233.723833
 21
137.101047
 31
0.0
  0
LINE
  5
22e
100
AcDbEntity
  8
Layer_1
 62
7
100
AcDbLine
 10
233.723833
 20
137.101047
 30
0.0
 11
233.408833
 21
137.416047
 31
0.0
  0
LINE
  5
22f
100
AcDbEntity
  8
Layer_1
 62
7
100
AcDbLine
 10
233.408833
 20
137.416047
 30
0.0
 11
233.010833
 21
137.619047
 31
0.0
  0
LINE
  5
230
100
AcDbEntity
  8
Layer_1
 62
7
100
AcDbLine
 10
233.010833
 20
137.619047
 30
0.0
 11
232.570833
 21
137.688047
 31
0.0
  0
LINE
  5
231
100
AcDbEntity
  8
Layer_1
 62
7
100
AcDbLine
 10
232.570833
 20
137.688047
 30
0.0
 11
232.130833
 21
137.619047
 31
0.0
  0
LINE
  5
232
100
AcDbEntity
  8
Layer_1
 62
7
100
AcDbLine
 10
232.130833
 20
137.619047
 30
0.0
 11
231.733833
 21
137.416047
 31
0.0
  0
LINE
  5
233
100
AcDbEntity
  8
Layer_1
 62
7
100
AcDbLine
 10
231.733833
 20
137.416047
 30
0.0
 11
231.417833
 21
137.101047
 31
0.0
  0
LINE
  5
234
100
AcDbEntity
  8
Layer_1
 62
7
100
AcDbLine
 10
231.417833
 20
137.101047
 30
0.0
 11
231.215833
 21
136.704047
 31
0.0
  0
LINE
  5
235
100
AcDbEntity
  8
Layer_1
 62
7
100
AcDbLine
 10
231.215833
 20
136.704047
 30
0.0
 11
231.145833
 21
136.263047
 31
0.0
  0
LINE
  5
236
100
AcDbEntity
  8
Layer_1
 62
7
100
AcDbLine
 10
231.145833
 20
136.263047
 30
0.0
 11
231.215833
 21
135.823047
 31
0.0
  0
LINE
  5
237
100
AcDbEntity
  8
Layer_1
 62
7
100
AcDbLine
 10
231.215833
 20
135.823047
 30
0.0
 11
231.417833
 21
135.426047
 31
0.0
  0
LINE
  5
238
100
AcDbEntity
  8
Layer_1
 62
7
100
AcDbLine
 10
231.417833
 20
135.426047
 30
0.0
 11
231.733833
 21
135.111047
 31
0.0
  0
LINE
  5
239
100
AcDbEntity
  8
Layer_1
 62
7
100
AcDbLine
 10
231.733833
 20
135.111047
 30
0.0
 11
232.130833
 21
134.908047
 31
0.0
  0
LINE
  5
23a
100
AcDbEntity
  8
Layer_1
 62
7
100
AcDbLine
 10
232.130833
 20
134.908047
 30
0.0
 11
232.570833
 21
134.838047
 31
0.0
  0
LINE
  5
23b
100
AcDbEntity
  8
Layer_1
 62
7
100
AcDbLine
 10
232.570833
 20
134.838047
 30
0.0
 11
233.010833
 21
134.908047
 31
0.0
  0
LINE
  5
23c
100
AcDbEntity
  8
Layer_1
 62
7
100
AcDbLine
 10
233.010833
 20
134.908047
 30
0.0
 11
233.408833
 21
135.111047
 31
0.0
  0
LINE
  5
23d
100
AcDbEntity
  8
Layer_1
 62
7
100
AcDbLine
 10
233.408833
 20
135.111047
 30
0.0
 11
233.723833
 21
135.426047
 31
0.0
  0
LINE
  5
23e
100
AcDbEntity
  8
Layer_1
 62
7
100
AcDbLine
 10
308.113833
 20
135.426047
 30
0.0
 11
308.316833
 21
135.823047
 31
0.0
  0
LINE
  5
23f
100
AcDbEntity
  8
Layer_1
 62
7
100
AcDbLine
 10
308.316833
 20
135.823047
 30
0.0
 11
308.385833
 21
136.263047
 31
0.0
  0
LINE
  5
240
100
AcDbEntity
  8
Layer_1
 62
7
100
AcDbLine
 10
308.385833
 20
136.263047
 30
0.0
 11
308.316833
 21
136.704047
 31
0.0
  0
LINE
  5
241
100
AcDbEntity
  8
Layer_1
 62
7
100
AcDbLine
 10
308.316833
 20
136.704047
 30
0.0
 11
308.113833
 21
137.101047
 31
0.0
  0
LINE
  5
242
100
AcDbEntity
  8
Layer_1
 62
7
100
AcDbLine
 10
308.113833
 20
137.101047
 30
0.0
 11
307.798833
 21
137.416047
 31
0.0
  0
LINE
  5
243
100
AcDbEntity
  8
Layer_1
 62
7
100
AcDbLine
 10
307.798833
 20
137.416047
 30
0.0
 11
307.401833
 21
137.619047
 31
0.0
  0
LINE
  5
244
100
AcDbEntity
  8
Layer_1
 62
7
100
AcDbLine
 10
307.401833
 20
137.619047
 30
0.0
 11
306.960833
 21
137.688047
 31
0.0
  0
LINE
  5
245
100
AcDbEntity
  8
Layer_1
 62
7
100
AcDbLine
 10
306.960833
 20
137.688047
 30
0.0
 11
306.520833
 21
137.619047
 31
0.0
  0
LINE
  5
246
100
AcDbEntity
  8
Layer_1
 62
7
100
AcDbLine
 10
306.520833
 20
137.619047
 30
0.0
 11
306.123833
 21
137.416047
 31
0.0
  0
LINE
  5
247
100
AcDbEntity
  8
Layer_1
 62
7
100
AcDbLine
 10
306.123833
 20
137.416047
 30
0.0
 11
305.807833
 21
137.101047
 31
0.0
  0
LINE
  5
248
100
AcDbEntity
  8
Layer_1
 62
7
100
AcDbLine
 10
305.807833
 20
137.101047
 30
0.0
 11
305.605833
 21
136.704047
 31
0.0
  0
LINE
  5
249
100
AcDbEntity
  8
Layer_1
 62
7
100
AcDbLine
 10
305.605833
 20
136.704047
 30
0.0
 11
305.535833
 21
136.263047
 31
0.0
  0
LINE
  5
24a
100
AcDbEntity
  8
Layer_1
 62
7
100
AcDbLine
 10
305.535833
 20
136.263047
 30
0.0
 11
305.605833
 21
135.823047
 31
0.0
  0
LINE
  5
24b
100
AcDbEntity
  8
Layer_1
 62
7
100
AcDbLine
 10
305.605833
 20
135.823047
 30
0.0
 11
305.807833
 21
135.426047
 31
0.0
  0
LINE
  5
24c
100
AcDbEntity
  8
Layer_1
 62
7
100
AcDbLine
 10
305.807833
 20
135.426047
 30
0.0
 11
306.123833
 21
135.111047
 31
0.0
  0
LINE
  5
24d
100
AcDbEntity
  8
Layer_1
 62
7
100
AcDbLine
 10
306.123833
 20
135.111047
 30
0.0
 11
306.520833
 21
134.908047
 31
0.0
  0
LINE
  5
24e
100
AcDbEntity
  8
Layer_1
 62
7
100
AcDbLine
 10
306.520833
 20
134.908047
 30
0.0
 11
306.960833
 21
134.838047
 31
0.0
  0
LINE
  5
24f
100
AcDbEntity
  8
Layer_1
 62
7
100
AcDbLine
 10
306.960833
 20
134.838047
 30
0.0
 11
307.401833
 21
134.908047
 31
0.0
  0
LINE
  5
250
100
AcDbEntity
  8
Layer_1
 62
7
100
AcDbLine
 10
307.401833
 20
134.908047
 30
0.0
 11
307.798833
 21
135.111047
 31
0.0
  0
LINE
  5
251
100
AcDbEntity
  8
Layer_1
 62
7
100
AcDbLine
 10
307.798833
 20
135.111047
 30
0.0
 11
308.113833
 21
135.426047
 31
0.0
  0
LINE
  5
252
100
AcDbEntity
  8
Layer_1
 62
7
100
AcDbLine
 10
382.503833
 20
135.426047
 30
0.0
 11
382.706833
 21
135.823047
 31
0.0
  0
LINE
  5
253
100
AcDbEntity
  8
Layer_1
 62
7
100
AcDbLine
 10
382.706833
 20
135.823047
 30
0.0
 11
382.776833
 21
136.263047
 31
0.0
  0
LINE
  5
254
100
AcDbEntity
  8
Layer_1
 62
7
100
AcDbLine
 10
382.776833
 20
136.263047
 30
0.0
 11
382.706833
 21
136.704047
 31
0.0
  0
LINE
  5
255
100
AcDbEntity
  8
Layer_1
 62
7
100
AcDbLine
 10
382.706833
 20
136.704047
 30
0.0
 11
382.503833
 21
137.101047
 31
0.0
  0
LINE
  5
256
100
AcDbEntity
  8
Layer_1
 62
7
100
AcDbLine
 10
382.503833
 20
137.101047
 30
0.0
 11
382.188833
 21
137.416047
 31
0.0
  0
LINE
  5
257
100
AcDbEntity
  8
Layer_1
 62
7
100
AcDbLine
 10
382.188833
 20
137.416047
 30
0.0
 11
381.791833
 21
137.619047
 31
0.0
  0
LINE
  5
258
100
AcDbEntity
  8
Layer_1
 62
7
100
AcDbLine
 10
381.791833
 20
137.619047
 30
0.0
 11
381.351833
 21
137.688047
 31
0.0
  0
LINE
  5
259
100
AcDbEntity
  8
Layer_1
 62
7
100
AcDbLine
 10
381.351833
 20
137.688047
 30
0.0
 11
380.910833
 21
137.619047
 31
0.0
  0
LINE
  5
25a
100
AcDbEntity
  8
Layer_1
 62
7
100
AcDbLine
 10
380.910833
 20
137.619047
 30
0.0
 11
380.513833
 21
137.416047
 31
0.0
  0
LINE
  5
25b
100
AcDbEntity
  8
Layer_1
 62
7
100
AcDbLine
 10
380.513833
 20
137.416047
 30
0.0
 11
380.198833
 21
137.101047
 31
0.0
  0
LINE
  5
25c
100
AcDbEntity
  8
Layer_1
 62
7
100
AcDbLine
 10
380.198833
 20
137.101047
 30
0.0
 11
379.995833
 21
136.704047
 31
0.0
  0
LINE
  5
25d
100
AcDbEntity
  8
Layer_1
 62
7
100
AcDbLine
 10
379.995833
 20
136.704047
 30
0.0
 11
379.926833
 21
136.263047
 31
0.0
  0
LINE
  5
25e
100
AcDbEntity
  8
Layer_1
 62
7
100
AcDbLine
 10
379.926833
 20
136.263047
 30
0.0
 11
379.995833
 21
135.823047
 31
0.0
  0
LINE
  5
25f
100
AcDbEntity
  8
Layer_1
 62
7
100
AcDbLine
 10
379.995833
 20
135.823047
 30
0.0
 11
380.198833
 21
135.426047
 31
0.0
  0
LINE
  5
260
100
AcDbEntity
  8
Layer_1
 62
7
100
AcDbLine
 10
380.198833
 20
135.426047
 30
0.0
 11
380.513833
 21
135.111047
 31
0.0
  0
LINE
  5
261
100
AcDbEntity
  8
Layer_1
 62
7
100
AcDbLine
 10
380.513833
 20
135.111047
 30
0.0
 11
380.910833
 21
134.908047
 31
0.0
  0
LINE
  5
262
100
AcDbEntity
  8
Layer_1
 62
7
100
AcDbLine
 10
380.910833
 20
134.908047
 30
0.0
 11
381.351833
 21
134.838047
 31
0.0
  0
LINE
  5
263
100
AcDbEntity
  8
Layer_1
 62
7
100
AcDbLine
 10
381.351833
 20
134.838047
 30
0.0
 11
381.791833
 21
134.908047
 31
0.0
  0
LINE
  5
264
100
AcDbEntity
  8
Layer_1
 62
7
100
AcDbLine
 10
381.791833
 20
134.908047
 30
0.0
 11
382.188833
 21
135.111047
 31
0.0
  0
LINE
  5
265
100
AcDbEntity
  8
Layer_1
 62
7
100
AcDbLine
 10
382.188833
 20
135.111047
 30
0.0
 11
382.503833
 21
135.426047
 31
0.0
  0
LINE
  5
266
100
AcDbEntity
  8
Layer_1
 62
7
100
AcDbLine
 10
10.552833
 20
135.426047
 30
0.0
 11
10.755833
 21
135.823047
 31
0.0
  0
LINE
  5
267
100
AcDbEntity
  8
Layer_1
 62
7
100
AcDbLine
 10
10.755833
 20
135.823047
 30
0.0
 11
10.825833
 21
136.263047
 31
0.0
  0
LINE
  5
268
100
AcDbEntity
  8
Layer_1
 62
7
100
AcDbLine
 10
10.825833
 20
136.263047
 30
0.0
 11
10.755833
 21
136.704047
 31
0.0
  0
LINE
  5
269
100
AcDbEntity
  8
Layer_1
 62
7
100
AcDbLine
 10
10.755833
 20
136.704047
 30
0.0
 11
10.552833
 21
137.101047
 31
0.0
  0
LINE
  5
26a
100
AcDbEntity
  8
Layer_1
 62
7
100
AcDbLine
 10
10.552833
 20
137.101047
 30
0.0
 11
10.237833
 21
137.416047
 31
0.0
  0
LINE
  5
26b
100
AcDbEntity
  8
Layer_1
 62
7
100
AcDbLine
 10
10.237833
 20
137.416047
 30
0.0
 11
9.840833
 21
137.619047
 31
0.0
  0
LINE
  5
26c
100
AcDbEntity
  8
Layer_1
 62
7
100
AcDbLine
 10
9.840833
 20
137.619047
 30
0.0
 11
9.400833
 21
137.688047
 31
0.0
  0
LINE
  5
26d
100
AcDbEntity
  8
Layer_1
 62
7
100
AcDbLine
 10
9.400833
 20
137.688047
 30
0.0
 11
8.959833
 21
137.619047
 31
0.0
  0
LINE
  5
26e
100
AcDbEntity
  8
Layer_1
 62
7
100
AcDbLine
 10
8.959833
 20
137.619047
 30
0.0
 11
8.562833
 21
137.416047
 31
0.0
  0
LINE
  5
26f
100
AcDbEntity
  8
Layer_1
 62
7
100
AcDbLine
 10
8.562833
 20
137.416047
 30
0.0
 11
8.247833
 21
137.101047
 31
0.0
  0
LINE
  5
270
100
AcDbEntity
  8
Layer_1
 62
7
100
AcDbLine
 10
8.247833
 20
137.101047
 30
0.0
 11
8.044833
 21
136.704047
 31
0.0
  0
LINE
  5
271
100
AcDbEntity
  8
Layer_1
 62
7
100
AcDbLine
 10
8.044833
 20
136.704047
 30
0.0
 11
7.975833
 21
136.263047
 31
0.0
  0
LINE
  5
272
100
AcDbEntity
  8
Layer_1
 62
7
100
AcDbLine
 10
7.975833
 20
136.263047
 30
0.0
 11
8.044833
 21
135.823047
 31
0.0
  0
LINE
  5
273
100
AcDbEntity
  8
Layer_1
 62
7
100
AcDbLine
 10
8.044833
 20
135.823047
 30
0.0
 11
8.247833
 21
135.426047
 31
0.0
  0
LINE
  5
274
100
AcDbEntity
  8
Layer_1
 62
7
100
AcDbLine
 10
8.247833
 20
135.426047
 30
0.0
 11
8.562833
 21
135.111047
 31
0.0
  0
LINE
  5
275
100
AcDbEntity
  8
Layer_1
 62
7
100
AcDbLine
 10
8.562833
 20
135.111047
 30
0.0
 11
8.959833
 21
134.908047
 31
0.0
  0
LINE
  5
276
100
AcDbEntity
  8
Layer_1
 62
7
100
AcDbLine
 10
8.959833
 20
134.908047
 30
0.0
 11
9.400833
 21
134.838047
 31
0.0
  0
LINE
  5
277
100
AcDbEntity
  8
Layer_1
 62
7
100
AcDbLine
 10
9.400833
 20
134.838047
 30
0.0
 11
9.840833
 21
134.908047
 31
0.0
  0
LINE
  5
278
100
AcDbEntity
  8
Layer_1
 62
7
100
AcDbLine
 10
9.840833
 20
134.908047
 30
0.0
 11
10.237833
 21
135.111047
 31
0.0
  0
LINE
  5
279
100
AcDbEntity
  8
Layer_1
 62
7
100
AcDbLine
 10
10.237833
 20
135.111047
 30
0.0
 11
10.552833
 21
135.426047
 31
0.0
  0
SPLINE
  5
27a
100
AcDbEntity
  8
Layer_1
 62
1
100
AcDbSpline
 70
8
 71
3
 72
8
 73
4
 74
0
 40
0
 40
0
 40
0
 40
0
 40
1
 40
1
 40
1
 40
1
 10
53.398158
 20
113.851520
 30
0.0
 10
53.398158
 20
112.759628
 30
0.0
 10
52.513005
 20
111.874474
 30
0.0
 10
51.421112
 20
111.874474
 30
0.0
  0
SPLINE
  5
27b
100
AcDbEntity
  8
Layer_1
 62
1
100
AcDbSpline
 70
8
 71
3
 72
8
 73
4
 74
0
 40
0
 40
0
 40
0
 40
0
 40
1
 40
1
 40
1
 40
1
 10
51.421112
 20
111.874474
 30
0.0
 10
50.329220
 20
111.874474
 30
0.0
 10
49.444066
 20
112.759628
 30
0.0
 10
49.444066
 20
113.851520
 30
0.0
  0
SPLINE
  5
27c
100
AcDbEntity
  8
Layer_1
 62
1
100
AcDbSpline
 70
8
 71
3
 72
8
 73
4
 74
0
 40
0
 40
0
 40
0
 40
0
 40
1
 40
1
 40
1
 40
1
 10
49.444066
 20
113.851520
 30
0.0
 10
49.444066
 20
114.943413
 30
0.0
 10
50.329220
 20
115.828567
 30
0.0
 10
51.421112
 20
115.828567
 30
0.0
  0
SPLINE
  5
27d
100
AcDbEntity
  8
Layer_1
 62
1
100
AcDbSpline
 70
8
 71
3
 72
8
 73
4
 74
0
 40
0
 40
0
 40
0
 40
0
 40
1
 40
1
 40
1
 40
1
 10
51.421112
 20
115.828567
 30
0.0
 10
52.513005
 20
115.828567
 30
0.0
 10
53.398158
 20
114.943413
 30
0.0
 10
53.398158
 20
113.851520
 30
0.0
  0
LINE
  5
27e
100
AcDbEntity
  8
Layer_1
 62
1
100
AcDbLine
 10
53.398158
 20
113.851520
 30
0.0
 11
53.398158
 21
113.851520
 31
0.0
  0
SPLINE
  5
27f
100
AcDbEntity
  8
Layer_1
 62
1
100
AcDbSpline
 70
8
 71
3
 72
8
 73
4
 74
0
 40
0
 40
0
 40
0
 40
0
 40
1
 40
1
 40
1
 40
1
 10
338.803840
 20
113.851520
 30
0.0
 10
338.803840
 20
112.759628
 30
0.0
 10
339.689000
 20
111.874474
 30
0.0
 10
340.780890
 20
111.874474
 30
0.0
  0
SPLINE
  5
280
100
AcDbEntity
  8
Layer_1
 62
1
100
AcDbSpline
 70
8
 71
3
 72
8
 73
4
 74
0
 40
0
 40
0
 40
0
 40
0
 40
1
 40
1
 40
1
 40
1
 10
340.780890
 20
111.874474
 30
0.0
 10
341.872780
 20
111.874474
 30
0.0
 10
342.757940
 20
112.759628
 30
0.0
 10
342.757940
 20
113.851520
 30
0.0
  0
SPLINE
  5
281
100
AcDbEntity
  8
Layer_1
 62
1
100
AcDbSpline
 70
8
 71
3
 72
8
 73
4
 74
0
 40
0
 40
0
 40
0
 40
0
 40
1
 40
1
 40
1
 40
1
 10
342.757940
 20
113.851520
 30
0.0
 10
342.757940
 20
114.943413
 30
0.0
 10
341.872780
 20
115.828567
 30
0.0
 10
340.780890
 20
115.828567
 30
0.0
  0
SPLINE
  5
282
100
AcDbEntity
  8
Layer_1
 62
1
100
AcDbSpline
 70
8
 71
3
 72
8
 73
4
 74
0
 40
0
 40
0
 40
0
 40
0
 40
1
 40
1
 40
1
 40
1
 10
340.780890
 20
115.828567
 30
0.0
 10
339.689000
 20
115.828567
 30
0.0
 10
338.803840
 20
114.943413
 30
0.0
 10
338.803840
 20
113.851520
 30
0.0
  0
LINE
  5
283
100
AcDbEntity
  8
Layer_1
 62
1
100
AcDbLine
 10
338.803840
 20
113.851520
 30
0.0
 11
338.803840
 21
113.851520
 31
0.0
  0
ENDSEC
  0
SECTION
  2
OBJECTS
  0
DICTIONARY
  5
C
330
0
100
AcDbDictionary
  3
ACAD_GROUP
350
D
  3
ACAD_MLINESTYLE
350
17
  0
DICTIONARY
  5
D
330
C
100
AcDbDictionary
  0
DICTIONARY
  5
1A
330
C
100
AcDbDictionary
  0
DICTIONARY
  5
17
330
C
100
AcDbDictionary
  3
STANDARD
350
18
  0
DICTIONARY
  5
19
330
C
100
AcDbDictionary
  0
ENDSEC
  0
EOF
