<?xml version="1.0"?>
<!-- Generated by SVGo -->
<svg width="392.202mm" height="144.552mm"
     viewBox="0.000 0.000 392.202 144.552"
     xmlns="http://www.w3.org/2000/svg" 
     xmlns:xlink="http://www.w3.org/1999/xlink">
<polygon points="25.226,5.000 25.226,15.251 15.251,15.251 15.251,129.301 376.952,129.301 376.952,15.251 44.976,15.251 44.976,5.000 382.202,5.001 382.594,5.016 382.984,5.062 383.369,5.139 383.747,5.245 384.115,5.381 384.471,5.545 384.814,5.737 385.140,5.955 385.449,6.198 385.737,6.465 386.004,6.753 386.247,7.062 386.465,7.388 386.657,7.731 386.821,8.087 386.957,8.455 387.063,8.833 387.140,9.218 387.186,9.608 387.201,10.001 387.202,134.552 387.186,134.944 387.140,135.334 387.063,135.719 386.957,136.097 386.821,136.465 386.657,136.821 386.465,137.164 386.247,137.490 386.004,137.799 385.737,138.087 385.449,138.354 385.140,138.597 384.814,138.815 384.471,139.007 384.115,139.171 383.747,139.307 383.369,139.413 382.984,139.490 382.594,139.536 382.202,139.552 10.001,139.552 9.608,139.536 9.218,139.490 8.833,139.413 8.455,139.307 8.087,139.171 7.731,139.007 7.388,138.815 7.062,138.597 6.753,138.354 6.465,138.087 6.198,137.799 5.955,137.490 5.737,137.164 5.545,136.821 5.381,136.465 5.245,136.097 5.139,135.719 5.062,135.334 5.016,134.944 5.000,134.552 5.001,10.001 5.016,9.608 5.062,9.218 5.139,8.833 5.245,8.455 5.381,8.087 5.545,7.731 5.737,7.388 5.955,7.062 6.198,6.753 6.465,6.465 6.753,6.198 7.062,5.955 7.388,5.737 7.731,5.545 8.087,5.381 8.455,5.245 8.833,5.139 9.218,5.062 9.608,5.016 10.001,5.000" style="fill:none;stroke-width:0.050000mm;stroke:black"/>
<polygon points="381.343,132.168 380.681,132.505 380.155,133.031 379.818,133.693 379.702,134.427 379.818,135.160 380.155,135.822 380.681,136.348 381.343,136.685 382.077,136.802 382.810,136.685 383.472,136.348 383.998,135.822 384.335,135.160 384.452,134.427 384.335,133.693 383.998,133.031 383.472,132.505 382.810,132.168 382.077,132.052" style="fill:none;stroke-width:0.050000mm;stroke:black"/>
<polygon points="306.952,132.168 306.290,132.505 305.765,133.031 305.428,133.693 305.311,134.427 305.428,135.160 305.765,135.822 306.290,136.348 306.952,136.685 307.686,136.802 308.420,136.685 309.082,136.348 309.608,135.822 309.945,135.160 310.061,134.427 309.945,133.693 309.608,133.031 309.082,132.505 308.420,132.168 307.686,132.052" style="fill:none;stroke-width:0.050000mm;stroke:black"/>
<polygon points="232.562,132.168 231.900,132.505 231.375,133.031 231.037,133.693 230.921,134.427 231.037,135.160 231.375,135.822 231.900,136.348 232.562,136.685 233.296,136.802 234.030,136.685 234.692,136.348 235.218,135.822 235.555,135.160 235.671,134.427 235.555,133.693 235.218,133.031 234.692,132.505 234.030,132.168 233.296,132.052" style="fill:none;stroke-width:0.050000mm;stroke:black"/>
<polygon points="158.172,132.168 157.510,132.505 156.984,133.031 156.647,133.693 156.531,134.427 156.647,135.160 156.984,135.822 157.510,136.348 158.172,136.685 158.906,136.802 159.640,136.685 160.302,136.348 160.827,135.822 161.165,135.160 161.281,134.427 161.165,133.693 160.827,133.031 160.302,132.505 159.640,132.168 158.906,132.052" style="fill:none;stroke-width:0.050000mm;stroke:black"/>
<polygon points="83.782,132.168 83.120,132.505 82.594,133.031 82.257,133.693 82.141,134.427 82.257,135.160 82.594,135.822 83.120,136.348 83.782,136.685 84.516,136.802 85.250,136.685 85.912,136.348 86.437,135.822 86.774,135.160 86.891,134.427 86.774,133.693 86.437,133.031 85.912,132.505 85.250,132.168 84.516,132.052" style="fill:none;stroke-width:0.050000mm;stroke:black"/>
<polygon points="9.392,132.168 8.730,132.505 8.204,133.031 7.867,133.693 7.751,134.427 7.867,135.160 8.204,135.822 8.730,136.348 9.392,136.685 10.126,136.802 10.859,136.685 11.521,136.348 12.047,135.822 12.384,135.160 12.501,134.427 12.384,133.693 12.047,133.031 11.521,132.505 10.859,132.168 10.126,132.052" style="fill:none;stroke-width:0.050000mm;stroke:black"/>
<polygon points="381.343,70.017 380.681,70.355 380.155,70.880 379.818,71.542 379.702,72.276 379.818,73.010 380.155,73.672 380.681,74.197 381.343,74.535 382.077,74.651 382.810,74.535 383.472,74.197 383.998,73.672 384.335,73.010 384.452,72.276 384.335,71.542 383.998,70.880 383.472,70.355 382.810,70.017 382.077,69.901" style="fill:none;stroke-width:0.050000mm;stroke:black"/>
<polygon points="9.392,70.017 8.730,70.355 8.204,70.880 7.867,71.542 7.751,72.276 7.867,73.010 8.204,73.672 8.730,74.197 9.392,74.535 10.126,74.651 10.859,74.535 11.521,74.197 12.047,73.672 12.384,73.010 12.501,72.276 12.384,71.542 12.047,70.880 11.521,70.355 10.859,70.017 10.126,69.901" style="fill:none;stroke-width:0.050000mm;stroke:black"/>
<polygon points="83.782,7.867 83.120,8.204 82.594,8.730 82.257,9.392 82.141,10.126 82.257,10.859 82.594,11.521 83.120,12.047 83.782,12.384 84.516,12.501 85.250,12.384 85.912,12.047 86.437,11.521 86.774,10.859 86.891,10.126 86.774,9.392 86.437,8.730 85.912,8.204 85.250,7.867 84.516,7.751" style="fill:none;stroke-width:0.050000mm;stroke:black"/>
<polygon points="158.172,7.867 157.510,8.204 156.984,8.730 156.647,9.392 156.531,10.126 156.647,10.859 156.984,11.521 157.510,12.047 158.172,12.384 158.906,12.501 159.640,12.384 160.302,12.047 160.827,11.521 161.165,10.859 161.281,10.126 161.165,9.392 160.827,8.730 160.302,8.204 159.640,7.867 158.906,7.751" style="fill:none;stroke-width:0.050000mm;stroke:black"/>
<polygon points="232.562,7.867 231.900,8.204 231.375,8.730 231.037,9.392 230.921,10.126 231.037,10.859 231.375,11.521 231.900,12.047 232.562,12.384 233.296,12.501 234.030,12.384 234.692,12.047 235.218,11.521 235.555,10.859 235.671,10.126 235.555,9.392 235.218,8.730 234.692,8.204 234.030,7.867 233.296,7.751" style="fill:none;stroke-width:0.050000mm;stroke:black"/>
<polygon points="306.952,7.867 306.290,8.204 305.765,8.730 305.428,9.392 305.311,10.126 305.428,10.859 305.765,11.521 306.290,12.047 306.952,12.384 307.686,12.501 308.420,12.384 309.082,12.047 309.608,11.521 309.945,10.859 310.061,10.126 309.945,9.392 309.608,8.730 309.082,8.204 308.420,7.867 307.686,7.751" style="fill:none;stroke-width:0.050000mm;stroke:black"/>
<polygon points="381.343,7.867 380.681,8.204 380.155,8.730 379.818,9.392 379.702,10.126 379.818,10.859 380.155,11.521 380.681,12.047 381.343,12.384 382.077,12.501 382.810,12.384 383.472,12.047 383.998,11.521 384.335,10.859 384.452,10.126 384.335,9.392 383.998,8.730 383.472,8.204 382.810,7.867 382.077,7.751" style="fill:none;stroke-width:0.050000mm;stroke:black"/>
<polygon points="9.392,7.867 8.730,8.204 8.204,8.730 7.867,9.392 7.751,10.126 7.867,10.859 8.204,11.521 8.730,12.047 9.392,12.384 10.126,12.501 10.859,12.384 11.521,12.047 12.047,11.521 12.384,10.859 12.501,10.126 12.384,9.392 12.047,8.730 11.521,8.204 10.859,7.867 10.126,7.751" style="fill:none;stroke-width:0.050000mm;stroke:black"/>
</svg>
