  0
SECTION
  2
HEADER
  9
$ACADVER
  1
AC1014
  9
$HANDSEED
  5
FFFF
  9
$MEASUREMENT
 70
     1
  0
ENDSEC
  0
SECTION
  2
TABLES
  0
TABLE
  2
VPORT
  5
8
330
0
100
AcDbSymbolTable
 70
     4
  0
VPORT
  5
2E
330
8
100
AcDbSymbolTableRecord
100
AcDbViewportTableRecord
  2
*ACTIVE
 70
     0
 10
0.0
 20
0.0
 11
1.0
 21
1.0
 12
210.0
 22
148.5
 13
0.0
 23
0.0
 14
10.0
 24
10.0
 15
10.0
 25
10.0
 16
0.0
 26
0.0
 36
1.0
 17
0.0
 27
0.0
 37
0.0
 40
341.0
 41
1.24
 42
50.0
 43
0.0
 44
0.0
 50
0.0
 51
0.0
 71
     0
 72
   100
 73
     1
 74
     3
 75
     0
 76
     0
 77
     0
 78
     0
  0
ENDTAB
  0
TABLE
  2
LTYPE
  5
5
330
0
100
AcDbSymbolTable
 70
     1
  0
LTYPE
  5
14
330
5
100
AcDbSymbolTableRecord
100
AcDbLinetypeTableRecord
  2
BYBLOCK
 70
     0
  3

 72
    65
 73
     0
 40
0.0
  0
LTYPE
  5
15
330
5
100
AcDbSymbolTableRecord
100
AcDbLinetypeTableRecord
  2
BYLAYER
 70
     0
  3

 72
    65
 73
     0
 40
0.0
  0
LTYPE
  5
16
330
5
100
AcDbSymbolTableRecord
100
AcDbLinetypeTableRecord
  2
CONTINUOUS
 70
     0
  3
Solid line
 72
    65
 73
     0
 40
0.0
  0
ENDTAB
  0
TABLE
  2
LAYER
  5
2
100
AcDbSymbolTable
 70
2
  0
LAYER
  5
50
100
AcDbSymbolTableRecord
100
AcDbLayerTableRecord
  2
0
 70
0
  6
CONTINUOUS
  0
LAYER
  5
51
100
AcDbSymbolTableRecord
100
AcDbLayerTableRecord
  2
Layer_1
 70
0
  6
CONTINUOUS
  0
ENDTAB
  0
TABLE
  2
STYLE
  5
3
330
0
100
AcDbSymbolTable
 70
     1
  0
STYLE
  5
11
330
3
100
AcDbSymbolTableRecord
100
AcDbTextStyleTableRecord
  2
STANDARD
 70
     0
 40
0.0
 41
1.0
 50
0.0
 71
     0
 42
2.5
  3
txt
  4

  0
ENDTAB
  0
TABLE
  2
VIEW
  5
6
330
0
100
AcDbSymbolTable
 70
     0
  0
ENDTAB
  0
TABLE
  2
UCS
  5
7
330
0
100
AcDbSymbolTable
 70
     0
  0
ENDTAB
  0
TABLE
  2
APPID
  5
9
330
0
100
AcDbSymbolTable
 70
     2
  0
APPID
  5
12
330
9
100
AcDbSymbolTableRecord
100
AcDbRegAppTableRecord
  2
ACAD
 70
     0
  0
ENDTAB
  0
TABLE
  2
DIMSTYLE
  5
A
330
0
100
AcDbSymbolTable
 70
     1
  0
DIMSTYLE
105
27
330
A
100
AcDbSymbolTableRecord
100
AcDbDimStyleTableRecord
  2
ISO-25
 70
     0
  3

  4

  5

  6

  7

 40
1.0
 41
2.5
 42
0.625
 43
3.75
 44
1.25
 45
0.0
 46
0.0
 47
0.0
 48
0.0
140
2.5
141
2.5
142
0.0
143
0.03937007874016
144
1.0
145
0.0
146
1.0
147
0.625
 71
     0
 72
     0
 73
     0
 74
     0
 75
     0
 76
     0
 77
     1
 78
     8
170
     0
171
     3
172
     1
173
     0
174
     0
175
     0
176
     0
177
     0
178
     0
270
     2
271
     2
272
     2
273
     2
274
     3
340
11
275
     0
280
     0
281
     0
282
     0
283
     0
284
     8
285
     0
286
     0
287
     3
288
     0
  0
ENDTAB
  0
TABLE
  2
BLOCK_RECORD
  5
1
330
0
100
AcDbSymbolTable
 70
     1
  0
BLOCK_RECORD
  5
1F
330
1
100
AcDbSymbolTableRecord
100
AcDbBlockTableRecord
  2
*MODEL_SPACE
  0
BLOCK_RECORD
  5
1B
330
1
100
AcDbSymbolTableRecord
100
AcDbBlockTableRecord
  2
*PAPER_SPACE
  0
ENDTAB
  0
ENDSEC
  0
SECTION
  2
BLOCKS
  0
BLOCK
  5
20
330
1F
100
AcDbEntity
  8
0
100
AcDbBlockBegin
  2
*MODEL_SPACE
 70
     0
 10
0.0
 20
0.0
 30
0.0
  3
*MODEL_SPACE
  1

  0
ENDBLK
  5
21
330
1F
100
AcDbEntity
  8
0
100
AcDbBlockEnd
  0
BLOCK
  5
1C
330
1B
100
AcDbEntity
 67
     1
  8
0
100
AcDbBlockBegin
  2
*PAPER_SPACE
  1

  0
ENDBLK
  5
1D
330
1B
100
AcDbEntity
 67
     1
  8
0
100
AcDbBlockEnd
  0
ENDSEC
  0
SECTION
  2
ENTITIES
  0
LWPOLYLINE
  5
100
100
AcDbEntity
  8
Layer_1
 62
7
100
AcDbPolyline
 90
2
 70
0
 10
355.909350
 20
58.912865
 30
0.0
 10
372.849351
 20
58.912865
 30
0.0
  0
LWPOLYLINE
  5
101
100
AcDbEntity
  8
Layer_1
 62
7
100
AcDbPolyline
 90
2
 70
0
 10
373.849344
 20
59.912858
 30
0.0
 10
373.849344
 20
89.188845
 30
0.0
  0
LWPOLYLINE
  5
102
100
AcDbEntity
  8
Layer_1
 62
7
100
AcDbPolyline
 90
2
 70
0
 10
355.909350
 20
90.188865
 30
0.0
 10
372.849351
 20
90.188865
 30
0.0
  0
LWPOLYLINE
  5
103
100
AcDbEntity
  8
Layer_1
 62
7
100
AcDbPolyline
 90
2
 70
0
 10
354.909331
 20
59.912858
 30
0.0
 10
354.909331
 20
61.256385
 30
0.0
  0
LWPOLYLINE
  5
104
100
AcDbEntity
  8
Layer_1
 62
7
100
AcDbPolyline
 90
2
 70
0
 10
354.909331
 20
63.969317
 30
0.0
 10
354.909331
 20
85.132386
 30
0.0
  0
SPLINE
  5
105
100
AcDbEntity
  8
Layer_1
 62
7
100
AcDbSpline
 70
8
 71
3
 72
8
 73
4
 74
0
 40
0
 40
0
 40
0
 40
0
 40
1
 40
1
 40
1
 40
1
 10
354.909331
 20
59.912858
 30
0.0
 10
354.909331
 20
59.843518
 30
0.0
 10
354.916395
 20
59.775827
 30
0.0
 10
354.929836
 20
59.710462
 30
0.0
  0
SPLINE
  5
106
100
AcDbEntity
  8
Layer_1
 62
7
100
AcDbSpline
 70
8
 71
3
 72
8
 73
4
 74
0
 40
0
 40
0
 40
0
 40
0
 40
1
 40
1
 40
1
 40
1
 10
354.929836
 20
59.710462
 30
0.0
 10
354.943938
 20
59.641884
 30
0.0
 10
354.965049
 20
59.575871
 30
0.0
 10
354.992402
 20
59.513202
 30
0.0
  0
SPLINE
  5
107
100
AcDbEntity
  8
Layer_1
 62
7
100
AcDbSpline
 70
8
 71
3
 72
8
 73
4
 74
0
 40
0
 40
0
 40
0
 40
0
 40
1
 40
1
 40
1
 40
1
 10
354.992402
 20
59.513202
 30
0.0
 10
355.021093
 20
59.447469
 30
0.0
 10
355.056645
 20
59.385419
 30
0.0
 10
355.098151
 20
59.327956
 30
0.0
  0
SPLINE
  5
108
100
AcDbEntity
  8
Layer_1
 62
7
100
AcDbSpline
 70
8
 71
3
 72
8
 73
4
 74
0
 40
0
 40
0
 40
0
 40
0
 40
1
 40
1
 40
1
 40
1
 10
355.098151
 20
59.327956
 30
0.0
 10
355.137415
 20
59.273600
 30
0.0
 10
355.182005
 20
59.223348
 30
0.0
 10
355.231159
 20
59.177964
 30
0.0
  0
SPLINE
  5
109
100
AcDbEntity
  8
Layer_1
 62
7
100
AcDbSpline
 70
8
 71
3
 72
8
 73
4
 74
0
 40
0
 40
0
 40
0
 40
0
 40
1
 40
1
 40
1
 40
1
 10
355.231159
 20
59.177964
 30
0.0
 10
355.281057
 20
59.131892
 30
0.0
 10
355.335662
 20
59.090839
 30
0.0
 10
355.394164
 20
59.055605
 30
0.0
  0
SPLINE
  5
10a
100
AcDbEntity
  8
Layer_1
 62
7
100
AcDbSpline
 70
8
 71
3
 72
8
 73
4
 74
0
 40
0
 40
0
 40
0
 40
0
 40
1
 40
1
 40
1
 40
1
 10
355.394164
 20
59.055605
 30
0.0
 10
355.445985
 20
59.024397
 30
0.0
 10
355.500865
 20
58.997754
 30
0.0
 10
355.558248
 20
58.976235
 30
0.0
  0
SPLINE
  5
10b
100
AcDbEntity
  8
Layer_1
 62
7
100
AcDbSpline
 70
8
 71
3
 72
8
 73
4
 74
0
 40
0
 40
0
 40
0
 40
0
 40
1
 40
1
 40
1
 40
1
 10
355.558248
 20
58.976235
 30
0.0
 10
355.614485
 20
58.955148
 30
0.0
 10
355.673127
 20
58.938974
 30
0.0
 10
355.733648
 20
58.928248
 30
0.0
  0
SPLINE
  5
10c
100
AcDbEntity
  8
Layer_1
 62
7
100
AcDbSpline
 70
8
 71
3
 72
8
 73
4
 74
0
 40
0
 40
0
 40
0
 40
0
 40
1
 40
1
 40
1
 40
1
 10
355.733648
 20
58.928248
 30
0.0
 10
355.790695
 20
58.918141
 30
0.0
 10
355.849411
 20
58.912875
 30
0.0
 10
355.909361
 20
58.912875
 30
0.0
  0
SPLINE
  5
10d
100
AcDbEntity
  8
Layer_1
 62
7
100
AcDbSpline
 70
8
 71
3
 72
8
 73
4
 74
0
 40
0
 40
0
 40
0
 40
0
 40
1
 40
1
 40
1
 40
1
 10
373.849344
 20
89.188845
 30
0.0
 10
373.849344
 20
89.224868
 30
0.0
 10
373.847492
 20
89.260450
 30
0.0
 10
373.843735
 20
89.295488
 30
0.0
  0
SPLINE
  5
10e
100
AcDbEntity
  8
Layer_1
 62
7
100
AcDbSpline
 70
8
 71
3
 72
8
 73
4
 74
0
 40
0
 40
0
 40
0
 40
0
 40
1
 40
1
 40
1
 40
1
 10
373.843735
 20
89.295488
 30
0.0
 10
373.840719
 20
89.323830
 30
0.0
 10
373.836538
 20
89.351821
 30
0.0
 10
373.831220
 20
89.379409
 30
0.0
  0
SPLINE
  5
10f
100
AcDbEntity
  8
Layer_1
 62
7
100
AcDbSpline
 70
8
 71
3
 72
8
 73
4
 74
0
 40
0
 40
0
 40
0
 40
0
 40
1
 40
1
 40
1
 40
1
 10
373.831220
 20
89.379409
 30
0.0
 10
373.825346
 20
89.409878
 30
0.0
 10
373.818070
 20
89.439856
 30
0.0
 10
373.809498
 20
89.469272
 30
0.0
  0
SPLINE
  5
110
100
AcDbEntity
  8
Layer_1
 62
7
100
AcDbSpline
 70
8
 71
3
 72
8
 73
4
 74
0
 40
0
 40
0
 40
0
 40
0
 40
1
 40
1
 40
1
 40
1
 10
373.809498
 20
89.469272
 30
0.0
 10
373.801560
 20
89.496471
 30
0.0
 10
373.792511
 20
89.523194
 30
0.0
 10
373.782388
 20
89.549380
 30
0.0
  0
SPLINE
  5
111
100
AcDbEntity
  8
Layer_1
 62
7
100
AcDbSpline
 70
8
 71
3
 72
8
 73
4
 74
0
 40
0
 40
0
 40
0
 40
0
 40
1
 40
1
 40
1
 40
1
 10
373.782388
 20
89.549380
 30
0.0
 10
373.768842
 20
89.584421
 30
0.0
 10
373.753374
 20
89.618508
 30
0.0
 10
373.736121
 20
89.651512
 30
0.0
  0
SPLINE
  5
112
100
AcDbEntity
  8
Layer_1
 62
7
100
AcDbSpline
 70
8
 71
3
 72
8
 73
4
 74
0
 40
0
 40
0
 40
0
 40
0
 40
1
 40
1
 40
1
 40
1
 10
373.736121
 20
89.651512
 30
0.0
 10
373.719928
 20
89.682484
 30
0.0
 10
373.702162
 20
89.712501
 30
0.0
 10
373.682926
 20
89.741459
 30
0.0
  0
SPLINE
  5
113
100
AcDbEntity
  8
Layer_1
 62
7
100
AcDbSpline
 70
8
 71
3
 72
8
 73
4
 74
0
 40
0
 40
0
 40
0
 40
0
 40
1
 40
1
 40
1
 40
1
 10
373.682926
 20
89.741459
 30
0.0
 10
373.662024
 20
89.772910
 30
0.0
 10
373.639410
 20
89.803113
 30
0.0
 10
373.615190
 20
89.831926
 30
0.0
  0
SPLINE
  5
114
100
AcDbEntity
  8
Layer_1
 62
7
100
AcDbSpline
 70
8
 71
3
 72
8
 73
4
 74
0
 40
0
 40
0
 40
0
 40
0
 40
1
 40
1
 40
1
 40
1
 10
373.615190
 20
89.831926
 30
0.0
 10
373.589949
 20
89.861959
 30
0.0
 10
373.562967
 20
89.890486
 30
0.0
 10
373.534410
 20
89.917352
 30
0.0
  0
SPLINE
  5
115
100
AcDbEntity
  8
Layer_1
 62
7
100
AcDbSpline
 70
8
 71
3
 72
8
 73
4
 74
0
 40
0
 40
0
 40
0
 40
0
 40
1
 40
1
 40
1
 40
1
 10
373.534410
 20
89.917352
 30
0.0
 10
373.507272
 20
89.942884
 30
0.0
 10
373.478705
 20
89.966913
 30
0.0
 10
373.448844
 20
89.989313
 30
0.0
  0
SPLINE
  5
116
100
AcDbEntity
  8
Layer_1
 62
7
100
AcDbSpline
 70
8
 71
3
 72
8
 73
4
 74
0
 40
0
 40
0
 40
0
 40
0
 40
1
 40
1
 40
1
 40
1
 10
373.448844
 20
89.989313
 30
0.0
 10
373.421518
 20
90.009818
 30
0.0
 10
373.393107
 20
90.028945
 30
0.0
 10
373.363714
 20
90.046611
 30
0.0
  0
SPLINE
  5
117
100
AcDbEntity
  8
Layer_1
 62
7
100
AcDbSpline
 70
8
 71
3
 72
8
 73
4
 74
0
 40
0
 40
0
 40
0
 40
0
 40
1
 40
1
 40
1
 40
1
 10
373.363714
 20
90.046611
 30
0.0
 10
373.336666
 20
90.062857
 30
0.0
 10
373.308787
 20
90.077877
 30
0.0
 10
373.280156
 20
90.091564
 30
0.0
  0
SPLINE
  5
118
100
AcDbEntity
  8
Layer_1
 62
7
100
AcDbSpline
 70
8
 71
3
 72
8
 73
4
 74
0
 40
0
 40
0
 40
0
 40
0
 40
1
 40
1
 40
1
 40
1
 10
373.280156
 20
90.091564
 30
0.0
 10
373.238315
 20
90.111566
 30
0.0
 10
373.194868
 20
90.128749
 30
0.0
 10
373.150058
 20
90.142861
 30
0.0
  0
SPLINE
  5
119
100
AcDbEntity
  8
Layer_1
 62
7
100
AcDbSpline
 70
8
 71
3
 72
8
 73
4
 74
0
 40
0
 40
0
 40
0
 40
0
 40
1
 40
1
 40
1
 40
1
 10
373.150058
 20
90.142861
 30
0.0
 10
373.108410
 20
90.155985
 30
0.0
 10
373.065587
 20
90.166436
 30
0.0
 10
373.021785
 20
90.174053
 30
0.0
  0
SPLINE
  5
11a
100
AcDbEntity
  8
Layer_1
 62
7
100
AcDbSpline
 70
8
 71
3
 72
8
 73
4
 74
0
 40
0
 40
0
 40
0
 40
0
 40
1
 40
1
 40
1
 40
1
 10
373.021785
 20
90.174053
 30
0.0
 10
372.965768
 20
90.183790
 30
0.0
 10
372.908155
 20
90.188870
 30
0.0
 10
372.849354
 20
90.188870
 30
0.0
  0
SPLINE
  5
11b
100
AcDbEntity
  8
Layer_1
 62
7
100
AcDbSpline
 70
8
 71
3
 72
8
 73
4
 74
0
 40
0
 40
0
 40
0
 40
0
 40
1
 40
1
 40
1
 40
1
 10
372.849351
 20
58.912865
 30
0.0
 10
372.902128
 20
58.912865
 30
0.0
 10
372.953949
 20
58.916966
 30
0.0
 10
373.004516
 20
58.924824
 30
0.0
  0
SPLINE
  5
11c
100
AcDbEntity
  8
Layer_1
 62
7
100
AcDbSpline
 70
8
 71
3
 72
8
 73
4
 74
0
 40
0
 40
0
 40
0
 40
0
 40
1
 40
1
 40
1
 40
1
 10
373.004516
 20
58.924824
 30
0.0
 10
373.045286
 20
58.931174
 30
0.0
 10
373.085241
 20
58.939985
 30
0.0
 10
373.124224
 20
58.951124
 30
0.0
  0
SPLINE
  5
11d
100
AcDbEntity
  8
Layer_1
 62
7
100
AcDbSpline
 70
8
 71
3
 72
8
 73
4
 74
0
 40
0
 40
0
 40
0
 40
0
 40
1
 40
1
 40
1
 40
1
 10
373.124224
 20
58.951124
 30
0.0
 10
373.155466
 20
58.960040
 30
0.0
 10
373.186081
 20
58.970438
 30
0.0
 10
373.215995
 20
58.982223
 30
0.0
  0
SPLINE
  5
11e
100
AcDbEntity
  8
Layer_1
 62
7
100
AcDbSpline
 70
8
 71
3
 72
8
 73
4
 74
0
 40
0
 40
0
 40
0
 40
0
 40
1
 40
1
 40
1
 40
1
 10
373.215995
 20
58.982223
 30
0.0
 10
373.246605
 20
58.994288
 30
0.0
 10
373.276476
 20
59.007834
 30
0.0
 10
373.305522
 20
59.022746
 30
0.0
  0
SPLINE
  5
11f
100
AcDbEntity
  8
Layer_1
 62
7
100
AcDbSpline
 70
8
 71
3
 72
8
 73
4
 74
0
 40
0
 40
0
 40
0
 40
0
 40
1
 40
1
 40
1
 40
1
 10
373.305522
 20
59.022746
 30
0.0
 10
373.333528
 20
59.037113
 30
0.0
 10
373.360767
 20
59.052792
 30
0.0
 10
373.387162
 20
59.069662
 30
0.0
  0
SPLINE
  5
120
100
AcDbEntity
  8
Layer_1
 62
7
100
AcDbSpline
 70
8
 71
3
 72
8
 73
4
 74
0
 40
0
 40
0
 40
0
 40
0
 40
1
 40
1
 40
1
 40
1
 10
373.387162
 20
59.069662
 30
0.0
 10
373.409678
 20
59.084055
 30
0.0
 10
373.431575
 20
59.099319
 30
0.0
 10
373.452813
 20
59.115414
 30
0.0
  0
SPLINE
  5
121
100
AcDbEntity
  8
Layer_1
 62
7
100
AcDbSpline
 70
8
 71
3
 72
8
 73
4
 74
0
 40
0
 40
0
 40
0
 40
0
 40
1
 40
1
 40
1
 40
1
 10
373.452813
 20
59.115414
 30
0.0
 10
373.485457
 20
59.140152
 30
0.0
 10
373.516533
 20
59.166854
 30
0.0
 10
373.545870
 20
59.195337
 30
0.0
  0
SPLINE
  5
122
100
AcDbEntity
  8
Layer_1
 62
7
100
AcDbSpline
 70
8
 71
3
 72
8
 73
4
 74
0
 40
0
 40
0
 40
0
 40
0
 40
1
 40
1
 40
1
 40
1
 10
373.545870
 20
59.195337
 30
0.0
 10
373.560527
 20
59.209545
 30
0.0
 10
373.574725
 20
59.224219
 30
0.0
 10
373.588478
 20
59.239302
 30
0.0
  0
SPLINE
  5
123
100
AcDbEntity
  8
Layer_1
 62
7
100
AcDbSpline
 70
8
 71
3
 72
8
 73
4
 74
0
 40
0
 40
0
 40
0
 40
0
 40
1
 40
1
 40
1
 40
1
 10
373.588478
 20
59.239302
 30
0.0
 10
373.603083
 20
59.255310
 30
0.0
 10
373.617156
 20
59.271791
 30
0.0
 10
373.630698
 20
59.288724
 30
0.0
  0
SPLINE
  5
124
100
AcDbEntity
  8
Layer_1
 62
7
100
AcDbSpline
 70
8
 71
3
 72
8
 73
4
 74
0
 40
0
 40
0
 40
0
 40
0
 40
1
 40
1
 40
1
 40
1
 10
373.630698
 20
59.288724
 30
0.0
 10
373.638635
 20
59.298646
 30
0.0
 10
373.646387
 20
59.308726
 30
0.0
 10
373.653954
 20
59.318947
 30
0.0
  0
SPLINE
  5
125
100
AcDbEntity
  8
Layer_1
 62
7
100
AcDbSpline
 70
8
 71
3
 72
8
 73
4
 74
0
 40
0
 40
0
 40
0
 40
0
 40
1
 40
1
 40
1
 40
1
 10
373.653954
 20
59.318947
 30
0.0
 10
373.664644
 20
59.333394
 30
0.0
 10
373.674936
 20
59.348149
 30
0.0
 10
373.684855
 20
59.363183
 30
0.0
  0
SPLINE
  5
126
100
AcDbEntity
  8
Layer_1
 62
7
100
AcDbSpline
 70
8
 71
3
 72
8
 73
4
 74
0
 40
0
 40
0
 40
0
 40
0
 40
1
 40
1
 40
1
 40
1
 10
373.684855
 20
59.363183
 30
0.0
 10
373.699857
 20
59.385911
 30
0.0
 10
373.713928
 20
59.409302
 30
0.0
 10
373.727059
 20
59.433282
 30
0.0
  0
SPLINE
  5
127
100
AcDbEntity
  8
Layer_1
 62
7
100
AcDbSpline
 70
8
 71
3
 72
8
 73
4
 74
0
 40
0
 40
0
 40
0
 40
0
 40
1
 40
1
 40
1
 40
1
 10
373.727059
 20
59.433282
 30
0.0
 10
373.736822
 20
59.451088
 30
0.0
 10
373.746029
 20
59.469217
 30
0.0
 10
373.754708
 20
59.487659
 30
0.0
  0
SPLINE
  5
128
100
AcDbEntity
  8
Layer_1
 62
7
100
AcDbSpline
 70
8
 71
3
 72
8
 73
4
 74
0
 40
0
 40
0
 40
0
 40
0
 40
1
 40
1
 40
1
 40
1
 10
373.754708
 20
59.487659
 30
0.0
 10
373.767910
 20
59.515747
 30
0.0
 10
373.779870
 20
59.544550
 30
0.0
 10
373.790472
 20
59.573992
 30
0.0
  0
SPLINE
  5
129
100
AcDbEntity
  8
Layer_1
 62
7
100
AcDbSpline
 70
8
 71
3
 72
8
 73
4
 74
0
 40
0
 40
0
 40
0
 40
0
 40
1
 40
1
 40
1
 40
1
 10
373.790472
 20
59.573992
 30
0.0
 10
373.801372
 20
59.604232
 30
0.0
 10
373.810844
 20
59.635148
 30
0.0
 10
373.818816
 20
59.666663
 30
0.0
  0
SPLINE
  5
12a
100
AcDbEntity
  8
Layer_1
 62
7
100
AcDbSpline
 70
8
 71
3
 72
8
 73
4
 74
0
 40
0
 40
0
 40
0
 40
0
 40
1
 40
1
 40
1
 40
1
 10
373.818816
 20
59.666663
 30
0.0
 10
373.829267
 20
59.707985
 30
0.0
 10
373.837178
 20
59.750332
 30
0.0
 10
373.842311
 20
59.793522
 30
0.0
  0
SPLINE
  5
12b
100
AcDbEntity
  8
Layer_1
 62
7
100
AcDbSpline
 70
8
 71
3
 72
8
 73
4
 74
0
 40
0
 40
0
 40
0
 40
0
 40
1
 40
1
 40
1
 40
1
 10
373.842311
 20
59.793522
 30
0.0
 10
373.846968
 20
59.832654
 30
0.0
 10
373.849349
 20
59.872479
 30
0.0
 10
373.849349
 20
59.912863
 30
0.0
  0
SPLINE
  5
12c
100
AcDbEntity
  8
Layer_1
 62
7
100
AcDbSpline
 70
8
 71
3
 72
8
 73
4
 74
0
 40
0
 40
0
 40
0
 40
0
 40
1
 40
1
 40
1
 40
1
 10
355.909350
 20
90.188865
 30
0.0
 10
355.865850
 20
90.188865
 30
0.0
 10
355.822998
 20
90.186086
 30
0.0
 10
355.780964
 20
90.180689
 30
0.0
  0
SPLINE
  5
12d
100
AcDbEntity
  8
Layer_1
 62
7
100
AcDbSpline
 70
8
 71
3
 72
8
 73
4
 74
0
 40
0
 40
0
 40
0
 40
0
 40
1
 40
1
 40
1
 40
1
 10
355.780964
 20
90.180689
 30
0.0
 10
355.750616
 20
90.176800
 30
0.0
 10
355.720694
 20
90.171561
 30
0.0
 10
355.691262
 20
90.164999
 30
0.0
  0
SPLINE
  5
12e
100
AcDbEntity
  8
Layer_1
 62
7
100
AcDbSpline
 70
8
 71
3
 72
8
 73
4
 74
0
 40
0
 40
0
 40
0
 40
0
 40
1
 40
1
 40
1
 40
1
 10
355.691262
 20
90.164999
 30
0.0
 10
355.669063
 20
90.160051
 30
0.0
 10
355.647116
 20
90.154389
 30
0.0
 10
355.625489
 20
90.147986
 30
0.0
  0
SPLINE
  5
12f
100
AcDbEntity
  8
Layer_1
 62
7
100
AcDbSpline
 70
8
 71
3
 72
8
 73
4
 74
0
 40
0
 40
0
 40
0
 40
0
 40
1
 40
1
 40
1
 40
1
 10
355.625489
 20
90.147986
 30
0.0
 10
355.587474
 20
90.136742
 30
0.0
 10
355.550403
 20
90.123327
 30
0.0
 10
355.514420
 20
90.107841
 30
0.0
  0
SPLINE
  5
130
100
AcDbEntity
  8
Layer_1
 62
7
100
AcDbSpline
 70
8
 71
3
 72
8
 73
4
 74
0
 40
0
 40
0
 40
0
 40
0
 40
1
 40
1
 40
1
 40
1
 10
355.514420
 20
90.107841
 30
0.0
 10
355.473907
 20
90.090405
 30
0.0
 10
355.434772
 20
90.070374
 30
0.0
 10
355.397233
 20
90.047950
 30
0.0
  0
SPLINE
  5
131
100
AcDbEntity
  8
Layer_1
 62
7
100
AcDbSpline
 70
8
 71
3
 72
8
 73
4
 74
0
 40
0
 40
0
 40
0
 40
0
 40
1
 40
1
 40
1
 40
1
 10
355.397233
 20
90.047950
 30
0.0
 10
355.362104
 20
90.026969
 30
0.0
 10
355.328373
 20
90.003886
 30
0.0
 10
355.296207
 20
89.978889
 30
0.0
  0
SPLINE
  5
132
100
AcDbEntity
  8
Layer_1
 62
7
100
AcDbSpline
 70
8
 71
3
 72
8
 73
4
 74
0
 40
0
 40
0
 40
0
 40
0
 40
1
 40
1
 40
1
 40
1
 10
355.296207
 20
89.978889
 30
0.0
 10
355.259319
 20
89.950221
 30
0.0
 10
355.224492
 20
89.919024
 30
0.0
 10
355.191985
 20
89.885562
 30
0.0
  0
SPLINE
  5
133
100
AcDbEntity
  8
Layer_1
 62
7
100
AcDbSpline
 70
8
 71
3
 72
8
 73
4
 74
0
 40
0
 40
0
 40
0
 40
0
 40
1
 40
1
 40
1
 40
1
 10
355.191985
 20
89.885562
 30
0.0
 10
355.154017
 20
89.846478
 30
0.0
 10
355.119217
 20
89.804301
 30
0.0
 10
355.087996
 20
89.759443
 30
0.0
  0
SPLINE
  5
134
100
AcDbEntity
  8
Layer_1
 62
7
100
AcDbSpline
 70
8
 71
3
 72
8
 73
4
 74
0
 40
0
 40
0
 40
0
 40
0
 40
1
 40
1
 40
1
 40
1
 10
355.087996
 20
89.759443
 30
0.0
 10
355.060003
 20
89.719226
 30
0.0
 10
355.034889
 20
89.676856
 30
0.0
 10
355.012950
 20
89.632628
 30
0.0
  0
SPLINE
  5
135
100
AcDbEntity
  8
Layer_1
 62
7
100
AcDbSpline
 70
8
 71
3
 72
8
 73
4
 74
0
 40
0
 40
0
 40
0
 40
0
 40
1
 40
1
 40
1
 40
1
 10
355.012950
 20
89.632628
 30
0.0
 10
354.997366
 20
89.601217
 30
0.0
 10
354.983390
 20
89.568869
 30
0.0
 10
354.971119
 20
89.535690
 30
0.0
  0
SPLINE
  5
136
100
AcDbEntity
  8
Layer_1
 62
7
100
AcDbSpline
 70
8
 71
3
 72
8
 73
4
 74
0
 40
0
 40
0
 40
0
 40
0
 40
1
 40
1
 40
1
 40
1
 10
354.971119
 20
89.535690
 30
0.0
 10
354.961171
 20
89.508801
 30
0.0
 10
354.952360
 20
89.481363
 30
0.0
 10
354.944714
 20
89.453439
 30
0.0
  0
SPLINE
  5
137
100
AcDbEntity
  8
Layer_1
 62
7
100
AcDbSpline
 70
8
 71
3
 72
8
 73
4
 74
0
 40
0
 40
0
 40
0
 40
0
 40
1
 40
1
 40
1
 40
1
 10
354.944714
 20
89.453439
 30
0.0
 10
354.938655
 20
89.431320
 30
0.0
 10
354.933363
 20
89.408910
 30
0.0
 10
354.928812
 20
89.386214
 30
0.0
  0
SPLINE
  5
138
100
AcDbEntity
  8
Layer_1
 62
7
100
AcDbSpline
 70
8
 71
3
 72
8
 73
4
 74
0
 40
0
 40
0
 40
0
 40
0
 40
1
 40
1
 40
1
 40
1
 10
354.928812
 20
89.386214
 30
0.0
 10
354.923124
 20
89.357819
 30
0.0
 10
354.918652
 20
89.328990
 30
0.0
 10
354.915424
 20
89.299782
 30
0.0
  0
SPLINE
  5
139
100
AcDbEntity
  8
Layer_1
 62
7
100
AcDbSpline
 70
8
 71
3
 72
8
 73
4
 74
0
 40
0
 40
0
 40
0
 40
0
 40
1
 40
1
 40
1
 40
1
 10
354.915424
 20
89.299782
 30
0.0
 10
354.911402
 20
89.263349
 30
0.0
 10
354.909339
 20
89.226329
 30
0.0
 10
354.909339
 20
89.188824
 30
0.0
  0
SPLINE
  5
13a
100
AcDbEntity
  8
Layer_1
 62
7
100
AcDbSpline
 70
8
 71
3
 72
8
 73
4
 74
0
 40
0
 40
0
 40
0
 40
0
 40
1
 40
1
 40
1
 40
1
 10
354.909331
 20
63.969317
 30
0.0
 10
354.864632
 20
63.900118
 30
0.0
 10
354.823682
 20
63.829262
 30
0.0
 10
354.786477
 20
63.757029
 30
0.0
  0
SPLINE
  5
13b
100
AcDbEntity
  8
Layer_1
 62
7
100
AcDbSpline
 70
8
 71
3
 72
8
 73
4
 74
0
 40
0
 40
0
 40
0
 40
0
 40
1
 40
1
 40
1
 40
1
 10
354.786477
 20
63.757029
 30
0.0
 10
354.742225
 20
63.671118
 30
0.0
 10
354.703276
 20
63.583255
 30
0.0
 10
354.669624
 20
63.493911
 30
0.0
  0
SPLINE
  5
13c
100
AcDbEntity
  8
Layer_1
 62
7
100
AcDbSpline
 70
8
 71
3
 72
8
 73
4
 74
0
 40
0
 40
0
 40
0
 40
0
 40
1
 40
1
 40
1
 40
1
 10
354.669624
 20
63.493911
 30
0.0
 10
354.636749
 20
63.406636
 30
0.0
 10
354.608933
 20
63.317942
 30
0.0
 10
354.586174
 20
63.228272
 30
0.0
  0
SPLINE
  5
13d
100
AcDbEntity
  8
Layer_1
 62
7
100
AcDbSpline
 70
8
 71
3
 72
8
 73
4
 74
0
 40
0
 40
0
 40
0
 40
0
 40
1
 40
1
 40
1
 40
1
 10
354.586174
 20
63.228272
 30
0.0
 10
354.567733
 20
63.155646
 30
0.0
 10
354.552622
 20
63.082381
 30
0.0
 10
354.540822
 20
63.008705
 30
0.0
  0
SPLINE
  5
13e
100
AcDbEntity
  8
Layer_1
 62
7
100
AcDbSpline
 70
8
 71
3
 72
8
 73
4
 74
0
 40
0
 40
0
 40
0
 40
0
 40
1
 40
1
 40
1
 40
1
 10
354.540822
 20
63.008705
 30
0.0
 10
354.519126
 20
62.873201
 30
0.0
 10
354.508635
 20
62.736306
 30
0.0
 10
354.509365
 20
62.599458
 30
0.0
  0
SPLINE
  5
13f
100
AcDbEntity
  8
Layer_1
 62
7
100
AcDbSpline
 70
8
 71
3
 72
8
 73
4
 74
0
 40
0
 40
0
 40
0
 40
0
 40
1
 40
1
 40
1
 40
1
 10
354.509365
 20
62.599458
 30
0.0
 10
354.509895
 20
62.489666
 30
0.0
 10
354.517753
 20
62.379907
 30
0.0
 10
354.532781
 20
62.270919
 30
0.0
  0
SPLINE
  5
140
100
AcDbEntity
  8
Layer_1
 62
7
100
AcDbSpline
 70
8
 71
3
 72
8
 73
4
 74
0
 40
0
 40
0
 40
0
 40
0
 40
1
 40
1
 40
1
 40
1
 10
354.532781
 20
62.270919
 30
0.0
 10
354.549979
 20
62.146145
 30
0.0
 10
354.576652
 20
62.022383
 30
0.0
 10
354.612783
 20
61.900752
 30
0.0
  0
SPLINE
  5
141
100
AcDbEntity
  8
Layer_1
 62
7
100
AcDbSpline
 70
8
 71
3
 72
8
 73
4
 74
0
 40
0
 40
0
 40
0
 40
0
 40
1
 40
1
 40
1
 40
1
 10
354.612783
 20
61.900752
 30
0.0
 10
354.645991
 20
61.788957
 30
0.0
 10
354.687192
 20
61.678965
 30
0.0
 10
354.736389
 20
61.571634
 30
0.0
  0
SPLINE
  5
142
100
AcDbEntity
  8
Layer_1
 62
7
100
AcDbSpline
 70
8
 71
3
 72
8
 73
4
 74
0
 40
0
 40
0
 40
0
 40
0
 40
1
 40
1
 40
1
 40
1
 10
354.736389
 20
61.571634
 30
0.0
 10
354.785926
 20
61.463554
 30
0.0
 10
354.843571
 20
61.358178
 30
0.0
 10
354.909323
 20
61.256385
 30
0.0
  0
SPLINE
  5
143
100
AcDbEntity
  8
Layer_1
 62
7
100
AcDbSpline
 70
8
 71
3
 72
8
 73
4
 74
0
 40
0
 40
0
 40
0
 40
0
 40
1
 40
1
 40
1
 40
1
 10
354.909331
 20
87.845318
 30
0.0
 10
354.875334
 20
87.792687
 30
0.0
 10
354.843505
 20
87.739095
 30
0.0
 10
354.813843
 20
87.684668
 30
0.0
  0
SPLINE
  5
144
100
AcDbEntity
  8
Layer_1
 62
7
100
AcDbSpline
 70
8
 71
3
 72
8
 73
4
 74
0
 40
0
 40
0
 40
0
 40
0
 40
1
 40
1
 40
1
 40
1
 10
354.813843
 20
87.684668
 30
0.0
 10
354.787966
 20
87.637196
 30
0.0
 10
354.763744
 20
87.589084
 30
0.0
 10
354.741170
 20
87.540420
 30
0.0
  0
SPLINE
  5
145
100
AcDbEntity
  8
Layer_1
 62
7
100
AcDbSpline
 70
8
 71
3
 72
8
 73
4
 74
0
 40
0
 40
0
 40
0
 40
0
 40
1
 40
1
 40
1
 40
1
 10
354.741170
 20
87.540420
 30
0.0
 10
354.711819
 20
87.477155
 30
0.0
 10
354.685258
 20
87.412951
 30
0.0
 10
354.661482
 20
87.347986
 30
0.0
  0
SPLINE
  5
146
100
AcDbEntity
  8
Layer_1
 62
7
100
AcDbSpline
 70
8
 71
3
 72
8
 73
4
 74
0
 40
0
 40
0
 40
0
 40
0
 40
1
 40
1
 40
1
 40
1
 10
354.661482
 20
87.347986
 30
0.0
 10
354.636691
 20
87.280220
 30
0.0
 10
354.614910
 20
87.211627
 30
0.0
 10
354.596175
 20
87.142410
 30
0.0
  0
SPLINE
  5
147
100
AcDbEntity
  8
Layer_1
 62
7
100
AcDbSpline
 70
8
 71
3
 72
8
 73
4
 74
0
 40
0
 40
0
 40
0
 40
0
 40
1
 40
1
 40
1
 40
1
 10
354.596175
 20
87.142410
 30
0.0
 10
354.576279
 20
87.068879
 30
0.0
 10
354.559787
 20
86.994642
 30
0.0
 10
354.546725
 20
86.919945
 30
0.0
  0
SPLINE
  5
148
100
AcDbEntity
  8
Layer_1
 62
7
100
AcDbSpline
 70
8
 71
3
 72
8
 73
4
 74
0
 40
0
 40
0
 40
0
 40
0
 40
1
 40
1
 40
1
 40
1
 10
354.546725
 20
86.919945
 30
0.0
 10
354.535586
 20
86.856157
 30
0.0
 10
354.526907
 20
86.792030
 30
0.0
 10
354.520743
 20
86.727720
 30
0.0
  0
SPLINE
  5
149
100
AcDbEntity
  8
Layer_1
 62
7
100
AcDbSpline
 70
8
 71
3
 72
8
 73
4
 74
0
 40
0
 40
0
 40
0
 40
0
 40
1
 40
1
 40
1
 40
1
 10
354.520743
 20
86.727720
 30
0.0
 10
354.513308
 20
86.650046
 30
0.0
 10
354.509498
 20
86.572100
 30
0.0
 10
354.509339
 20
86.494151
 30
0.0
  0
SPLINE
  5
14a
100
AcDbEntity
  8
Layer_1
 62
7
100
AcDbSpline
 70
8
 71
3
 72
8
 73
4
 74
0
 40
0
 40
0
 40
0
 40
0
 40
1
 40
1
 40
1
 40
1
 10
354.509339
 20
86.494151
 30
0.0
 10
354.509180
 20
86.418473
 30
0.0
 10
354.512461
 20
86.342788
 30
0.0
 10
354.519155
 20
86.267343
 30
0.0
  0
SPLINE
  5
14b
100
AcDbEntity
  8
Layer_1
 62
7
100
AcDbSpline
 70
8
 71
3
 72
8
 73
4
 74
0
 40
0
 40
0
 40
0
 40
0
 40
1
 40
1
 40
1
 40
1
 10
354.519155
 20
86.267343
 30
0.0
 10
354.525584
 20
86.194966
 30
0.0
 10
354.535162
 20
86.122806
 30
0.0
 10
354.547910
 20
86.051083
 30
0.0
  0
SPLINE
  5
14c
100
AcDbEntity
  8
Layer_1
 62
7
100
AcDbSpline
 70
8
 71
3
 72
8
 73
4
 74
0
 40
0
 40
0
 40
0
 40
0
 40
1
 40
1
 40
1
 40
1
 10
354.547910
 20
86.051083
 30
0.0
 10
354.565134
 20
85.954198
 30
0.0
 10
354.588092
 20
85.858106
 30
0.0
 10
354.616823
 20
85.763335
 30
0.0
  0
SPLINE
  5
14d
100
AcDbEntity
  8
Layer_1
 62
7
100
AcDbSpline
 70
8
 71
3
 72
8
 73
4
 74
0
 40
0
 40
0
 40
0
 40
0
 40
1
 40
1
 40
1
 40
1
 10
354.616823
 20
85.763335
 30
0.0
 10
354.641006
 20
85.683603
 30
0.0
 10
354.669245
 20
85.604807
 30
0.0
 10
354.701569
 20
85.527263
 30
0.0
  0
SPLINE
  5
14e
100
AcDbEntity
  8
Layer_1
 62
7
100
AcDbSpline
 70
8
 71
3
 72
8
 73
4
 74
0
 40
0
 40
0
 40
0
 40
0
 40
1
 40
1
 40
1
 40
1
 10
354.701569
 20
85.527263
 30
0.0
 10
354.729488
 20
85.460289
 30
0.0
 10
354.760447
 20
85.394247
 30
0.0
 10
354.794449
 20
85.329339
 30
0.0
  0
SPLINE
  5
14f
100
AcDbEntity
  8
Layer_1
 62
7
100
AcDbSpline
 70
8
 71
3
 72
8
 73
4
 74
0
 40
0
 40
0
 40
0
 40
0
 40
1
 40
1
 40
1
 40
1
 10
354.794449
 20
85.329339
 30
0.0
 10
354.829511
 20
85.262407
 30
0.0
 10
354.867807
 20
85.196682
 30
0.0
 10
354.909339
 20
85.132386
 30
0.0
  0
LWPOLYLINE
  5
150
100
AcDbEntity
  8
Layer_1
 62
7
100
AcDbPolyline
 90
2
 70
0
 10
354.909331
 20
87.845318
 30
0.0
 10
354.909331
 20
89.188845
 30
0.0
  0
LWPOLYLINE
  5
151
100
AcDbEntity
  8
Layer_1
 62
7
100
AcDbPolyline
 90
2
 70
0
 10
355.915990
 20
20.757175
 30
0.0
 10
372.855991
 20
20.757175
 30
0.0
  0
LWPOLYLINE
  5
152
100
AcDbEntity
  8
Layer_1
 62
7
100
AcDbPolyline
 90
2
 70
0
 10
373.855984
 20
21.757168
 30
0.0
 10
373.855984
 20
51.033155
 30
0.0
  0
LWPOLYLINE
  5
153
100
AcDbEntity
  8
Layer_1
 62
7
100
AcDbPolyline
 90
2
 70
0
 10
355.915990
 20
52.033175
 30
0.0
 10
372.855991
 20
52.033175
 30
0.0
  0
LWPOLYLINE
  5
154
100
AcDbEntity
  8
Layer_1
 62
7
100
AcDbPolyline
 90
2
 70
0
 10
354.915971
 20
21.757168
 30
0.0
 10
354.915971
 20
23.100695
 30
0.0
  0
LWPOLYLINE
  5
155
100
AcDbEntity
  8
Layer_1
 62
7
100
AcDbPolyline
 90
2
 70
0
 10
354.915971
 20
25.813627
 30
0.0
 10
354.915971
 20
46.976696
 30
0.0
  0
SPLINE
  5
156
100
AcDbEntity
  8
Layer_1
 62
7
100
AcDbSpline
 70
8
 71
3
 72
8
 73
4
 74
0
 40
0
 40
0
 40
0
 40
0
 40
1
 40
1
 40
1
 40
1
 10
354.915971
 20
21.757168
 30
0.0
 10
354.915971
 20
21.687828
 30
0.0
 10
354.923035
 20
21.620137
 30
0.0
 10
354.936476
 20
21.554772
 30
0.0
  0
SPLINE
  5
157
100
AcDbEntity
  8
Layer_1
 62
7
100
AcDbSpline
 70
8
 71
3
 72
8
 73
4
 74
0
 40
0
 40
0
 40
0
 40
0
 40
1
 40
1
 40
1
 40
1
 10
354.936476
 20
21.554772
 30
0.0
 10
354.950578
 20
21.486194
 30
0.0
 10
354.971689
 20
21.420181
 30
0.0
 10
354.999042
 20
21.357512
 30
0.0
  0
SPLINE
  5
158
100
AcDbEntity
  8
Layer_1
 62
7
100
AcDbSpline
 70
8
 71
3
 72
8
 73
4
 74
0
 40
0
 40
0
 40
0
 40
0
 40
1
 40
1
 40
1
 40
1
 10
354.999042
 20
21.357512
 30
0.0
 10
355.027733
 20
21.291779
 30
0.0
 10
355.063285
 20
21.229729
 30
0.0
 10
355.104791
 20
21.172266
 30
0.0
  0
SPLINE
  5
159
100
AcDbEntity
  8
Layer_1
 62
7
100
AcDbSpline
 70
8
 71
3
 72
8
 73
4
 74
0
 40
0
 40
0
 40
0
 40
0
 40
1
 40
1
 40
1
 40
1
 10
355.104791
 20
21.172266
 30
0.0
 10
355.144055
 20
21.117910
 30
0.0
 10
355.188645
 20
21.067658
 30
0.0
 10
355.237799
 20
21.022274
 30
0.0
  0
SPLINE
  5
15a
100
AcDbEntity
  8
Layer_1
 62
7
100
AcDbSpline
 70
8
 71
3
 72
8
 73
4
 74
0
 40
0
 40
0
 40
0
 40
0
 40
1
 40
1
 40
1
 40
1
 10
355.237799
 20
21.022274
 30
0.0
 10
355.287697
 20
20.976202
 30
0.0
 10
355.342302
 20
20.935149
 30
0.0
 10
355.400804
 20
20.899915
 30
0.0
  0
SPLINE
  5
15b
100
AcDbEntity
  8
Layer_1
 62
7
100
AcDbSpline
 70
8
 71
3
 72
8
 73
4
 74
0
 40
0
 40
0
 40
0
 40
0
 40
1
 40
1
 40
1
 40
1
 10
355.400804
 20
20.899915
 30
0.0
 10
355.452625
 20
20.868707
 30
0.0
 10
355.507505
 20
20.842064
 30
0.0
 10
355.564888
 20
20.820545
 30
0.0
  0
SPLINE
  5
15c
100
AcDbEntity
  8
Layer_1
 62
7
100
AcDbSpline
 70
8
 71
3
 72
8
 73
4
 74
0
 40
0
 40
0
 40
0
 40
0
 40
1
 40
1
 40
1
 40
1
 10
355.564888
 20
20.820545
 30
0.0
 10
355.621125
 20
20.799458
 30
0.0
 10
355.679767
 20
20.783284
 30
0.0
 10
355.740288
 20
20.772558
 30
0.0
  0
SPLINE
  5
15d
100
AcDbEntity
  8
Layer_1
 62
7
100
AcDbSpline
 70
8
 71
3
 72
8
 73
4
 74
0
 40
0
 40
0
 40
0
 40
0
 40
1
 40
1
 40
1
 40
1
 10
355.740288
 20
20.772558
 30
0.0
 10
355.797335
 20
20.762451
 30
0.0
 10
355.856051
 20
20.757185
 30
0.0
 10
355.916001
 20
20.757185
 30
0.0
  0
SPLINE
  5
15e
100
AcDbEntity
  8
Layer_1
 62
7
100
AcDbSpline
 70
8
 71
3
 72
8
 73
4
 74
0
 40
0
 40
0
 40
0
 40
0
 40
1
 40
1
 40
1
 40
1
 10
373.855984
 20
51.033155
 30
0.0
 10
373.855984
 20
51.069178
 30
0.0
 10
373.854132
 20
51.104760
 30
0.0
 10
373.850375
 20
51.139798
 30
0.0
  0
SPLINE
  5
15f
100
AcDbEntity
  8
Layer_1
 62
7
100
AcDbSpline
 70
8
 71
3
 72
8
 73
4
 74
0
 40
0
 40
0
 40
0
 40
0
 40
1
 40
1
 40
1
 40
1
 10
373.850375
 20
51.139798
 30
0.0
 10
373.847359
 20
51.168140
 30
0.0
 10
373.843178
 20
51.196131
 30
0.0
 10
373.837860
 20
51.223719
 30
0.0
  0
SPLINE
  5
160
100
AcDbEntity
  8
Layer_1
 62
7
100
AcDbSpline
 70
8
 71
3
 72
8
 73
4
 74
0
 40
0
 40
0
 40
0
 40
0
 40
1
 40
1
 40
1
 40
1
 10
373.837860
 20
51.223719
 30
0.0
 10
373.831986
 20
51.254188
 30
0.0
 10
373.824710
 20
51.284166
 30
0.0
 10
373.816138
 20
51.313582
 30
0.0
  0
SPLINE
  5
161
100
AcDbEntity
  8
Layer_1
 62
7
100
AcDbSpline
 70
8
 71
3
 72
8
 73
4
 74
0
 40
0
 40
0
 40
0
 40
0
 40
1
 40
1
 40
1
 40
1
 10
373.816138
 20
51.313582
 30
0.0
 10
373.808200
 20
51.340781
 30
0.0
 10
373.799151
 20
51.367504
 30
0.0
 10
373.789028
 20
51.393690
 30
0.0
  0
SPLINE
  5
162
100
AcDbEntity
  8
Layer_1
 62
7
100
AcDbSpline
 70
8
 71
3
 72
8
 73
4
 74
0
 40
0
 40
0
 40
0
 40
0
 40
1
 40
1
 40
1
 40
1
 10
373.789028
 20
51.393690
 30
0.0
 10
373.775482
 20
51.428731
 30
0.0
 10
373.760014
 20
51.462818
 30
0.0
 10
373.742761
 20
51.495822
 30
0.0
  0
SPLINE
  5
163
100
AcDbEntity
  8
Layer_1
 62
7
100
AcDbSpline
 70
8
 71
3
 72
8
 73
4
 74
0
 40
0
 40
0
 40
0
 40
0
 40
1
 40
1
 40
1
 40
1
 10
373.742761
 20
51.495822
 30
0.0
 10
373.726568
 20
51.526794
 30
0.0
 10
373.708802
 20
51.556811
 30
0.0
 10
373.689566
 20
51.585769
 30
0.0
  0
SPLINE
  5
164
100
AcDbEntity
  8
Layer_1
 62
7
100
AcDbSpline
 70
8
 71
3
 72
8
 73
4
 74
0
 40
0
 40
0
 40
0
 40
0
 40
1
 40
1
 40
1
 40
1
 10
373.689566
 20
51.585769
 30
0.0
 10
373.668664
 20
51.617220
 30
0.0
 10
373.646050
 20
51.647423
 30
0.0
 10
373.621830
 20
51.676236
 30
0.0
  0
SPLINE
  5
165
100
AcDbEntity
  8
Layer_1
 62
7
100
AcDbSpline
 70
8
 71
3
 72
8
 73
4
 74
0
 40
0
 40
0
 40
0
 40
0
 40
1
 40
1
 40
1
 40
1
 10
373.621830
 20
51.676236
 30
0.0
 10
373.596589
 20
51.706269
 30
0.0
 10
373.569607
 20
51.734796
 30
0.0
 10
373.541050
 20
51.761662
 30
0.0
  0
SPLINE
  5
166
100
AcDbEntity
  8
Layer_1
 62
7
100
AcDbSpline
 70
8
 71
3
 72
8
 73
4
 74
0
 40
0
 40
0
 40
0
 40
0
 40
1
 40
1
 40
1
 40
1
 10
373.541050
 20
51.761662
 30
0.0
 10
373.513912
 20
51.787194
 30
0.0
 10
373.485345
 20
51.811223
 30
0.0
 10
373.455484
 20
51.833623
 30
0.0
  0
SPLINE
  5
167
100
AcDbEntity
  8
Layer_1
 62
7
100
AcDbSpline
 70
8
 71
3
 72
8
 73
4
 74
0
 40
0
 40
0
 40
0
 40
0
 40
1
 40
1
 40
1
 40
1
 10
373.455484
 20
51.833623
 30
0.0
 10
373.428158
 20
51.854128
 30
0.0
 10
373.399747
 20
51.873255
 30
0.0
 10
373.370354
 20
51.890921
 30
0.0
  0
SPLINE
  5
168
100
AcDbEntity
  8
Layer_1
 62
7
100
AcDbSpline
 70
8
 71
3
 72
8
 73
4
 74
0
 40
0
 40
0
 40
0
 40
0
 40
1
 40
1
 40
1
 40
1
 10
373.370354
 20
51.890921
 30
0.0
 10
373.343306
 20
51.907167
 30
0.0
 10
373.315427
 20
51.922187
 30
0.0
 10
373.286796
 20
51.935874
 30
0.0
  0
SPLINE
  5
169
100
AcDbEntity
  8
Layer_1
 62
7
100
AcDbSpline
 70
8
 71
3
 72
8
 73
4
 74
0
 40
0
 40
0
 40
0
 40
0
 40
1
 40
1
 40
1
 40
1
 10
373.286796
 20
51.935874
 30
0.0
 10
373.244955
 20
51.955876
 30
0.0
 10
373.201508
 20
51.973059
 30
0.0
 10
373.156698
 20
51.987171
 30
0.0
  0
SPLINE
  5
16a
100
AcDbEntity
  8
Layer_1
 62
7
100
AcDbSpline
 70
8
 71
3
 72
8
 73
4
 74
0
 40
0
 40
0
 40
0
 40
0
 40
1
 40
1
 40
1
 40
1
 10
373.156698
 20
51.987171
 30
0.0
 10
373.115050
 20
52.000295
 30
0.0
 10
373.072227
 20
52.010746
 30
0.0
 10
373.028425
 20
52.018363
 30
0.0
  0
SPLINE
  5
16b
100
AcDbEntity
  8
Layer_1
 62
7
100
AcDbSpline
 70
8
 71
3
 72
8
 73
4
 74
0
 40
0
 40
0
 40
0
 40
0
 40
1
 40
1
 40
1
 40
1
 10
373.028425
 20
52.018363
 30
0.0
 10
372.972408
 20
52.028100
 30
0.0
 10
372.914795
 20
52.033180
 30
0.0
 10
372.855994
 20
52.033180
 30
0.0
  0
SPLINE
  5
16c
100
AcDbEntity
  8
Layer_1
 62
7
100
AcDbSpline
 70
8
 71
3
 72
8
 73
4
 74
0
 40
0
 40
0
 40
0
 40
0
 40
1
 40
1
 40
1
 40
1
 10
372.855991
 20
20.757175
 30
0.0
 10
372.908768
 20
20.757175
 30
0.0
 10
372.960589
 20
20.761276
 30
0.0
 10
373.011156
 20
20.769134
 30
0.0
  0
SPLINE
  5
16d
100
AcDbEntity
  8
Layer_1
 62
7
100
AcDbSpline
 70
8
 71
3
 72
8
 73
4
 74
0
 40
0
 40
0
 40
0
 40
0
 40
1
 40
1
 40
1
 40
1
 10
373.011156
 20
20.769134
 30
0.0
 10
373.051926
 20
20.775484
 30
0.0
 10
373.091881
 20
20.784295
 30
0.0
 10
373.130864
 20
20.795434
 30
0.0
  0
SPLINE
  5
16e
100
AcDbEntity
  8
Layer_1
 62
7
100
AcDbSpline
 70
8
 71
3
 72
8
 73
4
 74
0
 40
0
 40
0
 40
0
 40
0
 40
1
 40
1
 40
1
 40
1
 10
373.130864
 20
20.795434
 30
0.0
 10
373.162106
 20
20.804350
 30
0.0
 10
373.192721
 20
20.814748
 30
0.0
 10
373.222635
 20
20.826533
 30
0.0
  0
SPLINE
  5
16f
100
AcDbEntity
  8
Layer_1
 62
7
100
AcDbSpline
 70
8
 71
3
 72
8
 73
4
 74
0
 40
0
 40
0
 40
0
 40
0
 40
1
 40
1
 40
1
 40
1
 10
373.222635
 20
20.826533
 30
0.0
 10
373.253245
 20
20.838598
 30
0.0
 10
373.283116
 20
20.852144
 30
0.0
 10
373.312162
 20
20.867056
 30
0.0
  0
SPLINE
  5
170
100
AcDbEntity
  8
Layer_1
 62
7
100
AcDbSpline
 70
8
 71
3
 72
8
 73
4
 74
0
 40
0
 40
0
 40
0
 40
0
 40
1
 40
1
 40
1
 40
1
 10
373.312162
 20
20.867056
 30
0.0
 10
373.340168
 20
20.881423
 30
0.0
 10
373.367407
 20
20.897102
 30
0.0
 10
373.393802
 20
20.913972
 30
0.0
  0
SPLINE
  5
171
100
AcDbEntity
  8
Layer_1
 62
7
100
AcDbSpline
 70
8
 71
3
 72
8
 73
4
 74
0
 40
0
 40
0
 40
0
 40
0
 40
1
 40
1
 40
1
 40
1
 10
373.393802
 20
20.913972
 30
0.0
 10
373.416318
 20
20.928365
 30
0.0
 10
373.438215
 20
20.943629
 30
0.0
 10
373.459453
 20
20.959724
 30
0.0
  0
SPLINE
  5
172
100
AcDbEntity
  8
Layer_1
 62
7
100
AcDbSpline
 70
8
 71
3
 72
8
 73
4
 74
0
 40
0
 40
0
 40
0
 40
0
 40
1
 40
1
 40
1
 40
1
 10
373.459453
 20
20.959724
 30
0.0
 10
373.492097
 20
20.984462
 30
0.0
 10
373.523173
 20
21.011164
 30
0.0
 10
373.552510
 20
21.039647
 30
0.0
  0
SPLINE
  5
173
100
AcDbEntity
  8
Layer_1
 62
7
100
AcDbSpline
 70
8
 71
3
 72
8
 73
4
 74
0
 40
0
 40
0
 40
0
 40
0
 40
1
 40
1
 40
1
 40
1
 10
373.552510
 20
21.039647
 30
0.0
 10
373.567167
 20
21.053855
 30
0.0
 10
373.581365
 20
21.068529
 30
0.0
 10
373.595118
 20
21.083612
 30
0.0
  0
SPLINE
  5
174
100
AcDbEntity
  8
Layer_1
 62
7
100
AcDbSpline
 70
8
 71
3
 72
8
 73
4
 74
0
 40
0
 40
0
 40
0
 40
0
 40
1
 40
1
 40
1
 40
1
 10
373.595118
 20
21.083612
 30
0.0
 10
373.609723
 20
21.099620
 30
0.0
 10
373.623796
 20
21.116101
 30
0.0
 10
373.637338
 20
21.133034
 30
0.0
  0
SPLINE
  5
175
100
AcDbEntity
  8
Layer_1
 62
7
100
AcDbSpline
 70
8
 71
3
 72
8
 73
4
 74
0
 40
0
 40
0
 40
0
 40
0
 40
1
 40
1
 40
1
 40
1
 10
373.637338
 20
21.133034
 30
0.0
 10
373.645275
 20
21.142956
 30
0.0
 10
373.653027
 20
21.153036
 30
0.0
 10
373.660594
 20
21.163257
 30
0.0
  0
SPLINE
  5
176
100
AcDbEntity
  8
Layer_1
 62
7
100
AcDbSpline
 70
8
 71
3
 72
8
 73
4
 74
0
 40
0
 40
0
 40
0
 40
0
 40
1
 40
1
 40
1
 40
1
 10
373.660594
 20
21.163257
 30
0.0
 10
373.671284
 20
21.177704
 30
0.0
 10
373.681576
 20
21.192459
 30
0.0
 10
373.691495
 20
21.207493
 30
0.0
  0
SPLINE
  5
177
100
AcDbEntity
  8
Layer_1
 62
7
100
AcDbSpline
 70
8
 71
3
 72
8
 73
4
 74
0
 40
0
 40
0
 40
0
 40
0
 40
1
 40
1
 40
1
 40
1
 10
373.691495
 20
21.207493
 30
0.0
 10
373.706497
 20
21.230221
 30
0.0
 10
373.720568
 20
21.253612
 30
0.0
 10
373.733699
 20
21.277592
 30
0.0
  0
SPLINE
  5
178
100
AcDbEntity
  8
Layer_1
 62
7
100
AcDbSpline
 70
8
 71
3
 72
8
 73
4
 74
0
 40
0
 40
0
 40
0
 40
0
 40
1
 40
1
 40
1
 40
1
 10
373.733699
 20
21.277592
 30
0.0
 10
373.743462
 20
21.295398
 30
0.0
 10
373.752669
 20
21.313527
 30
0.0
 10
373.761348
 20
21.331969
 30
0.0
  0
SPLINE
  5
179
100
AcDbEntity
  8
Layer_1
 62
7
100
AcDbSpline
 70
8
 71
3
 72
8
 73
4
 74
0
 40
0
 40
0
 40
0
 40
0
 40
1
 40
1
 40
1
 40
1
 10
373.761348
 20
21.331969
 30
0.0
 10
373.774550
 20
21.360057
 30
0.0
 10
373.786510
 20
21.388860
 30
0.0
 10
373.797112
 20
21.418302
 30
0.0
  0
SPLINE
  5
17a
100
AcDbEntity
  8
Layer_1
 62
7
100
AcDbSpline
 70
8
 71
3
 72
8
 73
4
 74
0
 40
0
 40
0
 40
0
 40
0
 40
1
 40
1
 40
1
 40
1
 10
373.797112
 20
21.418302
 30
0.0
 10
373.808012
 20
21.448542
 30
0.0
 10
373.817484
 20
21.479458
 30
0.0
 10
373.825456
 20
21.510973
 30
0.0
  0
SPLINE
  5
17b
100
AcDbEntity
  8
Layer_1
 62
7
100
AcDbSpline
 70
8
 71
3
 72
8
 73
4
 74
0
 40
0
 40
0
 40
0
 40
0
 40
1
 40
1
 40
1
 40
1
 10
373.825456
 20
21.510973
 30
0.0
 10
373.835907
 20
21.552295
 30
0.0
 10
373.843818
 20
21.594642
 30
0.0
 10
373.848951
 20
21.637832
 30
0.0
  0
SPLINE
  5
17c
100
AcDbEntity
  8
Layer_1
 62
7
100
AcDbSpline
 70
8
 71
3
 72
8
 73
4
 74
0
 40
0
 40
0
 40
0
 40
0
 40
1
 40
1
 40
1
 40
1
 10
373.848951
 20
21.637832
 30
0.0
 10
373.853608
 20
21.676964
 30
0.0
 10
373.855989
 20
21.716789
 30
0.0
 10
373.855989
 20
21.757173
 30
0.0
  0
SPLINE
  5
17d
100
AcDbEntity
  8
Layer_1
 62
7
100
AcDbSpline
 70
8
 71
3
 72
8
 73
4
 74
0
 40
0
 40
0
 40
0
 40
0
 40
1
 40
1
 40
1
 40
1
 10
355.915990
 20
52.033175
 30
0.0
 10
355.872490
 20
52.033175
 30
0.0
 10
355.829638
 20
52.030396
 30
0.0
 10
355.787604
 20
52.024999
 30
0.0
  0
SPLINE
  5
17e
100
AcDbEntity
  8
Layer_1
 62
7
100
AcDbSpline
 70
8
 71
3
 72
8
 73
4
 74
0
 40
0
 40
0
 40
0
 40
0
 40
1
 40
1
 40
1
 40
1
 10
355.787604
 20
52.024999
 30
0.0
 10
355.757256
 20
52.021110
 30
0.0
 10
355.727334
 20
52.015871
 30
0.0
 10
355.697902
 20
52.009309
 30
0.0
  0
SPLINE
  5
17f
100
AcDbEntity
  8
Layer_1
 62
7
100
AcDbSpline
 70
8
 71
3
 72
8
 73
4
 74
0
 40
0
 40
0
 40
0
 40
0
 40
1
 40
1
 40
1
 40
1
 10
355.697902
 20
52.009309
 30
0.0
 10
355.675703
 20
52.004361
 30
0.0
 10
355.653756
 20
51.998699
 30
0.0
 10
355.632129
 20
51.992296
 30
0.0
  0
SPLINE
  5
180
100
AcDbEntity
  8
Layer_1
 62
7
100
AcDbSpline
 70
8
 71
3
 72
8
 73
4
 74
0
 40
0
 40
0
 40
0
 40
0
 40
1
 40
1
 40
1
 40
1
 10
355.632129
 20
51.992296
 30
0.0
 10
355.594114
 20
51.981052
 30
0.0
 10
355.557043
 20
51.967637
 30
0.0
 10
355.521060
 20
51.952151
 30
0.0
  0
SPLINE
  5
181
100
AcDbEntity
  8
Layer_1
 62
7
100
AcDbSpline
 70
8
 71
3
 72
8
 73
4
 74
0
 40
0
 40
0
 40
0
 40
0
 40
1
 40
1
 40
1
 40
1
 10
355.521060
 20
51.952151
 30
0.0
 10
355.480547
 20
51.934715
 30
0.0
 10
355.441412
 20
51.914684
 30
0.0
 10
355.403873
 20
51.892260
 30
0.0
  0
SPLINE
  5
182
100
AcDbEntity
  8
Layer_1
 62
7
100
AcDbSpline
 70
8
 71
3
 72
8
 73
4
 74
0
 40
0
 40
0
 40
0
 40
0
 40
1
 40
1
 40
1
 40
1
 10
355.403873
 20
51.892260
 30
0.0
 10
355.368744
 20
51.871279
 30
0.0
 10
355.335013
 20
51.848196
 30
0.0
 10
355.302847
 20
51.823199
 30
0.0
  0
SPLINE
  5
183
100
AcDbEntity
  8
Layer_1
 62
7
100
AcDbSpline
 70
8
 71
3
 72
8
 73
4
 74
0
 40
0
 40
0
 40
0
 40
0
 40
1
 40
1
 40
1
 40
1
 10
355.302847
 20
51.823199
 30
0.0
 10
355.265959
 20
51.794531
 30
0.0
 10
355.231132
 20
51.763334
 30
0.0
 10
355.198625
 20
51.729872
 30
0.0
  0
SPLINE
  5
184
100
AcDbEntity
  8
Layer_1
 62
7
100
AcDbSpline
 70
8
 71
3
 72
8
 73
4
 74
0
 40
0
 40
0
 40
0
 40
0
 40
1
 40
1
 40
1
 40
1
 10
355.198625
 20
51.729872
 30
0.0
 10
355.160657
 20
51.690788
 30
0.0
 10
355.125857
 20
51.648611
 30
0.0
 10
355.094636
 20
51.603753
 30
0.0
  0
SPLINE
  5
185
100
AcDbEntity
  8
Layer_1
 62
7
100
AcDbSpline
 70
8
 71
3
 72
8
 73
4
 74
0
 40
0
 40
0
 40
0
 40
0
 40
1
 40
1
 40
1
 40
1
 10
355.094636
 20
51.603753
 30
0.0
 10
355.066643
 20
51.563536
 30
0.0
 10
355.041529
 20
51.521166
 30
0.0
 10
355.019590
 20
51.476938
 30
0.0
  0
SPLINE
  5
186
100
AcDbEntity
  8
Layer_1
 62
7
100
AcDbSpline
 70
8
 71
3
 72
8
 73
4
 74
0
 40
0
 40
0
 40
0
 40
0
 40
1
 40
1
 40
1
 40
1
 10
355.019590
 20
51.476938
 30
0.0
 10
355.004006
 20
51.445527
 30
0.0
 10
354.990030
 20
51.413179
 30
0.0
 10
354.977759
 20
51.380000
 30
0.0
  0
SPLINE
  5
187
100
AcDbEntity
  8
Layer_1
 62
7
100
AcDbSpline
 70
8
 71
3
 72
8
 73
4
 74
0
 40
0
 40
0
 40
0
 40
0
 40
1
 40
1
 40
1
 40
1
 10
354.977759
 20
51.380000
 30
0.0
 10
354.967811
 20
51.353111
 30
0.0
 10
354.959000
 20
51.325673
 30
0.0
 10
354.951354
 20
51.297749
 30
0.0
  0
SPLINE
  5
188
100
AcDbEntity
  8
Layer_1
 62
7
100
AcDbSpline
 70
8
 71
3
 72
8
 73
4
 74
0
 40
0
 40
0
 40
0
 40
0
 40
1
 40
1
 40
1
 40
1
 10
354.951354
 20
51.297749
 30
0.0
 10
354.945295
 20
51.275630
 30
0.0
 10
354.940003
 20
51.253220
 30
0.0
 10
354.935452
 20
51.230524
 30
0.0
  0
SPLINE
  5
189
100
AcDbEntity
  8
Layer_1
 62
7
100
AcDbSpline
 70
8
 71
3
 72
8
 73
4
 74
0
 40
0
 40
0
 40
0
 40
0
 40
1
 40
1
 40
1
 40
1
 10
354.935452
 20
51.230524
 30
0.0
 10
354.929764
 20
51.202129
 30
0.0
 10
354.925292
 20
51.173300
 30
0.0
 10
354.922064
 20
51.144092
 30
0.0
  0
SPLINE
  5
18a
100
AcDbEntity
  8
Layer_1
 62
7
100
AcDbSpline
 70
8
 71
3
 72
8
 73
4
 74
0
 40
0
 40
0
 40
0
 40
0
 40
1
 40
1
 40
1
 40
1
 10
354.922064
 20
51.144092
 30
0.0
 10
354.918042
 20
51.107659
 30
0.0
 10
354.915979
 20
51.070639
 30
0.0
 10
354.915979
 20
51.033134
 30
0.0
  0
SPLINE
  5
18b
100
AcDbEntity
  8
Layer_1
 62
7
100
AcDbSpline
 70
8
 71
3
 72
8
 73
4
 74
0
 40
0
 40
0
 40
0
 40
0
 40
1
 40
1
 40
1
 40
1
 10
354.915971
 20
25.813627
 30
0.0
 10
354.871272
 20
25.744428
 30
0.0
 10
354.830322
 20
25.673572
 30
0.0
 10
354.793117
 20
25.601339
 30
0.0
  0
SPLINE
  5
18c
100
AcDbEntity
  8
Layer_1
 62
7
100
AcDbSpline
 70
8
 71
3
 72
8
 73
4
 74
0
 40
0
 40
0
 40
0
 40
0
 40
1
 40
1
 40
1
 40
1
 10
354.793117
 20
25.601339
 30
0.0
 10
354.748865
 20
25.515428
 30
0.0
 10
354.709916
 20
25.427565
 30
0.0
 10
354.676264
 20
25.338221
 30
0.0
  0
SPLINE
  5
18d
100
AcDbEntity
  8
Layer_1
 62
7
100
AcDbSpline
 70
8
 71
3
 72
8
 73
4
 74
0
 40
0
 40
0
 40
0
 40
0
 40
1
 40
1
 40
1
 40
1
 10
354.676264
 20
25.338221
 30
0.0
 10
354.643389
 20
25.250946
 30
0.0
 10
354.615573
 20
25.162252
 30
0.0
 10
354.592814
 20
25.072582
 30
0.0
  0
SPLINE
  5
18e
100
AcDbEntity
  8
Layer_1
 62
7
100
AcDbSpline
 70
8
 71
3
 72
8
 73
4
 74
0
 40
0
 40
0
 40
0
 40
0
 40
1
 40
1
 40
1
 40
1
 10
354.592814
 20
25.072582
 30
0.0
 10
354.574373
 20
24.999956
 30
0.0
 10
354.559262
 20
24.926691
 30
0.0
 10
354.547462
 20
24.853015
 30
0.0
  0
SPLINE
  5
18f
100
AcDbEntity
  8
Layer_1
 62
7
100
AcDbSpline
 70
8
 71
3
 72
8
 73
4
 74
0
 40
0
 40
0
 40
0
 40
0
 40
1
 40
1
 40
1
 40
1
 10
354.547462
 20
24.853015
 30
0.0
 10
354.525766
 20
24.717511
 30
0.0
 10
354.515275
 20
24.580616
 30
0.0
 10
354.516005
 20
24.443768
 30
0.0
  0
SPLINE
  5
190
100
AcDbEntity
  8
Layer_1
 62
7
100
AcDbSpline
 70
8
 71
3
 72
8
 73
4
 74
0
 40
0
 40
0
 40
0
 40
0
 40
1
 40
1
 40
1
 40
1
 10
354.516005
 20
24.443768
 30
0.0
 10
354.516535
 20
24.333976
 30
0.0
 10
354.524393
 20
24.224217
 30
0.0
 10
354.539421
 20
24.115229
 30
0.0
  0
SPLINE
  5
191
100
AcDbEntity
  8
Layer_1
 62
7
100
AcDbSpline
 70
8
 71
3
 72
8
 73
4
 74
0
 40
0
 40
0
 40
0
 40
0
 40
1
 40
1
 40
1
 40
1
 10
354.539421
 20
24.115229
 30
0.0
 10
354.556619
 20
23.990455
 30
0.0
 10
354.583292
 20
23.866693
 30
0.0
 10
354.619423
 20
23.745062
 30
0.0
  0
SPLINE
  5
192
100
AcDbEntity
  8
Layer_1
 62
7
100
AcDbSpline
 70
8
 71
3
 72
8
 73
4
 74
0
 40
0
 40
0
 40
0
 40
0
 40
1
 40
1
 40
1
 40
1
 10
354.619423
 20
23.745062
 30
0.0
 10
354.652631
 20
23.633267
 30
0.0
 10
354.693832
 20
23.523275
 30
0.0
 10
354.743029
 20
23.415944
 30
0.0
  0
SPLINE
  5
193
100
AcDbEntity
  8
Layer_1
 62
7
100
AcDbSpline
 70
8
 71
3
 72
8
 73
4
 74
0
 40
0
 40
0
 40
0
 40
0
 40
1
 40
1
 40
1
 40
1
 10
354.743029
 20
23.415944
 30
0.0
 10
354.792566
 20
23.307864
 30
0.0
 10
354.850211
 20
23.202488
 30
0.0
 10
354.915963
 20
23.100695
 30
0.0
  0
SPLINE
  5
194
100
AcDbEntity
  8
Layer_1
 62
7
100
AcDbSpline
 70
8
 71
3
 72
8
 73
4
 74
0
 40
0
 40
0
 40
0
 40
0
 40
1
 40
1
 40
1
 40
1
 10
354.915971
 20
49.689628
 30
0.0
 10
354.881974
 20
49.636997
 30
0.0
 10
354.850145
 20
49.583405
 30
0.0
 10
354.820483
 20
49.528978
 30
0.0
  0
SPLINE
  5
195
100
AcDbEntity
  8
Layer_1
 62
7
100
AcDbSpline
 70
8
 71
3
 72
8
 73
4
 74
0
 40
0
 40
0
 40
0
 40
0
 40
1
 40
1
 40
1
 40
1
 10
354.820483
 20
49.528978
 30
0.0
 10
354.794606
 20
49.481506
 30
0.0
 10
354.770384
 20
49.433394
 30
0.0
 10
354.747810
 20
49.384730
 30
0.0
  0
SPLINE
  5
196
100
AcDbEntity
  8
Layer_1
 62
7
100
AcDbSpline
 70
8
 71
3
 72
8
 73
4
 74
0
 40
0
 40
0
 40
0
 40
0
 40
1
 40
1
 40
1
 40
1
 10
354.747810
 20
49.384730
 30
0.0
 10
354.718459
 20
49.321465
 30
0.0
 10
354.691898
 20
49.257261
 30
0.0
 10
354.668122
 20
49.192296
 30
0.0
  0
SPLINE
  5
197
100
AcDbEntity
  8
Layer_1
 62
7
100
AcDbSpline
 70
8
 71
3
 72
8
 73
4
 74
0
 40
0
 40
0
 40
0
 40
0
 40
1
 40
1
 40
1
 40
1
 10
354.668122
 20
49.192296
 30
0.0
 10
354.643331
 20
49.124530
 30
0.0
 10
354.621550
 20
49.055937
 30
0.0
 10
354.602815
 20
48.986720
 30
0.0
  0
SPLINE
  5
198
100
AcDbEntity
  8
Layer_1
 62
7
100
AcDbSpline
 70
8
 71
3
 72
8
 73
4
 74
0
 40
0
 40
0
 40
0
 40
0
 40
1
 40
1
 40
1
 40
1
 10
354.602815
 20
48.986720
 30
0.0
 10
354.582919
 20
48.913189
 30
0.0
 10
354.566427
 20
48.838952
 30
0.0
 10
354.553365
 20
48.764255
 30
0.0
  0
SPLINE
  5
199
100
AcDbEntity
  8
Layer_1
 62
7
100
AcDbSpline
 70
8
 71
3
 72
8
 73
4
 74
0
 40
0
 40
0
 40
0
 40
0
 40
1
 40
1
 40
1
 40
1
 10
354.553365
 20
48.764255
 30
0.0
 10
354.542226
 20
48.700467
 30
0.0
 10
354.533547
 20
48.636340
 30
0.0
 10
354.527383
 20
48.572030
 30
0.0
  0
SPLINE
  5
19a
100
AcDbEntity
  8
Layer_1
 62
7
100
AcDbSpline
 70
8
 71
3
 72
8
 73
4
 74
0
 40
0
 40
0
 40
0
 40
0
 40
1
 40
1
 40
1
 40
1
 10
354.527383
 20
48.572030
 30
0.0
 10
354.519948
 20
48.494356
 30
0.0
 10
354.516138
 20
48.416410
 30
0.0
 10
354.515979
 20
48.338461
 30
0.0
  0
SPLINE
  5
19b
100
AcDbEntity
  8
Layer_1
 62
7
100
AcDbSpline
 70
8
 71
3
 72
8
 73
4
 74
0
 40
0
 40
0
 40
0
 40
0
 40
1
 40
1
 40
1
 40
1
 10
354.515979
 20
48.338461
 30
0.0
 10
354.515820
 20
48.262783
 30
0.0
 10
354.519101
 20
48.187098
 30
0.0
 10
354.525795
 20
48.111653
 30
0.0
  0
SPLINE
  5
19c
100
AcDbEntity
  8
Layer_1
 62
7
100
AcDbSpline
 70
8
 71
3
 72
8
 73
4
 74
0
 40
0
 40
0
 40
0
 40
0
 40
1
 40
1
 40
1
 40
1
 10
354.525795
 20
48.111653
 30
0.0
 10
354.532224
 20
48.039276
 30
0.0
 10
354.541802
 20
47.967116
 30
0.0
 10
354.554550
 20
47.895393
 30
0.0
  0
SPLINE
  5
19d
100
AcDbEntity
  8
Layer_1
 62
7
100
AcDbSpline
 70
8
 71
3
 72
8
 73
4
 74
0
 40
0
 40
0
 40
0
 40
0
 40
1
 40
1
 40
1
 40
1
 10
354.554550
 20
47.895393
 30
0.0
 10
354.571774
 20
47.798508
 30
0.0
 10
354.594732
 20
47.702416
 30
0.0
 10
354.623463
 20
47.607645
 30
0.0
  0
SPLINE
  5
19e
100
AcDbEntity
  8
Layer_1
 62
7
100
AcDbSpline
 70
8
 71
3
 72
8
 73
4
 74
0
 40
0
 40
0
 40
0
 40
0
 40
1
 40
1
 40
1
 40
1
 10
354.623463
 20
47.607645
 30
0.0
 10
354.647646
 20
47.527913
 30
0.0
 10
354.675885
 20
47.449117
 30
0.0
 10
354.708209
 20
47.371573
 30
0.0
  0
SPLINE
  5
19f
100
AcDbEntity
  8
Layer_1
 62
7
100
AcDbSpline
 70
8
 71
3
 72
8
 73
4
 74
0
 40
0
 40
0
 40
0
 40
0
 40
1
 40
1
 40
1
 40
1
 10
354.708209
 20
47.371573
 30
0.0
 10
354.736128
 20
47.304599
 30
0.0
 10
354.767087
 20
47.238557
 30
0.0
 10
354.801089
 20
47.173649
 30
0.0
  0
SPLINE
  5
1a0
100
AcDbEntity
  8
Layer_1
 62
7
100
AcDbSpline
 70
8
 71
3
 72
8
 73
4
 74
0
 40
0
 40
0
 40
0
 40
0
 40
1
 40
1
 40
1
 40
1
 10
354.801089
 20
47.173649
 30
0.0
 10
354.836151
 20
47.106717
 30
0.0
 10
354.874447
 20
47.040992
 30
0.0
 10
354.915979
 20
46.976696
 30
0.0
  0
LWPOLYLINE
  5
1a1
100
AcDbEntity
  8
Layer_1
 62
7
100
AcDbPolyline
 90
2
 70
0
 10
354.915971
 20
49.689628
 30
0.0
 10
354.915971
 20
51.033155
 30
0.0
  0
LWPOLYLINE
  5
1a2
100
AcDbEntity
  8
Layer_1
 62
7
100
AcDbPolyline
 90
2
 70
0
 10
50.087222
 20
36.334230
 30
0.0
 10
50.087222
 20
53.274231
 30
0.0
  0
LWPOLYLINE
  5
1a3
100
AcDbEntity
  8
Layer_1
 62
7
100
AcDbPolyline
 90
2
 70
0
 10
49.087230
 20
54.274224
 30
0.0
 10
19.811242
 20
54.274224
 30
0.0
  0
LWPOLYLINE
  5
1a4
100
AcDbEntity
  8
Layer_1
 62
7
100
AcDbPolyline
 90
2
 70
0
 10
18.811222
 20
36.334230
 30
0.0
 10
18.811222
 20
53.274231
 30
0.0
  0
LWPOLYLINE
  5
1a5
100
AcDbEntity
  8
Layer_1
 62
7
100
AcDbPolyline
 90
2
 70
0
 10
49.087230
 20
35.334211
 30
0.0
 10
47.743702
 20
35.334211
 30
0.0
  0
LWPOLYLINE
  5
1a6
100
AcDbEntity
  8
Layer_1
 62
7
100
AcDbPolyline
 90
2
 70
0
 10
45.030770
 20
35.334211
 30
0.0
 10
23.867701
 20
35.334211
 30
0.0
  0
SPLINE
  5
1a7
100
AcDbEntity
  8
Layer_1
 62
7
100
AcDbSpline
 70
8
 71
3
 72
8
 73
4
 74
0
 40
0
 40
0
 40
0
 40
0
 40
1
 40
1
 40
1
 40
1
 10
49.087230
 20
35.334211
 30
0.0
 10
49.156569
 20
35.334211
 30
0.0
 10
49.224260
 20
35.341275
 30
0.0
 10
49.289625
 20
35.354716
 30
0.0
  0
SPLINE
  5
1a8
100
AcDbEntity
  8
Layer_1
 62
7
100
AcDbSpline
 70
8
 71
3
 72
8
 73
4
 74
0
 40
0
 40
0
 40
0
 40
0
 40
1
 40
1
 40
1
 40
1
 10
49.289625
 20
35.354716
 30
0.0
 10
49.358203
 20
35.368818
 30
0.0
 10
49.424216
 20
35.389929
 30
0.0
 10
49.486885
 20
35.417282
 30
0.0
  0
SPLINE
  5
1a9
100
AcDbEntity
  8
Layer_1
 62
7
100
AcDbSpline
 70
8
 71
3
 72
8
 73
4
 74
0
 40
0
 40
0
 40
0
 40
0
 40
1
 40
1
 40
1
 40
1
 10
49.486885
 20
35.417282
 30
0.0
 10
49.552618
 20
35.445973
 30
0.0
 10
49.614668
 20
35.481525
 30
0.0
 10
49.672131
 20
35.523031
 30
0.0
  0
SPLINE
  5
1aa
100
AcDbEntity
  8
Layer_1
 62
7
100
AcDbSpline
 70
8
 71
3
 72
8
 73
4
 74
0
 40
0
 40
0
 40
0
 40
0
 40
1
 40
1
 40
1
 40
1
 10
49.672131
 20
35.523031
 30
0.0
 10
49.726487
 20
35.562295
 30
0.0
 10
49.776739
 20
35.606885
 30
0.0
 10
49.822123
 20
35.656039
 30
0.0
  0
SPLINE
  5
1ab
100
AcDbEntity
  8
Layer_1
 62
7
100
AcDbSpline
 70
8
 71
3
 72
8
 73
4
 74
0
 40
0
 40
0
 40
0
 40
0
 40
1
 40
1
 40
1
 40
1
 10
49.822123
 20
35.656039
 30
0.0
 10
49.868195
 20
35.705937
 30
0.0
 10
49.909248
 20
35.760542
 30
0.0
 10
49.944482
 20
35.819044
 30
0.0
  0
SPLINE
  5
1ac
100
AcDbEntity
  8
Layer_1
 62
7
100
AcDbSpline
 70
8
 71
3
 72
8
 73
4
 74
0
 40
0
 40
0
 40
0
 40
0
 40
1
 40
1
 40
1
 40
1
 10
49.944482
 20
35.819044
 30
0.0
 10
49.975690
 20
35.870865
 30
0.0
 10
50.002333
 20
35.925745
 30
0.0
 10
50.023852
 20
35.983128
 30
0.0
  0
SPLINE
  5
1ad
100
AcDbEntity
  8
Layer_1
 62
7
100
AcDbSpline
 70
8
 71
3
 72
8
 73
4
 74
0
 40
0
 40
0
 40
0
 40
0
 40
1
 40
1
 40
1
 40
1
 10
50.023852
 20
35.983128
 30
0.0
 10
50.044939
 20
36.039365
 30
0.0
 10
50.061113
 20
36.098007
 30
0.0
 10
50.071839
 20
36.158528
 30
0.0
  0
SPLINE
  5
1ae
100
AcDbEntity
  8
Layer_1
 62
7
100
AcDbSpline
 70
8
 71
3
 72
8
 73
4
 74
0
 40
0
 40
0
 40
0
 40
0
 40
1
 40
1
 40
1
 40
1
 10
50.071839
 20
36.158528
 30
0.0
 10
50.081946
 20
36.215575
 30
0.0
 10
50.087212
 20
36.274291
 30
0.0
 10
50.087212
 20
36.334241
 30
0.0
  0
SPLINE
  5
1af
100
AcDbEntity
  8
Layer_1
 62
7
100
AcDbSpline
 70
8
 71
3
 72
8
 73
4
 74
0
 40
0
 40
0
 40
0
 40
0
 40
1
 40
1
 40
1
 40
1
 10
19.811242
 20
54.274224
 30
0.0
 10
19.775219
 20
54.274224
 30
0.0
 10
19.739637
 20
54.272372
 30
0.0
 10
19.704599
 20
54.268615
 30
0.0
  0
SPLINE
  5
1b0
100
AcDbEntity
  8
Layer_1
 62
7
100
AcDbSpline
 70
8
 71
3
 72
8
 73
4
 74
0
 40
0
 40
0
 40
0
 40
0
 40
1
 40
1
 40
1
 40
1
 10
19.704599
 20
54.268615
 30
0.0
 10
19.676257
 20
54.265599
 30
0.0
 10
19.648266
 20
54.261418
 30
0.0
 10
19.620678
 20
54.256100
 30
0.0
  0
SPLINE
  5
1b1
100
AcDbEntity
  8
Layer_1
 62
7
100
AcDbSpline
 70
8
 71
3
 72
8
 73
4
 74
0
 40
0
 40
0
 40
0
 40
0
 40
1
 40
1
 40
1
 40
1
 10
19.620678
 20
54.256100
 30
0.0
 10
19.590209
 20
54.250226
 30
0.0
 10
19.560231
 20
54.242950
 30
0.0
 10
19.530815
 20
54.234378
 30
0.0
  0
SPLINE
  5
1b2
100
AcDbEntity
  8
Layer_1
 62
7
100
AcDbSpline
 70
8
 71
3
 72
8
 73
4
 74
0
 40
0
 40
0
 40
0
 40
0
 40
1
 40
1
 40
1
 40
1
 10
19.530815
 20
54.234378
 30
0.0
 10
19.503616
 20
54.226440
 30
0.0
 10
19.476893
 20
54.217391
 30
0.0
 10
19.450707
 20
54.207268
 30
0.0
  0
SPLINE
  5
1b3
100
AcDbEntity
  8
Layer_1
 62
7
100
AcDbSpline
 70
8
 71
3
 72
8
 73
4
 74
0
 40
0
 40
0
 40
0
 40
0
 40
1
 40
1
 40
1
 40
1
 10
19.450707
 20
54.207268
 30
0.0
 10
19.415666
 20
54.193722
 30
0.0
 10
19.381580
 20
54.178254
 30
0.0
 10
19.348575
 20
54.161001
 30
0.0
  0
SPLINE
  5
1b4
100
AcDbEntity
  8
Layer_1
 62
7
100
AcDbSpline
 70
8
 71
3
 72
8
 73
4
 74
0
 40
0
 40
0
 40
0
 40
0
 40
1
 40
1
 40
1
 40
1
 10
19.348575
 20
54.161001
 30
0.0
 10
19.317603
 20
54.144808
 30
0.0
 10
19.287586
 20
54.127042
 30
0.0
 10
19.258628
 20
54.107806
 30
0.0
  0
SPLINE
  5
1b5
100
AcDbEntity
  8
Layer_1
 62
7
100
AcDbSpline
 70
8
 71
3
 72
8
 73
4
 74
0
 40
0
 40
0
 40
0
 40
0
 40
1
 40
1
 40
1
 40
1
 10
19.258628
 20
54.107806
 30
0.0
 10
19.227177
 20
54.086904
 30
0.0
 10
19.196974
 20
54.064290
 30
0.0
 10
19.168161
 20
54.040070
 30
0.0
  0
SPLINE
  5
1b6
100
AcDbEntity
  8
Layer_1
 62
7
100
AcDbSpline
 70
8
 71
3
 72
8
 73
4
 74
0
 40
0
 40
0
 40
0
 40
0
 40
1
 40
1
 40
1
 40
1
 10
19.168161
 20
54.040070
 30
0.0
 10
19.138128
 20
54.014829
 30
0.0
 10
19.109601
 20
53.987847
 30
0.0
 10
19.082735
 20
53.959290
 30
0.0
  0
SPLINE
  5
1b7
100
AcDbEntity
  8
Layer_1
 62
7
100
AcDbSpline
 70
8
 71
3
 72
8
 73
4
 74
0
 40
0
 40
0
 40
0
 40
0
 40
1
 40
1
 40
1
 40
1
 10
19.082735
 20
53.959290
 30
0.0
 10
19.057203
 20
53.932152
 30
0.0
 10
19.033174
 20
53.903585
 30
0.0
 10
19.010774
 20
53.873724
 30
0.0
  0
SPLINE
  5
1b8
100
AcDbEntity
  8
Layer_1
 62
7
100
AcDbSpline
 70
8
 71
3
 72
8
 73
4
 74
0
 40
0
 40
0
 40
0
 40
0
 40
1
 40
1
 40
1
 40
1
 10
19.010774
 20
53.873724
 30
0.0
 10
18.990269
 20
53.846398
 30
0.0
 10
18.971142
 20
53.817987
 30
0.0
 10
18.953476
 20
53.788594
 30
0.0
  0
SPLINE
  5
1b9
100
AcDbEntity
  8
Layer_1
 62
7
100
AcDbSpline
 70
8
 71
3
 72
8
 73
4
 74
0
 40
0
 40
0
 40
0
 40
0
 40
1
 40
1
 40
1
 40
1
 10
18.953476
 20
53.788594
 30
0.0
 10
18.937230
 20
53.761546
 30
0.0
 10
18.922210
 20
53.733667
 30
0.0
 10
18.908523
 20
53.705036
 30
0.0
  0
SPLINE
  5
1ba
100
AcDbEntity
  8
Layer_1
 62
7
100
AcDbSpline
 70
8
 71
3
 72
8
 73
4
 74
0
 40
0
 40
0
 40
0
 40
0
 40
1
 40
1
 40
1
 40
1
 10
18.908523
 20
53.705036
 30
0.0
 10
18.888521
 20
53.663195
 30
0.0
 10
18.871338
 20
53.619748
 30
0.0
 10
18.857226
 20
53.574938
 30
0.0
  0
SPLINE
  5
1bb
100
AcDbEntity
  8
Layer_1
 62
7
100
AcDbSpline
 70
8
 71
3
 72
8
 73
4
 74
0
 40
0
 40
0
 40
0
 40
0
 40
1
 40
1
 40
1
 40
1
 10
18.857226
 20
53.574938
 30
0.0
 10
18.844102
 20
53.533290
 30
0.0
 10
18.833651
 20
53.490467
 30
0.0
 10
18.826034
 20
53.446665
 30
0.0
  0
SPLINE
  5
1bc
100
AcDbEntity
  8
Layer_1
 62
7
100
AcDbSpline
 70
8
 71
3
 72
8
 73
4
 74
0
 40
0
 40
0
 40
0
 40
0
 40
1
 40
1
 40
1
 40
1
 10
18.826034
 20
53.446665
 30
0.0
 10
18.816297
 20
53.390648
 30
0.0
 10
18.811217
 20
53.333035
 30
0.0
 10
18.811217
 20
53.274234
 30
0.0
  0
SPLINE
  5
1bd
100
AcDbEntity
  8
Layer_1
 62
7
100
AcDbSpline
 70
8
 71
3
 72
8
 73
4
 74
0
 40
0
 40
0
 40
0
 40
0
 40
1
 40
1
 40
1
 40
1
 10
50.087222
 20
53.274231
 30
0.0
 10
50.087222
 20
53.327008
 30
0.0
 10
50.083121
 20
53.378829
 30
0.0
 10
50.075263
 20
53.429396
 30
0.0
  0
SPLINE
  5
1be
100
AcDbEntity
  8
Layer_1
 62
7
100
AcDbSpline
 70
8
 71
3
 72
8
 73
4
 74
0
 40
0
 40
0
 40
0
 40
0
 40
1
 40
1
 40
1
 40
1
 10
50.075263
 20
53.429396
 30
0.0
 10
50.068913
 20
53.470166
 30
0.0
 10
50.060102
 20
53.510120
 30
0.0
 10
50.048963
 20
53.549104
 30
0.0
  0
SPLINE
  5
1bf
100
AcDbEntity
  8
Layer_1
 62
7
100
AcDbSpline
 70
8
 71
3
 72
8
 73
4
 74
0
 40
0
 40
0
 40
0
 40
0
 40
1
 40
1
 40
1
 40
1
 10
50.048963
 20
53.549104
 30
0.0
 10
50.040047
 20
53.580346
 30
0.0
 10
50.029649
 20
53.610961
 30
0.0
 10
50.017864
 20
53.640875
 30
0.0
  0
SPLINE
  5
1c0
100
AcDbEntity
  8
Layer_1
 62
7
100
AcDbSpline
 70
8
 71
3
 72
8
 73
4
 74
0
 40
0
 40
0
 40
0
 40
0
 40
1
 40
1
 40
1
 40
1
 10
50.017864
 20
53.640875
 30
0.0
 10
50.005799
 20
53.671485
 30
0.0
 10
49.992253
 20
53.701356
 30
0.0
 10
49.977341
 20
53.730402
 30
0.0
  0
SPLINE
  5
1c1
100
AcDbEntity
  8
Layer_1
 62
7
100
AcDbSpline
 70
8
 71
3
 72
8
 73
4
 74
0
 40
0
 40
0
 40
0
 40
0
 40
1
 40
1
 40
1
 40
1
 10
49.977341
 20
53.730402
 30
0.0
 10
49.962974
 20
53.758408
 30
0.0
 10
49.947295
 20
53.785647
 30
0.0
 10
49.930425
 20
53.812042
 30
0.0
  0
SPLINE
  5
1c2
100
AcDbEntity
  8
Layer_1
 62
7
100
AcDbSpline
 70
8
 71
3
 72
8
 73
4
 74
0
 40
0
 40
0
 40
0
 40
0
 40
1
 40
1
 40
1
 40
1
 10
49.930425
 20
53.812042
 30
0.0
 10
49.916032
 20
53.834558
 30
0.0
 10
49.900768
 20
53.856455
 30
0.0
 10
49.884673
 20
53.877693
 30
0.0
  0
SPLINE
  5
1c3
100
AcDbEntity
  8
Layer_1
 62
7
100
AcDbSpline
 70
8
 71
3
 72
8
 73
4
 74
0
 40
0
 40
0
 40
0
 40
0
 40
1
 40
1
 40
1
 40
1
 10
49.884673
 20
53.877693
 30
0.0
 10
49.859935
 20
53.910337
 30
0.0
 10
49.833233
 20
53.941413
 30
0.0
 10
49.804750
 20
53.970750
 30
0.0
  0
SPLINE
  5
1c4
100
AcDbEntity
  8
Layer_1
 62
7
100
AcDbSpline
 70
8
 71
3
 72
8
 73
4
 74
0
 40
0
 40
0
 40
0
 40
0
 40
1
 40
1
 40
1
 40
1
 10
49.804750
 20
53.970750
 30
0.0
 10
49.790542
 20
53.985407
 30
0.0
 10
49.775868
 20
53.999605
 30
0.0
 10
49.760785
 20
54.013358
 30
0.0
  0
SPLINE
  5
1c5
100
AcDbEntity
  8
Layer_1
 62
7
100
AcDbSpline
 70
8
 71
3
 72
8
 73
4
 74
0
 40
0
 40
0
 40
0
 40
0
 40
1
 40
1
 40
1
 40
1
 10
49.760785
 20
54.013358
 30
0.0
 10
49.744777
 20
54.027963
 30
0.0
 10
49.728296
 20
54.042036
 30
0.0
 10
49.711363
 20
54.055578
 30
0.0
  0
SPLINE
  5
1c6
100
AcDbEntity
  8
Layer_1
 62
7
100
AcDbSpline
 70
8
 71
3
 72
8
 73
4
 74
0
 40
0
 40
0
 40
0
 40
0
 40
1
 40
1
 40
1
 40
1
 10
49.711363
 20
54.055578
 30
0.0
 10
49.701441
 20
54.063515
 30
0.0
 10
49.691361
 20
54.071267
 30
0.0
 10
49.681140
 20
54.078834
 30
0.0
  0
SPLINE
  5
1c7
100
AcDbEntity
  8
Layer_1
 62
7
100
AcDbSpline
 70
8
 71
3
 72
8
 73
4
 74
0
 40
0
 40
0
 40
0
 40
0
 40
1
 40
1
 40
1
 40
1
 10
49.681140
 20
54.078834
 30
0.0
 10
49.666693
 20
54.089524
 30
0.0
 10
49.651938
 20
54.099816
 30
0.0
 10
49.636904
 20
54.109735
 30
0.0
  0
SPLINE
  5
1c8
100
AcDbEntity
  8
Layer_1
 62
7
100
AcDbSpline
 70
8
 71
3
 72
8
 73
4
 74
0
 40
0
 40
0
 40
0
 40
0
 40
1
 40
1
 40
1
 40
1
 10
49.636904
 20
54.109735
 30
0.0
 10
49.614176
 20
54.124737
 30
0.0
 10
49.590785
 20
54.138808
 30
0.0
 10
49.566805
 20
54.151939
 30
0.0
  0
SPLINE
  5
1c9
100
AcDbEntity
  8
Layer_1
 62
7
100
AcDbSpline
 70
8
 71
3
 72
8
 73
4
 74
0
 40
0
 40
0
 40
0
 40
0
 40
1
 40
1
 40
1
 40
1
 10
49.566805
 20
54.151939
 30
0.0
 10
49.548999
 20
54.161702
 30
0.0
 10
49.530870
 20
54.170909
 30
0.0
 10
49.512428
 20
54.179588
 30
0.0
  0
SPLINE
  5
1ca
100
AcDbEntity
  8
Layer_1
 62
7
100
AcDbSpline
 70
8
 71
3
 72
8
 73
4
 74
0
 40
0
 40
0
 40
0
 40
0
 40
1
 40
1
 40
1
 40
1
 10
49.512428
 20
54.179588
 30
0.0
 10
49.484340
 20
54.192790
 30
0.0
 10
49.455537
 20
54.204750
 30
0.0
 10
49.426095
 20
54.215352
 30
0.0
  0
SPLINE
  5
1cb
100
AcDbEntity
  8
Layer_1
 62
7
100
AcDbSpline
 70
8
 71
3
 72
8
 73
4
 74
0
 40
0
 40
0
 40
0
 40
0
 40
1
 40
1
 40
1
 40
1
 10
49.426095
 20
54.215352
 30
0.0
 10
49.395855
 20
54.226252
 30
0.0
 10
49.364939
 20
54.235724
 30
0.0
 10
49.333424
 20
54.243696
 30
0.0
  0
SPLINE
  5
1cc
100
AcDbEntity
  8
Layer_1
 62
7
100
AcDbSpline
 70
8
 71
3
 72
8
 73
4
 74
0
 40
0
 40
0
 40
0
 40
0
 40
1
 40
1
 40
1
 40
1
 10
49.333424
 20
54.243696
 30
0.0
 10
49.292102
 20
54.254147
 30
0.0
 10
49.249755
 20
54.262058
 30
0.0
 10
49.206565
 20
54.267191
 30
0.0
  0
SPLINE
  5
1cd
100
AcDbEntity
  8
Layer_1
 62
7
100
AcDbSpline
 70
8
 71
3
 72
8
 73
4
 74
0
 40
0
 40
0
 40
0
 40
0
 40
1
 40
1
 40
1
 40
1
 10
49.206565
 20
54.267191
 30
0.0
 10
49.167433
 20
54.271848
 30
0.0
 10
49.127608
 20
54.274229
 30
0.0
 10
49.087224
 20
54.274229
 30
0.0
  0
SPLINE
  5
1ce
100
AcDbEntity
  8
Layer_1
 62
7
100
AcDbSpline
 70
8
 71
3
 72
8
 73
4
 74
0
 40
0
 40
0
 40
0
 40
0
 40
1
 40
1
 40
1
 40
1
 10
18.811222
 20
36.334230
 30
0.0
 10
18.811222
 20
36.290730
 30
0.0
 10
18.814001
 20
36.247878
 30
0.0
 10
18.819398
 20
36.205844
 30
0.0
  0
SPLINE
  5
1cf
100
AcDbEntity
  8
Layer_1
 62
7
100
AcDbSpline
 70
8
 71
3
 72
8
 73
4
 74
0
 40
0
 40
0
 40
0
 40
0
 40
1
 40
1
 40
1
 40
1
 10
18.819398
 20
36.205844
 30
0.0
 10
18.823287
 20
36.175496
 30
0.0
 10
18.828526
 20
36.145574
 30
0.0
 10
18.835088
 20
36.116142
 30
0.0
  0
SPLINE
  5
1d0
100
AcDbEntity
  8
Layer_1
 62
7
100
AcDbSpline
 70
8
 71
3
 72
8
 73
4
 74
0
 40
0
 40
0
 40
0
 40
0
 40
1
 40
1
 40
1
 40
1
 10
18.835088
 20
36.116142
 30
0.0
 10
18.840036
 20
36.093943
 30
0.0
 10
18.845698
 20
36.071996
 30
0.0
 10
18.852101
 20
36.050369
 30
0.0
  0
SPLINE
  5
1d1
100
AcDbEntity
  8
Layer_1
 62
7
100
AcDbSpline
 70
8
 71
3
 72
8
 73
4
 74
0
 40
0
 40
0
 40
0
 40
0
 40
1
 40
1
 40
1
 40
1
 10
18.852101
 20
36.050369
 30
0.0
 10
18.863345
 20
36.012354
 30
0.0
 10
18.876760
 20
35.975283
 30
0.0
 10
18.892246
 20
35.939300
 30
0.0
  0
SPLINE
  5
1d2
100
AcDbEntity
  8
Layer_1
 62
7
100
AcDbSpline
 70
8
 71
3
 72
8
 73
4
 74
0
 40
0
 40
0
 40
0
 40
0
 40
1
 40
1
 40
1
 40
1
 10
18.892246
 20
35.939300
 30
0.0
 10
18.909682
 20
35.898787
 30
0.0
 10
18.929713
 20
35.859652
 30
0.0
 10
18.952137
 20
35.822113
 30
0.0
  0
SPLINE
  5
1d3
100
AcDbEntity
  8
Layer_1
 62
7
100
AcDbSpline
 70
8
 71
3
 72
8
 73
4
 74
0
 40
0
 40
0
 40
0
 40
0
 40
1
 40
1
 40
1
 40
1
 10
18.952137
 20
35.822113
 30
0.0
 10
18.973118
 20
35.786984
 30
0.0
 10
18.996201
 20
35.753253
 30
0.0
 10
19.021198
 20
35.721087
 30
0.0
  0
SPLINE
  5
1d4
100
AcDbEntity
  8
Layer_1
 62
7
100
AcDbSpline
 70
8
 71
3
 72
8
 73
4
 74
0
 40
0
 40
0
 40
0
 40
0
 40
1
 40
1
 40
1
 40
1
 10
19.021198
 20
35.721087
 30
0.0
 10
19.049866
 20
35.684199
 30
0.0
 10
19.081063
 20
35.649372
 30
0.0
 10
19.114525
 20
35.616865
 30
0.0
  0
SPLINE
  5
1d5
100
AcDbEntity
  8
Layer_1
 62
7
100
AcDbSpline
 70
8
 71
3
 72
8
 73
4
 74
0
 40
0
 40
0
 40
0
 40
0
 40
1
 40
1
 40
1
 40
1
 10
19.114525
 20
35.616865
 30
0.0
 10
19.153609
 20
35.578897
 30
0.0
 10
19.195786
 20
35.544097
 30
0.0
 10
19.240644
 20
35.512876
 30
0.0
  0
SPLINE
  5
1d6
100
AcDbEntity
  8
Layer_1
 62
7
100
AcDbSpline
 70
8
 71
3
 72
8
 73
4
 74
0
 40
0
 40
0
 40
0
 40
0
 40
1
 40
1
 40
1
 40
1
 10
19.240644
 20
35.512876
 30
0.0
 10
19.280861
 20
35.484883
 30
0.0
 10
19.323231
 20
35.459769
 30
0.0
 10
19.367459
 20
35.437830
 30
0.0
  0
SPLINE
  5
1d7
100
AcDbEntity
  8
Layer_1
 62
7
100
AcDbSpline
 70
8
 71
3
 72
8
 73
4
 74
0
 40
0
 40
0
 40
0
 40
0
 40
1
 40
1
 40
1
 40
1
 10
19.367459
 20
35.437830
 30
0.0
 10
19.398870
 20
35.422246
 30
0.0
 10
19.431218
 20
35.408270
 30
0.0
 10
19.464397
 20
35.395999
 30
0.0
  0
SPLINE
  5
1d8
100
AcDbEntity
  8
Layer_1
 62
7
100
AcDbSpline
 70
8
 71
3
 72
8
 73
4
 74
0
 40
0
 40
0
 40
0
 40
0
 40
1
 40
1
 40
1
 40
1
 10
19.464397
 20
35.395999
 30
0.0
 10
19.491286
 20
35.386051
 30
0.0
 10
19.518724
 20
35.377240
 30
0.0
 10
19.546648
 20
35.369593
 30
0.0
  0
SPLINE
  5
1d9
100
AcDbEntity
  8
Layer_1
 62
7
100
AcDbSpline
 70
8
 71
3
 72
8
 73
4
 74
0
 40
0
 40
0
 40
0
 40
0
 40
1
 40
1
 40
1
 40
1
 10
19.546648
 20
35.369593
 30
0.0
 10
19.568767
 20
35.363535
 30
0.0
 10
19.591177
 20
35.358243
 30
0.0
 10
19.613873
 20
35.353692
 30
0.0
  0
SPLINE
  5
1da
100
AcDbEntity
  8
Layer_1
 62
7
100
AcDbSpline
 70
8
 71
3
 72
8
 73
4
 74
0
 40
0
 40
0
 40
0
 40
0
 40
1
 40
1
 40
1
 40
1
 10
19.613873
 20
35.353692
 30
0.0
 10
19.642268
 20
35.348003
 30
0.0
 10
19.671097
 20
35.343532
 30
0.0
 10
19.700305
 20
35.340304
 30
0.0
  0
SPLINE
  5
1db
100
AcDbEntity
  8
Layer_1
 62
7
100
AcDbSpline
 70
8
 71
3
 72
8
 73
4
 74
0
 40
0
 40
0
 40
0
 40
0
 40
1
 40
1
 40
1
 40
1
 10
19.700305
 20
35.340304
 30
0.0
 10
19.736738
 20
35.336282
 30
0.0
 10
19.773758
 20
35.334219
 30
0.0
 10
19.811263
 20
35.334219
 30
0.0
  0
SPLINE
  5
1dc
100
AcDbEntity
  8
Layer_1
 62
7
100
AcDbSpline
 70
8
 71
3
 72
8
 73
4
 74
0
 40
0
 40
0
 40
0
 40
0
 40
1
 40
1
 40
1
 40
1
 10
45.030770
 20
35.334211
 30
0.0
 10
45.099969
 20
35.289512
 30
0.0
 10
45.170825
 20
35.248562
 30
0.0
 10
45.243058
 20
35.211357
 30
0.0
  0
SPLINE
  5
1dd
100
AcDbEntity
  8
Layer_1
 62
7
100
AcDbSpline
 70
8
 71
3
 72
8
 73
4
 74
0
 40
0
 40
0
 40
0
 40
0
 40
1
 40
1
 40
1
 40
1
 10
45.243058
 20
35.211357
 30
0.0
 10
45.328969
 20
35.167105
 30
0.0
 10
45.416832
 20
35.128156
 30
0.0
 10
45.506176
 20
35.094504
 30
0.0
  0
SPLINE
  5
1de
100
AcDbEntity
  8
Layer_1
 62
7
100
AcDbSpline
 70
8
 71
3
 72
8
 73
4
 74
0
 40
0
 40
0
 40
0
 40
0
 40
1
 40
1
 40
1
 40
1
 10
45.506176
 20
35.094504
 30
0.0
 10
45.593451
 20
35.061629
 30
0.0
 10
45.682145
 20
35.033813
 30
0.0
 10
45.771815
 20
35.011054
 30
0.0
  0
SPLINE
  5
1df
100
AcDbEntity
  8
Layer_1
 62
7
100
AcDbSpline
 70
8
 71
3
 72
8
 73
4
 74
0
 40
0
 40
0
 40
0
 40
0
 40
1
 40
1
 40
1
 40
1
 10
45.771815
 20
35.011054
 30
0.0
 10
45.844441
 20
34.992613
 30
0.0
 10
45.917706
 20
34.977502
 30
0.0
 10
45.991382
 20
34.965702
 30
0.0
  0
SPLINE
  5
1e0
100
AcDbEntity
  8
Layer_1
 62
7
100
AcDbSpline
 70
8
 71
3
 72
8
 73
4
 74
0
 40
0
 40
0
 40
0
 40
0
 40
1
 40
1
 40
1
 40
1
 10
45.991382
 20
34.965702
 30
0.0
 10
46.126886
 20
34.944006
 30
0.0
 10
46.263781
 20
34.933515
 30
0.0
 10
46.400629
 20
34.934245
 30
0.0
  0
SPLINE
  5
1e1
100
AcDbEntity
  8
Layer_1
 62
7
100
AcDbSpline
 70
8
 71
3
 72
8
 73
4
 74
0
 40
0
 40
0
 40
0
 40
0
 40
1
 40
1
 40
1
 40
1
 10
46.400629
 20
34.934245
 30
0.0
 10
46.510421
 20
34.934775
 30
0.0
 10
46.620180
 20
34.942633
 30
0.0
 10
46.729168
 20
34.957661
 30
0.0
  0
SPLINE
  5
1e2
100
AcDbEntity
  8
Layer_1
 62
7
100
AcDbSpline
 70
8
 71
3
 72
8
 73
4
 74
0
 40
0
 40
0
 40
0
 40
0
 40
1
 40
1
 40
1
 40
1
 10
46.729168
 20
34.957661
 30
0.0
 10
46.853942
 20
34.974859
 30
0.0
 10
46.977704
 20
35.001532
 30
0.0
 10
47.099335
 20
35.037663
 30
0.0
  0
SPLINE
  5
1e3
100
AcDbEntity
  8
Layer_1
 62
7
100
AcDbSpline
 70
8
 71
3
 72
8
 73
4
 74
0
 40
0
 40
0
 40
0
 40
0
 40
1
 40
1
 40
1
 40
1
 10
47.099335
 20
35.037663
 30
0.0
 10
47.211130
 20
35.070871
 30
0.0
 10
47.321122
 20
35.112072
 30
0.0
 10
47.428453
 20
35.161269
 30
0.0
  0
SPLINE
  5
1e4
100
AcDbEntity
  8
Layer_1
 62
7
100
AcDbSpline
 70
8
 71
3
 72
8
 73
4
 74
0
 40
0
 40
0
 40
0
 40
0
 40
1
 40
1
 40
1
 40
1
 10
47.428453
 20
35.161269
 30
0.0
 10
47.536533
 20
35.210806
 30
0.0
 10
47.641909
 20
35.268451
 30
0.0
 10
47.743702
 20
35.334203
 30
0.0
  0
SPLINE
  5
1e5
100
AcDbEntity
  8
Layer_1
 62
7
100
AcDbSpline
 70
8
 71
3
 72
8
 73
4
 74
0
 40
0
 40
0
 40
0
 40
0
 40
1
 40
1
 40
1
 40
1
 10
21.154769
 20
35.334211
 30
0.0
 10
21.207400
 20
35.300214
 30
0.0
 10
21.260992
 20
35.268385
 30
0.0
 10
21.315419
 20
35.238723
 30
0.0
  0
SPLINE
  5
1e6
100
AcDbEntity
  8
Layer_1
 62
7
100
AcDbSpline
 70
8
 71
3
 72
8
 73
4
 74
0
 40
0
 40
0
 40
0
 40
0
 40
1
 40
1
 40
1
 40
1
 10
21.315419
 20
35.238723
 30
0.0
 10
21.362891
 20
35.212846
 30
0.0
 10
21.411003
 20
35.188624
 30
0.0
 10
21.459667
 20
35.166050
 30
0.0
  0
SPLINE
  5
1e7
100
AcDbEntity
  8
Layer_1
 62
7
100
AcDbSpline
 70
8
 71
3
 72
8
 73
4
 74
0
 40
0
 40
0
 40
0
 40
0
 40
1
 40
1
 40
1
 40
1
 10
21.459667
 20
35.166050
 30
0.0
 10
21.522932
 20
35.136699
 30
0.0
 10
21.587136
 20
35.110138
 30
0.0
 10
21.652101
 20
35.086362
 30
0.0
  0
SPLINE
  5
1e8
100
AcDbEntity
  8
Layer_1
 62
7
100
AcDbSpline
 70
8
 71
3
 72
8
 73
4
 74
0
 40
0
 40
0
 40
0
 40
0
 40
1
 40
1
 40
1
 40
1
 10
21.652101
 20
35.086362
 30
0.0
 10
21.719867
 20
35.061571
 30
0.0
 10
21.788460
 20
35.039790
 30
0.0
 10
21.857677
 20
35.021055
 30
0.0
  0
SPLINE
  5
1e9
100
AcDbEntity
  8
Layer_1
 62
7
100
AcDbSpline
 70
8
 71
3
 72
8
 73
4
 74
0
 40
0
 40
0
 40
0
 40
0
 40
1
 40
1
 40
1
 40
1
 10
21.857677
 20
35.021055
 30
0.0
 10
21.931208
 20
35.001159
 30
0.0
 10
22.005445
 20
34.984667
 30
0.0
 10
22.080142
 20
34.971605
 30
0.0
  0
SPLINE
  5
1ea
100
AcDbEntity
  8
Layer_1
 62
7
100
AcDbSpline
 70
8
 71
3
 72
8
 73
4
 74
0
 40
0
 40
0
 40
0
 40
0
 40
1
 40
1
 40
1
 40
1
 10
22.080142
 20
34.971605
 30
0.0
 10
22.143930
 20
34.960466
 30
0.0
 10
22.208057
 20
34.951787
 30
0.0
 10
22.272367
 20
34.945623
 30
0.0
  0
SPLINE
  5
1eb
100
AcDbEntity
  8
Layer_1
 62
7
100
AcDbSpline
 70
8
 71
3
 72
8
 73
4
 74
0
 40
0
 40
0
 40
0
 40
0
 40
1
 40
1
 40
1
 40
1
 10
22.272367
 20
34.945623
 30
0.0
 10
22.350041
 20
34.938188
 30
0.0
 10
22.427987
 20
34.934378
 30
0.0
 10
22.505936
 20
34.934219
 30
0.0
  0
SPLINE
  5
1ec
100
AcDbEntity
  8
Layer_1
 62
7
100
AcDbSpline
 70
8
 71
3
 72
8
 73
4
 74
0
 40
0
 40
0
 40
0
 40
0
 40
1
 40
1
 40
1
 40
1
 10
22.505936
 20
34.934219
 30
0.0
 10
22.581614
 20
34.934060
 30
0.0
 10
22.657299
 20
34.937341
 30
0.0
 10
22.732744
 20
34.944035
 30
0.0
  0
SPLINE
  5
1ed
100
AcDbEntity
  8
Layer_1
 62
7
100
AcDbSpline
 70
8
 71
3
 72
8
 73
4
 74
0
 40
0
 40
0
 40
0
 40
0
 40
1
 40
1
 40
1
 40
1
 10
22.732744
 20
34.944035
 30
0.0
 10
22.805121
 20
34.950464
 30
0.0
 10
22.877281
 20
34.960042
 30
0.0
 10
22.949004
 20
34.972790
 30
0.0
  0
SPLINE
  5
1ee
100
AcDbEntity
  8
Layer_1
 62
7
100
AcDbSpline
 70
8
 71
3
 72
8
 73
4
 74
0
 40
0
 40
0
 40
0
 40
0
 40
1
 40
1
 40
1
 40
1
 10
22.949004
 20
34.972790
 30
0.0
 10
23.045889
 20
34.990014
 30
0.0
 10
23.141981
 20
35.012972
 30
0.0
 10
23.236752
 20
35.041703
 30
0.0
  0
SPLINE
  5
1ef
100
AcDbEntity
  8
Layer_1
 62
7
100
AcDbSpline
 70
8
 71
3
 72
8
 73
4
 74
0
 40
0
 40
0
 40
0
 40
0
 40
1
 40
1
 40
1
 40
1
 10
23.236752
 20
35.041703
 30
0.0
 10
23.316484
 20
35.065886
 30
0.0
 10
23.395280
 20
35.094125
 30
0.0
 10
23.472824
 20
35.126449
 30
0.0
  0
SPLINE
  5
1f0
100
AcDbEntity
  8
Layer_1
 62
7
100
AcDbSpline
 70
8
 71
3
 72
8
 73
4
 74
0
 40
0
 40
0
 40
0
 40
0
 40
1
 40
1
 40
1
 40
1
 10
23.472824
 20
35.126449
 30
0.0
 10
23.539798
 20
35.154368
 30
0.0
 10
23.605840
 20
35.185327
 30
0.0
 10
23.670748
 20
35.219329
 30
0.0
  0
SPLINE
  5
1f1
100
AcDbEntity
  8
Layer_1
 62
7
100
AcDbSpline
 70
8
 71
3
 72
8
 73
4
 74
0
 40
0
 40
0
 40
0
 40
0
 40
1
 40
1
 40
1
 40
1
 10
23.670748
 20
35.219329
 30
0.0
 10
23.737680
 20
35.254391
 30
0.0
 10
23.803405
 20
35.292687
 30
0.0
 10
23.867701
 20
35.334219
 30
0.0
  0
LWPOLYLINE
  5
1f2
100
AcDbEntity
  8
Layer_1
 62
7
100
AcDbPolyline
 90
2
 70
0
 10
21.154769
 20
35.334211
 30
0.0
 10
19.811242
 20
35.334211
 30
0.0
  0
LWPOLYLINE
  5
1f3
100
AcDbEntity
  8
Layer_1
 62
7
100
AcDbPolyline
 90
2
 70
0
 10
302.213325
 20
36.373124
 30
0.0
 10
302.213325
 20
19.433123
 30
0.0
  0
LWPOLYLINE
  5
1f4
100
AcDbEntity
  8
Layer_1
 62
7
100
AcDbPolyline
 90
2
 70
0
 10
303.213318
 20
18.433130
 30
0.0
 10
332.489305
 20
18.433130
 30
0.0
  0
LWPOLYLINE
  5
1f5
100
AcDbEntity
  8
Layer_1
 62
7
100
AcDbPolyline
 90
2
 70
0
 10
333.489325
 20
36.373124
 30
0.0
 10
333.489325
 20
19.433123
 30
0.0
  0
LWPOLYLINE
  5
1f6
100
AcDbEntity
  8
Layer_1
 62
7
100
AcDbPolyline
 90
2
 70
0
 10
303.213318
 20
37.373143
 30
0.0
 10
304.556845
 20
37.373143
 30
0.0
  0
LWPOLYLINE
  5
1f7
100
AcDbEntity
  8
Layer_1
 62
7
100
AcDbPolyline
 90
2
 70
0
 10
307.269777
 20
37.373143
 30
0.0
 10
328.432846
 20
37.373143
 30
0.0
  0
SPLINE
  5
1f8
100
AcDbEntity
  8
Layer_1
 62
7
100
AcDbSpline
 70
8
 71
3
 72
8
 73
4
 74
0
 40
0
 40
0
 40
0
 40
0
 40
1
 40
1
 40
1
 40
1
 10
303.213318
 20
37.373143
 30
0.0
 10
303.143978
 20
37.373143
 30
0.0
 10
303.076287
 20
37.366079
 30
0.0
 10
303.010922
 20
37.352638
 30
0.0
  0
SPLINE
  5
1f9
100
AcDbEntity
  8
Layer_1
 62
7
100
AcDbSpline
 70
8
 71
3
 72
8
 73
4
 74
0
 40
0
 40
0
 40
0
 40
0
 40
1
 40
1
 40
1
 40
1
 10
303.010922
 20
37.352638
 30
0.0
 10
302.942344
 20
37.338536
 30
0.0
 10
302.876331
 20
37.317425
 30
0.0
 10
302.813662
 20
37.290072
 30
0.0
  0
SPLINE
  5
1fa
100
AcDbEntity
  8
Layer_1
 62
7
100
AcDbSpline
 70
8
 71
3
 72
8
 73
4
 74
0
 40
0
 40
0
 40
0
 40
0
 40
1
 40
1
 40
1
 40
1
 10
302.813662
 20
37.290072
 30
0.0
 10
302.747929
 20
37.261381
 30
0.0
 10
302.685879
 20
37.225829
 30
0.0
 10
302.628416
 20
37.184323
 30
0.0
  0
SPLINE
  5
1fb
100
AcDbEntity
  8
Layer_1
 62
7
100
AcDbSpline
 70
8
 71
3
 72
8
 73
4
 74
0
 40
0
 40
0
 40
0
 40
0
 40
1
 40
1
 40
1
 40
1
 10
302.628416
 20
37.184323
 30
0.0
 10
302.574060
 20
37.145059
 30
0.0
 10
302.523808
 20
37.100469
 30
0.0
 10
302.478424
 20
37.051315
 30
0.0
  0
SPLINE
  5
1fc
100
AcDbEntity
  8
Layer_1
 62
7
100
AcDbSpline
 70
8
 71
3
 72
8
 73
4
 74
0
 40
0
 40
0
 40
0
 40
0
 40
1
 40
1
 40
1
 40
1
 10
302.478424
 20
37.051315
 30
0.0
 10
302.432352
 20
37.001417
 30
0.0
 10
302.391299
 20
36.946812
 30
0.0
 10
302.356065
 20
36.888310
 30
0.0
  0
SPLINE
  5
1fd
100
AcDbEntity
  8
Layer_1
 62
7
100
AcDbSpline
 70
8
 71
3
 72
8
 73
4
 74
0
 40
0
 40
0
 40
0
 40
0
 40
1
 40
1
 40
1
 40
1
 10
302.356065
 20
36.888310
 30
0.0
 10
302.324857
 20
36.836489
 30
0.0
 10
302.298214
 20
36.781609
 30
0.0
 10
302.276695
 20
36.724226
 30
0.0
  0
SPLINE
  5
1fe
100
AcDbEntity
  8
Layer_1
 62
7
100
AcDbSpline
 70
8
 71
3
 72
8
 73
4
 74
0
 40
0
 40
0
 40
0
 40
0
 40
1
 40
1
 40
1
 40
1
 10
302.276695
 20
36.724226
 30
0.0
 10
302.255608
 20
36.667989
 30
0.0
 10
302.239434
 20
36.609347
 30
0.0
 10
302.228708
 20
36.548826
 30
0.0
  0
SPLINE
  5
1ff
100
AcDbEntity
  8
Layer_1
 62
7
100
AcDbSpline
 70
8
 71
3
 72
8
 73
4
 74
0
 40
0
 40
0
 40
0
 40
0
 40
1
 40
1
 40
1
 40
1
 10
302.228708
 20
36.548826
 30
0.0
 10
302.218601
 20
36.491779
 30
0.0
 10
302.213335
 20
36.433063
 30
0.0
 10
302.213335
 20
36.373113
 30
0.0
  0
SPLINE
  5
200
100
AcDbEntity
  8
Layer_1
 62
7
100
AcDbSpline
 70
8
 71
3
 72
8
 73
4
 74
0
 40
0
 40
0
 40
0
 40
0
 40
1
 40
1
 40
1
 40
1
 10
332.489305
 20
18.433130
 30
0.0
 10
332.525328
 20
18.433130
 30
0.0
 10
332.560910
 20
18.434982
 30
0.0
 10
332.595948
 20
18.438739
 30
0.0
  0
SPLINE
  5
201
100
AcDbEntity
  8
Layer_1
 62
7
100
AcDbSpline
 70
8
 71
3
 72
8
 73
4
 74
0
 40
0
 40
0
 40
0
 40
0
 40
1
 40
1
 40
1
 40
1
 10
332.595948
 20
18.438739
 30
0.0
 10
332.624290
 20
18.441755
 30
0.0
 10
332.652281
 20
18.445936
 30
0.0
 10
332.679869
 20
18.451254
 30
0.0
  0
SPLINE
  5
202
100
AcDbEntity
  8
Layer_1
 62
7
100
AcDbSpline
 70
8
 71
3
 72
8
 73
4
 74
0
 40
0
 40
0
 40
0
 40
0
 40
1
 40
1
 40
1
 40
1
 10
332.679869
 20
18.451254
 30
0.0
 10
332.710338
 20
18.457128
 30
0.0
 10
332.740316
 20
18.464404
 30
0.0
 10
332.769732
 20
18.472976
 30
0.0
  0
SPLINE
  5
203
100
AcDbEntity
  8
Layer_1
 62
7
100
AcDbSpline
 70
8
 71
3
 72
8
 73
4
 74
0
 40
0
 40
0
 40
0
 40
0
 40
1
 40
1
 40
1
 40
1
 10
332.769732
 20
18.472976
 30
0.0
 10
332.796931
 20
18.480914
 30
0.0
 10
332.823654
 20
18.489963
 30
0.0
 10
332.849840
 20
18.500086
 30
0.0
  0
SPLINE
  5
204
100
AcDbEntity
  8
Layer_1
 62
7
100
AcDbSpline
 70
8
 71
3
 72
8
 73
4
 74
0
 40
0
 40
0
 40
0
 40
0
 40
1
 40
1
 40
1
 40
1
 10
332.849840
 20
18.500086
 30
0.0
 10
332.884881
 20
18.513632
 30
0.0
 10
332.918968
 20
18.529100
 30
0.0
 10
332.951972
 20
18.546353
 30
0.0
  0
SPLINE
  5
205
100
AcDbEntity
  8
Layer_1
 62
7
100
AcDbSpline
 70
8
 71
3
 72
8
 73
4
 74
0
 40
0
 40
0
 40
0
 40
0
 40
1
 40
1
 40
1
 40
1
 10
332.951972
 20
18.546353
 30
0.0
 10
332.982944
 20
18.562546
 30
0.0
 10
333.012961
 20
18.580312
 30
0.0
 10
333.041919
 20
18.599548
 30
0.0
  0
SPLINE
  5
206
100
AcDbEntity
  8
Layer_1
 62
7
100
AcDbSpline
 70
8
 71
3
 72
8
 73
4
 74
0
 40
0
 40
0
 40
0
 40
0
 40
1
 40
1
 40
1
 40
1
 10
333.041919
 20
18.599548
 30
0.0
 10
333.073370
 20
18.620450
 30
0.0
 10
333.103573
 20
18.643064
 30
0.0
 10
333.132386
 20
18.667284
 30
0.0
  0
SPLINE
  5
207
100
AcDbEntity
  8
Layer_1
 62
7
100
AcDbSpline
 70
8
 71
3
 72
8
 73
4
 74
0
 40
0
 40
0
 40
0
 40
0
 40
1
 40
1
 40
1
 40
1
 10
333.132386
 20
18.667284
 30
0.0
 10
333.162419
 20
18.692525
 30
0.0
 10
333.190946
 20
18.719507
 30
0.0
 10
333.217812
 20
18.748064
 30
0.0
  0
SPLINE
  5
208
100
AcDbEntity
  8
Layer_1
 62
7
100
AcDbSpline
 70
8
 71
3
 72
8
 73
4
 74
0
 40
0
 40
0
 40
0
 40
0
 40
1
 40
1
 40
1
 40
1
 10
333.217812
 20
18.748064
 30
0.0
 10
333.243344
 20
18.775202
 30
0.0
 10
333.267373
 20
18.803769
 30
0.0
 10
333.289773
 20
18.833630
 30
0.0
  0
SPLINE
  5
209
100
AcDbEntity
  8
Layer_1
 62
7
100
AcDbSpline
 70
8
 71
3
 72
8
 73
4
 74
0
 40
0
 40
0
 40
0
 40
0
 40
1
 40
1
 40
1
 40
1
 10
333.289773
 20
18.833630
 30
0.0
 10
333.310278
 20
18.860956
 30
0.0
 10
333.329405
 20
18.889367
 30
0.0
 10
333.347071
 20
18.918760
 30
0.0
  0
SPLINE
  5
20a
100
AcDbEntity
  8
Layer_1
 62
7
100
AcDbSpline
 70
8
 71
3
 72
8
 73
4
 74
0
 40
0
 40
0
 40
0
 40
0
 40
1
 40
1
 40
1
 40
1
 10
333.347071
 20
18.918760
 30
0.0
 10
333.363317
 20
18.945808
 30
0.0
 10
333.378337
 20
18.973687
 30
0.0
 10
333.392024
 20
19.002318
 30
0.0
  0
SPLINE
  5
20b
100
AcDbEntity
  8
Layer_1
 62
7
100
AcDbSpline
 70
8
 71
3
 72
8
 73
4
 74
0
 40
0
 40
0
 40
0
 40
0
 40
1
 40
1
 40
1
 40
1
 10
333.392024
 20
19.002318
 30
0.0
 10
333.412026
 20
19.044159
 30
0.0
 10
333.429209
 20
19.087606
 30
0.0
 10
333.443321
 20
19.132416
 30
0.0
  0
SPLINE
  5
20c
100
AcDbEntity
  8
Layer_1
 62
7
100
AcDbSpline
 70
8
 71
3
 72
8
 73
4
 74
0
 40
0
 40
0
 40
0
 40
0
 40
1
 40
1
 40
1
 40
1
 10
333.443321
 20
19.132416
 30
0.0
 10
333.456445
 20
19.174064
 30
0.0
 10
333.466896
 20
19.216887
 30
0.0
 10
333.474513
 20
19.260689
 30
0.0
  0
SPLINE
  5
20d
100
AcDbEntity
  8
Layer_1
 62
7
100
AcDbSpline
 70
8
 71
3
 72
8
 73
4
 74
0
 40
0
 40
0
 40
0
 40
0
 40
1
 40
1
 40
1
 40
1
 10
333.474513
 20
19.260689
 30
0.0
 10
333.484250
 20
19.316706
 30
0.0
 10
333.489330
 20
19.374319
 30
0.0
 10
333.489330
 20
19.433120
 30
0.0
  0
SPLINE
  5
20e
100
AcDbEntity
  8
Layer_1
 62
7
100
AcDbSpline
 70
8
 71
3
 72
8
 73
4
 74
0
 40
0
 40
0
 40
0
 40
0
 40
1
 40
1
 40
1
 40
1
 10
302.213325
 20
19.433123
 30
0.0
 10
302.213325
 20
19.380346
 30
0.0
 10
302.217426
 20
19.328525
 30
0.0
 10
302.225284
 20
19.277958
 30
0.0
  0
SPLINE
  5
20f
100
AcDbEntity
  8
Layer_1
 62
7
100
AcDbSpline
 70
8
 71
3
 72
8
 73
4
 74
0
 40
0
 40
0
 40
0
 40
0
 40
1
 40
1
 40
1
 40
1
 10
302.225284
 20
19.277958
 30
0.0
 10
302.231634
 20
19.237188
 30
0.0
 10
302.240445
 20
19.197234
 30
0.0
 10
302.251584
 20
19.158250
 30
0.0
  0
SPLINE
  5
210
100
AcDbEntity
  8
Layer_1
 62
7
100
AcDbSpline
 70
8
 71
3
 72
8
 73
4
 74
0
 40
0
 40
0
 40
0
 40
0
 40
1
 40
1
 40
1
 40
1
 10
302.251584
 20
19.158250
 30
0.0
 10
302.260500
 20
19.127008
 30
0.0
 10
302.270898
 20
19.096393
 30
0.0
 10
302.282683
 20
19.066479
 30
0.0
  0
SPLINE
  5
211
100
AcDbEntity
  8
Layer_1
 62
7
100
AcDbSpline
 70
8
 71
3
 72
8
 73
4
 74
0
 40
0
 40
0
 40
0
 40
0
 40
1
 40
1
 40
1
 40
1
 10
302.282683
 20
19.066479
 30
0.0
 10
302.294748
 20
19.035869
 30
0.0
 10
302.308294
 20
19.005998
 30
0.0
 10
302.323206
 20
18.976952
 30
0.0
  0
SPLINE
  5
212
100
AcDbEntity
  8
Layer_1
 62
7
100
AcDbSpline
 70
8
 71
3
 72
8
 73
4
 74
0
 40
0
 40
0
 40
0
 40
0
 40
1
 40
1
 40
1
 40
1
 10
302.323206
 20
18.976952
 30
0.0
 10
302.337573
 20
18.948946
 30
0.0
 10
302.353252
 20
18.921707
 30
0.0
 10
302.370122
 20
18.895312
 30
0.0
  0
SPLINE
  5
213
100
AcDbEntity
  8
Layer_1
 62
7
100
AcDbSpline
 70
8
 71
3
 72
8
 73
4
 74
0
 40
0
 40
0
 40
0
 40
0
 40
1
 40
1
 40
1
 40
1
 10
302.370122
 20
18.895312
 30
0.0
 10
302.384515
 20
18.872796
 30
0.0
 10
302.399779
 20
18.850899
 30
0.0
 10
302.415874
 20
18.829661
 30
0.0
  0
SPLINE
  5
214
100
AcDbEntity
  8
Layer_1
 62
7
100
AcDbSpline
 70
8
 71
3
 72
8
 73
4
 74
0
 40
0
 40
0
 40
0
 40
0
 40
1
 40
1
 40
1
 40
1
 10
302.415874
 20
18.829661
 30
0.0
 10
302.440612
 20
18.797017
 30
0.0
 10
302.467314
 20
18.765941
 30
0.0
 10
302.495797
 20
18.736604
 30
0.0
  0
SPLINE
  5
215
100
AcDbEntity
  8
Layer_1
 62
7
100
AcDbSpline
 70
8
 71
3
 72
8
 73
4
 74
0
 40
0
 40
0
 40
0
 40
0
 40
1
 40
1
 40
1
 40
1
 10
302.495797
 20
18.736604
 30
0.0
 10
302.510005
 20
18.721947
 30
0.0
 10
302.524679
 20
18.707749
 30
0.0
 10
302.539762
 20
18.693996
 30
0.0
  0
SPLINE
  5
216
100
AcDbEntity
  8
Layer_1
 62
7
100
AcDbSpline
 70
8
 71
3
 72
8
 73
4
 74
0
 40
0
 40
0
 40
0
 40
0
 40
1
 40
1
 40
1
 40
1
 10
302.539762
 20
18.693996
 30
0.0
 10
302.555770
 20
18.679391
 30
0.0
 10
302.572251
 20
18.665318
 30
0.0
 10
302.589184
 20
18.651776
 30
0.0
  0
SPLINE
  5
217
100
AcDbEntity
  8
Layer_1
 62
7
100
AcDbSpline
 70
8
 71
3
 72
8
 73
4
 74
0
 40
0
 40
0
 40
0
 40
0
 40
1
 40
1
 40
1
 40
1
 10
302.589184
 20
18.651776
 30
0.0
 10
302.599106
 20
18.643839
 30
0.0
 10
302.609186
 20
18.636087
 30
0.0
 10
302.619407
 20
18.628520
 30
0.0
  0
SPLINE
  5
218
100
AcDbEntity
  8
Layer_1
 62
7
100
AcDbSpline
 70
8
 71
3
 72
8
 73
4
 74
0
 40
0
 40
0
 40
0
 40
0
 40
1
 40
1
 40
1
 40
1
 10
302.619407
 20
18.628520
 30
0.0
 10
302.633854
 20
18.617830
 30
0.0
 10
302.648609
 20
18.607538
 30
0.0
 10
302.663643
 20
18.597619
 30
0.0
  0
SPLINE
  5
219
100
AcDbEntity
  8
Layer_1
 62
7
100
AcDbSpline
 70
8
 71
3
 72
8
 73
4
 74
0
 40
0
 40
0
 40
0
 40
0
 40
1
 40
1
 40
1
 40
1
 10
302.663643
 20
18.597619
 30
0.0
 10
302.686371
 20
18.582617
 30
0.0
 10
302.709762
 20
18.568546
 30
0.0
 10
302.733742
 20
18.555415
 30
0.0
  0
SPLINE
  5
21a
100
AcDbEntity
  8
Layer_1
 62
7
100
AcDbSpline
 70
8
 71
3
 72
8
 73
4
 74
0
 40
0
 40
0
 40
0
 40
0
 40
1
 40
1
 40
1
 40
1
 10
302.733742
 20
18.555415
 30
0.0
 10
302.751548
 20
18.545652
 30
0.0
 10
302.769677
 20
18.536445
 30
0.0
 10
302.788119
 20
18.527766
 30
0.0
  0
SPLINE
  5
21b
100
AcDbEntity
  8
Layer_1
 62
7
100
AcDbSpline
 70
8
 71
3
 72
8
 73
4
 74
0
 40
0
 40
0
 40
0
 40
0
 40
1
 40
1
 40
1
 40
1
 10
302.788119
 20
18.527766
 30
0.0
 10
302.816207
 20
18.514564
 30
0.0
 10
302.845010
 20
18.502604
 30
0.0
 10
302.874452
 20
18.492002
 30
0.0
  0
SPLINE
  5
21c
100
AcDbEntity
  8
Layer_1
 62
7
100
AcDbSpline
 70
8
 71
3
 72
8
 73
4
 74
0
 40
0
 40
0
 40
0
 40
0
 40
1
 40
1
 40
1
 40
1
 10
302.874452
 20
18.492002
 30
0.0
 10
302.904692
 20
18.481102
 30
0.0
 10
302.935608
 20
18.471630
 30
0.0
 10
302.967123
 20
18.463658
 30
0.0
  0
SPLINE
  5
21d
100
AcDbEntity
  8
Layer_1
 62
7
100
AcDbSpline
 70
8
 71
3
 72
8
 73
4
 74
0
 40
0
 40
0
 40
0
 40
0
 40
1
 40
1
 40
1
 40
1
 10
302.967123
 20
18.463658
 30
0.0
 10
303.008445
 20
18.453207
 30
0.0
 10
303.050792
 20
18.445296
 30
0.0
 10
303.093982
 20
18.440163
 30
0.0
  0
SPLINE
  5
21e
100
AcDbEntity
  8
Layer_1
 62
7
100
AcDbSpline
 70
8
 71
3
 72
8
 73
4
 74
0
 40
0
 40
0
 40
0
 40
0
 40
1
 40
1
 40
1
 40
1
 10
303.093982
 20
18.440163
 30
0.0
 10
303.133114
 20
18.435506
 30
0.0
 10
303.172939
 20
18.433125
 30
0.0
 10
303.213323
 20
18.433125
 30
0.0
  0
SPLINE
  5
21f
100
AcDbEntity
  8
Layer_1
 62
7
100
AcDbSpline
 70
8
 71
3
 72
8
 73
4
 74
0
 40
0
 40
0
 40
0
 40
0
 40
1
 40
1
 40
1
 40
1
 10
333.489325
 20
36.373124
 30
0.0
 10
333.489325
 20
36.416624
 30
0.0
 10
333.486546
 20
36.459476
 30
0.0
 10
333.481149
 20
36.501510
 30
0.0
  0
SPLINE
  5
220
100
AcDbEntity
  8
Layer_1
 62
7
100
AcDbSpline
 70
8
 71
3
 72
8
 73
4
 74
0
 40
0
 40
0
 40
0
 40
0
 40
1
 40
1
 40
1
 40
1
 10
333.481149
 20
36.501510
 30
0.0
 10
333.477260
 20
36.531858
 30
0.0
 10
333.472021
 20
36.561780
 30
0.0
 10
333.465459
 20
36.591212
 30
0.0
  0
SPLINE
  5
221
100
AcDbEntity
  8
Layer_1
 62
7
100
AcDbSpline
 70
8
 71
3
 72
8
 73
4
 74
0
 40
0
 40
0
 40
0
 40
0
 40
1
 40
1
 40
1
 40
1
 10
333.465459
 20
36.591212
 30
0.0
 10
333.460511
 20
36.613411
 30
0.0
 10
333.454849
 20
36.635358
 30
0.0
 10
333.448446
 20
36.656985
 30
0.0
  0
SPLINE
  5
222
100
AcDbEntity
  8
Layer_1
 62
7
100
AcDbSpline
 70
8
 71
3
 72
8
 73
4
 74
0
 40
0
 40
0
 40
0
 40
0
 40
1
 40
1
 40
1
 40
1
 10
333.448446
 20
36.656985
 30
0.0
 10
333.437202
 20
36.695000
 30
0.0
 10
333.423787
 20
36.732071
 30
0.0
 10
333.408301
 20
36.768054
 30
0.0
  0
SPLINE
  5
223
100
AcDbEntity
  8
Layer_1
 62
7
100
AcDbSpline
 70
8
 71
3
 72
8
 73
4
 74
0
 40
0
 40
0
 40
0
 40
0
 40
1
 40
1
 40
1
 40
1
 10
333.408301
 20
36.768054
 30
0.0
 10
333.390865
 20
36.808567
 30
0.0
 10
333.370834
 20
36.847702
 30
0.0
 10
333.348410
 20
36.885241
 30
0.0
  0
SPLINE
  5
224
100
AcDbEntity
  8
Layer_1
 62
7
100
AcDbSpline
 70
8
 71
3
 72
8
 73
4
 74
0
 40
0
 40
0
 40
0
 40
0
 40
1
 40
1
 40
1
 40
1
 10
333.348410
 20
36.885241
 30
0.0
 10
333.327429
 20
36.920370
 30
0.0
 10
333.304346
 20
36.954101
 30
0.0
 10
333.279349
 20
36.986267
 30
0.0
  0
SPLINE
  5
225
100
AcDbEntity
  8
Layer_1
 62
7
100
AcDbSpline
 70
8
 71
3
 72
8
 73
4
 74
0
 40
0
 40
0
 40
0
 40
0
 40
1
 40
1
 40
1
 40
1
 10
333.279349
 20
36.986267
 30
0.0
 10
333.250681
 20
37.023155
 30
0.0
 10
333.219484
 20
37.057982
 30
0.0
 10
333.186022
 20
37.090489
 30
0.0
  0
SPLINE
  5
226
100
AcDbEntity
  8
Layer_1
 62
7
100
AcDbSpline
 70
8
 71
3
 72
8
 73
4
 74
0
 40
0
 40
0
 40
0
 40
0
 40
1
 40
1
 40
1
 40
1
 10
333.186022
 20
37.090489
 30
0.0
 10
333.146938
 20
37.128457
 30
0.0
 10
333.104761
 20
37.163257
 30
0.0
 10
333.059903
 20
37.194478
 30
0.0
  0
SPLINE
  5
227
100
AcDbEntity
  8
Layer_1
 62
7
100
AcDbSpline
 70
8
 71
3
 72
8
 73
4
 74
0
 40
0
 40
0
 40
0
 40
0
 40
1
 40
1
 40
1
 40
1
 10
333.059903
 20
37.194478
 30
0.0
 10
333.019686
 20
37.222471
 30
0.0
 10
332.977316
 20
37.247585
 30
0.0
 10
332.933088
 20
37.269524
 30
0.0
  0
SPLINE
  5
228
100
AcDbEntity
  8
Layer_1
 62
7
100
AcDbSpline
 70
8
 71
3
 72
8
 73
4
 74
0
 40
0
 40
0
 40
0
 40
0
 40
1
 40
1
 40
1
 40
1
 10
332.933088
 20
37.269524
 30
0.0
 10
332.901677
 20
37.285108
 30
0.0
 10
332.869329
 20
37.299084
 30
0.0
 10
332.836150
 20
37.311355
 30
0.0
  0
SPLINE
  5
229
100
AcDbEntity
  8
Layer_1
 62
7
100
AcDbSpline
 70
8
 71
3
 72
8
 73
4
 74
0
 40
0
 40
0
 40
0
 40
0
 40
1
 40
1
 40
1
 40
1
 10
332.836150
 20
37.311355
 30
0.0
 10
332.809261
 20
37.321303
 30
0.0
 10
332.781823
 20
37.330114
 30
0.0
 10
332.753899
 20
37.337761
 30
0.0
  0
SPLINE
  5
22a
100
AcDbEntity
  8
Layer_1
 62
7
100
AcDbSpline
 70
8
 71
3
 72
8
 73
4
 74
0
 40
0
 40
0
 40
0
 40
0
 40
1
 40
1
 40
1
 40
1
 10
332.753899
 20
37.337761
 30
0.0
 10
332.731780
 20
37.343819
 30
0.0
 10
332.709370
 20
37.349111
 30
0.0
 10
332.686674
 20
37.353662
 30
0.0
  0
SPLINE
  5
22b
100
AcDbEntity
  8
Layer_1
 62
7
100
AcDbSpline
 70
8
 71
3
 72
8
 73
4
 74
0
 40
0
 40
0
 40
0
 40
0
 40
1
 40
1
 40
1
 40
1
 10
332.686674
 20
37.353662
 30
0.0
 10
332.658279
 20
37.359351
 30
0.0
 10
332.629450
 20
37.363822
 30
0.0
 10
332.600242
 20
37.367050
 30
0.0
  0
SPLINE
  5
22c
100
AcDbEntity
  8
Layer_1
 62
7
100
AcDbSpline
 70
8
 71
3
 72
8
 73
4
 74
0
 40
0
 40
0
 40
0
 40
0
 40
1
 40
1
 40
1
 40
1
 10
332.600242
 20
37.367050
 30
0.0
 10
332.563809
 20
37.371072
 30
0.0
 10
332.526789
 20
37.373135
 30
0.0
 10
332.489284
 20
37.373135
 30
0.0
  0
SPLINE
  5
22d
100
AcDbEntity
  8
Layer_1
 62
7
100
AcDbSpline
 70
8
 71
3
 72
8
 73
4
 74
0
 40
0
 40
0
 40
0
 40
0
 40
1
 40
1
 40
1
 40
1
 10
307.269777
 20
37.373143
 30
0.0
 10
307.200578
 20
37.417842
 30
0.0
 10
307.129722
 20
37.458792
 30
0.0
 10
307.057489
 20
37.495997
 30
0.0
  0
SPLINE
  5
22e
100
AcDbEntity
  8
Layer_1
 62
7
100
AcDbSpline
 70
8
 71
3
 72
8
 73
4
 74
0
 40
0
 40
0
 40
0
 40
0
 40
1
 40
1
 40
1
 40
1
 10
307.057489
 20
37.495997
 30
0.0
 10
306.971578
 20
37.540249
 30
0.0
 10
306.883715
 20
37.579198
 30
0.0
 10
306.794371
 20
37.612850
 30
0.0
  0
SPLINE
  5
22f
100
AcDbEntity
  8
Layer_1
 62
7
100
AcDbSpline
 70
8
 71
3
 72
8
 73
4
 74
0
 40
0
 40
0
 40
0
 40
0
 40
1
 40
1
 40
1
 40
1
 10
306.794371
 20
37.612850
 30
0.0
 10
306.707096
 20
37.645725
 30
0.0
 10
306.618402
 20
37.673541
 30
0.0
 10
306.528732
 20
37.696300
 30
0.0
  0
SPLINE
  5
230
100
AcDbEntity
  8
Layer_1
 62
7
100
AcDbSpline
 70
8
 71
3
 72
8
 73
4
 74
0
 40
0
 40
0
 40
0
 40
0
 40
1
 40
1
 40
1
 40
1
 10
306.528732
 20
37.696300
 30
0.0
 10
306.456106
 20
37.714741
 30
0.0
 10
306.382841
 20
37.729852
 30
0.0
 10
306.309165
 20
37.741652
 30
0.0
  0
SPLINE
  5
231
100
AcDbEntity
  8
Layer_1
 62
7
100
AcDbSpline
 70
8
 71
3
 72
8
 73
4
 74
0
 40
0
 40
0
 40
0
 40
0
 40
1
 40
1
 40
1
 40
1
 10
306.309165
 20
37.741652
 30
0.0
 10
306.173661
 20
37.763348
 30
0.0
 10
306.036766
 20
37.773839
 30
0.0
 10
305.899918
 20
37.773109
 30
0.0
  0
SPLINE
  5
232
100
AcDbEntity
  8
Layer_1
 62
7
100
AcDbSpline
 70
8
 71
3
 72
8
 73
4
 74
0
 40
0
 40
0
 40
0
 40
0
 40
1
 40
1
 40
1
 40
1
 10
305.899918
 20
37.773109
 30
0.0
 10
305.790126
 20
37.772579
 30
0.0
 10
305.680367
 20
37.764721
 30
0.0
 10
305.571379
 20
37.749693
 30
0.0
  0
SPLINE
  5
233
100
AcDbEntity
  8
Layer_1
 62
7
100
AcDbSpline
 70
8
 71
3
 72
8
 73
4
 74
0
 40
0
 40
0
 40
0
 40
0
 40
1
 40
1
 40
1
 40
1
 10
305.571379
 20
37.749693
 30
0.0
 10
305.446605
 20
37.732495
 30
0.0
 10
305.322843
 20
37.705822
 30
0.0
 10
305.201212
 20
37.669691
 30
0.0
  0
SPLINE
  5
234
100
AcDbEntity
  8
Layer_1
 62
7
100
AcDbSpline
 70
8
 71
3
 72
8
 73
4
 74
0
 40
0
 40
0
 40
0
 40
0
 40
1
 40
1
 40
1
 40
1
 10
305.201212
 20
37.669691
 30
0.0
 10
305.089417
 20
37.636483
 30
0.0
 10
304.979425
 20
37.595282
 30
0.0
 10
304.872094
 20
37.546085
 30
0.0
  0
SPLINE
  5
235
100
AcDbEntity
  8
Layer_1
 62
7
100
AcDbSpline
 70
8
 71
3
 72
8
 73
4
 74
0
 40
0
 40
0
 40
0
 40
0
 40
1
 40
1
 40
1
 40
1
 10
304.872094
 20
37.546085
 30
0.0
 10
304.764014
 20
37.496548
 30
0.0
 10
304.658638
 20
37.438903
 30
0.0
 10
304.556845
 20
37.373151
 30
0.0
  0
SPLINE
  5
236
100
AcDbEntity
  8
Layer_1
 62
7
100
AcDbSpline
 70
8
 71
3
 72
8
 73
4
 74
0
 40
0
 40
0
 40
0
 40
0
 40
1
 40
1
 40
1
 40
1
 10
331.145778
 20
37.373143
 30
0.0
 10
331.093147
 20
37.407140
 30
0.0
 10
331.039555
 20
37.438969
 30
0.0
 10
330.985128
 20
37.468631
 30
0.0
  0
SPLINE
  5
237
100
AcDbEntity
  8
Layer_1
 62
7
100
AcDbSpline
 70
8
 71
3
 72
8
 73
4
 74
0
 40
0
 40
0
 40
0
 40
0
 40
1
 40
1
 40
1
 40
1
 10
330.985128
 20
37.468631
 30
0.0
 10
330.937656
 20
37.494508
 30
0.0
 10
330.889544
 20
37.518730
 30
0.0
 10
330.840880
 20
37.541304
 30
0.0
  0
SPLINE
  5
238
100
AcDbEntity
  8
Layer_1
 62
7
100
AcDbSpline
 70
8
 71
3
 72
8
 73
4
 74
0
 40
0
 40
0
 40
0
 40
0
 40
1
 40
1
 40
1
 40
1
 10
330.840880
 20
37.541304
 30
0.0
 10
330.777615
 20
37.570655
 30
0.0
 10
330.713411
 20
37.597216
 30
0.0
 10
330.648446
 20
37.620992
 30
0.0
  0
SPLINE
  5
239
100
AcDbEntity
  8
Layer_1
 62
7
100
AcDbSpline
 70
8
 71
3
 72
8
 73
4
 74
0
 40
0
 40
0
 40
0
 40
0
 40
1
 40
1
 40
1
 40
1
 10
330.648446
 20
37.620992
 30
0.0
 10
330.580680
 20
37.645783
 30
0.0
 10
330.512087
 20
37.667564
 30
0.0
 10
330.442870
 20
37.686299
 30
0.0
  0
SPLINE
  5
23a
100
AcDbEntity
  8
Layer_1
 62
7
100
AcDbSpline
 70
8
 71
3
 72
8
 73
4
 74
0
 40
0
 40
0
 40
0
 40
0
 40
1
 40
1
 40
1
 40
1
 10
330.442870
 20
37.686299
 30
0.0
 10
330.369339
 20
37.706195
 30
0.0
 10
330.295102
 20
37.722687
 30
0.0
 10
330.220405
 20
37.735749
 30
0.0
  0
SPLINE
  5
23b
100
AcDbEntity
  8
Layer_1
 62
7
100
AcDbSpline
 70
8
 71
3
 72
8
 73
4
 74
0
 40
0
 40
0
 40
0
 40
0
 40
1
 40
1
 40
1
 40
1
 10
330.220405
 20
37.735749
 30
0.0
 10
330.156617
 20
37.746888
 30
0.0
 10
330.092490
 20
37.755567
 30
0.0
 10
330.028180
 20
37.761731
 30
0.0
  0
SPLINE
  5
23c
100
AcDbEntity
  8
Layer_1
 62
7
100
AcDbSpline
 70
8
 71
3
 72
8
 73
4
 74
0
 40
0
 40
0
 40
0
 40
0
 40
1
 40
1
 40
1
 40
1
 10
330.028180
 20
37.761731
 30
0.0
 10
329.950506
 20
37.769166
 30
0.0
 10
329.872560
 20
37.772976
 30
0.0
 10
329.794611
 20
37.773135
 30
0.0
  0
SPLINE
  5
23d
100
AcDbEntity
  8
Layer_1
 62
7
100
AcDbSpline
 70
8
 71
3
 72
8
 73
4
 74
0
 40
0
 40
0
 40
0
 40
0
 40
1
 40
1
 40
1
 40
1
 10
329.794611
 20
37.773135
 30
0.0
 10
329.718933
 20
37.773294
 30
0.0
 10
329.643248
 20
37.770013
 30
0.0
 10
329.567803
 20
37.763319
 30
0.0
  0
SPLINE
  5
23e
100
AcDbEntity
  8
Layer_1
 62
7
100
AcDbSpline
 70
8
 71
3
 72
8
 73
4
 74
0
 40
0
 40
0
 40
0
 40
0
 40
1
 40
1
 40
1
 40
1
 10
329.567803
 20
37.763319
 30
0.0
 10
329.495426
 20
37.756890
 30
0.0
 10
329.423266
 20
37.747312
 30
0.0
 10
329.351543
 20
37.734564
 30
0.0
  0
SPLINE
  5
23f
100
AcDbEntity
  8
Layer_1
 62
7
100
AcDbSpline
 70
8
 71
3
 72
8
 73
4
 74
0
 40
0
 40
0
 40
0
 40
0
 40
1
 40
1
 40
1
 40
1
 10
329.351543
 20
37.734564
 30
0.0
 10
329.254658
 20
37.717340
 30
0.0
 10
329.158566
 20
37.694382
 30
0.0
 10
329.063795
 20
37.665651
 30
0.0
  0
SPLINE
  5
240
100
AcDbEntity
  8
Layer_1
 62
7
100
AcDbSpline
 70
8
 71
3
 72
8
 73
4
 74
0
 40
0
 40
0
 40
0
 40
0
 40
1
 40
1
 40
1
 40
1
 10
329.063795
 20
37.665651
 30
0.0
 10
328.984063
 20
37.641468
 30
0.0
 10
328.905267
 20
37.613229
 30
0.0
 10
328.827723
 20
37.580905
 30
0.0
  0
SPLINE
  5
241
100
AcDbEntity
  8
Layer_1
 62
7
100
AcDbSpline
 70
8
 71
3
 72
8
 73
4
 74
0
 40
0
 40
0
 40
0
 40
0
 40
1
 40
1
 40
1
 40
1
 10
328.827723
 20
37.580905
 30
0.0
 10
328.760749
 20
37.552986
 30
0.0
 10
328.694707
 20
37.522027
 30
0.0
 10
328.629799
 20
37.488025
 30
0.0
  0
SPLINE
  5
242
100
AcDbEntity
  8
Layer_1
 62
7
100
AcDbSpline
 70
8
 71
3
 72
8
 73
4
 74
0
 40
0
 40
0
 40
0
 40
0
 40
1
 40
1
 40
1
 40
1
 10
328.629799
 20
37.488025
 30
0.0
 10
328.562867
 20
37.452963
 30
0.0
 10
328.497142
 20
37.414667
 30
0.0
 10
328.432846
 20
37.373135
 30
0.0
  0
LWPOLYLINE
  5
243
100
AcDbEntity
  8
Layer_1
 62
7
100
AcDbPolyline
 90
2
 70
0
 10
331.145778
 20
37.373143
 30
0.0
 10
332.489305
 20
37.373143
 30
0.0
  0
LWPOLYLINE
  5
244
100
AcDbEntity
  8
Layer_1
 62
7
100
AcDbPolyline
 90
2
 70
0
 10
261.736555
 20
74.463744
 30
0.0
 10
261.736555
 20
57.523743
 30
0.0
  0
LWPOLYLINE
  5
245
100
AcDbEntity
  8
Layer_1
 62
7
100
AcDbPolyline
 90
2
 70
0
 10
262.736548
 20
56.523750
 30
0.0
 10
292.012535
 20
56.523750
 30
0.0
  0
LWPOLYLINE
  5
246
100
AcDbEntity
  8
Layer_1
 62
7
100
AcDbPolyline
 90
2
 70
0
 10
293.012555
 20
74.463744
 30
0.0
 10
293.012555
 20
57.523743
 30
0.0
  0
LWPOLYLINE
  5
247
100
AcDbEntity
  8
Layer_1
 62
7
100
AcDbPolyline
 90
2
 70
0
 10
262.736548
 20
75.463763
 30
0.0
 10
264.080075
 20
75.463763
 30
0.0
  0
LWPOLYLINE
  5
248
100
AcDbEntity
  8
Layer_1
 62
7
100
AcDbPolyline
 90
2
 70
0
 10
266.793007
 20
75.463763
 30
0.0
 10
287.956076
 20
75.463763
 30
0.0
  0
SPLINE
  5
249
100
AcDbEntity
  8
Layer_1
 62
7
100
AcDbSpline
 70
8
 71
3
 72
8
 73
4
 74
0
 40
0
 40
0
 40
0
 40
0
 40
1
 40
1
 40
1
 40
1
 10
262.736548
 20
75.463763
 30
0.0
 10
262.667208
 20
75.463763
 30
0.0
 10
262.599517
 20
75.456699
 30
0.0
 10
262.534152
 20
75.443258
 30
0.0
  0
SPLINE
  5
24a
100
AcDbEntity
  8
Layer_1
 62
7
100
AcDbSpline
 70
8
 71
3
 72
8
 73
4
 74
0
 40
0
 40
0
 40
0
 40
0
 40
1
 40
1
 40
1
 40
1
 10
262.534152
 20
75.443258
 30
0.0
 10
262.465574
 20
75.429156
 30
0.0
 10
262.399561
 20
75.408045
 30
0.0
 10
262.336892
 20
75.380692
 30
0.0
  0
SPLINE
  5
24b
100
AcDbEntity
  8
Layer_1
 62
7
100
AcDbSpline
 70
8
 71
3
 72
8
 73
4
 74
0
 40
0
 40
0
 40
0
 40
0
 40
1
 40
1
 40
1
 40
1
 10
262.336892
 20
75.380692
 30
0.0
 10
262.271159
 20
75.352001
 30
0.0
 10
262.209109
 20
75.316449
 30
0.0
 10
262.151646
 20
75.274943
 30
0.0
  0
SPLINE
  5
24c
100
AcDbEntity
  8
Layer_1
 62
7
100
AcDbSpline
 70
8
 71
3
 72
8
 73
4
 74
0
 40
0
 40
0
 40
0
 40
0
 40
1
 40
1
 40
1
 40
1
 10
262.151646
 20
75.274943
 30
0.0
 10
262.097290
 20
75.235679
 30
0.0
 10
262.047038
 20
75.191089
 30
0.0
 10
262.001654
 20
75.141935
 30
0.0
  0
SPLINE
  5
24d
100
AcDbEntity
  8
Layer_1
 62
7
100
AcDbSpline
 70
8
 71
3
 72
8
 73
4
 74
0
 40
0
 40
0
 40
0
 40
0
 40
1
 40
1
 40
1
 40
1
 10
262.001654
 20
75.141935
 30
0.0
 10
261.955582
 20
75.092037
 30
0.0
 10
261.914529
 20
75.037432
 30
0.0
 10
261.879295
 20
74.978930
 30
0.0
  0
SPLINE
  5
24e
100
AcDbEntity
  8
Layer_1
 62
7
100
AcDbSpline
 70
8
 71
3
 72
8
 73
4
 74
0
 40
0
 40
0
 40
0
 40
0
 40
1
 40
1
 40
1
 40
1
 10
261.879295
 20
74.978930
 30
0.0
 10
261.848087
 20
74.927109
 30
0.0
 10
261.821444
 20
74.872229
 30
0.0
 10
261.799925
 20
74.814846
 30
0.0
  0
SPLINE
  5
24f
100
AcDbEntity
  8
Layer_1
 62
7
100
AcDbSpline
 70
8
 71
3
 72
8
 73
4
 74
0
 40
0
 40
0
 40
0
 40
0
 40
1
 40
1
 40
1
 40
1
 10
261.799925
 20
74.814846
 30
0.0
 10
261.778838
 20
74.758609
 30
0.0
 10
261.762664
 20
74.699967
 30
0.0
 10
261.751938
 20
74.639446
 30
0.0
  0
SPLINE
  5
250
100
AcDbEntity
  8
Layer_1
 62
7
100
AcDbSpline
 70
8
 71
3
 72
8
 73
4
 74
0
 40
0
 40
0
 40
0
 40
0
 40
1
 40
1
 40
1
 40
1
 10
261.751938
 20
74.639446
 30
0.0
 10
261.741831
 20
74.582399
 30
0.0
 10
261.736565
 20
74.523683
 30
0.0
 10
261.736565
 20
74.463733
 30
0.0
  0
SPLINE
  5
251
100
AcDbEntity
  8
Layer_1
 62
7
100
AcDbSpline
 70
8
 71
3
 72
8
 73
4
 74
0
 40
0
 40
0
 40
0
 40
0
 40
1
 40
1
 40
1
 40
1
 10
292.012535
 20
56.523750
 30
0.0
 10
292.048558
 20
56.523750
 30
0.0
 10
292.084140
 20
56.525602
 30
0.0
 10
292.119178
 20
56.529359
 30
0.0
  0
SPLINE
  5
252
100
AcDbEntity
  8
Layer_1
 62
7
100
AcDbSpline
 70
8
 71
3
 72
8
 73
4
 74
0
 40
0
 40
0
 40
0
 40
0
 40
1
 40
1
 40
1
 40
1
 10
292.119178
 20
56.529359
 30
0.0
 10
292.147520
 20
56.532375
 30
0.0
 10
292.175511
 20
56.536556
 30
0.0
 10
292.203099
 20
56.541874
 30
0.0
  0
SPLINE
  5
253
100
AcDbEntity
  8
Layer_1
 62
7
100
AcDbSpline
 70
8
 71
3
 72
8
 73
4
 74
0
 40
0
 40
0
 40
0
 40
0
 40
1
 40
1
 40
1
 40
1
 10
292.203099
 20
56.541874
 30
0.0
 10
292.233568
 20
56.547748
 30
0.0
 10
292.263546
 20
56.555024
 30
0.0
 10
292.292962
 20
56.563596
 30
0.0
  0
SPLINE
  5
254
100
AcDbEntity
  8
Layer_1
 62
7
100
AcDbSpline
 70
8
 71
3
 72
8
 73
4
 74
0
 40
0
 40
0
 40
0
 40
0
 40
1
 40
1
 40
1
 40
1
 10
292.292962
 20
56.563596
 30
0.0
 10
292.320161
 20
56.571534
 30
0.0
 10
292.346884
 20
56.580583
 30
0.0
 10
292.373070
 20
56.590706
 30
0.0
  0
SPLINE
  5
255
100
AcDbEntity
  8
Layer_1
 62
7
100
AcDbSpline
 70
8
 71
3
 72
8
 73
4
 74
0
 40
0
 40
0
 40
0
 40
0
 40
1
 40
1
 40
1
 40
1
 10
292.373070
 20
56.590706
 30
0.0
 10
292.408111
 20
56.604252
 30
0.0
 10
292.442198
 20
56.619720
 30
0.0
 10
292.475202
 20
56.636973
 30
0.0
  0
SPLINE
  5
256
100
AcDbEntity
  8
Layer_1
 62
7
100
AcDbSpline
 70
8
 71
3
 72
8
 73
4
 74
0
 40
0
 40
0
 40
0
 40
0
 40
1
 40
1
 40
1
 40
1
 10
292.475202
 20
56.636973
 30
0.0
 10
292.506174
 20
56.653166
 30
0.0
 10
292.536191
 20
56.670932
 30
0.0
 10
292.565149
 20
56.690168
 30
0.0
  0
SPLINE
  5
257
100
AcDbEntity
  8
Layer_1
 62
7
100
AcDbSpline
 70
8
 71
3
 72
8
 73
4
 74
0
 40
0
 40
0
 40
0
 40
0
 40
1
 40
1
 40
1
 40
1
 10
292.565149
 20
56.690168
 30
0.0
 10
292.596600
 20
56.711070
 30
0.0
 10
292.626803
 20
56.733684
 30
0.0
 10
292.655616
 20
56.757904
 30
0.0
  0
SPLINE
  5
258
100
AcDbEntity
  8
Layer_1
 62
7
100
AcDbSpline
 70
8
 71
3
 72
8
 73
4
 74
0
 40
0
 40
0
 40
0
 40
0
 40
1
 40
1
 40
1
 40
1
 10
292.655616
 20
56.757904
 30
0.0
 10
292.685649
 20
56.783145
 30
0.0
 10
292.714176
 20
56.810127
 30
0.0
 10
292.741042
 20
56.838684
 30
0.0
  0
SPLINE
  5
259
100
AcDbEntity
  8
Layer_1
 62
7
100
AcDbSpline
 70
8
 71
3
 72
8
 73
4
 74
0
 40
0
 40
0
 40
0
 40
0
 40
1
 40
1
 40
1
 40
1
 10
292.741042
 20
56.838684
 30
0.0
 10
292.766574
 20
56.865822
 30
0.0
 10
292.790603
 20
56.894389
 30
0.0
 10
292.813003
 20
56.924250
 30
0.0
  0
SPLINE
  5
25a
100
AcDbEntity
  8
Layer_1
 62
7
100
AcDbSpline
 70
8
 71
3
 72
8
 73
4
 74
0
 40
0
 40
0
 40
0
 40
0
 40
1
 40
1
 40
1
 40
1
 10
292.813003
 20
56.924250
 30
0.0
 10
292.833508
 20
56.951576
 30
0.0
 10
292.852635
 20
56.979987
 30
0.0
 10
292.870301
 20
57.009380
 30
0.0
  0
SPLINE
  5
25b
100
AcDbEntity
  8
Layer_1
 62
7
100
AcDbSpline
 70
8
 71
3
 72
8
 73
4
 74
0
 40
0
 40
0
 40
0
 40
0
 40
1
 40
1
 40
1
 40
1
 10
292.870301
 20
57.009380
 30
0.0
 10
292.886547
 20
57.036428
 30
0.0
 10
292.901567
 20
57.064307
 30
0.0
 10
292.915254
 20
57.092938
 30
0.0
  0
SPLINE
  5
25c
100
AcDbEntity
  8
Layer_1
 62
7
100
AcDbSpline
 70
8
 71
3
 72
8
 73
4
 74
0
 40
0
 40
0
 40
0
 40
0
 40
1
 40
1
 40
1
 40
1
 10
292.915254
 20
57.092938
 30
0.0
 10
292.935256
 20
57.134779
 30
0.0
 10
292.952439
 20
57.178226
 30
0.0
 10
292.966551
 20
57.223036
 30
0.0
  0
SPLINE
  5
25d
100
AcDbEntity
  8
Layer_1
 62
7
100
AcDbSpline
 70
8
 71
3
 72
8
 73
4
 74
0
 40
0
 40
0
 40
0
 40
0
 40
1
 40
1
 40
1
 40
1
 10
292.966551
 20
57.223036
 30
0.0
 10
292.979675
 20
57.264684
 30
0.0
 10
292.990126
 20
57.307507
 30
0.0
 10
292.997743
 20
57.351309
 30
0.0
  0
SPLINE
  5
25e
100
AcDbEntity
  8
Layer_1
 62
7
100
AcDbSpline
 70
8
 71
3
 72
8
 73
4
 74
0
 40
0
 40
0
 40
0
 40
0
 40
1
 40
1
 40
1
 40
1
 10
292.997743
 20
57.351309
 30
0.0
 10
293.007480
 20
57.407326
 30
0.0
 10
293.012560
 20
57.464939
 30
0.0
 10
293.012560
 20
57.523740
 30
0.0
  0
SPLINE
  5
25f
100
AcDbEntity
  8
Layer_1
 62
7
100
AcDbSpline
 70
8
 71
3
 72
8
 73
4
 74
0
 40
0
 40
0
 40
0
 40
0
 40
1
 40
1
 40
1
 40
1
 10
261.736555
 20
57.523743
 30
0.0
 10
261.736555
 20
57.470966
 30
0.0
 10
261.740656
 20
57.419145
 30
0.0
 10
261.748514
 20
57.368578
 30
0.0
  0
SPLINE
  5
260
100
AcDbEntity
  8
Layer_1
 62
7
100
AcDbSpline
 70
8
 71
3
 72
8
 73
4
 74
0
 40
0
 40
0
 40
0
 40
0
 40
1
 40
1
 40
1
 40
1
 10
261.748514
 20
57.368578
 30
0.0
 10
261.754864
 20
57.327808
 30
0.0
 10
261.763675
 20
57.287854
 30
0.0
 10
261.774814
 20
57.248870
 30
0.0
  0
SPLINE
  5
261
100
AcDbEntity
  8
Layer_1
 62
7
100
AcDbSpline
 70
8
 71
3
 72
8
 73
4
 74
0
 40
0
 40
0
 40
0
 40
0
 40
1
 40
1
 40
1
 40
1
 10
261.774814
 20
57.248870
 30
0.0
 10
261.783730
 20
57.217628
 30
0.0
 10
261.794128
 20
57.187013
 30
0.0
 10
261.805913
 20
57.157099
 30
0.0
  0
SPLINE
  5
262
100
AcDbEntity
  8
Layer_1
 62
7
100
AcDbSpline
 70
8
 71
3
 72
8
 73
4
 74
0
 40
0
 40
0
 40
0
 40
0
 40
1
 40
1
 40
1
 40
1
 10
261.805913
 20
57.157099
 30
0.0
 10
261.817978
 20
57.126489
 30
0.0
 10
261.831524
 20
57.096618
 30
0.0
 10
261.846436
 20
57.067572
 30
0.0
  0
SPLINE
  5
263
100
AcDbEntity
  8
Layer_1
 62
7
100
AcDbSpline
 70
8
 71
3
 72
8
 73
4
 74
0
 40
0
 40
0
 40
0
 40
0
 40
1
 40
1
 40
1
 40
1
 10
261.846436
 20
57.067572
 30
0.0
 10
261.860803
 20
57.039566
 30
0.0
 10
261.876482
 20
57.012327
 30
0.0
 10
261.893352
 20
56.985932
 30
0.0
  0
SPLINE
  5
264
100
AcDbEntity
  8
Layer_1
 62
7
100
AcDbSpline
 70
8
 71
3
 72
8
 73
4
 74
0
 40
0
 40
0
 40
0
 40
0
 40
1
 40
1
 40
1
 40
1
 10
261.893352
 20
56.985932
 30
0.0
 10
261.907745
 20
56.963416
 30
0.0
 10
261.923009
 20
56.941519
 30
0.0
 10
261.939104
 20
56.920281
 30
0.0
  0
SPLINE
  5
265
100
AcDbEntity
  8
Layer_1
 62
7
100
AcDbSpline
 70
8
 71
3
 72
8
 73
4
 74
0
 40
0
 40
0
 40
0
 40
0
 40
1
 40
1
 40
1
 40
1
 10
261.939104
 20
56.920281
 30
0.0
 10
261.963842
 20
56.887637
 30
0.0
 10
261.990544
 20
56.856561
 30
0.0
 10
262.019027
 20
56.827224
 30
0.0
  0
SPLINE
  5
266
100
AcDbEntity
  8
Layer_1
 62
7
100
AcDbSpline
 70
8
 71
3
 72
8
 73
4
 74
0
 40
0
 40
0
 40
0
 40
0
 40
1
 40
1
 40
1
 40
1
 10
262.019027
 20
56.827224
 30
0.0
 10
262.033235
 20
56.812567
 30
0.0
 10
262.047909
 20
56.798369
 30
0.0
 10
262.062992
 20
56.784616
 30
0.0
  0
SPLINE
  5
267
100
AcDbEntity
  8
Layer_1
 62
7
100
AcDbSpline
 70
8
 71
3
 72
8
 73
4
 74
0
 40
0
 40
0
 40
0
 40
0
 40
1
 40
1
 40
1
 40
1
 10
262.062992
 20
56.784616
 30
0.0
 10
262.079000
 20
56.770011
 30
0.0
 10
262.095481
 20
56.755938
 30
0.0
 10
262.112414
 20
56.742396
 30
0.0
  0
SPLINE
  5
268
100
AcDbEntity
  8
Layer_1
 62
7
100
AcDbSpline
 70
8
 71
3
 72
8
 73
4
 74
0
 40
0
 40
0
 40
0
 40
0
 40
1
 40
1
 40
1
 40
1
 10
262.112414
 20
56.742396
 30
0.0
 10
262.122336
 20
56.734459
 30
0.0
 10
262.132416
 20
56.726707
 30
0.0
 10
262.142637
 20
56.719140
 30
0.0
  0
SPLINE
  5
269
100
AcDbEntity
  8
Layer_1
 62
7
100
AcDbSpline
 70
8
 71
3
 72
8
 73
4
 74
0
 40
0
 40
0
 40
0
 40
0
 40
1
 40
1
 40
1
 40
1
 10
262.142637
 20
56.719140
 30
0.0
 10
262.157084
 20
56.708450
 30
0.0
 10
262.171839
 20
56.698158
 30
0.0
 10
262.186873
 20
56.688239
 30
0.0
  0
SPLINE
  5
26a
100
AcDbEntity
  8
Layer_1
 62
7
100
AcDbSpline
 70
8
 71
3
 72
8
 73
4
 74
0
 40
0
 40
0
 40
0
 40
0
 40
1
 40
1
 40
1
 40
1
 10
262.186873
 20
56.688239
 30
0.0
 10
262.209601
 20
56.673237
 30
0.0
 10
262.232992
 20
56.659166
 30
0.0
 10
262.256972
 20
56.646035
 30
0.0
  0
SPLINE
  5
26b
100
AcDbEntity
  8
Layer_1
 62
7
100
AcDbSpline
 70
8
 71
3
 72
8
 73
4
 74
0
 40
0
 40
0
 40
0
 40
0
 40
1
 40
1
 40
1
 40
1
 10
262.256972
 20
56.646035
 30
0.0
 10
262.274778
 20
56.636272
 30
0.0
 10
262.292907
 20
56.627065
 30
0.0
 10
262.311349
 20
56.618386
 30
0.0
  0
SPLINE
  5
26c
100
AcDbEntity
  8
Layer_1
 62
7
100
AcDbSpline
 70
8
 71
3
 72
8
 73
4
 74
0
 40
0
 40
0
 40
0
 40
0
 40
1
 40
1
 40
1
 40
1
 10
262.311349
 20
56.618386
 30
0.0
 10
262.339437
 20
56.605184
 30
0.0
 10
262.368240
 20
56.593224
 30
0.0
 10
262.397682
 20
56.582622
 30
0.0
  0
SPLINE
  5
26d
100
AcDbEntity
  8
Layer_1
 62
7
100
AcDbSpline
 70
8
 71
3
 72
8
 73
4
 74
0
 40
0
 40
0
 40
0
 40
0
 40
1
 40
1
 40
1
 40
1
 10
262.397682
 20
56.582622
 30
0.0
 10
262.427922
 20
56.571722
 30
0.0
 10
262.458838
 20
56.562250
 30
0.0
 10
262.490353
 20
56.554278
 30
0.0
  0
SPLINE
  5
26e
100
AcDbEntity
  8
Layer_1
 62
7
100
AcDbSpline
 70
8
 71
3
 72
8
 73
4
 74
0
 40
0
 40
0
 40
0
 40
0
 40
1
 40
1
 40
1
 40
1
 10
262.490353
 20
56.554278
 30
0.0
 10
262.531675
 20
56.543827
 30
0.0
 10
262.574022
 20
56.535916
 30
0.0
 10
262.617212
 20
56.530783
 30
0.0
  0
SPLINE
  5
26f
100
AcDbEntity
  8
Layer_1
 62
7
100
AcDbSpline
 70
8
 71
3
 72
8
 73
4
 74
0
 40
0
 40
0
 40
0
 40
0
 40
1
 40
1
 40
1
 40
1
 10
262.617212
 20
56.530783
 30
0.0
 10
262.656344
 20
56.526126
 30
0.0
 10
262.696169
 20
56.523745
 30
0.0
 10
262.736553
 20
56.523745
 30
0.0
  0
SPLINE
  5
270
100
AcDbEntity
  8
Layer_1
 62
7
100
AcDbSpline
 70
8
 71
3
 72
8
 73
4
 74
0
 40
0
 40
0
 40
0
 40
0
 40
1
 40
1
 40
1
 40
1
 10
293.012555
 20
74.463744
 30
0.0
 10
293.012555
 20
74.507244
 30
0.0
 10
293.009776
 20
74.550096
 30
0.0
 10
293.004379
 20
74.592130
 30
0.0
  0
SPLINE
  5
271
100
AcDbEntity
  8
Layer_1
 62
7
100
AcDbSpline
 70
8
 71
3
 72
8
 73
4
 74
0
 40
0
 40
0
 40
0
 40
0
 40
1
 40
1
 40
1
 40
1
 10
293.004379
 20
74.592130
 30
0.0
 10
293.000490
 20
74.622478
 30
0.0
 10
292.995251
 20
74.652400
 30
0.0
 10
292.988689
 20
74.681832
 30
0.0
  0
SPLINE
  5
272
100
AcDbEntity
  8
Layer_1
 62
7
100
AcDbSpline
 70
8
 71
3
 72
8
 73
4
 74
0
 40
0
 40
0
 40
0
 40
0
 40
1
 40
1
 40
1
 40
1
 10
292.988689
 20
74.681832
 30
0.0
 10
292.983741
 20
74.704031
 30
0.0
 10
292.978079
 20
74.725978
 30
0.0
 10
292.971676
 20
74.747605
 30
0.0
  0
SPLINE
  5
273
100
AcDbEntity
  8
Layer_1
 62
7
100
AcDbSpline
 70
8
 71
3
 72
8
 73
4
 74
0
 40
0
 40
0
 40
0
 40
0
 40
1
 40
1
 40
1
 40
1
 10
292.971676
 20
74.747605
 30
0.0
 10
292.960432
 20
74.785620
 30
0.0
 10
292.947017
 20
74.822691
 30
0.0
 10
292.931531
 20
74.858674
 30
0.0
  0
SPLINE
  5
274
100
AcDbEntity
  8
Layer_1
 62
7
100
AcDbSpline
 70
8
 71
3
 72
8
 73
4
 74
0
 40
0
 40
0
 40
0
 40
0
 40
1
 40
1
 40
1
 40
1
 10
292.931531
 20
74.858674
 30
0.0
 10
292.914095
 20
74.899187
 30
0.0
 10
292.894064
 20
74.938322
 30
0.0
 10
292.871640
 20
74.975861
 30
0.0
  0
SPLINE
  5
275
100
AcDbEntity
  8
Layer_1
 62
7
100
AcDbSpline
 70
8
 71
3
 72
8
 73
4
 74
0
 40
0
 40
0
 40
0
 40
0
 40
1
 40
1
 40
1
 40
1
 10
292.871640
 20
74.975861
 30
0.0
 10
292.850659
 20
75.010990
 30
0.0
 10
292.827576
 20
75.044721
 30
0.0
 10
292.802579
 20
75.076887
 30
0.0
  0
SPLINE
  5
276
100
AcDbEntity
  8
Layer_1
 62
7
100
AcDbSpline
 70
8
 71
3
 72
8
 73
4
 74
0
 40
0
 40
0
 40
0
 40
0
 40
1
 40
1
 40
1
 40
1
 10
292.802579
 20
75.076887
 30
0.0
 10
292.773911
 20
75.113775
 30
0.0
 10
292.742714
 20
75.148602
 30
0.0
 10
292.709252
 20
75.181109
 30
0.0
  0
SPLINE
  5
277
100
AcDbEntity
  8
Layer_1
 62
7
100
AcDbSpline
 70
8
 71
3
 72
8
 73
4
 74
0
 40
0
 40
0
 40
0
 40
0
 40
1
 40
1
 40
1
 40
1
 10
292.709252
 20
75.181109
 30
0.0
 10
292.670168
 20
75.219077
 30
0.0
 10
292.627991
 20
75.253877
 30
0.0
 10
292.583133
 20
75.285098
 30
0.0
  0
SPLINE
  5
278
100
AcDbEntity
  8
Layer_1
 62
7
100
AcDbSpline
 70
8
 71
3
 72
8
 73
4
 74
0
 40
0
 40
0
 40
0
 40
0
 40
1
 40
1
 40
1
 40
1
 10
292.583133
 20
75.285098
 30
0.0
 10
292.542916
 20
75.313091
 30
0.0
 10
292.500546
 20
75.338205
 30
0.0
 10
292.456318
 20
75.360144
 30
0.0
  0
SPLINE
  5
279
100
AcDbEntity
  8
Layer_1
 62
7
100
AcDbSpline
 70
8
 71
3
 72
8
 73
4
 74
0
 40
0
 40
0
 40
0
 40
0
 40
1
 40
1
 40
1
 40
1
 10
292.456318
 20
75.360144
 30
0.0
 10
292.424907
 20
75.375728
 30
0.0
 10
292.392559
 20
75.389704
 30
0.0
 10
292.359380
 20
75.401975
 30
0.0
  0
SPLINE
  5
27a
100
AcDbEntity
  8
Layer_1
 62
7
100
AcDbSpline
 70
8
 71
3
 72
8
 73
4
 74
0
 40
0
 40
0
 40
0
 40
0
 40
1
 40
1
 40
1
 40
1
 10
292.359380
 20
75.401975
 30
0.0
 10
292.332491
 20
75.411923
 30
0.0
 10
292.305053
 20
75.420734
 30
0.0
 10
292.277129
 20
75.428381
 30
0.0
  0
SPLINE
  5
27b
100
AcDbEntity
  8
Layer_1
 62
7
100
AcDbSpline
 70
8
 71
3
 72
8
 73
4
 74
0
 40
0
 40
0
 40
0
 40
0
 40
1
 40
1
 40
1
 40
1
 10
292.277129
 20
75.428381
 30
0.0
 10
292.255010
 20
75.434439
 30
0.0
 10
292.232600
 20
75.439731
 30
0.0
 10
292.209904
 20
75.444282
 30
0.0
  0
SPLINE
  5
27c
100
AcDbEntity
  8
Layer_1
 62
7
100
AcDbSpline
 70
8
 71
3
 72
8
 73
4
 74
0
 40
0
 40
0
 40
0
 40
0
 40
1
 40
1
 40
1
 40
1
 10
292.209904
 20
75.444282
 30
0.0
 10
292.181509
 20
75.449971
 30
0.0
 10
292.152680
 20
75.454442
 30
0.0
 10
292.123472
 20
75.457670
 30
0.0
  0
SPLINE
  5
27d
100
AcDbEntity
  8
Layer_1
 62
7
100
AcDbSpline
 70
8
 71
3
 72
8
 73
4
 74
0
 40
0
 40
0
 40
0
 40
0
 40
1
 40
1
 40
1
 40
1
 10
292.123472
 20
75.457670
 30
0.0
 10
292.087039
 20
75.461692
 30
0.0
 10
292.050019
 20
75.463755
 30
0.0
 10
292.012514
 20
75.463755
 30
0.0
  0
SPLINE
  5
27e
100
AcDbEntity
  8
Layer_1
 62
7
100
AcDbSpline
 70
8
 71
3
 72
8
 73
4
 74
0
 40
0
 40
0
 40
0
 40
0
 40
1
 40
1
 40
1
 40
1
 10
266.793007
 20
75.463763
 30
0.0
 10
266.723808
 20
75.508462
 30
0.0
 10
266.652952
 20
75.549412
 30
0.0
 10
266.580719
 20
75.586617
 30
0.0
  0
SPLINE
  5
27f
100
AcDbEntity
  8
Layer_1
 62
7
100
AcDbSpline
 70
8
 71
3
 72
8
 73
4
 74
0
 40
0
 40
0
 40
0
 40
0
 40
1
 40
1
 40
1
 40
1
 10
266.580719
 20
75.586617
 30
0.0
 10
266.494808
 20
75.630869
 30
0.0
 10
266.406945
 20
75.669818
 30
0.0
 10
266.317601
 20
75.703470
 30
0.0
  0
SPLINE
  5
280
100
AcDbEntity
  8
Layer_1
 62
7
100
AcDbSpline
 70
8
 71
3
 72
8
 73
4
 74
0
 40
0
 40
0
 40
0
 40
0
 40
1
 40
1
 40
1
 40
1
 10
266.317601
 20
75.703470
 30
0.0
 10
266.230326
 20
75.736345
 30
0.0
 10
266.141632
 20
75.764161
 30
0.0
 10
266.051962
 20
75.786920
 30
0.0
  0
SPLINE
  5
281
100
AcDbEntity
  8
Layer_1
 62
7
100
AcDbSpline
 70
8
 71
3
 72
8
 73
4
 74
0
 40
0
 40
0
 40
0
 40
0
 40
1
 40
1
 40
1
 40
1
 10
266.051962
 20
75.786920
 30
0.0
 10
265.979336
 20
75.805361
 30
0.0
 10
265.906071
 20
75.820472
 30
0.0
 10
265.832395
 20
75.832272
 30
0.0
  0
SPLINE
  5
282
100
AcDbEntity
  8
Layer_1
 62
7
100
AcDbSpline
 70
8
 71
3
 72
8
 73
4
 74
0
 40
0
 40
0
 40
0
 40
0
 40
1
 40
1
 40
1
 40
1
 10
265.832395
 20
75.832272
 30
0.0
 10
265.696891
 20
75.853968
 30
0.0
 10
265.559996
 20
75.864459
 30
0.0
 10
265.423148
 20
75.863729
 30
0.0
  0
SPLINE
  5
283
100
AcDbEntity
  8
Layer_1
 62
7
100
AcDbSpline
 70
8
 71
3
 72
8
 73
4
 74
0
 40
0
 40
0
 40
0
 40
0
 40
1
 40
1
 40
1
 40
1
 10
265.423148
 20
75.863729
 30
0.0
 10
265.313356
 20
75.863199
 30
0.0
 10
265.203597
 20
75.855341
 30
0.0
 10
265.094609
 20
75.840313
 30
0.0
  0
SPLINE
  5
284
100
AcDbEntity
  8
Layer_1
 62
7
100
AcDbSpline
 70
8
 71
3
 72
8
 73
4
 74
0
 40
0
 40
0
 40
0
 40
0
 40
1
 40
1
 40
1
 40
1
 10
265.094609
 20
75.840313
 30
0.0
 10
264.969835
 20
75.823115
 30
0.0
 10
264.846073
 20
75.796442
 30
0.0
 10
264.724442
 20
75.760311
 30
0.0
  0
SPLINE
  5
285
100
AcDbEntity
  8
Layer_1
 62
7
100
AcDbSpline
 70
8
 71
3
 72
8
 73
4
 74
0
 40
0
 40
0
 40
0
 40
0
 40
1
 40
1
 40
1
 40
1
 10
264.724442
 20
75.760311
 30
0.0
 10
264.612647
 20
75.727103
 30
0.0
 10
264.502655
 20
75.685902
 30
0.0
 10
264.395324
 20
75.636705
 30
0.0
  0
SPLINE
  5
286
100
AcDbEntity
  8
Layer_1
 62
7
100
AcDbSpline
 70
8
 71
3
 72
8
 73
4
 74
0
 40
0
 40
0
 40
0
 40
0
 40
1
 40
1
 40
1
 40
1
 10
264.395324
 20
75.636705
 30
0.0
 10
264.287244
 20
75.587168
 30
0.0
 10
264.181868
 20
75.529523
 30
0.0
 10
264.080075
 20
75.463771
 30
0.0
  0
SPLINE
  5
287
100
AcDbEntity
  8
Layer_1
 62
7
100
AcDbSpline
 70
8
 71
3
 72
8
 73
4
 74
0
 40
0
 40
0
 40
0
 40
0
 40
1
 40
1
 40
1
 40
1
 10
290.669008
 20
75.463763
 30
0.0
 10
290.616377
 20
75.497760
 30
0.0
 10
290.562785
 20
75.529589
 30
0.0
 10
290.508358
 20
75.559251
 30
0.0
  0
SPLINE
  5
288
100
AcDbEntity
  8
Layer_1
 62
7
100
AcDbSpline
 70
8
 71
3
 72
8
 73
4
 74
0
 40
0
 40
0
 40
0
 40
0
 40
1
 40
1
 40
1
 40
1
 10
290.508358
 20
75.559251
 30
0.0
 10
290.460886
 20
75.585128
 30
0.0
 10
290.412774
 20
75.609350
 30
0.0
 10
290.364110
 20
75.631924
 30
0.0
  0
SPLINE
  5
289
100
AcDbEntity
  8
Layer_1
 62
7
100
AcDbSpline
 70
8
 71
3
 72
8
 73
4
 74
0
 40
0
 40
0
 40
0
 40
0
 40
1
 40
1
 40
1
 40
1
 10
290.364110
 20
75.631924
 30
0.0
 10
290.300845
 20
75.661275
 30
0.0
 10
290.236641
 20
75.687836
 30
0.0
 10
290.171676
 20
75.711612
 30
0.0
  0
SPLINE
  5
28a
100
AcDbEntity
  8
Layer_1
 62
7
100
AcDbSpline
 70
8
 71
3
 72
8
 73
4
 74
0
 40
0
 40
0
 40
0
 40
0
 40
1
 40
1
 40
1
 40
1
 10
290.171676
 20
75.711612
 30
0.0
 10
290.103910
 20
75.736403
 30
0.0
 10
290.035317
 20
75.758184
 30
0.0
 10
289.966100
 20
75.776919
 30
0.0
  0
SPLINE
  5
28b
100
AcDbEntity
  8
Layer_1
 62
7
100
AcDbSpline
 70
8
 71
3
 72
8
 73
4
 74
0
 40
0
 40
0
 40
0
 40
0
 40
1
 40
1
 40
1
 40
1
 10
289.966100
 20
75.776919
 30
0.0
 10
289.892569
 20
75.796815
 30
0.0
 10
289.818332
 20
75.813307
 30
0.0
 10
289.743635
 20
75.826369
 30
0.0
  0
SPLINE
  5
28c
100
AcDbEntity
  8
Layer_1
 62
7
100
AcDbSpline
 70
8
 71
3
 72
8
 73
4
 74
0
 40
0
 40
0
 40
0
 40
0
 40
1
 40
1
 40
1
 40
1
 10
289.743635
 20
75.826369
 30
0.0
 10
289.679847
 20
75.837508
 30
0.0
 10
289.615720
 20
75.846187
 30
0.0
 10
289.551410
 20
75.852351
 30
0.0
  0
SPLINE
  5
28d
100
AcDbEntity
  8
Layer_1
 62
7
100
AcDbSpline
 70
8
 71
3
 72
8
 73
4
 74
0
 40
0
 40
0
 40
0
 40
0
 40
1
 40
1
 40
1
 40
1
 10
289.551410
 20
75.852351
 30
0.0
 10
289.473736
 20
75.859786
 30
0.0
 10
289.395790
 20
75.863596
 30
0.0
 10
289.317841
 20
75.863755
 30
0.0
  0
SPLINE
  5
28e
100
AcDbEntity
  8
Layer_1
 62
7
100
AcDbSpline
 70
8
 71
3
 72
8
 73
4
 74
0
 40
0
 40
0
 40
0
 40
0
 40
1
 40
1
 40
1
 40
1
 10
289.317841
 20
75.863755
 30
0.0
 10
289.242163
 20
75.863914
 30
0.0
 10
289.166478
 20
75.860633
 30
0.0
 10
289.091033
 20
75.853939
 30
0.0
  0
SPLINE
  5
28f
100
AcDbEntity
  8
Layer_1
 62
7
100
AcDbSpline
 70
8
 71
3
 72
8
 73
4
 74
0
 40
0
 40
0
 40
0
 40
0
 40
1
 40
1
 40
1
 40
1
 10
289.091033
 20
75.853939
 30
0.0
 10
289.018656
 20
75.847510
 30
0.0
 10
288.946496
 20
75.837932
 30
0.0
 10
288.874773
 20
75.825184
 30
0.0
  0
SPLINE
  5
290
100
AcDbEntity
  8
Layer_1
 62
7
100
AcDbSpline
 70
8
 71
3
 72
8
 73
4
 74
0
 40
0
 40
0
 40
0
 40
0
 40
1
 40
1
 40
1
 40
1
 10
288.874773
 20
75.825184
 30
0.0
 10
288.777888
 20
75.807960
 30
0.0
 10
288.681796
 20
75.785002
 30
0.0
 10
288.587025
 20
75.756271
 30
0.0
  0
SPLINE
  5
291
100
AcDbEntity
  8
Layer_1
 62
7
100
AcDbSpline
 70
8
 71
3
 72
8
 73
4
 74
0
 40
0
 40
0
 40
0
 40
0
 40
1
 40
1
 40
1
 40
1
 10
288.587025
 20
75.756271
 30
0.0
 10
288.507293
 20
75.732088
 30
0.0
 10
288.428497
 20
75.703849
 30
0.0
 10
288.350953
 20
75.671525
 30
0.0
  0
SPLINE
  5
292
100
AcDbEntity
  8
Layer_1
 62
7
100
AcDbSpline
 70
8
 71
3
 72
8
 73
4
 74
0
 40
0
 40
0
 40
0
 40
0
 40
1
 40
1
 40
1
 40
1
 10
288.350953
 20
75.671525
 30
0.0
 10
288.283979
 20
75.643606
 30
0.0
 10
288.217937
 20
75.612647
 30
0.0
 10
288.153029
 20
75.578645
 30
0.0
  0
SPLINE
  5
293
100
AcDbEntity
  8
Layer_1
 62
7
100
AcDbSpline
 70
8
 71
3
 72
8
 73
4
 74
0
 40
0
 40
0
 40
0
 40
0
 40
1
 40
1
 40
1
 40
1
 10
288.153029
 20
75.578645
 30
0.0
 10
288.086097
 20
75.543583
 30
0.0
 10
288.020372
 20
75.505287
 30
0.0
 10
287.956076
 20
75.463755
 30
0.0
  0
LWPOLYLINE
  5
294
100
AcDbEntity
  8
Layer_1
 62
7
100
AcDbPolyline
 90
2
 70
0
 10
290.669008
 20
75.463763
 30
0.0
 10
292.012535
 20
75.463763
 30
0.0
  0
LWPOLYLINE
  5
295
100
AcDbEntity
  8
Layer_1
 62
7
100
AcDbPolyline
 90
96
 70
1
 10
34.792479
 20
115.246867
 30
0.0
 10
48.542479
 20
115.246867
 30
0.0
 10
48.542479
 20
128.996867
 30
0.0
 10
42.967479
 20
128.996867
 30
0.0
 10
42.967479
 20
141.772867
 30
0.0
 10
380.168479
 20
141.771867
 30
0.0
 10
380.560479
 20
141.756867
 30
0.0
 10
380.950479
 20
141.710867
 30
0.0
 10
381.335479
 20
141.633867
 30
0.0
 10
381.713479
 20
141.527867
 30
0.0
 10
382.081479
 20
141.391867
 30
0.0
 10
382.437479
 20
141.227867
 30
0.0
 10
382.780479
 20
141.035867
 30
0.0
 10
383.106479
 20
140.817867
 30
0.0
 10
383.415479
 20
140.574867
 30
0.0
 10
383.703479
 20
140.307867
 30
0.0
 10
383.970479
 20
140.019867
 30
0.0
 10
384.213479
 20
139.710867
 30
0.0
 10
384.431479
 20
139.384867
 30
0.0
 10
384.623479
 20
139.041867
 30
0.0
 10
384.787479
 20
138.685867
 30
0.0
 10
384.923479
 20
138.317867
 30
0.0
 10
385.029479
 20
137.939867
 30
0.0
 10
385.106479
 20
137.554867
 30
0.0
 10
385.152479
 20
137.164867
 30
0.0
 10
385.167479
 20
136.771867
 30
0.0
 10
385.168479
 20
12.220867
 30
0.0
 10
385.152479
 20
11.828867
 30
0.0
 10
385.106479
 20
11.438867
 30
0.0
 10
385.029479
 20
11.053867
 30
0.0
 10
384.923479
 20
10.675867
 30
0.0
 10
384.787479
 20
10.307867
 30
0.0
 10
384.623479
 20
9.951867
 30
0.0
 10
384.431479
 20
9.608867
 30
0.0
 10
384.213479
 20
9.282867
 30
0.0
 10
383.970479
 20
8.973867
 30
0.0
 10
383.703479
 20
8.685867
 30
0.0
 10
383.415479
 20
8.418867
 30
0.0
 10
383.106479
 20
8.175867
 30
0.0
 10
382.780479
 20
7.957867
 30
0.0
 10
382.437479
 20
7.765867
 30
0.0
 10
382.081479
 20
7.601867
 30
0.0
 10
381.713479
 20
7.465867
 30
0.0
 10
381.335479
 20
7.359867
 30
0.0
 10
380.950479
 20
7.282867
 30
0.0
 10
380.560479
 20
7.236867
 30
0.0
 10
380.168479
 20
7.220867
 30
0.0
 10
7.967479
 20
7.220867
 30
0.0
 10
7.574479
 20
7.236867
 30
0.0
 10
7.184479
 20
7.282867
 30
0.0
 10
6.799479
 20
7.359867
 30
0.0
 10
6.421479
 20
7.465867
 30
0.0
 10
6.053479
 20
7.601867
 30
0.0
 10
5.697479
 20
7.765867
 30
0.0
 10
5.354479
 20
7.957867
 30
0.0
 10
5.028479
 20
8.175867
 30
0.0
 10
4.719479
 20
8.418867
 30
0.0
 10
4.431479
 20
8.685867
 30
0.0
 10
4.164479
 20
8.973867
 30
0.0
 10
3.921479
 20
9.282867
 30
0.0
 10
3.703479
 20
9.608867
 30
0.0
 10
3.511479
 20
9.951867
 30
0.0
 10
3.347479
 20
10.307867
 30
0.0
 10
3.211479
 20
10.675867
 30
0.0
 10
3.105479
 20
11.053867
 30
0.0
 10
3.028479
 20
11.438867
 30
0.0
 10
2.982479
 20
11.828867
 30
0.0
 10
2.966479
 20
12.220867
 30
0.0
 10
2.967479
 20
136.771867
 30
0.0
 10
2.982479
 20
137.164867
 30
0.0
 10
3.028479
 20
137.554867
 30
0.0
 10
3.105479
 20
137.939867
 30
0.0
 10
3.211479
 20
138.317867
 30
0.0
 10
3.347479
 20
138.685867
 30
0.0
 10
3.511479
 20
139.041867
 30
0.0
 10
3.703479
 20
139.384867
 30
0.0
 10
3.921479
 20
139.710867
 30
0.0
 10
4.164479
 20
140.019867
 30
0.0
 10
4.431479
 20
140.307867
 30
0.0
 10
4.719479
 20
140.574867
 30
0.0
 10
5.028479
 20
140.817867
 30
0.0
 10
5.354479
 20
141.035867
 30
0.0
 10
5.697479
 20
141.227867
 30
0.0
 10
6.053479
 20
141.391867
 30
0.0
 10
6.421479
 20
141.527867
 30
0.0
 10
6.799479
 20
141.633867
 30
0.0
 10
7.184479
 20
141.710867
 30
0.0
 10
7.574479
 20
141.756867
 30
0.0
 10
7.967479
 20
141.772867
 30
0.0
 10
22.967479
 20
141.772867
 30
0.0
 10
22.967479
 20
128.996867
 30
0.0
 10
15.742479
 20
128.996867
 30
0.0
 10
15.742479
 20
115.246867
 30
0.0
 10
29.492479
 20
115.246867
 30
0.0
 10
29.492479
 20
123.871867
 30
0.0
 10
34.792479
 20
123.871867
 30
0.0
  0
LWPOLYLINE
  5
296
100
AcDbEntity
  8
Layer_1
 62
7
100
AcDbPolyline
 90
20
 70
1
 10
378.647479
 20
10.424867
 30
0.0
 10
379.309479
 20
10.087867
 30
0.0
 10
380.043479
 20
9.970867
 30
0.0
 10
380.776479
 20
10.087867
 30
0.0
 10
381.438479
 20
10.424867
 30
0.0
 10
381.964479
 20
10.950867
 30
0.0
 10
382.301479
 20
11.612867
 30
0.0
 10
382.418479
 20
12.345867
 30
0.0
 10
382.301479
 20
13.079867
 30
0.0
 10
381.964479
 20
13.741867
 30
0.0
 10
381.438479
 20
14.267867
 30
0.0
 10
380.776479
 20
14.604867
 30
0.0
 10
380.043479
 20
14.720867
 30
0.0
 10
379.309479
 20
14.604867
 30
0.0
 10
378.647479
 20
14.267867
 30
0.0
 10
378.121479
 20
13.741867
 30
0.0
 10
377.784479
 20
13.079867
 30
0.0
 10
377.668479
 20
12.345867
 30
0.0
 10
377.784479
 20
11.612867
 30
0.0
 10
378.121479
 20
10.950867
 30
0.0
  0
LWPOLYLINE
  5
297
100
AcDbEntity
  8
Layer_1
 62
7
100
AcDbPolyline
 90
20
 70
1
 10
304.256479
 20
10.424867
 30
0.0
 10
304.918479
 20
10.087867
 30
0.0
 10
305.652479
 20
9.970867
 30
0.0
 10
306.386479
 20
10.087867
 30
0.0
 10
307.048479
 20
10.424867
 30
0.0
 10
307.574479
 20
10.950867
 30
0.0
 10
307.911479
 20
11.612867
 30
0.0
 10
308.027479
 20
12.345867
 30
0.0
 10
307.911479
 20
13.079867
 30
0.0
 10
307.574479
 20
13.741867
 30
0.0
 10
307.048479
 20
14.267867
 30
0.0
 10
306.386479
 20
14.604867
 30
0.0
 10
305.652479
 20
14.720867
 30
0.0
 10
304.918479
 20
14.604867
 30
0.0
 10
304.256479
 20
14.267867
 30
0.0
 10
303.731479
 20
13.741867
 30
0.0
 10
303.394479
 20
13.079867
 30
0.0
 10
303.277479
 20
12.345867
 30
0.0
 10
303.394479
 20
11.612867
 30
0.0
 10
303.731479
 20
10.950867
 30
0.0
  0
LWPOLYLINE
  5
298
100
AcDbEntity
  8
Layer_1
 62
7
100
AcDbPolyline
 90
20
 70
1
 10
229.866479
 20
10.424867
 30
0.0
 10
230.528479
 20
10.087867
 30
0.0
 10
231.262479
 20
9.970867
 30
0.0
 10
231.996479
 20
10.087867
 30
0.0
 10
232.658479
 20
10.424867
 30
0.0
 10
233.184479
 20
10.950867
 30
0.0
 10
233.521479
 20
11.612867
 30
0.0
 10
233.637479
 20
12.345867
 30
0.0
 10
233.521479
 20
13.079867
 30
0.0
 10
233.184479
 20
13.741867
 30
0.0
 10
232.658479
 20
14.267867
 30
0.0
 10
231.996479
 20
14.604867
 30
0.0
 10
231.262479
 20
14.720867
 30
0.0
 10
230.528479
 20
14.604867
 30
0.0
 10
229.866479
 20
14.267867
 30
0.0
 10
229.341479
 20
13.741867
 30
0.0
 10
229.003479
 20
13.079867
 30
0.0
 10
228.887479
 20
12.345867
 30
0.0
 10
229.003479
 20
11.612867
 30
0.0
 10
229.341479
 20
10.950867
 30
0.0
  0
LWPOLYLINE
  5
299
100
AcDbEntity
  8
Layer_1
 62
7
100
AcDbPolyline
 90
20
 70
1
 10
155.476479
 20
10.424867
 30
0.0
 10
156.138479
 20
10.087867
 30
0.0
 10
156.872479
 20
9.970867
 30
0.0
 10
157.606479
 20
10.087867
 30
0.0
 10
158.268479
 20
10.424867
 30
0.0
 10
158.793479
 20
10.950867
 30
0.0
 10
159.131479
 20
11.612867
 30
0.0
 10
159.247479
 20
12.345867
 30
0.0
 10
159.131479
 20
13.079867
 30
0.0
 10
158.793479
 20
13.741867
 30
0.0
 10
158.268479
 20
14.267867
 30
0.0
 10
157.606479
 20
14.604867
 30
0.0
 10
156.872479
 20
14.720867
 30
0.0
 10
156.138479
 20
14.604867
 30
0.0
 10
155.476479
 20
14.267867
 30
0.0
 10
154.950479
 20
13.741867
 30
0.0
 10
154.613479
 20
13.079867
 30
0.0
 10
154.497479
 20
12.345867
 30
0.0
 10
154.613479
 20
11.612867
 30
0.0
 10
154.950479
 20
10.950867
 30
0.0
  0
LWPOLYLINE
  5
29a
100
AcDbEntity
  8
Layer_1
 62
7
100
AcDbPolyline
 90
20
 70
1
 10
81.086479
 20
10.424867
 30
0.0
 10
81.748479
 20
10.087867
 30
0.0
 10
82.482479
 20
9.970867
 30
0.0
 10
83.216479
 20
10.087867
 30
0.0
 10
83.878479
 20
10.424867
 30
0.0
 10
84.403479
 20
10.950867
 30
0.0
 10
84.740479
 20
11.612867
 30
0.0
 10
84.857479
 20
12.345867
 30
0.0
 10
84.740479
 20
13.079867
 30
0.0
 10
84.403479
 20
13.741867
 30
0.0
 10
83.878479
 20
14.267867
 30
0.0
 10
83.216479
 20
14.604867
 30
0.0
 10
82.482479
 20
14.720867
 30
0.0
 10
81.748479
 20
14.604867
 30
0.0
 10
81.086479
 20
14.267867
 30
0.0
 10
80.560479
 20
13.741867
 30
0.0
 10
80.223479
 20
13.079867
 30
0.0
 10
80.107479
 20
12.345867
 30
0.0
 10
80.223479
 20
11.612867
 30
0.0
 10
80.560479
 20
10.950867
 30
0.0
  0
LWPOLYLINE
  5
29b
100
AcDbEntity
  8
Layer_1
 62
7
100
AcDbPolyline
 90
20
 70
1
 10
6.696479
 20
10.424867
 30
0.0
 10
7.358479
 20
10.087867
 30
0.0
 10
8.092479
 20
9.970867
 30
0.0
 10
8.825479
 20
10.087867
 30
0.0
 10
9.487479
 20
10.424867
 30
0.0
 10
10.013479
 20
10.950867
 30
0.0
 10
10.350479
 20
11.612867
 30
0.0
 10
10.467479
 20
12.345867
 30
0.0
 10
10.350479
 20
13.079867
 30
0.0
 10
10.013479
 20
13.741867
 30
0.0
 10
9.487479
 20
14.267867
 30
0.0
 10
8.825479
 20
14.604867
 30
0.0
 10
8.092479
 20
14.720867
 30
0.0
 10
7.358479
 20
14.604867
 30
0.0
 10
6.696479
 20
14.267867
 30
0.0
 10
6.170479
 20
13.741867
 30
0.0
 10
5.833479
 20
13.079867
 30
0.0
 10
5.717479
 20
12.345867
 30
0.0
 10
5.833479
 20
11.612867
 30
0.0
 10
6.170479
 20
10.950867
 30
0.0
  0
LWPOLYLINE
  5
29c
100
AcDbEntity
  8
Layer_1
 62
7
100
AcDbPolyline
 90
4
 70
1
 10
31.873479
 20
33.746867
 30
0.0
 10
18.123479
 20
33.746867
 30
0.0
 10
18.123479
 20
19.996867
 30
0.0
 10
31.873479
 20
19.996867
 30
0.0
  0
LWPOLYLINE
  5
29d
100
AcDbEntity
  8
Layer_1
 62
7
100
AcDbPolyline
 90
4
 70
1
 10
55.685479
 20
33.746867
 30
0.0
 10
41.935479
 20
33.746867
 30
0.0
 10
41.935479
 20
19.996867
 30
0.0
 10
55.685479
 20
19.996867
 30
0.0
  0
LWPOLYLINE
  5
29e
100
AcDbEntity
  8
Layer_1
 62
7
100
AcDbPolyline
 90
4
 70
1
 10
79.498479
 20
33.746867
 30
0.0
 10
65.748479
 20
33.746867
 30
0.0
 10
65.748479
 20
19.996867
 30
0.0
 10
79.498479
 20
19.996867
 30
0.0
  0
LWPOLYLINE
  5
29f
100
AcDbEntity
  8
Layer_1
 62
7
100
AcDbPolyline
 90
4
 70
1
 10
219.992479
 20
33.746867
 30
0.0
 10
206.242479
 20
33.746867
 30
0.0
 10
206.242479
 20
19.996867
 30
0.0
 10
219.992479
 20
19.996867
 30
0.0
  0
LWPOLYLINE
  5
2a0
100
AcDbEntity
  8
Layer_1
 62
7
100
AcDbPolyline
 90
4
 70
1
 10
239.042479
 20
33.746867
 30
0.0
 10
225.292479
 20
33.746867
 30
0.0
 10
225.292479
 20
19.996867
 30
0.0
 10
239.042479
 20
19.996867
 30
0.0
  0
LWPOLYLINE
  5
2a1
100
AcDbEntity
  8
Layer_1
 62
7
100
AcDbPolyline
 90
4
 70
1
 10
258.092479
 20
33.746867
 30
0.0
 10
244.342479
 20
33.746867
 30
0.0
 10
244.342479
 20
19.996867
 30
0.0
 10
258.092479
 20
19.996867
 30
0.0
  0
LWPOLYLINE
  5
2a2
100
AcDbEntity
  8
Layer_1
 62
7
100
AcDbPolyline
 90
4
 70
1
 10
277.142479
 20
33.746867
 30
0.0
 10
263.392479
 20
33.746867
 30
0.0
 10
263.392479
 20
19.996867
 30
0.0
 10
277.142479
 20
19.996867
 30
0.0
  0
LWPOLYLINE
  5
2a3
100
AcDbEntity
  8
Layer_1
 62
7
100
AcDbPolyline
 90
4
 70
1
 10
296.192479
 20
33.746867
 30
0.0
 10
282.442479
 20
33.746867
 30
0.0
 10
282.442479
 20
19.996867
 30
0.0
 10
296.192479
 20
19.996867
 30
0.0
  0
LWPOLYLINE
  5
2a4
100
AcDbEntity
  8
Layer_1
 62
7
100
AcDbPolyline
 90
4
 70
1
 10
353.342479
 20
33.746867
 30
0.0
 10
339.592479
 20
33.746867
 30
0.0
 10
339.592479
 20
19.996867
 30
0.0
 10
353.342479
 20
19.996867
 30
0.0
  0
LWPOLYLINE
  5
2a5
100
AcDbEntity
  8
Layer_1
 62
7
100
AcDbPolyline
 90
4
 70
1
 10
72.354479
 20
52.796867
 30
0.0
 10
58.604479
 20
52.796867
 30
0.0
 10
58.604479
 20
39.046867
 30
0.0
 10
72.354479
 20
39.046867
 30
0.0
  0
LWPOLYLINE
  5
2a6
100
AcDbEntity
  8
Layer_1
 62
7
100
AcDbPolyline
 90
4
 70
1
 10
91.404479
 20
52.796867
 30
0.0
 10
77.654479
 20
52.796867
 30
0.0
 10
77.654479
 20
39.046867
 30
0.0
 10
91.404479
 20
39.046867
 30
0.0
  0
LWPOLYLINE
  5
2a7
100
AcDbEntity
  8
Layer_1
 62
7
100
AcDbPolyline
 90
4
 70
1
 10
110.454479
 20
52.796867
 30
0.0
 10
96.704479
 20
52.796867
 30
0.0
 10
96.704479
 20
39.046867
 30
0.0
 10
110.454479
 20
39.046867
 30
0.0
  0
LWPOLYLINE
  5
2a8
100
AcDbEntity
  8
Layer_1
 62
7
100
AcDbPolyline
 90
4
 70
1
 10
129.504479
 20
52.796867
 30
0.0
 10
115.754479
 20
52.796867
 30
0.0
 10
115.754479
 20
39.046867
 30
0.0
 10
129.504479
 20
39.046867
 30
0.0
  0
LWPOLYLINE
  5
2a9
100
AcDbEntity
  8
Layer_1
 62
7
100
AcDbPolyline
 90
4
 70
1
 10
148.554479
 20
52.796867
 30
0.0
 10
134.804479
 20
52.796867
 30
0.0
 10
134.804479
 20
39.046867
 30
0.0
 10
148.554479
 20
39.046867
 30
0.0
  0
LWPOLYLINE
  5
2aa
100
AcDbEntity
  8
Layer_1
 62
7
100
AcDbPolyline
 90
4
 70
1
 10
167.604479
 20
52.796867
 30
0.0
 10
153.854479
 20
52.796867
 30
0.0
 10
153.854479
 20
39.046867
 30
0.0
 10
167.604479
 20
39.046867
 30
0.0
  0
LWPOLYLINE
  5
2ab
100
AcDbEntity
  8
Layer_1
 62
7
100
AcDbPolyline
 90
4
 70
1
 10
186.654479
 20
52.796867
 30
0.0
 10
172.904479
 20
52.796867
 30
0.0
 10
172.904479
 20
39.046867
 30
0.0
 10
186.654479
 20
39.046867
 30
0.0
  0
LWPOLYLINE
  5
2ac
100
AcDbEntity
  8
Layer_1
 62
7
100
AcDbPolyline
 90
4
 70
1
 10
205.704479
 20
52.796867
 30
0.0
 10
191.954479
 20
52.796867
 30
0.0
 10
191.954479
 20
39.046867
 30
0.0
 10
205.704479
 20
39.046867
 30
0.0
  0
LWPOLYLINE
  5
2ad
100
AcDbEntity
  8
Layer_1
 62
7
100
AcDbPolyline
 90
4
 70
1
 10
224.754479
 20
52.796867
 30
0.0
 10
211.004479
 20
52.796867
 30
0.0
 10
211.004479
 20
39.046867
 30
0.0
 10
224.754479
 20
39.046867
 30
0.0
  0
LWPOLYLINE
  5
2ae
100
AcDbEntity
  8
Layer_1
 62
7
100
AcDbPolyline
 90
4
 70
1
 10
243.804479
 20
52.796867
 30
0.0
 10
230.054479
 20
52.796867
 30
0.0
 10
230.054479
 20
39.046867
 30
0.0
 10
243.804479
 20
39.046867
 30
0.0
  0
LWPOLYLINE
  5
2af
100
AcDbEntity
  8
Layer_1
 62
7
100
AcDbPolyline
 90
4
 70
1
 10
269.998479
 20
52.796867
 30
0.0
 10
256.248479
 20
52.796867
 30
0.0
 10
256.248479
 20
39.046867
 30
0.0
 10
269.998479
 20
39.046867
 30
0.0
  0
LWPOLYLINE
  5
2b0
100
AcDbEntity
  8
Layer_1
 62
7
100
AcDbPolyline
 90
4
 70
1
 10
296.192479
 20
52.796867
 30
0.0
 10
282.442479
 20
52.796867
 30
0.0
 10
282.442479
 20
39.046867
 30
0.0
 10
296.192479
 20
39.046867
 30
0.0
  0
LWPOLYLINE
  5
2b1
100
AcDbEntity
  8
Layer_1
 62
7
100
AcDbPolyline
 90
4
 70
1
 10
315.242479
 20
52.796867
 30
0.0
 10
301.492479
 20
52.796867
 30
0.0
 10
301.492479
 20
39.046867
 30
0.0
 10
315.242479
 20
39.046867
 30
0.0
  0
LWPOLYLINE
  5
2b2
100
AcDbEntity
  8
Layer_1
 62
7
100
AcDbPolyline
 90
4
 70
1
 10
334.292479
 20
52.796867
 30
0.0
 10
320.542479
 20
52.796867
 30
0.0
 10
320.542479
 20
39.046867
 30
0.0
 10
334.292479
 20
39.046867
 30
0.0
  0
LWPOLYLINE
  5
2b3
100
AcDbEntity
  8
Layer_1
 62
7
100
AcDbPolyline
 90
4
 70
1
 10
353.342479
 20
52.796867
 30
0.0
 10
339.592479
 20
52.796867
 30
0.0
 10
339.592479
 20
39.046867
 30
0.0
 10
353.342479
 20
39.046867
 30
0.0
  0
LWPOLYLINE
  5
2b4
100
AcDbEntity
  8
Layer_1
 62
7
100
AcDbPolyline
 90
4
 70
1
 10
36.635479
 20
71.846867
 30
0.0
 10
22.885479
 20
71.846867
 30
0.0
 10
22.885479
 20
58.096867
 30
0.0
 10
36.635479
 20
58.096867
 30
0.0
  0
LWPOLYLINE
  5
2b5
100
AcDbEntity
  8
Layer_1
 62
7
100
AcDbPolyline
 90
4
 70
1
 10
62.828479
 20
71.846867
 30
0.0
 10
49.079479
 20
71.846867
 30
0.0
 10
49.079479
 20
58.096867
 30
0.0
 10
62.828479
 20
58.096867
 30
0.0
  0
LWPOLYLINE
  5
2b6
100
AcDbEntity
  8
Layer_1
 62
7
100
AcDbPolyline
 90
4
 70
1
 10
81.879479
 20
71.846867
 30
0.0
 10
68.129479
 20
71.846867
 30
0.0
 10
68.129479
 20
58.096867
 30
0.0
 10
81.879479
 20
58.096867
 30
0.0
  0
LWPOLYLINE
  5
2b7
100
AcDbEntity
  8
Layer_1
 62
7
100
AcDbPolyline
 90
4
 70
1
 10
100.929479
 20
71.846867
 30
0.0
 10
87.179479
 20
71.846867
 30
0.0
 10
87.179479
 20
58.096867
 30
0.0
 10
100.929479
 20
58.096867
 30
0.0
  0
LWPOLYLINE
  5
2b8
100
AcDbEntity
  8
Layer_1
 62
7
100
AcDbPolyline
 90
4
 70
1
 10
119.979479
 20
71.846867
 30
0.0
 10
106.229479
 20
71.846867
 30
0.0
 10
106.229479
 20
58.096867
 30
0.0
 10
119.979479
 20
58.096867
 30
0.0
  0
LWPOLYLINE
  5
2b9
100
AcDbEntity
  8
Layer_1
 62
7
100
AcDbPolyline
 90
4
 70
1
 10
139.029479
 20
71.846867
 30
0.0
 10
125.279479
 20
71.846867
 30
0.0
 10
125.279479
 20
58.096867
 30
0.0
 10
139.029479
 20
58.096867
 30
0.0
  0
LWPOLYLINE
  5
2ba
100
AcDbEntity
  8
Layer_1
 62
7
100
AcDbPolyline
 90
4
 70
1
 10
158.079479
 20
71.846867
 30
0.0
 10
144.329479
 20
71.846867
 30
0.0
 10
144.329479
 20
58.096867
 30
0.0
 10
158.079479
 20
58.096867
 30
0.0
  0
LWPOLYLINE
  5
2bb
100
AcDbEntity
  8
Layer_1
 62
7
100
AcDbPolyline
 90
4
 70
1
 10
177.129479
 20
71.846867
 30
0.0
 10
163.379479
 20
71.846867
 30
0.0
 10
163.379479
 20
58.096867
 30
0.0
 10
177.129479
 20
58.096867
 30
0.0
  0
LWPOLYLINE
  5
2bc
100
AcDbEntity
  8
Layer_1
 62
7
100
AcDbPolyline
 90
4
 70
1
 10
196.179479
 20
71.846867
 30
0.0
 10
182.429479
 20
71.846867
 30
0.0
 10
182.429479
 20
58.096867
 30
0.0
 10
196.179479
 20
58.096867
 30
0.0
  0
LWPOLYLINE
  5
2bd
100
AcDbEntity
  8
Layer_1
 62
7
100
AcDbPolyline
 90
4
 70
1
 10
215.229479
 20
71.846867
 30
0.0
 10
201.479479
 20
71.846867
 30
0.0
 10
201.479479
 20
58.096867
 30
0.0
 10
215.229479
 20
58.096867
 30
0.0
  0
LWPOLYLINE
  5
2be
100
AcDbEntity
  8
Layer_1
 62
7
100
AcDbPolyline
 90
4
 70
1
 10
234.279479
 20
71.846867
 30
0.0
 10
220.529479
 20
71.846867
 30
0.0
 10
220.529479
 20
58.096867
 30
0.0
 10
234.279479
 20
58.096867
 30
0.0
  0
LWPOLYLINE
  5
2bf
100
AcDbEntity
  8
Layer_1
 62
7
100
AcDbPolyline
 90
4
 70
1
 10
253.329479
 20
71.846867
 30
0.0
 10
239.579479
 20
71.846867
 30
0.0
 10
239.579479
 20
58.096867
 30
0.0
 10
253.329479
 20
58.096867
 30
0.0
  0
LWPOLYLINE
  5
2c0
100
AcDbEntity
  8
Layer_1
 62
7
100
AcDbPolyline
 90
4
 70
1
 10
315.242479
 20
71.846867
 30
0.0
 10
301.492479
 20
71.846867
 30
0.0
 10
301.492479
 20
58.096867
 30
0.0
 10
315.242479
 20
58.096867
 30
0.0
  0
LWPOLYLINE
  5
2c1
100
AcDbEntity
  8
Layer_1
 62
7
100
AcDbPolyline
 90
4
 70
1
 10
334.292479
 20
71.846867
 30
0.0
 10
320.542479
 20
71.846867
 30
0.0
 10
320.542479
 20
58.096867
 30
0.0
 10
334.292479
 20
58.096867
 30
0.0
  0
LWPOLYLINE
  5
2c2
100
AcDbEntity
  8
Layer_1
 62
7
100
AcDbPolyline
 90
4
 70
1
 10
353.342479
 20
71.846867
 30
0.0
 10
339.592479
 20
71.846867
 30
0.0
 10
339.592479
 20
58.096867
 30
0.0
 10
353.342479
 20
58.096867
 30
0.0
  0
LWPOLYLINE
  5
2c3
100
AcDbEntity
  8
Layer_1
 62
7
100
AcDbPolyline
 90
20
 70
1
 10
378.647479
 20
72.575867
 30
0.0
 10
379.309479
 20
72.237867
 30
0.0
 10
380.043479
 20
72.121867
 30
0.0
 10
380.776479
 20
72.237867
 30
0.0
 10
381.438479
 20
72.575867
 30
0.0
 10
381.964479
 20
73.100867
 30
0.0
 10
382.301479
 20
73.762867
 30
0.0
 10
382.418479
 20
74.496867
 30
0.0
 10
382.301479
 20
75.230867
 30
0.0
 10
381.964479
 20
75.892867
 30
0.0
 10
381.438479
 20
76.417867
 30
0.0
 10
380.776479
 20
76.755867
 30
0.0
 10
380.043479
 20
76.871867
 30
0.0
 10
379.309479
 20
76.755867
 30
0.0
 10
378.647479
 20
76.417867
 30
0.0
 10
378.121479
 20
75.892867
 30
0.0
 10
377.784479
 20
75.230867
 30
0.0
 10
377.668479
 20
74.496867
 30
0.0
 10
377.784479
 20
73.762867
 30
0.0
 10
378.121479
 20
73.100867
 30
0.0
  0
LWPOLYLINE
  5
2c4
100
AcDbEntity
  8
Layer_1
 62
7
100
AcDbPolyline
 90
20
 70
1
 10
6.696479
 20
72.575867
 30
0.0
 10
7.358479
 20
72.237867
 30
0.0
 10
8.092479
 20
72.121867
 30
0.0
 10
8.825479
 20
72.237867
 30
0.0
 10
9.487479
 20
72.575867
 30
0.0
 10
10.013479
 20
73.100867
 30
0.0
 10
10.350479
 20
73.762867
 30
0.0
 10
10.467479
 20
74.496867
 30
0.0
 10
10.350479
 20
75.230867
 30
0.0
 10
10.013479
 20
75.892867
 30
0.0
 10
9.487479
 20
76.417867
 30
0.0
 10
8.825479
 20
76.755867
 30
0.0
 10
8.092479
 20
76.871867
 30
0.0
 10
7.358479
 20
76.755867
 30
0.0
 10
6.696479
 20
76.417867
 30
0.0
 10
6.170479
 20
75.892867
 30
0.0
 10
5.833479
 20
75.230867
 30
0.0
 10
5.717479
 20
74.496867
 30
0.0
 10
5.833479
 20
73.762867
 30
0.0
 10
6.170479
 20
73.100867
 30
0.0
  0
LWPOLYLINE
  5
2c5
100
AcDbEntity
  8
Layer_1
 62
7
100
AcDbPolyline
 90
4
 70
1
 10
34.254479
 20
90.896867
 30
0.0
 10
20.504479
 20
90.896867
 30
0.0
 10
20.504479
 20
77.146867
 30
0.0
 10
34.254479
 20
77.146867
 30
0.0
  0
LWPOLYLINE
  5
2c6
100
AcDbEntity
  8
Layer_1
 62
7
100
AcDbPolyline
 90
4
 70
1
 10
58.067479
 20
90.896867
 30
0.0
 10
44.317479
 20
90.896867
 30
0.0
 10
44.317479
 20
77.146867
 30
0.0
 10
58.067479
 20
77.146867
 30
0.0
  0
LWPOLYLINE
  5
2c7
100
AcDbEntity
  8
Layer_1
 62
7
100
AcDbPolyline
 90
4
 70
1
 10
77.117479
 20
90.896867
 30
0.0
 10
63.367479
 20
90.896867
 30
0.0
 10
63.367479
 20
77.146867
 30
0.0
 10
77.117479
 20
77.146867
 30
0.0
  0
LWPOLYLINE
  5
2c8
100
AcDbEntity
  8
Layer_1
 62
7
100
AcDbPolyline
 90
4
 70
1
 10
96.167479
 20
90.896867
 30
0.0
 10
82.417479
 20
90.896867
 30
0.0
 10
82.417479
 20
77.146867
 30
0.0
 10
96.167479
 20
77.146867
 30
0.0
  0
LWPOLYLINE
  5
2c9
100
AcDbEntity
  8
Layer_1
 62
7
100
AcDbPolyline
 90
4
 70
1
 10
115.217479
 20
90.896867
 30
0.0
 10
101.467479
 20
90.896867
 30
0.0
 10
101.467479
 20
77.146867
 30
0.0
 10
115.217479
 20
77.146867
 30
0.0
  0
LWPOLYLINE
  5
2ca
100
AcDbEntity
  8
Layer_1
 62
7
100
AcDbPolyline
 90
4
 70
1
 10
134.267479
 20
90.896867
 30
0.0
 10
120.517479
 20
90.896867
 30
0.0
 10
120.517479
 20
77.146867
 30
0.0
 10
134.267479
 20
77.146867
 30
0.0
  0
LWPOLYLINE
  5
2cb
100
AcDbEntity
  8
Layer_1
 62
7
100
AcDbPolyline
 90
4
 70
1
 10
153.317479
 20
90.896867
 30
0.0
 10
139.567479
 20
90.896867
 30
0.0
 10
139.567479
 20
77.146867
 30
0.0
 10
153.317479
 20
77.146867
 30
0.0
  0
LWPOLYLINE
  5
2cc
100
AcDbEntity
  8
Layer_1
 62
7
100
AcDbPolyline
 90
4
 70
1
 10
172.367479
 20
90.896867
 30
0.0
 10
158.617479
 20
90.896867
 30
0.0
 10
158.617479
 20
77.146867
 30
0.0
 10
172.367479
 20
77.146867
 30
0.0
  0
LWPOLYLINE
  5
2cd
100
AcDbEntity
  8
Layer_1
 62
7
100
AcDbPolyline
 90
4
 70
1
 10
191.417479
 20
90.896867
 30
0.0
 10
177.667479
 20
90.896867
 30
0.0
 10
177.667479
 20
77.146867
 30
0.0
 10
191.417479
 20
77.146867
 30
0.0
  0
LWPOLYLINE
  5
2ce
100
AcDbEntity
  8
Layer_1
 62
7
100
AcDbPolyline
 90
4
 70
1
 10
210.467479
 20
90.896867
 30
0.0
 10
196.717479
 20
90.896867
 30
0.0
 10
196.717479
 20
77.146867
 30
0.0
 10
210.467479
 20
77.146867
 30
0.0
  0
LWPOLYLINE
  5
2cf
100
AcDbEntity
  8
Layer_1
 62
7
100
AcDbPolyline
 90
4
 70
1
 10
229.517479
 20
90.896867
 30
0.0
 10
215.767479
 20
90.896867
 30
0.0
 10
215.767479
 20
77.146867
 30
0.0
 10
229.517479
 20
77.146867
 30
0.0
  0
LWPOLYLINE
  5
2d0
100
AcDbEntity
  8
Layer_1
 62
7
100
AcDbPolyline
 90
4
 70
1
 10
248.567479
 20
90.896867
 30
0.0
 10
234.817479
 20
90.896867
 30
0.0
 10
234.817479
 20
77.146867
 30
0.0
 10
248.567479
 20
77.146867
 30
0.0
  0
LWPOLYLINE
  5
2d1
100
AcDbEntity
  8
Layer_1
 62
7
100
AcDbPolyline
 90
4
 70
1
 10
267.617479
 20
90.896867
 30
0.0
 10
253.867479
 20
90.896867
 30
0.0
 10
253.867479
 20
77.146867
 30
0.0
 10
267.617479
 20
77.146867
 30
0.0
  0
LWPOLYLINE
  5
2d2
100
AcDbEntity
  8
Layer_1
 62
7
100
AcDbPolyline
 90
4
 70
1
 10
291.429479
 20
90.896867
 30
0.0
 10
277.679479
 20
90.896867
 30
0.0
 10
277.679479
 20
77.146867
 30
0.0
 10
291.429479
 20
77.146867
 30
0.0
  0
LWPOLYLINE
  5
2d3
100
AcDbEntity
  8
Layer_1
 62
7
100
AcDbPolyline
 90
4
 70
1
 10
315.242479
 20
90.896867
 30
0.0
 10
301.492479
 20
90.896867
 30
0.0
 10
301.492479
 20
77.146867
 30
0.0
 10
315.242479
 20
77.146867
 30
0.0
  0
LWPOLYLINE
  5
2d4
100
AcDbEntity
  8
Layer_1
 62
7
100
AcDbPolyline
 90
4
 70
1
 10
334.292479
 20
90.896867
 30
0.0
 10
320.542479
 20
90.896867
 30
0.0
 10
320.542479
 20
77.146867
 30
0.0
 10
334.292479
 20
77.146867
 30
0.0
  0
LWPOLYLINE
  5
2d5
100
AcDbEntity
  8
Layer_1
 62
7
100
AcDbPolyline
 90
4
 70
1
 10
353.342479
 20
90.896867
 30
0.0
 10
339.592479
 20
90.896867
 30
0.0
 10
339.592479
 20
77.146867
 30
0.0
 10
353.342479
 20
77.146867
 30
0.0
  0
LWPOLYLINE
  5
2d6
100
AcDbEntity
  8
Layer_1
 62
7
100
AcDbPolyline
 90
4
 70
1
 10
29.492479
 20
109.946867
 30
0.0
 10
15.742479
 20
109.946867
 30
0.0
 10
15.742479
 20
96.196867
 30
0.0
 10
29.492479
 20
96.196867
 30
0.0
  0
LWPOLYLINE
  5
2d7
100
AcDbEntity
  8
Layer_1
 62
7
100
AcDbPolyline
 90
4
 70
1
 10
48.542479
 20
109.946867
 30
0.0
 10
34.792479
 20
109.946867
 30
0.0
 10
34.792479
 20
96.196867
 30
0.0
 10
48.542479
 20
96.196867
 30
0.0
  0
LWPOLYLINE
  5
2d8
100
AcDbEntity
  8
Layer_1
 62
7
100
AcDbPolyline
 90
4
 70
1
 10
67.592479
 20
109.946867
 30
0.0
 10
53.842479
 20
109.946867
 30
0.0
 10
53.842479
 20
96.196867
 30
0.0
 10
67.592479
 20
96.196867
 30
0.0
  0
LWPOLYLINE
  5
2d9
100
AcDbEntity
  8
Layer_1
 62
7
100
AcDbPolyline
 90
4
 70
1
 10
86.642479
 20
109.946867
 30
0.0
 10
72.892479
 20
109.946867
 30
0.0
 10
72.892479
 20
96.196867
 30
0.0
 10
86.642479
 20
96.196867
 30
0.0
  0
LWPOLYLINE
  5
2da
100
AcDbEntity
  8
Layer_1
 62
7
100
AcDbPolyline
 90
4
 70
1
 10
105.692479
 20
109.946867
 30
0.0
 10
91.942479
 20
109.946867
 30
0.0
 10
91.942479
 20
96.196867
 30
0.0
 10
105.692479
 20
96.196867
 30
0.0
  0
LWPOLYLINE
  5
2db
100
AcDbEntity
  8
Layer_1
 62
7
100
AcDbPolyline
 90
4
 70
1
 10
124.741479
 20
109.946867
 30
0.0
 10
110.991479
 20
109.946867
 30
0.0
 10
110.991479
 20
96.196867
 30
0.0
 10
124.741479
 20
96.196867
 30
0.0
  0
LWPOLYLINE
  5
2dc
100
AcDbEntity
  8
Layer_1
 62
7
100
AcDbPolyline
 90
4
 70
1
 10
143.792479
 20
109.946867
 30
0.0
 10
130.042479
 20
109.946867
 30
0.0
 10
130.042479
 20
96.196867
 30
0.0
 10
143.792479
 20
96.196867
 30
0.0
  0
LWPOLYLINE
  5
2dd
100
AcDbEntity
  8
Layer_1
 62
7
100
AcDbPolyline
 90
4
 70
1
 10
162.842479
 20
109.946867
 30
0.0
 10
149.092479
 20
109.946867
 30
0.0
 10
149.092479
 20
96.196867
 30
0.0
 10
162.842479
 20
96.196867
 30
0.0
  0
LWPOLYLINE
  5
2de
100
AcDbEntity
  8
Layer_1
 62
7
100
AcDbPolyline
 90
4
 70
1
 10
181.892479
 20
109.946867
 30
0.0
 10
168.142479
 20
109.946867
 30
0.0
 10
168.142479
 20
96.196867
 30
0.0
 10
181.892479
 20
96.196867
 30
0.0
  0
LWPOLYLINE
  5
2df
100
AcDbEntity
  8
Layer_1
 62
7
100
AcDbPolyline
 90
4
 70
1
 10
200.942479
 20
109.946867
 30
0.0
 10
187.192479
 20
109.946867
 30
0.0
 10
187.192479
 20
96.196867
 30
0.0
 10
200.942479
 20
96.196867
 30
0.0
  0
LWPOLYLINE
  5
2e0
100
AcDbEntity
  8
Layer_1
 62
7
100
AcDbPolyline
 90
4
 70
1
 10
219.992479
 20
109.946867
 30
0.0
 10
206.242479
 20
109.946867
 30
0.0
 10
206.242479
 20
96.196867
 30
0.0
 10
219.992479
 20
96.196867
 30
0.0
  0
LWPOLYLINE
  5
2e1
100
AcDbEntity
  8
Layer_1
 62
7
100
AcDbPolyline
 90
4
 70
1
 10
239.042479
 20
109.946867
 30
0.0
 10
225.292479
 20
109.946867
 30
0.0
 10
225.292479
 20
96.196867
 30
0.0
 10
239.042479
 20
96.196867
 30
0.0
  0
LWPOLYLINE
  5
2e2
100
AcDbEntity
  8
Layer_1
 62
7
100
AcDbPolyline
 90
4
 70
1
 10
258.092479
 20
109.946867
 30
0.0
 10
244.342479
 20
109.946867
 30
0.0
 10
244.342479
 20
96.196867
 30
0.0
 10
258.092479
 20
96.196867
 30
0.0
  0
LWPOLYLINE
  5
2e3
100
AcDbEntity
  8
Layer_1
 62
7
100
AcDbPolyline
 90
4
 70
1
 10
315.242479
 20
109.946867
 30
0.0
 10
301.492479
 20
109.946867
 30
0.0
 10
301.492479
 20
96.196867
 30
0.0
 10
315.242479
 20
96.196867
 30
0.0
  0
LWPOLYLINE
  5
2e4
100
AcDbEntity
  8
Layer_1
 62
7
100
AcDbPolyline
 90
4
 70
1
 10
334.292479
 20
109.946867
 30
0.0
 10
320.542479
 20
109.946867
 30
0.0
 10
320.542479
 20
96.196867
 30
0.0
 10
334.292479
 20
96.196867
 30
0.0
  0
LWPOLYLINE
  5
2e5
100
AcDbEntity
  8
Layer_1
 62
7
100
AcDbPolyline
 90
4
 70
1
 10
353.342479
 20
109.946867
 30
0.0
 10
339.592479
 20
109.946867
 30
0.0
 10
339.592479
 20
96.196867
 30
0.0
 10
353.342479
 20
96.196867
 30
0.0
  0
LWPOLYLINE
  5
2e6
100
AcDbEntity
  8
Layer_1
 62
7
100
AcDbPolyline
 90
4
 70
1
 10
372.392479
 20
109.946867
 30
0.0
 10
358.642479
 20
109.946867
 30
0.0
 10
358.642479
 20
96.196867
 30
0.0
 10
372.392479
 20
96.196867
 30
0.0
  0
LWPOLYLINE
  5
2e7
100
AcDbEntity
  8
Layer_1
 62
7
100
AcDbPolyline
 90
4
 70
1
 10
67.592479
 20
128.996867
 30
0.0
 10
53.842479
 20
128.996867
 30
0.0
 10
53.842479
 20
115.246867
 30
0.0
 10
67.592479
 20
115.246867
 30
0.0
  0
LWPOLYLINE
  5
2e8
100
AcDbEntity
  8
Layer_1
 62
7
100
AcDbPolyline
 90
4
 70
1
 10
86.642479
 20
128.996867
 30
0.0
 10
72.892479
 20
128.996867
 30
0.0
 10
72.892479
 20
115.246867
 30
0.0
 10
86.642479
 20
115.246867
 30
0.0
  0
LWPOLYLINE
  5
2e9
100
AcDbEntity
  8
Layer_1
 62
7
100
AcDbPolyline
 90
4
 70
1
 10
105.692479
 20
128.996867
 30
0.0
 10
91.942479
 20
128.996867
 30
0.0
 10
91.942479
 20
115.246867
 30
0.0
 10
105.692479
 20
115.246867
 30
0.0
  0
LWPOLYLINE
  5
2ea
100
AcDbEntity
  8
Layer_1
 62
7
100
AcDbPolyline
 90
4
 70
1
 10
124.741479
 20
128.996867
 30
0.0
 10
110.991479
 20
128.996867
 30
0.0
 10
110.991479
 20
115.246867
 30
0.0
 10
124.741479
 20
115.246867
 30
0.0
  0
LWPOLYLINE
  5
2eb
100
AcDbEntity
  8
Layer_1
 62
7
100
AcDbPolyline
 90
4
 70
1
 10
143.792479
 20
128.996867
 30
0.0
 10
130.042479
 20
128.996867
 30
0.0
 10
130.042479
 20
115.246867
 30
0.0
 10
143.792479
 20
115.246867
 30
0.0
  0
LWPOLYLINE
  5
2ec
100
AcDbEntity
  8
Layer_1
 62
7
100
AcDbPolyline
 90
4
 70
1
 10
162.842479
 20
128.996867
 30
0.0
 10
149.092479
 20
128.996867
 30
0.0
 10
149.092479
 20
115.246867
 30
0.0
 10
162.842479
 20
115.246867
 30
0.0
  0
LWPOLYLINE
  5
2ed
100
AcDbEntity
  8
Layer_1
 62
7
100
AcDbPolyline
 90
4
 70
1
 10
181.892479
 20
128.996867
 30
0.0
 10
168.142479
 20
128.996867
 30
0.0
 10
168.142479
 20
115.246867
 30
0.0
 10
181.892479
 20
115.246867
 30
0.0
  0
LWPOLYLINE
  5
2ee
100
AcDbEntity
  8
Layer_1
 62
7
100
AcDbPolyline
 90
4
 70
1
 10
200.942479
 20
128.996867
 30
0.0
 10
187.192479
 20
128.996867
 30
0.0
 10
187.192479
 20
115.246867
 30
0.0
 10
200.942479
 20
115.246867
 30
0.0
  0
LWPOLYLINE
  5
2ef
100
AcDbEntity
  8
Layer_1
 62
7
100
AcDbPolyline
 90
4
 70
1
 10
219.992479
 20
128.996867
 30
0.0
 10
206.242479
 20
128.996867
 30
0.0
 10
206.242479
 20
115.246867
 30
0.0
 10
219.992479
 20
115.246867
 30
0.0
  0
LWPOLYLINE
  5
2f0
100
AcDbEntity
  8
Layer_1
 62
7
100
AcDbPolyline
 90
4
 70
1
 10
239.042479
 20
128.996867
 30
0.0
 10
225.292479
 20
128.996867
 30
0.0
 10
225.292479
 20
115.246867
 30
0.0
 10
239.042479
 20
115.246867
 30
0.0
  0
LWPOLYLINE
  5
2f1
100
AcDbEntity
  8
Layer_1
 62
7
100
AcDbPolyline
 90
4
 70
1
 10
258.092479
 20
128.996867
 30
0.0
 10
244.342479
 20
128.996867
 30
0.0
 10
244.342479
 20
115.246867
 30
0.0
 10
258.092479
 20
115.246867
 30
0.0
  0
LWPOLYLINE
  5
2f2
100
AcDbEntity
  8
Layer_1
 62
7
100
AcDbPolyline
 90
4
 70
1
 10
277.142479
 20
128.996867
 30
0.0
 10
263.392479
 20
128.996867
 30
0.0
 10
263.392479
 20
115.246867
 30
0.0
 10
277.142479
 20
115.246867
 30
0.0
  0
LWPOLYLINE
  5
2f3
100
AcDbEntity
  8
Layer_1
 62
7
100
AcDbPolyline
 90
4
 70
1
 10
296.192479
 20
128.996867
 30
0.0
 10
282.442479
 20
128.996867
 30
0.0
 10
282.442479
 20
115.246867
 30
0.0
 10
296.192479
 20
115.246867
 30
0.0
  0
LWPOLYLINE
  5
2f4
100
AcDbEntity
  8
Layer_1
 62
7
100
AcDbPolyline
 90
4
 70
1
 10
315.242479
 20
128.996867
 30
0.0
 10
301.492479
 20
128.996867
 30
0.0
 10
301.492479
 20
115.246867
 30
0.0
 10
315.242479
 20
115.246867
 30
0.0
  0
LWPOLYLINE
  5
2f5
100
AcDbEntity
  8
Layer_1
 62
7
100
AcDbPolyline
 90
4
 70
1
 10
334.292479
 20
128.996867
 30
0.0
 10
320.542479
 20
128.996867
 30
0.0
 10
320.542479
 20
115.246867
 30
0.0
 10
334.292479
 20
115.246867
 30
0.0
  0
LWPOLYLINE
  5
2f6
100
AcDbEntity
  8
Layer_1
 62
7
100
AcDbPolyline
 90
4
 70
1
 10
353.342479
 20
128.996867
 30
0.0
 10
339.592479
 20
128.996867
 30
0.0
 10
339.592479
 20
115.246867
 30
0.0
 10
353.342479
 20
115.246867
 30
0.0
  0
LWPOLYLINE
  5
2f7
100
AcDbEntity
  8
Layer_1
 62
7
100
AcDbPolyline
 90
4
 70
1
 10
372.392479
 20
128.996867
 30
0.0
 10
358.642479
 20
128.996867
 30
0.0
 10
358.642479
 20
115.246867
 30
0.0
 10
372.392479
 20
115.246867
 30
0.0
  0
LWPOLYLINE
  5
2f8
100
AcDbEntity
  8
Layer_1
 62
7
100
AcDbPolyline
 90
20
 70
1
 10
81.086479
 20
134.725867
 30
0.0
 10
81.748479
 20
134.388867
 30
0.0
 10
82.482479
 20
134.271867
 30
0.0
 10
83.216479
 20
134.388867
 30
0.0
 10
83.878479
 20
134.725867
 30
0.0
 10
84.403479
 20
135.251867
 30
0.0
 10
84.740479
 20
135.913867
 30
0.0
 10
84.857479
 20
136.646867
 30
0.0
 10
84.740479
 20
137.380867
 30
0.0
 10
84.403479
 20
138.042867
 30
0.0
 10
83.878479
 20
138.568867
 30
0.0
 10
83.216479
 20
138.905867
 30
0.0
 10
82.482479
 20
139.021867
 30
0.0
 10
81.748479
 20
138.905867
 30
0.0
 10
81.086479
 20
138.568867
 30
0.0
 10
80.560479
 20
138.042867
 30
0.0
 10
80.223479
 20
137.380867
 30
0.0
 10
80.107479
 20
136.646867
 30
0.0
 10
80.223479
 20
135.913867
 30
0.0
 10
80.560479
 20
135.251867
 30
0.0
  0
LWPOLYLINE
  5
2f9
100
AcDbEntity
  8
Layer_1
 62
7
100
AcDbPolyline
 90
20
 70
1
 10
155.476479
 20
134.725867
 30
0.0
 10
156.138479
 20
134.388867
 30
0.0
 10
156.872479
 20
134.271867
 30
0.0
 10
157.606479
 20
134.388867
 30
0.0
 10
158.268479
 20
134.725867
 30
0.0
 10
158.793479
 20
135.251867
 30
0.0
 10
159.131479
 20
135.913867
 30
0.0
 10
159.247479
 20
136.646867
 30
0.0
 10
159.131479
 20
137.380867
 30
0.0
 10
158.793479
 20
138.042867
 30
0.0
 10
158.268479
 20
138.568867
 30
0.0
 10
157.606479
 20
138.905867
 30
0.0
 10
156.872479
 20
139.021867
 30
0.0
 10
156.138479
 20
138.905867
 30
0.0
 10
155.476479
 20
138.568867
 30
0.0
 10
154.950479
 20
138.042867
 30
0.0
 10
154.613479
 20
137.380867
 30
0.0
 10
154.497479
 20
136.646867
 30
0.0
 10
154.613479
 20
135.913867
 30
0.0
 10
154.950479
 20
135.251867
 30
0.0
  0
LWPOLYLINE
  5
2fa
100
AcDbEntity
  8
Layer_1
 62
7
100
AcDbPolyline
 90
20
 70
1
 10
229.866479
 20
134.725867
 30
0.0
 10
230.528479
 20
134.388867
 30
0.0
 10
231.262479
 20
134.271867
 30
0.0
 10
231.996479
 20
134.388867
 30
0.0
 10
232.658479
 20
134.725867
 30
0.0
 10
233.184479
 20
135.251867
 30
0.0
 10
233.521479
 20
135.913867
 30
0.0
 10
233.637479
 20
136.646867
 30
0.0
 10
233.521479
 20
137.380867
 30
0.0
 10
233.184479
 20
138.042867
 30
0.0
 10
232.658479
 20
138.568867
 30
0.0
 10
231.996479
 20
138.905867
 30
0.0
 10
231.262479
 20
139.021867
 30
0.0
 10
230.528479
 20
138.905867
 30
0.0
 10
229.866479
 20
138.568867
 30
0.0
 10
229.341479
 20
138.042867
 30
0.0
 10
229.003479
 20
137.380867
 30
0.0
 10
228.887479
 20
136.646867
 30
0.0
 10
229.003479
 20
135.913867
 30
0.0
 10
229.341479
 20
135.251867
 30
0.0
  0
LWPOLYLINE
  5
2fb
100
AcDbEntity
  8
Layer_1
 62
7
100
AcDbPolyline
 90
20
 70
1
 10
304.256479
 20
134.725867
 30
0.0
 10
304.918479
 20
134.388867
 30
0.0
 10
305.652479
 20
134.271867
 30
0.0
 10
306.386479
 20
134.388867
 30
0.0
 10
307.048479
 20
134.725867
 30
0.0
 10
307.574479
 20
135.251867
 30
0.0
 10
307.911479
 20
135.913867
 30
0.0
 10
308.027479
 20
136.646867
 30
0.0
 10
307.911479
 20
137.380867
 30
0.0
 10
307.574479
 20
138.042867
 30
0.0
 10
307.048479
 20
138.568867
 30
0.0
 10
306.386479
 20
138.905867
 30
0.0
 10
305.652479
 20
139.021867
 30
0.0
 10
304.918479
 20
138.905867
 30
0.0
 10
304.256479
 20
138.568867
 30
0.0
 10
303.731479
 20
138.042867
 30
0.0
 10
303.394479
 20
137.380867
 30
0.0
 10
303.277479
 20
136.646867
 30
0.0
 10
303.394479
 20
135.913867
 30
0.0
 10
303.731479
 20
135.251867
 30
0.0
  0
LWPOLYLINE
  5
2fc
100
AcDbEntity
  8
Layer_1
 62
7
100
AcDbPolyline
 90
20
 70
1
 10
378.647479
 20
134.725867
 30
0.0
 10
379.309479
 20
134.388867
 30
0.0
 10
380.043479
 20
134.271867
 30
0.0
 10
380.776479
 20
134.388867
 30
0.0
 10
381.438479
 20
134.725867
 30
0.0
 10
381.964479
 20
135.251867
 30
0.0
 10
382.301479
 20
135.913867
 30
0.0
 10
382.418479
 20
136.646867
 30
0.0
 10
382.301479
 20
137.380867
 30
0.0
 10
381.964479
 20
138.042867
 30
0.0
 10
381.438479
 20
138.568867
 30
0.0
 10
380.776479
 20
138.905867
 30
0.0
 10
380.043479
 20
139.021867
 30
0.0
 10
379.309479
 20
138.905867
 30
0.0
 10
378.647479
 20
138.568867
 30
0.0
 10
378.121479
 20
138.042867
 30
0.0
 10
377.784479
 20
137.380867
 30
0.0
 10
377.668479
 20
136.646867
 30
0.0
 10
377.784479
 20
135.913867
 30
0.0
 10
378.121479
 20
135.251867
 30
0.0
  0
LWPOLYLINE
  5
2fd
100
AcDbEntity
  8
Layer_1
 62
7
100
AcDbPolyline
 90
20
 70
1
 10
6.696479
 20
134.725867
 30
0.0
 10
7.358479
 20
134.388867
 30
0.0
 10
8.092479
 20
134.271867
 30
0.0
 10
8.825479
 20
134.388867
 30
0.0
 10
9.487479
 20
134.725867
 30
0.0
 10
10.013479
 20
135.251867
 30
0.0
 10
10.350479
 20
135.913867
 30
0.0
 10
10.467479
 20
136.646867
 30
0.0
 10
10.350479
 20
137.380867
 30
0.0
 10
10.013479
 20
138.042867
 30
0.0
 10
9.487479
 20
138.568867
 30
0.0
 10
8.825479
 20
138.905867
 30
0.0
 10
8.092479
 20
139.021867
 30
0.0
 10
7.358479
 20
138.905867
 30
0.0
 10
6.696479
 20
138.568867
 30
0.0
 10
6.170479
 20
138.042867
 30
0.0
 10
5.833479
 20
137.380867
 30
0.0
 10
5.717479
 20
136.646867
 30
0.0
 10
5.833479
 20
135.913867
 30
0.0
 10
6.170479
 20
135.251867
 30
0.0
  0
LWPOLYLINE
  5
2fe
100
AcDbEntity
  8
Layer_1
 62
7
100
AcDbPolyline
 90
9
 70
0
 10
136.958480
 20
33.794969
 30
0.0
 10
102.314730
 20
33.794969
 30
0.0
 10
97.442770
 20
33.843569
 30
0.0
 10
97.442770
 20
32.409159
 30
0.0
 10
97.442770
 20
29.179159
 30
0.0
 10
97.442770
 20
24.579159
 30
0.0
 10
97.442770
 20
20.109159
 30
0.0
 10
97.442770
 20
18.495989
 30
0.0
 10
97.431120
 20
18.485289
 30
0.0
  0
LWPOLYLINE
  5
2ff
100
AcDbEntity
  8
Layer_1
 62
7
100
AcDbPolyline
 90
6
 70
0
 10
151.067770
 20
19.879159
 30
0.0
 10
151.067770
 20
24.579159
 30
0.0
 10
151.067770
 20
29.179159
 30
0.0
 10
151.067770
 20
33.879159
 30
0.0
 10
163.064680
 20
33.794959
 30
0.0
 10
190.564730
 20
33.794959
 30
0.0
  0
LWPOLYLINE
  5
300
100
AcDbEntity
  8
Layer_1
 62
7
100
AcDbPolyline
 90
2
 70
0
 10
197.564734
 20
33.794950
 30
0.0
 10
197.564734
 20
19.009954
 30
0.0
  0
LWPOLYLINE
  5
301
100
AcDbEntity
  8
Layer_1
 62
7
100
AcDbPolyline
 90
2
 70
0
 10
191.064715
 20
18.509944
 30
0.0
 10
197.064724
 20
18.509944
 30
0.0
  0
LWPOLYLINE
  5
302
100
AcDbEntity
  8
Layer_1
 62
7
100
AcDbPolyline
 90
2
 70
0
 10
190.564732
 20
33.794950
 30
0.0
 10
190.564732
 20
19.009954
 30
0.0
  0
LWPOLYLINE
  5
303
100
AcDbEntity
  8
Layer_1
 62
7
100
AcDbPolyline
 90
2
 70
0
 10
91.052213
 20
18.509944
 30
0.0
 10
97.431121
 20
18.509944
 30
0.0
  0
LWPOLYLINE
  5
304
100
AcDbEntity
  8
Layer_1
 62
7
100
AcDbPolyline
 90
2
 70
0
 10
91.052213
 20
37.449958
 30
0.0
 10
92.695752
 20
37.449958
 30
0.0
  0
LWPOLYLINE
  5
305
100
AcDbEntity
  8
Layer_1
 62
7
100
AcDbPolyline
 90
4
 70
0
 10
95.408683
 20
37.449958
 30
0.0
 10
97.458198
 20
37.449958
 30
0.0
 10
100.171130
 20
37.449958
 30
0.0
 10
192.708254
 20
37.449958
 30
0.0
  0
LWPOLYLINE
  5
306
100
AcDbEntity
  8
Layer_1
 62
7
100
AcDbPolyline
 90
2
 70
0
 10
195.421186
 20
37.449958
 30
0.0
 10
197.562001
 20
37.449958
 30
0.0
  0
LWPOLYLINE
  5
307
100
AcDbEntity
  8
Layer_1
 62
7
100
AcDbPolyline
 90
2
 70
0
 10
90.552230
 20
19.009954
 30
0.0
 10
90.552230
 20
36.949948
 30
0.0
  0
LWPOLYLINE
  5
308
100
AcDbEntity
  8
Layer_1
 62
7
100
AcDbPolyline
 90
2
 70
0
 10
136.958480
 20
33.794950
 30
0.0
 10
136.958480
 20
20.994938
 30
0.0
  0
SPLINE
  5
309
100
AcDbEntity
  8
Layer_1
 62
7
100
AcDbSpline
 70
8
 71
3
 72
8
 73
4
 74
0
 40
0
 40
0
 40
0
 40
0
 40
1
 40
1
 40
1
 40
1
 10
197.064724
 20
18.509944
 30
0.0
 10
197.197336
 20
18.509942
 30
0.0
 10
197.324517
 20
18.562620
 30
0.0
 10
197.418287
 20
18.656391
 30
0.0
  0
SPLINE
  5
30a
100
AcDbEntity
  8
Layer_1
 62
7
100
AcDbSpline
 70
8
 71
3
 72
8
 73
4
 74
0
 40
0
 40
0
 40
0
 40
0
 40
1
 40
1
 40
1
 40
1
 10
197.418287
 20
18.656391
 30
0.0
 10
197.512058
 20
18.750162
 30
0.0
 10
197.564736
 20
18.877342
 30
0.0
 10
197.564734
 20
19.009954
 30
0.0
  0
SPLINE
  5
30b
100
AcDbEntity
  8
Layer_1
 62
7
100
AcDbSpline
 70
8
 71
3
 72
8
 73
4
 74
0
 40
0
 40
0
 40
0
 40
0
 40
1
 40
1
 40
1
 40
1
 10
190.564732
 20
19.009954
 30
0.0
 10
190.564727
 20
18.733814
 30
0.0
 10
190.788575
 20
18.509954
 30
0.0
 10
191.064715
 20
18.509944
 30
0.0
  0
SPLINE
  5
30c
100
AcDbEntity
  8
Layer_1
 62
7
100
AcDbSpline
 70
8
 71
3
 72
8
 73
4
 74
0
 40
0
 40
0
 40
0
 40
0
 40
1
 40
1
 40
1
 40
1
 10
90.552230
 20
19.009954
 30
0.0
 10
90.552225
 20
18.733814
 30
0.0
 10
90.776074
 20
18.509954
 30
0.0
 10
91.052213
 20
18.509944
 30
0.0
  0
SPLINE
  5
30d
100
AcDbEntity
  8
Layer_1
 62
7
100
AcDbSpline
 70
8
 71
3
 72
8
 73
4
 74
0
 40
0
 40
0
 40
0
 40
0
 40
1
 40
1
 40
1
 40
1
 10
91.052213
 20
37.449958
 30
0.0
 10
90.776074
 20
37.449948
 30
0.0
 10
90.552225
 20
37.226087
 30
0.0
 10
90.552230
 20
36.949948
 30
0.0
  0
SPLINE
  5
30e
100
AcDbEntity
  8
Layer_1
 62
7
100
AcDbSpline
 70
8
 71
3
 72
8
 73
4
 74
0
 40
0
 40
0
 40
0
 40
0
 40
1
 40
1
 40
1
 40
1
 10
95.408683
 20
37.449958
 30
0.0
 10
94.583008
 20
37.983290
 30
0.0
 10
93.521427
 20
37.983290
 30
0.0
 10
92.695752
 20
37.449958
 30
0.0
  0
SPLINE
  5
30f
100
AcDbEntity
  8
Layer_1
 62
7
100
AcDbSpline
 70
8
 71
3
 72
8
 73
4
 74
0
 40
0
 40
0
 40
0
 40
0
 40
1
 40
1
 40
1
 40
1
 10
195.421186
 20
37.449958
 30
0.0
 10
194.595511
 20
37.983291
 30
0.0
 10
193.533929
 20
37.983291
 30
0.0
 10
192.708254
 20
37.449958
 30
0.0
  0
SPLINE
  5
310
100
AcDbEntity
  8
Layer_1
 62
7
100
AcDbSpline
 70
8
 71
3
 72
8
 73
4
 74
0
 40
0
 40
0
 40
0
 40
0
 40
1
 40
1
 40
1
 40
1
 10
146.065651
 20
19.594948
 30
0.0
 10
146.208560
 20
19.594945
 30
0.0
 10
146.340613
 20
19.671185
 30
0.0
 10
146.412069
 20
19.794946
 30
0.0
  0
LWPOLYLINE
  5
311
100
AcDbEntity
  8
Layer_1
 62
7
100
AcDbPolyline
 90
2
 70
0
 10
146.065651
 20
19.594948
 30
0.0
 10
142.051286
 20
19.594948
 30
0.0
  0
LWPOLYLINE
  5
312
100
AcDbEntity
  8
Layer_1
 62
7
100
AcDbPolyline
 90
3
 70
0
 10
146.412069
 20
19.794946
 30
0.0
 10
146.435829
 20
19.878729
 30
0.0
 10
151.067810
 20
19.878729
 30
0.0
  0
LWPOLYLINE
  5
313
100
AcDbEntity
  8
Layer_1
 62
7
100
AcDbPolyline
 90
2
 70
0
 10
197.564730
 20
33.794949
 30
0.0
 10
197.564730
 20
37.444889
 30
0.0
  0
SPLINE
  5
314
100
AcDbEntity
  8
Layer_1
 62
7
100
AcDbSpline
 70
8
 71
3
 72
8
 73
4
 74
0
 40
0
 40
0
 40
0
 40
0
 40
1
 40
1
 40
1
 40
1
 10
141.704930
 20
19.794939
 30
0.0
 10
141.776330
 20
19.671179
 30
0.0
 10
141.908430
 20
19.594949
 30
0.0
 10
142.051330
 20
19.594939
 30
0.0
  0
LWPOLYLINE
  5
315
100
AcDbEntity
  8
Layer_1
 62
7
100
AcDbPolyline
 90
5
 70
0
 10
136.958480
 20
20.994939
 30
0.0
 10
136.950480
 20
19.880739
 30
0.0
 10
137.067770
 20
19.878739
 30
0.0
 10
141.693230
 20
19.878739
 30
0.0
 10
141.704930
 20
19.794939
 30
0.0
  0
LWPOLYLINE
  5
316
100
AcDbEntity
  8
Layer_1
 62
7
100
AcDbPolyline
 90
2
 70
0
 10
295.404585
 20
93.550563
 30
0.0
 10
295.404585
 20
110.490564
 30
0.0
  0
LWPOLYLINE
  5
317
100
AcDbEntity
  8
Layer_1
 62
7
100
AcDbPolyline
 90
2
 70
0
 10
294.404593
 20
111.490557
 30
0.0
 10
265.128605
 20
111.490557
 30
0.0
  0
LWPOLYLINE
  5
318
100
AcDbEntity
  8
Layer_1
 62
7
100
AcDbPolyline
 90
2
 70
0
 10
264.128585
 20
93.550563
 30
0.0
 10
264.128585
 20
110.490564
 30
0.0
  0
LWPOLYLINE
  5
319
100
AcDbEntity
  8
Layer_1
 62
7
100
AcDbPolyline
 90
2
 70
0
 10
294.404593
 20
92.550544
 30
0.0
 10
293.061065
 20
92.550544
 30
0.0
  0
LWPOLYLINE
  5
31a
100
AcDbEntity
  8
Layer_1
 62
7
100
AcDbPolyline
 90
2
 70
0
 10
290.348133
 20
92.550544
 30
0.0
 10
269.185064
 20
92.550544
 30
0.0
  0
SPLINE
  5
31b
100
AcDbEntity
  8
Layer_1
 62
7
100
AcDbSpline
 70
8
 71
3
 72
8
 73
4
 74
0
 40
0
 40
0
 40
0
 40
0
 40
1
 40
1
 40
1
 40
1
 10
294.404593
 20
92.550544
 30
0.0
 10
294.473932
 20
92.550544
 30
0.0
 10
294.541623
 20
92.557608
 30
0.0
 10
294.606988
 20
92.571049
 30
0.0
  0
SPLINE
  5
31c
100
AcDbEntity
  8
Layer_1
 62
7
100
AcDbSpline
 70
8
 71
3
 72
8
 73
4
 74
0
 40
0
 40
0
 40
0
 40
0
 40
1
 40
1
 40
1
 40
1
 10
294.606988
 20
92.571049
 30
0.0
 10
294.675566
 20
92.585151
 30
0.0
 10
294.741579
 20
92.606262
 30
0.0
 10
294.804248
 20
92.633615
 30
0.0
  0
SPLINE
  5
31d
100
AcDbEntity
  8
Layer_1
 62
7
100
AcDbSpline
 70
8
 71
3
 72
8
 73
4
 74
0
 40
0
 40
0
 40
0
 40
0
 40
1
 40
1
 40
1
 40
1
 10
294.804248
 20
92.633615
 30
0.0
 10
294.869981
 20
92.662306
 30
0.0
 10
294.932031
 20
92.697858
 30
0.0
 10
294.989494
 20
92.739364
 30
0.0
  0
SPLINE
  5
31e
100
AcDbEntity
  8
Layer_1
 62
7
100
AcDbSpline
 70
8
 71
3
 72
8
 73
4
 74
0
 40
0
 40
0
 40
0
 40
0
 40
1
 40
1
 40
1
 40
1
 10
294.989494
 20
92.739364
 30
0.0
 10
295.043850
 20
92.778628
 30
0.0
 10
295.094102
 20
92.823218
 30
0.0
 10
295.139486
 20
92.872372
 30
0.0
  0
SPLINE
  5
31f
100
AcDbEntity
  8
Layer_1
 62
7
100
AcDbSpline
 70
8
 71
3
 72
8
 73
4
 74
0
 40
0
 40
0
 40
0
 40
0
 40
1
 40
1
 40
1
 40
1
 10
295.139486
 20
92.872372
 30
0.0
 10
295.185558
 20
92.922270
 30
0.0
 10
295.226611
 20
92.976875
 30
0.0
 10
295.261845
 20
93.035377
 30
0.0
  0
SPLINE
  5
320
100
AcDbEntity
  8
Layer_1
 62
7
100
AcDbSpline
 70
8
 71
3
 72
8
 73
4
 74
0
 40
0
 40
0
 40
0
 40
0
 40
1
 40
1
 40
1
 40
1
 10
295.261845
 20
93.035377
 30
0.0
 10
295.293053
 20
93.087198
 30
0.0
 10
295.319696
 20
93.142078
 30
0.0
 10
295.341215
 20
93.199461
 30
0.0
  0
SPLINE
  5
321
100
AcDbEntity
  8
Layer_1
 62
7
100
AcDbSpline
 70
8
 71
3
 72
8
 73
4
 74
0
 40
0
 40
0
 40
0
 40
0
 40
1
 40
1
 40
1
 40
1
 10
295.341215
 20
93.199461
 30
0.0
 10
295.362302
 20
93.255698
 30
0.0
 10
295.378476
 20
93.314340
 30
0.0
 10
295.389202
 20
93.374861
 30
0.0
  0
SPLINE
  5
322
100
AcDbEntity
  8
Layer_1
 62
7
100
AcDbSpline
 70
8
 71
3
 72
8
 73
4
 74
0
 40
0
 40
0
 40
0
 40
0
 40
1
 40
1
 40
1
 40
1
 10
295.389202
 20
93.374861
 30
0.0
 10
295.399309
 20
93.431908
 30
0.0
 10
295.404575
 20
93.490624
 30
0.0
 10
295.404575
 20
93.550574
 30
0.0
  0
SPLINE
  5
323
100
AcDbEntity
  8
Layer_1
 62
7
100
AcDbSpline
 70
8
 71
3
 72
8
 73
4
 74
0
 40
0
 40
0
 40
0
 40
0
 40
1
 40
1
 40
1
 40
1
 10
265.128605
 20
111.490557
 30
0.0
 10
265.092582
 20
111.490557
 30
0.0
 10
265.057000
 20
111.488705
 30
0.0
 10
265.021962
 20
111.484948
 30
0.0
  0
SPLINE
  5
324
100
AcDbEntity
  8
Layer_1
 62
7
100
AcDbSpline
 70
8
 71
3
 72
8
 73
4
 74
0
 40
0
 40
0
 40
0
 40
0
 40
1
 40
1
 40
1
 40
1
 10
265.021962
 20
111.484948
 30
0.0
 10
264.993620
 20
111.481932
 30
0.0
 10
264.965629
 20
111.477751
 30
0.0
 10
264.938041
 20
111.472433
 30
0.0
  0
SPLINE
  5
325
100
AcDbEntity
  8
Layer_1
 62
7
100
AcDbSpline
 70
8
 71
3
 72
8
 73
4
 74
0
 40
0
 40
0
 40
0
 40
0
 40
1
 40
1
 40
1
 40
1
 10
264.938041
 20
111.472433
 30
0.0
 10
264.907572
 20
111.466559
 30
0.0
 10
264.877594
 20
111.459283
 30
0.0
 10
264.848178
 20
111.450711
 30
0.0
  0
SPLINE
  5
326
100
AcDbEntity
  8
Layer_1
 62
7
100
AcDbSpline
 70
8
 71
3
 72
8
 73
4
 74
0
 40
0
 40
0
 40
0
 40
0
 40
1
 40
1
 40
1
 40
1
 10
264.848178
 20
111.450711
 30
0.0
 10
264.820979
 20
111.442773
 30
0.0
 10
264.794256
 20
111.433724
 30
0.0
 10
264.768070
 20
111.423601
 30
0.0
  0
SPLINE
  5
327
100
AcDbEntity
  8
Layer_1
 62
7
100
AcDbSpline
 70
8
 71
3
 72
8
 73
4
 74
0
 40
0
 40
0
 40
0
 40
0
 40
1
 40
1
 40
1
 40
1
 10
264.768070
 20
111.423601
 30
0.0
 10
264.733029
 20
111.410055
 30
0.0
 10
264.698943
 20
111.394587
 30
0.0
 10
264.665938
 20
111.377334
 30
0.0
  0
SPLINE
  5
328
100
AcDbEntity
  8
Layer_1
 62
7
100
AcDbSpline
 70
8
 71
3
 72
8
 73
4
 74
0
 40
0
 40
0
 40
0
 40
0
 40
1
 40
1
 40
1
 40
1
 10
264.665938
 20
111.377334
 30
0.0
 10
264.634966
 20
111.361141
 30
0.0
 10
264.604949
 20
111.343375
 30
0.0
 10
264.575991
 20
111.324139
 30
0.0
  0
SPLINE
  5
329
100
AcDbEntity
  8
Layer_1
 62
7
100
AcDbSpline
 70
8
 71
3
 72
8
 73
4
 74
0
 40
0
 40
0
 40
0
 40
0
 40
1
 40
1
 40
1
 40
1
 10
264.575991
 20
111.324139
 30
0.0
 10
264.544540
 20
111.303237
 30
0.0
 10
264.514337
 20
111.280623
 30
0.0
 10
264.485524
 20
111.256403
 30
0.0
  0
SPLINE
  5
32a
100
AcDbEntity
  8
Layer_1
 62
7
100
AcDbSpline
 70
8
 71
3
 72
8
 73
4
 74
0
 40
0
 40
0
 40
0
 40
0
 40
1
 40
1
 40
1
 40
1
 10
264.485524
 20
111.256403
 30
0.0
 10
264.455491
 20
111.231162
 30
0.0
 10
264.426964
 20
111.204180
 30
0.0
 10
264.400098
 20
111.175623
 30
0.0
  0
SPLINE
  5
32b
100
AcDbEntity
  8
Layer_1
 62
7
100
AcDbSpline
 70
8
 71
3
 72
8
 73
4
 74
0
 40
0
 40
0
 40
0
 40
0
 40
1
 40
1
 40
1
 40
1
 10
264.400098
 20
111.175623
 30
0.0
 10
264.374566
 20
111.148485
 30
0.0
 10
264.350537
 20
111.119918
 30
0.0
 10
264.328137
 20
111.090057
 30
0.0
  0
SPLINE
  5
32c
100
AcDbEntity
  8
Layer_1
 62
7
100
AcDbSpline
 70
8
 71
3
 72
8
 73
4
 74
0
 40
0
 40
0
 40
0
 40
0
 40
1
 40
1
 40
1
 40
1
 10
264.328137
 20
111.090057
 30
0.0
 10
264.307632
 20
111.062731
 30
0.0
 10
264.288505
 20
111.034320
 30
0.0
 10
264.270839
 20
111.004927
 30
0.0
  0
SPLINE
  5
32d
100
AcDbEntity
  8
Layer_1
 62
7
100
AcDbSpline
 70
8
 71
3
 72
8
 73
4
 74
0
 40
0
 40
0
 40
0
 40
0
 40
1
 40
1
 40
1
 40
1
 10
264.270839
 20
111.004927
 30
0.0
 10
264.254593
 20
110.977879
 30
0.0
 10
264.239573
 20
110.950000
 30
0.0
 10
264.225886
 20
110.921369
 30
0.0
  0
SPLINE
  5
32e
100
AcDbEntity
  8
Layer_1
 62
7
100
AcDbSpline
 70
8
 71
3
 72
8
 73
4
 74
0
 40
0
 40
0
 40
0
 40
0
 40
1
 40
1
 40
1
 40
1
 10
264.225886
 20
110.921369
 30
0.0
 10
264.205884
 20
110.879528
 30
0.0
 10
264.188701
 20
110.836081
 30
0.0
 10
264.174589
 20
110.791271
 30
0.0
  0
SPLINE
  5
32f
100
AcDbEntity
  8
Layer_1
 62
7
100
AcDbSpline
 70
8
 71
3
 72
8
 73
4
 74
0
 40
0
 40
0
 40
0
 40
0
 40
1
 40
1
 40
1
 40
1
 10
264.174589
 20
110.791271
 30
0.0
 10
264.161465
 20
110.749623
 30
0.0
 10
264.151014
 20
110.706800
 30
0.0
 10
264.143397
 20
110.662998
 30
0.0
  0
SPLINE
  5
330
100
AcDbEntity
  8
Layer_1
 62
7
100
AcDbSpline
 70
8
 71
3
 72
8
 73
4
 74
0
 40
0
 40
0
 40
0
 40
0
 40
1
 40
1
 40
1
 40
1
 10
264.143397
 20
110.662998
 30
0.0
 10
264.133660
 20
110.606981
 30
0.0
 10
264.128580
 20
110.549368
 30
0.0
 10
264.128580
 20
110.490567
 30
0.0
  0
SPLINE
  5
331
100
AcDbEntity
  8
Layer_1
 62
7
100
AcDbSpline
 70
8
 71
3
 72
8
 73
4
 74
0
 40
0
 40
0
 40
0
 40
0
 40
1
 40
1
 40
1
 40
1
 10
295.404585
 20
110.490564
 30
0.0
 10
295.404585
 20
110.543341
 30
0.0
 10
295.400484
 20
110.595162
 30
0.0
 10
295.392626
 20
110.645729
 30
0.0
  0
SPLINE
  5
332
100
AcDbEntity
  8
Layer_1
 62
7
100
AcDbSpline
 70
8
 71
3
 72
8
 73
4
 74
0
 40
0
 40
0
 40
0
 40
0
 40
1
 40
1
 40
1
 40
1
 10
295.392626
 20
110.645729
 30
0.0
 10
295.386276
 20
110.686499
 30
0.0
 10
295.377465
 20
110.726453
 30
0.0
 10
295.366326
 20
110.765437
 30
0.0
  0
SPLINE
  5
333
100
AcDbEntity
  8
Layer_1
 62
7
100
AcDbSpline
 70
8
 71
3
 72
8
 73
4
 74
0
 40
0
 40
0
 40
0
 40
0
 40
1
 40
1
 40
1
 40
1
 10
295.366326
 20
110.765437
 30
0.0
 10
295.357410
 20
110.796679
 30
0.0
 10
295.347012
 20
110.827294
 30
0.0
 10
295.335227
 20
110.857208
 30
0.0
  0
SPLINE
  5
334
100
AcDbEntity
  8
Layer_1
 62
7
100
AcDbSpline
 70
8
 71
3
 72
8
 73
4
 74
0
 40
0
 40
0
 40
0
 40
0
 40
1
 40
1
 40
1
 40
1
 10
295.335227
 20
110.857208
 30
0.0
 10
295.323162
 20
110.887818
 30
0.0
 10
295.309616
 20
110.917689
 30
0.0
 10
295.294704
 20
110.946735
 30
0.0
  0
SPLINE
  5
335
100
AcDbEntity
  8
Layer_1
 62
7
100
AcDbSpline
 70
8
 71
3
 72
8
 73
4
 74
0
 40
0
 40
0
 40
0
 40
0
 40
1
 40
1
 40
1
 40
1
 10
295.294704
 20
110.946735
 30
0.0
 10
295.280337
 20
110.974741
 30
0.0
 10
295.264658
 20
111.001980
 30
0.0
 10
295.247788
 20
111.028375
 30
0.0
  0
SPLINE
  5
336
100
AcDbEntity
  8
Layer_1
 62
7
100
AcDbSpline
 70
8
 71
3
 72
8
 73
4
 74
0
 40
0
 40
0
 40
0
 40
0
 40
1
 40
1
 40
1
 40
1
 10
295.247788
 20
111.028375
 30
0.0
 10
295.233395
 20
111.050891
 30
0.0
 10
295.218131
 20
111.072788
 30
0.0
 10
295.202036
 20
111.094026
 30
0.0
  0
SPLINE
  5
337
100
AcDbEntity
  8
Layer_1
 62
7
100
AcDbSpline
 70
8
 71
3
 72
8
 73
4
 74
0
 40
0
 40
0
 40
0
 40
0
 40
1
 40
1
 40
1
 40
1
 10
295.202036
 20
111.094026
 30
0.0
 10
295.177298
 20
111.126670
 30
0.0
 10
295.150596
 20
111.157746
 30
0.0
 10
295.122113
 20
111.187083
 30
0.0
  0
SPLINE
  5
338
100
AcDbEntity
  8
Layer_1
 62
7
100
AcDbSpline
 70
8
 71
3
 72
8
 73
4
 74
0
 40
0
 40
0
 40
0
 40
0
 40
1
 40
1
 40
1
 40
1
 10
295.122113
 20
111.187083
 30
0.0
 10
295.107905
 20
111.201740
 30
0.0
 10
295.093232
 20
111.215938
 30
0.0
 10
295.078148
 20
111.229691
 30
0.0
  0
SPLINE
  5
339
100
AcDbEntity
  8
Layer_1
 62
7
100
AcDbSpline
 70
8
 71
3
 72
8
 73
4
 74
0
 40
0
 40
0
 40
0
 40
0
 40
1
 40
1
 40
1
 40
1
 10
295.078148
 20
111.229691
 30
0.0
 10
295.062140
 20
111.244296
 30
0.0
 10
295.045659
 20
111.258369
 30
0.0
 10
295.028726
 20
111.271911
 30
0.0
  0
SPLINE
  5
33a
100
AcDbEntity
  8
Layer_1
 62
7
100
AcDbSpline
 70
8
 71
3
 72
8
 73
4
 74
0
 40
0
 40
0
 40
0
 40
0
 40
1
 40
1
 40
1
 40
1
 10
295.028726
 20
111.271911
 30
0.0
 10
295.018804
 20
111.279848
 30
0.0
 10
295.008724
 20
111.287600
 30
0.0
 10
294.998503
 20
111.295167
 30
0.0
  0
SPLINE
  5
33b
100
AcDbEntity
  8
Layer_1
 62
7
100
AcDbSpline
 70
8
 71
3
 72
8
 73
4
 74
0
 40
0
 40
0
 40
0
 40
0
 40
1
 40
1
 40
1
 40
1
 10
294.998503
 20
111.295167
 30
0.0
 10
294.984056
 20
111.305857
 30
0.0
 10
294.969301
 20
111.316149
 30
0.0
 10
294.954267
 20
111.326068
 30
0.0
  0
SPLINE
  5
33c
100
AcDbEntity
  8
Layer_1
 62
7
100
AcDbSpline
 70
8
 71
3
 72
8
 73
4
 74
0
 40
0
 40
0
 40
0
 40
0
 40
1
 40
1
 40
1
 40
1
 10
294.954267
 20
111.326068
 30
0.0
 10
294.931539
 20
111.341070
 30
0.0
 10
294.908148
 20
111.355141
 30
0.0
 10
294.884168
 20
111.368272
 30
0.0
  0
SPLINE
  5
33d
100
AcDbEntity
  8
Layer_1
 62
7
100
AcDbSpline
 70
8
 71
3
 72
8
 73
4
 74
0
 40
0
 40
0
 40
0
 40
0
 40
1
 40
1
 40
1
 40
1
 10
294.884168
 20
111.368272
 30
0.0
 10
294.866362
 20
111.378035
 30
0.0
 10
294.848233
 20
111.387242
 30
0.0
 10
294.829791
 20
111.395921
 30
0.0
  0
SPLINE
  5
33e
100
AcDbEntity
  8
Layer_1
 62
7
100
AcDbSpline
 70
8
 71
3
 72
8
 73
4
 74
0
 40
0
 40
0
 40
0
 40
0
 40
1
 40
1
 40
1
 40
1
 10
294.829791
 20
111.395921
 30
0.0
 10
294.801703
 20
111.409123
 30
0.0
 10
294.772900
 20
111.421083
 30
0.0
 10
294.743458
 20
111.431685
 30
0.0
  0
SPLINE
  5
33f
100
AcDbEntity
  8
Layer_1
 62
7
100
AcDbSpline
 70
8
 71
3
 72
8
 73
4
 74
0
 40
0
 40
0
 40
0
 40
0
 40
1
 40
1
 40
1
 40
1
 10
294.743458
 20
111.431685
 30
0.0
 10
294.713218
 20
111.442585
 30
0.0
 10
294.682302
 20
111.452057
 30
0.0
 10
294.650787
 20
111.460029
 30
0.0
  0
SPLINE
  5
340
100
AcDbEntity
  8
Layer_1
 62
7
100
AcDbSpline
 70
8
 71
3
 72
8
 73
4
 74
0
 40
0
 40
0
 40
0
 40
0
 40
1
 40
1
 40
1
 40
1
 10
294.650787
 20
111.460029
 30
0.0
 10
294.609465
 20
111.470480
 30
0.0
 10
294.567118
 20
111.478391
 30
0.0
 10
294.523928
 20
111.483524
 30
0.0
  0
SPLINE
  5
341
100
AcDbEntity
  8
Layer_1
 62
7
100
AcDbSpline
 70
8
 71
3
 72
8
 73
4
 74
0
 40
0
 40
0
 40
0
 40
0
 40
1
 40
1
 40
1
 40
1
 10
294.523928
 20
111.483524
 30
0.0
 10
294.484796
 20
111.488181
 30
0.0
 10
294.444971
 20
111.490562
 30
0.0
 10
294.404587
 20
111.490562
 30
0.0
  0
SPLINE
  5
342
100
AcDbEntity
  8
Layer_1
 62
7
100
AcDbSpline
 70
8
 71
3
 72
8
 73
4
 74
0
 40
0
 40
0
 40
0
 40
0
 40
1
 40
1
 40
1
 40
1
 10
264.128585
 20
93.550563
 30
0.0
 10
264.128585
 20
93.507063
 30
0.0
 10
264.131364
 20
93.464211
 30
0.0
 10
264.136761
 20
93.422177
 30
0.0
  0
SPLINE
  5
343
100
AcDbEntity
  8
Layer_1
 62
7
100
AcDbSpline
 70
8
 71
3
 72
8
 73
4
 74
0
 40
0
 40
0
 40
0
 40
0
 40
1
 40
1
 40
1
 40
1
 10
264.136761
 20
93.422177
 30
0.0
 10
264.140650
 20
93.391829
 30
0.0
 10
264.145889
 20
93.361907
 30
0.0
 10
264.152451
 20
93.332475
 30
0.0
  0
SPLINE
  5
344
100
AcDbEntity
  8
Layer_1
 62
7
100
AcDbSpline
 70
8
 71
3
 72
8
 73
4
 74
0
 40
0
 40
0
 40
0
 40
0
 40
1
 40
1
 40
1
 40
1
 10
264.152451
 20
93.332475
 30
0.0
 10
264.157399
 20
93.310276
 30
0.0
 10
264.163061
 20
93.288329
 30
0.0
 10
264.169464
 20
93.266702
 30
0.0
  0
SPLINE
  5
345
100
AcDbEntity
  8
Layer_1
 62
7
100
AcDbSpline
 70
8
 71
3
 72
8
 73
4
 74
0
 40
0
 40
0
 40
0
 40
0
 40
1
 40
1
 40
1
 40
1
 10
264.169464
 20
93.266702
 30
0.0
 10
264.180708
 20
93.228687
 30
0.0
 10
264.194123
 20
93.191616
 30
0.0
 10
264.209609
 20
93.155633
 30
0.0
  0
SPLINE
  5
346
100
AcDbEntity
  8
Layer_1
 62
7
100
AcDbSpline
 70
8
 71
3
 72
8
 73
4
 74
0
 40
0
 40
0
 40
0
 40
0
 40
1
 40
1
 40
1
 40
1
 10
264.209609
 20
93.155633
 30
0.0
 10
264.227045
 20
93.115120
 30
0.0
 10
264.247076
 20
93.075985
 30
0.0
 10
264.269500
 20
93.038446
 30
0.0
  0
SPLINE
  5
347
100
AcDbEntity
  8
Layer_1
 62
7
100
AcDbSpline
 70
8
 71
3
 72
8
 73
4
 74
0
 40
0
 40
0
 40
0
 40
0
 40
1
 40
1
 40
1
 40
1
 10
264.269500
 20
93.038446
 30
0.0
 10
264.290481
 20
93.003317
 30
0.0
 10
264.313564
 20
92.969586
 30
0.0
 10
264.338561
 20
92.937420
 30
0.0
  0
SPLINE
  5
348
100
AcDbEntity
  8
Layer_1
 62
7
100
AcDbSpline
 70
8
 71
3
 72
8
 73
4
 74
0
 40
0
 40
0
 40
0
 40
0
 40
1
 40
1
 40
1
 40
1
 10
264.338561
 20
92.937420
 30
0.0
 10
264.367229
 20
92.900532
 30
0.0
 10
264.398426
 20
92.865705
 30
0.0
 10
264.431888
 20
92.833198
 30
0.0
  0
SPLINE
  5
349
100
AcDbEntity
  8
Layer_1
 62
7
100
AcDbSpline
 70
8
 71
3
 72
8
 73
4
 74
0
 40
0
 40
0
 40
0
 40
0
 40
1
 40
1
 40
1
 40
1
 10
264.431888
 20
92.833198
 30
0.0
 10
264.470972
 20
92.795230
 30
0.0
 10
264.513149
 20
92.760430
 30
0.0
 10
264.558007
 20
92.729209
 30
0.0
  0
SPLINE
  5
34a
100
AcDbEntity
  8
Layer_1
 62
7
100
AcDbSpline
 70
8
 71
3
 72
8
 73
4
 74
0
 40
0
 40
0
 40
0
 40
0
 40
1
 40
1
 40
1
 40
1
 10
264.558007
 20
92.729209
 30
0.0
 10
264.598224
 20
92.701216
 30
0.0
 10
264.640594
 20
92.676102
 30
0.0
 10
264.684822
 20
92.654163
 30
0.0
  0
SPLINE
  5
34b
100
AcDbEntity
  8
Layer_1
 62
7
100
AcDbSpline
 70
8
 71
3
 72
8
 73
4
 74
0
 40
0
 40
0
 40
0
 40
0
 40
1
 40
1
 40
1
 40
1
 10
264.684822
 20
92.654163
 30
0.0
 10
264.716233
 20
92.638579
 30
0.0
 10
264.748581
 20
92.624603
 30
0.0
 10
264.781760
 20
92.612332
 30
0.0
  0
SPLINE
  5
34c
100
AcDbEntity
  8
Layer_1
 62
7
100
AcDbSpline
 70
8
 71
3
 72
8
 73
4
 74
0
 40
0
 40
0
 40
0
 40
0
 40
1
 40
1
 40
1
 40
1
 10
264.781760
 20
92.612332
 30
0.0
 10
264.808649
 20
92.602384
 30
0.0
 10
264.836087
 20
92.593573
 30
0.0
 10
264.864011
 20
92.585926
 30
0.0
  0
SPLINE
  5
34d
100
AcDbEntity
  8
Layer_1
 62
7
100
AcDbSpline
 70
8
 71
3
 72
8
 73
4
 74
0
 40
0
 40
0
 40
0
 40
0
 40
1
 40
1
 40
1
 40
1
 10
264.864011
 20
92.585926
 30
0.0
 10
264.886130
 20
92.579868
 30
0.0
 10
264.908540
 20
92.574576
 30
0.0
 10
264.931236
 20
92.570025
 30
0.0
  0
SPLINE
  5
34e
100
AcDbEntity
  8
Layer_1
 62
7
100
AcDbSpline
 70
8
 71
3
 72
8
 73
4
 74
0
 40
0
 40
0
 40
0
 40
0
 40
1
 40
1
 40
1
 40
1
 10
264.931236
 20
92.570025
 30
0.0
 10
264.959631
 20
92.564336
 30
0.0
 10
264.988460
 20
92.559865
 30
0.0
 10
265.017668
 20
92.556637
 30
0.0
  0
SPLINE
  5
34f
100
AcDbEntity
  8
Layer_1
 62
7
100
AcDbSpline
 70
8
 71
3
 72
8
 73
4
 74
0
 40
0
 40
0
 40
0
 40
0
 40
1
 40
1
 40
1
 40
1
 10
265.017668
 20
92.556637
 30
0.0
 10
265.054101
 20
92.552615
 30
0.0
 10
265.091121
 20
92.550552
 30
0.0
 10
265.128626
 20
92.550552
 30
0.0
  0
SPLINE
  5
350
100
AcDbEntity
  8
Layer_1
 62
7
100
AcDbSpline
 70
8
 71
3
 72
8
 73
4
 74
0
 40
0
 40
0
 40
0
 40
0
 40
1
 40
1
 40
1
 40
1
 10
290.348133
 20
92.550544
 30
0.0
 10
290.417332
 20
92.505845
 30
0.0
 10
290.488188
 20
92.464895
 30
0.0
 10
290.560421
 20
92.427690
 30
0.0
  0
SPLINE
  5
351
100
AcDbEntity
  8
Layer_1
 62
7
100
AcDbSpline
 70
8
 71
3
 72
8
 73
4
 74
0
 40
0
 40
0
 40
0
 40
0
 40
1
 40
1
 40
1
 40
1
 10
290.560421
 20
92.427690
 30
0.0
 10
290.646332
 20
92.383438
 30
0.0
 10
290.734195
 20
92.344489
 30
0.0
 10
290.823539
 20
92.310837
 30
0.0
  0
SPLINE
  5
352
100
AcDbEntity
  8
Layer_1
 62
7
100
AcDbSpline
 70
8
 71
3
 72
8
 73
4
 74
0
 40
0
 40
0
 40
0
 40
0
 40
1
 40
1
 40
1
 40
1
 10
290.823539
 20
92.310837
 30
0.0
 10
290.910814
 20
92.277962
 30
0.0
 10
290.999508
 20
92.250146
 30
0.0
 10
291.089178
 20
92.227387
 30
0.0
  0
SPLINE
  5
353
100
AcDbEntity
  8
Layer_1
 62
7
100
AcDbSpline
 70
8
 71
3
 72
8
 73
4
 74
0
 40
0
 40
0
 40
0
 40
0
 40
1
 40
1
 40
1
 40
1
 10
291.089178
 20
92.227387
 30
0.0
 10
291.161804
 20
92.208946
 30
0.0
 10
291.235069
 20
92.193835
 30
0.0
 10
291.308745
 20
92.182035
 30
0.0
  0
SPLINE
  5
354
100
AcDbEntity
  8
Layer_1
 62
7
100
AcDbSpline
 70
8
 71
3
 72
8
 73
4
 74
0
 40
0
 40
0
 40
0
 40
0
 40
1
 40
1
 40
1
 40
1
 10
291.308745
 20
92.182035
 30
0.0
 10
291.444249
 20
92.160339
 30
0.0
 10
291.581144
 20
92.149848
 30
0.0
 10
291.717992
 20
92.150578
 30
0.0
  0
SPLINE
  5
355
100
AcDbEntity
  8
Layer_1
 62
7
100
AcDbSpline
 70
8
 71
3
 72
8
 73
4
 74
0
 40
0
 40
0
 40
0
 40
0
 40
1
 40
1
 40
1
 40
1
 10
291.717992
 20
92.150578
 30
0.0
 10
291.827784
 20
92.151108
 30
0.0
 10
291.937543
 20
92.158966
 30
0.0
 10
292.046531
 20
92.173994
 30
0.0
  0
SPLINE
  5
356
100
AcDbEntity
  8
Layer_1
 62
7
100
AcDbSpline
 70
8
 71
3
 72
8
 73
4
 74
0
 40
0
 40
0
 40
0
 40
0
 40
1
 40
1
 40
1
 40
1
 10
292.046531
 20
92.173994
 30
0.0
 10
292.171305
 20
92.191192
 30
0.0
 10
292.295067
 20
92.217865
 30
0.0
 10
292.416698
 20
92.253996
 30
0.0
  0
SPLINE
  5
357
100
AcDbEntity
  8
Layer_1
 62
7
100
AcDbSpline
 70
8
 71
3
 72
8
 73
4
 74
0
 40
0
 40
0
 40
0
 40
0
 40
1
 40
1
 40
1
 40
1
 10
292.416698
 20
92.253996
 30
0.0
 10
292.528493
 20
92.287204
 30
0.0
 10
292.638485
 20
92.328405
 30
0.0
 10
292.745816
 20
92.377602
 30
0.0
  0
SPLINE
  5
358
100
AcDbEntity
  8
Layer_1
 62
7
100
AcDbSpline
 70
8
 71
3
 72
8
 73
4
 74
0
 40
0
 40
0
 40
0
 40
0
 40
1
 40
1
 40
1
 40
1
 10
292.745816
 20
92.377602
 30
0.0
 10
292.853896
 20
92.427139
 30
0.0
 10
292.959272
 20
92.484784
 30
0.0
 10
293.061065
 20
92.550536
 30
0.0
  0
SPLINE
  5
359
100
AcDbEntity
  8
Layer_1
 62
7
100
AcDbSpline
 70
8
 71
3
 72
8
 73
4
 74
0
 40
0
 40
0
 40
0
 40
0
 40
1
 40
1
 40
1
 40
1
 10
266.472132
 20
92.550544
 30
0.0
 10
266.524763
 20
92.516547
 30
0.0
 10
266.578355
 20
92.484718
 30
0.0
 10
266.632782
 20
92.455056
 30
0.0
  0
SPLINE
  5
35a
100
AcDbEntity
  8
Layer_1
 62
7
100
AcDbSpline
 70
8
 71
3
 72
8
 73
4
 74
0
 40
0
 40
0
 40
0
 40
0
 40
1
 40
1
 40
1
 40
1
 10
266.632782
 20
92.455056
 30
0.0
 10
266.680254
 20
92.429179
 30
0.0
 10
266.728366
 20
92.404957
 30
0.0
 10
266.777030
 20
92.382383
 30
0.0
  0
SPLINE
  5
35b
100
AcDbEntity
  8
Layer_1
 62
7
100
AcDbSpline
 70
8
 71
3
 72
8
 73
4
 74
0
 40
0
 40
0
 40
0
 40
0
 40
1
 40
1
 40
1
 40
1
 10
266.777030
 20
92.382383
 30
0.0
 10
266.840295
 20
92.353032
 30
0.0
 10
266.904499
 20
92.326471
 30
0.0
 10
266.969464
 20
92.302695
 30
0.0
  0
SPLINE
  5
35c
100
AcDbEntity
  8
Layer_1
 62
7
100
AcDbSpline
 70
8
 71
3
 72
8
 73
4
 74
0
 40
0
 40
0
 40
0
 40
0
 40
1
 40
1
 40
1
 40
1
 10
266.969464
 20
92.302695
 30
0.0
 10
267.037230
 20
92.277904
 30
0.0
 10
267.105823
 20
92.256123
 30
0.0
 10
267.175040
 20
92.237388
 30
0.0
  0
SPLINE
  5
35d
100
AcDbEntity
  8
Layer_1
 62
7
100
AcDbSpline
 70
8
 71
3
 72
8
 73
4
 74
0
 40
0
 40
0
 40
0
 40
0
 40
1
 40
1
 40
1
 40
1
 10
267.175040
 20
92.237388
 30
0.0
 10
267.248571
 20
92.217492
 30
0.0
 10
267.322808
 20
92.201000
 30
0.0
 10
267.397505
 20
92.187938
 30
0.0
  0
SPLINE
  5
35e
100
AcDbEntity
  8
Layer_1
 62
7
100
AcDbSpline
 70
8
 71
3
 72
8
 73
4
 74
0
 40
0
 40
0
 40
0
 40
0
 40
1
 40
1
 40
1
 40
1
 10
267.397505
 20
92.187938
 30
0.0
 10
267.461293
 20
92.176799
 30
0.0
 10
267.525420
 20
92.168120
 30
0.0
 10
267.589730
 20
92.161956
 30
0.0
  0
SPLINE
  5
35f
100
AcDbEntity
  8
Layer_1
 62
7
100
AcDbSpline
 70
8
 71
3
 72
8
 73
4
 74
0
 40
0
 40
0
 40
0
 40
0
 40
1
 40
1
 40
1
 40
1
 10
267.589730
 20
92.161956
 30
0.0
 10
267.667404
 20
92.154521
 30
0.0
 10
267.745350
 20
92.150711
 30
0.0
 10
267.823299
 20
92.150552
 30
0.0
  0
SPLINE
  5
360
100
AcDbEntity
  8
Layer_1
 62
7
100
AcDbSpline
 70
8
 71
3
 72
8
 73
4
 74
0
 40
0
 40
0
 40
0
 40
0
 40
1
 40
1
 40
1
 40
1
 10
267.823299
 20
92.150552
 30
0.0
 10
267.898977
 20
92.150393
 30
0.0
 10
267.974662
 20
92.153674
 30
0.0
 10
268.050107
 20
92.160368
 30
0.0
  0
SPLINE
  5
361
100
AcDbEntity
  8
Layer_1
 62
7
100
AcDbSpline
 70
8
 71
3
 72
8
 73
4
 74
0
 40
0
 40
0
 40
0
 40
0
 40
1
 40
1
 40
1
 40
1
 10
268.050107
 20
92.160368
 30
0.0
 10
268.122484
 20
92.166797
 30
0.0
 10
268.194644
 20
92.176375
 30
0.0
 10
268.266367
 20
92.189123
 30
0.0
  0
SPLINE
  5
362
100
AcDbEntity
  8
Layer_1
 62
7
100
AcDbSpline
 70
8
 71
3
 72
8
 73
4
 74
0
 40
0
 40
0
 40
0
 40
0
 40
1
 40
1
 40
1
 40
1
 10
268.266367
 20
92.189123
 30
0.0
 10
268.363252
 20
92.206347
 30
0.0
 10
268.459344
 20
92.229305
 30
0.0
 10
268.554115
 20
92.258036
 30
0.0
  0
SPLINE
  5
363
100
AcDbEntity
  8
Layer_1
 62
7
100
AcDbSpline
 70
8
 71
3
 72
8
 73
4
 74
0
 40
0
 40
0
 40
0
 40
0
 40
1
 40
1
 40
1
 40
1
 10
268.554115
 20
92.258036
 30
0.0
 10
268.633847
 20
92.282219
 30
0.0
 10
268.712643
 20
92.310458
 30
0.0
 10
268.790187
 20
92.342782
 30
0.0
  0
SPLINE
  5
364
100
AcDbEntity
  8
Layer_1
 62
7
100
AcDbSpline
 70
8
 71
3
 72
8
 73
4
 74
0
 40
0
 40
0
 40
0
 40
0
 40
1
 40
1
 40
1
 40
1
 10
268.790187
 20
92.342782
 30
0.0
 10
268.857161
 20
92.370701
 30
0.0
 10
268.923203
 20
92.401660
 30
0.0
 10
268.988111
 20
92.435662
 30
0.0
  0
SPLINE
  5
365
100
AcDbEntity
  8
Layer_1
 62
7
100
AcDbSpline
 70
8
 71
3
 72
8
 73
4
 74
0
 40
0
 40
0
 40
0
 40
0
 40
1
 40
1
 40
1
 40
1
 10
268.988111
 20
92.435662
 30
0.0
 10
269.055043
 20
92.470724
 30
0.0
 10
269.120768
 20
92.509020
 30
0.0
 10
269.185064
 20
92.550552
 30
0.0
  0
LWPOLYLINE
  5
366
100
AcDbEntity
  8
Layer_1
 62
7
100
AcDbPolyline
 90
2
 70
0
 10
266.472132
 20
92.550544
 30
0.0
 10
265.128605
 20
92.550544
 30
0.0
  0
ENDSEC
  0
SECTION
  2
OBJECTS
  0
DICTIONARY
  5
C
330
0
100
AcDbDictionary
  3
ACAD_GROUP
350
D
  3
ACAD_MLINESTYLE
350
17
  0
DICTIONARY
  5
D
330
C
100
AcDbDictionary
  0
DICTIONARY
  5
1A
330
C
100
AcDbDictionary
  0
DICTIONARY
  5
17
330
C
100
AcDbDictionary
  3
STANDARD
350
18
  0
DICTIONARY
  5
19
330
C
100
AcDbDictionary
  0
ENDSEC
  0
EOF
