  0
SECTION
  2
HEADER
  9
$ACADVER
  1
AC1014
  9
$HANDSEED
  5
FFFF
  9
$MEASUREMENT
 70
     1
  0
ENDSEC
  0
SECTION
  2
TABLES
  0
TABLE
  2
VPORT
  5
8
330
0
100
AcDbSymbolTable
 70
     4
  0
VPORT
  5
2E
330
8
100
AcDbSymbolTableRecord
100
AcDbViewportTableRecord
  2
*ACTIVE
 70
     0
 10
0.0
 20
0.0
 11
1.0
 21
1.0
 12
210.0
 22
148.5
 13
0.0
 23
0.0
 14
10.0
 24
10.0
 15
10.0
 25
10.0
 16
0.0
 26
0.0
 36
1.0
 17
0.0
 27
0.0
 37
0.0
 40
341.0
 41
1.24
 42
50.0
 43
0.0
 44
0.0
 50
0.0
 51
0.0
 71
     0
 72
   100
 73
     1
 74
     3
 75
     0
 76
     0
 77
     0
 78
     0
  0
ENDTAB
  0
TABLE
  2
LTYPE
  5
5
330
0
100
AcDbSymbolTable
 70
     1
  0
LTYPE
  5
14
330
5
100
AcDbSymbolTableRecord
100
AcDbLinetypeTableRecord
  2
BYBLOCK
 70
     0
  3

 72
    65
 73
     0
 40
0.0
  0
LTYPE
  5
15
330
5
100
AcDbSymbolTableRecord
100
AcDbLinetypeTableRecord
  2
BYLAYER
 70
     0
  3

 72
    65
 73
     0
 40
0.0
  0
LTYPE
  5
16
330
5
100
AcDbSymbolTableRecord
100
AcDbLinetypeTableRecord
  2
CONTINUOUS
 70
     0
  3
Solid line
 72
    65
 73
     0
 40
0.0
  0
ENDTAB
  0
TABLE
  2
LAYER
  5
2
100
AcDbSymbolTable
 70
1
  0
LAYER
  5
50
100
AcDbSymbolTableRecord
100
AcDbLayerTableRecord
  2
0
 70
0
  6
CONTINUOUS
  0
ENDTAB
  0
TABLE
  2
STYLE
  5
3
330
0
100
AcDbSymbolTable
 70
     1
  0
STYLE
  5
11
330
3
100
AcDbSymbolTableRecord
100
AcDbTextStyleTableRecord
  2
STANDARD
 70
     0
 40
0.0
 41
1.0
 50
0.0
 71
     0
 42
2.5
  3
txt
  4

  0
ENDTAB
  0
TABLE
  2
VIEW
  5
6
330
0
100
AcDbSymbolTable
 70
     0
  0
ENDTAB
  0
TABLE
  2
UCS
  5
7
330
0
100
AcDbSymbolTable
 70
     0
  0
ENDTAB
  0
TABLE
  2
APPID
  5
9
330
0
100
AcDbSymbolTable
 70
     2
  0
APPID
  5
12
330
9
100
AcDbSymbolTableRecord
100
AcDbRegAppTableRecord
  2
ACAD
 70
     0
  0
ENDTAB
  0
TABLE
  2
DIMSTYLE
  5
A
330
0
100
AcDbSymbolTable
 70
     1
  0
DIMSTYLE
105
27
330
A
100
AcDbSymbolTableRecord
100
AcDbDimStyleTableRecord
  2
ISO-25
 70
     0
  3

  4

  5

  6

  7

 40
1.0
 41
2.5
 42
0.625
 43
3.75
 44
1.25
 45
0.0
 46
0.0
 47
0.0
 48
0.0
140
2.5
141
2.5
142
0.0
143
0.03937007874016
144
1.0
145
0.0
146
1.0
147
0.625
 71
     0
 72
     0
 73
     0
 74
     0
 75
     0
 76
     0
 77
     1
 78
     8
170
     0
171
     3
172
     1
173
     0
174
     0
175
     0
176
     0
177
     0
178
     0
270
     2
271
     2
272
     2
273
     2
274
     3
340
11
275
     0
280
     0
281
     0
282
     0
283
     0
284
     8
285
     0
286
     0
287
     3
288
     0
  0
ENDTAB
  0
TABLE
  2
BLOCK_RECORD
  5
1
330
0
100
AcDbSymbolTable
 70
     1
  0
BLOCK_RECORD
  5
1F
330
1
100
AcDbSymbolTableRecord
100
AcDbBlockTableRecord
  2
*MODEL_SPACE
  0
BLOCK_RECORD
  5
1B
330
1
100
AcDbSymbolTableRecord
100
AcDbBlockTableRecord
  2
*PAPER_SPACE
  0
ENDTAB
  0
ENDSEC
  0
SECTION
  2
BLOCKS
  0
BLOCK
  5
20
330
1F
100
AcDbEntity
  8
0
100
AcDbBlockBegin
  2
*MODEL_SPACE
 70
     0
 10
0.0
 20
0.0
 30
0.0
  3
*MODEL_SPACE
  1

  0
ENDBLK
  5
21
330
1F
100
AcDbEntity
  8
0
100
AcDbBlockEnd
  0
BLOCK
  5
1C
330
1B
100
AcDbEntity
 67
     1
  8
0
100
AcDbBlockBegin
  2
*PAPER_SPACE
  1

  0
ENDBLK
  5
1D
330
1B
100
AcDbEntity
 67
     1
  8
0
100
AcDbBlockEnd
  0
ENDSEC
  0
SECTION
  2
ENTITIES
  0
LINE
  5
100
100
AcDbEntity
  8
0
 62
7
100
AcDbLine
 10
382.202000
 20
139.551000
 30
0.0
 11
382.594000
 21
139.536000
 31
0.0
  0
LINE
  5
101
100
AcDbEntity
  8
0
 62
7
100
AcDbLine
 10
382.594000
 20
139.536000
 30
0.0
 11
382.984000
 21
139.490000
 31
0.0
  0
LINE
  5
102
100
AcDbEntity
  8
0
 62
7
100
AcDbLine
 10
382.984000
 20
139.490000
 30
0.0
 11
383.369000
 21
139.413000
 31
0.0
  0
LINE
  5
103
100
AcDbEntity
  8
0
 62
7
100
AcDbLine
 10
383.369000
 20
139.413000
 30
0.0
 11
383.747000
 21
139.307000
 31
0.0
  0
LINE
  5
104
100
AcDbEntity
  8
0
 62
7
100
AcDbLine
 10
383.747000
 20
139.307000
 30
0.0
 11
384.115000
 21
139.171000
 31
0.0
  0
LINE
  5
105
100
AcDbEntity
  8
0
 62
7
100
AcDbLine
 10
384.115000
 20
139.171000
 30
0.0
 11
384.471000
 21
139.007000
 31
0.0
  0
LINE
  5
106
100
AcDbEntity
  8
0
 62
7
100
AcDbLine
 10
384.471000
 20
139.007000
 30
0.0
 11
384.814000
 21
138.815000
 31
0.0
  0
LINE
  5
107
100
AcDbEntity
  8
0
 62
7
100
AcDbLine
 10
384.814000
 20
138.815000
 30
0.0
 11
385.140000
 21
138.597000
 31
0.0
  0
LINE
  5
108
100
AcDbEntity
  8
0
 62
7
100
AcDbLine
 10
385.140000
 20
138.597000
 30
0.0
 11
385.449000
 21
138.354000
 31
0.0
  0
LINE
  5
109
100
AcDbEntity
  8
0
 62
7
100
AcDbLine
 10
385.449000
 20
138.354000
 30
0.0
 11
385.737000
 21
138.087000
 31
0.0
  0
LINE
  5
10a
100
AcDbEntity
  8
0
 62
7
100
AcDbLine
 10
385.737000
 20
138.087000
 30
0.0
 11
386.004000
 21
137.799000
 31
0.0
  0
LINE
  5
10b
100
AcDbEntity
  8
0
 62
7
100
AcDbLine
 10
386.004000
 20
137.799000
 30
0.0
 11
386.247000
 21
137.490000
 31
0.0
  0
LINE
  5
10c
100
AcDbEntity
  8
0
 62
7
100
AcDbLine
 10
386.247000
 20
137.490000
 30
0.0
 11
386.465000
 21
137.164000
 31
0.0
  0
LINE
  5
10d
100
AcDbEntity
  8
0
 62
7
100
AcDbLine
 10
386.465000
 20
137.164000
 30
0.0
 11
386.657000
 21
136.821000
 31
0.0
  0
LINE
  5
10e
100
AcDbEntity
  8
0
 62
7
100
AcDbLine
 10
386.657000
 20
136.821000
 30
0.0
 11
386.821000
 21
136.465000
 31
0.0
  0
LINE
  5
10f
100
AcDbEntity
  8
0
 62
7
100
AcDbLine
 10
386.821000
 20
136.465000
 30
0.0
 11
386.957000
 21
136.097000
 31
0.0
  0
LINE
  5
110
100
AcDbEntity
  8
0
 62
7
100
AcDbLine
 10
386.957000
 20
136.097000
 30
0.0
 11
387.063000
 21
135.719000
 31
0.0
  0
LINE
  5
111
100
AcDbEntity
  8
0
 62
7
100
AcDbLine
 10
387.063000
 20
135.719000
 30
0.0
 11
387.140000
 21
135.334000
 31
0.0
  0
LINE
  5
112
100
AcDbEntity
  8
0
 62
7
100
AcDbLine
 10
387.140000
 20
135.334000
 30
0.0
 11
387.186000
 21
134.944000
 31
0.0
  0
LINE
  5
113
100
AcDbEntity
  8
0
 62
7
100
AcDbLine
 10
387.186000
 20
134.944000
 30
0.0
 11
387.201000
 21
134.551000
 31
0.0
  0
LINE
  5
114
100
AcDbEntity
  8
0
 62
7
100
AcDbLine
 10
387.201000
 20
134.551000
 30
0.0
 11
387.202000
 21
10.000000
 31
0.0
  0
LINE
  5
115
100
AcDbEntity
  8
0
 62
7
100
AcDbLine
 10
387.202000
 20
10.000000
 30
0.0
 11
387.186000
 21
9.608000
 31
0.0
  0
LINE
  5
116
100
AcDbEntity
  8
0
 62
7
100
AcDbLine
 10
387.186000
 20
9.608000
 30
0.0
 11
387.140000
 21
9.218000
 31
0.0
  0
LINE
  5
117
100
AcDbEntity
  8
0
 62
7
100
AcDbLine
 10
387.140000
 20
9.218000
 30
0.0
 11
387.063000
 21
8.833000
 31
0.0
  0
LINE
  5
118
100
AcDbEntity
  8
0
 62
7
100
AcDbLine
 10
387.063000
 20
8.833000
 30
0.0
 11
386.957000
 21
8.455000
 31
0.0
  0
LINE
  5
119
100
AcDbEntity
  8
0
 62
7
100
AcDbLine
 10
386.957000
 20
8.455000
 30
0.0
 11
386.821000
 21
8.087000
 31
0.0
  0
LINE
  5
11a
100
AcDbEntity
  8
0
 62
7
100
AcDbLine
 10
386.821000
 20
8.087000
 30
0.0
 11
386.657000
 21
7.731000
 31
0.0
  0
LINE
  5
11b
100
AcDbEntity
  8
0
 62
7
100
AcDbLine
 10
386.657000
 20
7.731000
 30
0.0
 11
386.465000
 21
7.388000
 31
0.0
  0
LINE
  5
11c
100
AcDbEntity
  8
0
 62
7
100
AcDbLine
 10
386.465000
 20
7.388000
 30
0.0
 11
386.247000
 21
7.062000
 31
0.0
  0
LINE
  5
11d
100
AcDbEntity
  8
0
 62
7
100
AcDbLine
 10
386.247000
 20
7.062000
 30
0.0
 11
386.004000
 21
6.753000
 31
0.0
  0
LINE
  5
11e
100
AcDbEntity
  8
0
 62
7
100
AcDbLine
 10
386.004000
 20
6.753000
 30
0.0
 11
385.737000
 21
6.465000
 31
0.0
  0
LINE
  5
11f
100
AcDbEntity
  8
0
 62
7
100
AcDbLine
 10
385.737000
 20
6.465000
 30
0.0
 11
385.449000
 21
6.198000
 31
0.0
  0
LINE
  5
120
100
AcDbEntity
  8
0
 62
7
100
AcDbLine
 10
385.449000
 20
6.198000
 30
0.0
 11
385.140000
 21
5.955000
 31
0.0
  0
LINE
  5
121
100
AcDbEntity
  8
0
 62
7
100
AcDbLine
 10
385.140000
 20
5.955000
 30
0.0
 11
384.814000
 21
5.737000
 31
0.0
  0
LINE
  5
122
100
AcDbEntity
  8
0
 62
7
100
AcDbLine
 10
384.814000
 20
5.737000
 30
0.0
 11
384.471000
 21
5.545000
 31
0.0
  0
LINE
  5
123
100
AcDbEntity
  8
0
 62
7
100
AcDbLine
 10
384.471000
 20
5.545000
 30
0.0
 11
384.115000
 21
5.381000
 31
0.0
  0
LINE
  5
124
100
AcDbEntity
  8
0
 62
7
100
AcDbLine
 10
384.115000
 20
5.381000
 30
0.0
 11
383.747000
 21
5.245000
 31
0.0
  0
LINE
  5
125
100
AcDbEntity
  8
0
 62
7
100
AcDbLine
 10
383.747000
 20
5.245000
 30
0.0
 11
383.369000
 21
5.139000
 31
0.0
  0
LINE
  5
126
100
AcDbEntity
  8
0
 62
7
100
AcDbLine
 10
383.369000
 20
5.139000
 30
0.0
 11
382.984000
 21
5.062000
 31
0.0
  0
LINE
  5
127
100
AcDbEntity
  8
0
 62
7
100
AcDbLine
 10
382.984000
 20
5.062000
 30
0.0
 11
382.594000
 21
5.016000
 31
0.0
  0
LINE
  5
128
100
AcDbEntity
  8
0
 62
7
100
AcDbLine
 10
382.594000
 20
5.016000
 30
0.0
 11
382.202000
 21
5.000000
 31
0.0
  0
LINE
  5
129
100
AcDbEntity
  8
0
 62
7
100
AcDbLine
 10
382.202000
 20
5.000000
 30
0.0
 11
10.001000
 21
5.000000
 31
0.0
  0
LINE
  5
12a
100
AcDbEntity
  8
0
 62
7
100
AcDbLine
 10
10.001000
 20
5.000000
 30
0.0
 11
9.608000
 21
5.016000
 31
0.0
  0
LINE
  5
12b
100
AcDbEntity
  8
0
 62
7
100
AcDbLine
 10
9.608000
 20
5.016000
 30
0.0
 11
9.218000
 21
5.062000
 31
0.0
  0
LINE
  5
12c
100
AcDbEntity
  8
0
 62
7
100
AcDbLine
 10
9.218000
 20
5.062000
 30
0.0
 11
8.833000
 21
5.139000
 31
0.0
  0
LINE
  5
12d
100
AcDbEntity
  8
0
 62
7
100
AcDbLine
 10
8.833000
 20
5.139000
 30
0.0
 11
8.455000
 21
5.245000
 31
0.0
  0
LINE
  5
12e
100
AcDbEntity
  8
0
 62
7
100
AcDbLine
 10
8.455000
 20
5.245000
 30
0.0
 11
8.087000
 21
5.381000
 31
0.0
  0
LINE
  5
12f
100
AcDbEntity
  8
0
 62
7
100
AcDbLine
 10
8.087000
 20
5.381000
 30
0.0
 11
7.731000
 21
5.545000
 31
0.0
  0
LINE
  5
130
100
AcDbEntity
  8
0
 62
7
100
AcDbLine
 10
7.731000
 20
5.545000
 30
0.0
 11
7.388000
 21
5.737000
 31
0.0
  0
LINE
  5
131
100
AcDbEntity
  8
0
 62
7
100
AcDbLine
 10
7.388000
 20
5.737000
 30
0.0
 11
7.062000
 21
5.955000
 31
0.0
  0
LINE
  5
132
100
AcDbEntity
  8
0
 62
7
100
AcDbLine
 10
7.062000
 20
5.955000
 30
0.0
 11
6.753000
 21
6.198000
 31
0.0
  0
LINE
  5
133
100
AcDbEntity
  8
0
 62
7
100
AcDbLine
 10
6.753000
 20
6.198000
 30
0.0
 11
6.465000
 21
6.465000
 31
0.0
  0
LINE
  5
134
100
AcDbEntity
  8
0
 62
7
100
AcDbLine
 10
6.465000
 20
6.465000
 30
0.0
 11
6.198000
 21
6.753000
 31
0.0
  0
LINE
  5
135
100
AcDbEntity
  8
0
 62
7
100
AcDbLine
 10
6.198000
 20
6.753000
 30
0.0
 11
5.955000
 21
7.062000
 31
0.0
  0
LINE
  5
136
100
AcDbEntity
  8
0
 62
7
100
AcDbLine
 10
5.955000
 20
7.062000
 30
0.0
 11
5.737000
 21
7.388000
 31
0.0
  0
LINE
  5
137
100
AcDbEntity
  8
0
 62
7
100
AcDbLine
 10
5.737000
 20
7.388000
 30
0.0
 11
5.545000
 21
7.731000
 31
0.0
  0
LINE
  5
138
100
AcDbEntity
  8
0
 62
7
100
AcDbLine
 10
5.545000
 20
7.731000
 30
0.0
 11
5.381000
 21
8.087000
 31
0.0
  0
LINE
  5
139
100
AcDbEntity
  8
0
 62
7
100
AcDbLine
 10
5.381000
 20
8.087000
 30
0.0
 11
5.245000
 21
8.455000
 31
0.0
  0
LINE
  5
13a
100
AcDbEntity
  8
0
 62
7
100
AcDbLine
 10
5.245000
 20
8.455000
 30
0.0
 11
5.139000
 21
8.833000
 31
0.0
  0
LINE
  5
13b
100
AcDbEntity
  8
0
 62
7
100
AcDbLine
 10
5.139000
 20
8.833000
 30
0.0
 11
5.062000
 21
9.218000
 31
0.0
  0
LINE
  5
13c
100
AcDbEntity
  8
0
 62
7
100
AcDbLine
 10
5.062000
 20
9.218000
 30
0.0
 11
5.016000
 21
9.608000
 31
0.0
  0
LINE
  5
13d
100
AcDbEntity
  8
0
 62
7
100
AcDbLine
 10
5.016000
 20
9.608000
 30
0.0
 11
5.000000
 21
10.000000
 31
0.0
  0
LINE
  5
13e
100
AcDbEntity
  8
0
 62
7
100
AcDbLine
 10
5.000000
 20
10.000000
 30
0.0
 11
5.001000
 21
134.551000
 31
0.0
  0
LINE
  5
13f
100
AcDbEntity
  8
0
 62
7
100
AcDbLine
 10
5.001000
 20
134.551000
 30
0.0
 11
5.016000
 21
134.944000
 31
0.0
  0
LINE
  5
140
100
AcDbEntity
  8
0
 62
7
100
AcDbLine
 10
5.016000
 20
134.944000
 30
0.0
 11
5.062000
 21
135.334000
 31
0.0
  0
LINE
  5
141
100
AcDbEntity
  8
0
 62
7
100
AcDbLine
 10
5.062000
 20
135.334000
 30
0.0
 11
5.139000
 21
135.719000
 31
0.0
  0
LINE
  5
142
100
AcDbEntity
  8
0
 62
7
100
AcDbLine
 10
5.139000
 20
135.719000
 30
0.0
 11
5.245000
 21
136.097000
 31
0.0
  0
LINE
  5
143
100
AcDbEntity
  8
0
 62
7
100
AcDbLine
 10
5.245000
 20
136.097000
 30
0.0
 11
5.381000
 21
136.465000
 31
0.0
  0
LINE
  5
144
100
AcDbEntity
  8
0
 62
7
100
AcDbLine
 10
5.381000
 20
136.465000
 30
0.0
 11
5.545000
 21
136.821000
 31
0.0
  0
LINE
  5
145
100
AcDbEntity
  8
0
 62
7
100
AcDbLine
 10
5.545000
 20
136.821000
 30
0.0
 11
5.737000
 21
137.164000
 31
0.0
  0
LINE
  5
146
100
AcDbEntity
  8
0
 62
7
100
AcDbLine
 10
5.737000
 20
137.164000
 30
0.0
 11
5.955000
 21
137.490000
 31
0.0
  0
LINE
  5
147
100
AcDbEntity
  8
0
 62
7
100
AcDbLine
 10
5.955000
 20
137.490000
 30
0.0
 11
6.198000
 21
137.799000
 31
0.0
  0
LINE
  5
148
100
AcDbEntity
  8
0
 62
7
100
AcDbLine
 10
6.198000
 20
137.799000
 30
0.0
 11
6.465000
 21
138.087000
 31
0.0
  0
LINE
  5
149
100
AcDbEntity
  8
0
 62
7
100
AcDbLine
 10
6.465000
 20
138.087000
 30
0.0
 11
6.753000
 21
138.354000
 31
0.0
  0
LINE
  5
14a
100
AcDbEntity
  8
0
 62
7
100
AcDbLine
 10
6.753000
 20
138.354000
 30
0.0
 11
7.062000
 21
138.597000
 31
0.0
  0
LINE
  5
14b
100
AcDbEntity
  8
0
 62
7
100
AcDbLine
 10
7.062000
 20
138.597000
 30
0.0
 11
7.388000
 21
138.815000
 31
0.0
  0
LINE
  5
14c
100
AcDbEntity
  8
0
 62
7
100
AcDbLine
 10
7.388000
 20
138.815000
 30
0.0
 11
7.731000
 21
139.007000
 31
0.0
  0
LINE
  5
14d
100
AcDbEntity
  8
0
 62
7
100
AcDbLine
 10
7.731000
 20
139.007000
 30
0.0
 11
8.087000
 21
139.171000
 31
0.0
  0
LINE
  5
14e
100
AcDbEntity
  8
0
 62
7
100
AcDbLine
 10
8.087000
 20
139.171000
 30
0.0
 11
8.455000
 21
139.307000
 31
0.0
  0
LINE
  5
14f
100
AcDbEntity
  8
0
 62
7
100
AcDbLine
 10
8.455000
 20
139.307000
 30
0.0
 11
8.833000
 21
139.413000
 31
0.0
  0
LINE
  5
150
100
AcDbEntity
  8
0
 62
7
100
AcDbLine
 10
8.833000
 20
139.413000
 30
0.0
 11
9.218000
 21
139.490000
 31
0.0
  0
LINE
  5
151
100
AcDbEntity
  8
0
 62
7
100
AcDbLine
 10
9.218000
 20
139.490000
 30
0.0
 11
9.608000
 21
139.536000
 31
0.0
  0
LINE
  5
152
100
AcDbEntity
  8
0
 62
7
100
AcDbLine
 10
9.608000
 20
139.536000
 30
0.0
 11
10.001000
 21
139.552000
 31
0.0
  0
LINE
  5
153
100
AcDbEntity
  8
0
 62
7
100
AcDbLine
 10
10.001000
 20
139.552000
 30
0.0
 11
382.202000
 21
139.551000
 31
0.0
  0
LINE
  5
154
100
AcDbEntity
  8
0
 62
7
100
AcDbLine
 10
381.636000
 20
11.481000
 30
0.0
 11
381.239000
 21
11.278000
 31
0.0
  0
LINE
  5
155
100
AcDbEntity
  8
0
 62
7
100
AcDbLine
 10
381.239000
 20
11.278000
 30
0.0
 11
380.924000
 21
10.963000
 31
0.0
  0
LINE
  5
156
100
AcDbEntity
  8
0
 62
7
100
AcDbLine
 10
380.924000
 20
10.963000
 30
0.0
 11
380.721000
 21
10.566000
 31
0.0
  0
LINE
  5
157
100
AcDbEntity
  8
0
 62
7
100
AcDbLine
 10
380.721000
 20
10.566000
 30
0.0
 11
380.652000
 21
10.125000
 31
0.0
  0
LINE
  5
158
100
AcDbEntity
  8
0
 62
7
100
AcDbLine
 10
380.652000
 20
10.125000
 30
0.0
 11
380.721000
 21
9.685000
 31
0.0
  0
LINE
  5
159
100
AcDbEntity
  8
0
 62
7
100
AcDbLine
 10
380.721000
 20
9.685000
 30
0.0
 11
380.924000
 21
9.288000
 31
0.0
  0
LINE
  5
15a
100
AcDbEntity
  8
0
 62
7
100
AcDbLine
 10
380.924000
 20
9.288000
 30
0.0
 11
381.239000
 21
8.973000
 31
0.0
  0
LINE
  5
15b
100
AcDbEntity
  8
0
 62
7
100
AcDbLine
 10
381.239000
 20
8.973000
 30
0.0
 11
381.636000
 21
8.770000
 31
0.0
  0
LINE
  5
15c
100
AcDbEntity
  8
0
 62
7
100
AcDbLine
 10
381.636000
 20
8.770000
 30
0.0
 11
382.077000
 21
8.701000
 31
0.0
  0
LINE
  5
15d
100
AcDbEntity
  8
0
 62
7
100
AcDbLine
 10
382.077000
 20
8.701000
 30
0.0
 11
382.517000
 21
8.770000
 31
0.0
  0
LINE
  5
15e
100
AcDbEntity
  8
0
 62
7
100
AcDbLine
 10
382.517000
 20
8.770000
 30
0.0
 11
382.914000
 21
8.973000
 31
0.0
  0
LINE
  5
15f
100
AcDbEntity
  8
0
 62
7
100
AcDbLine
 10
382.914000
 20
8.973000
 30
0.0
 11
383.229000
 21
9.288000
 31
0.0
  0
LINE
  5
160
100
AcDbEntity
  8
0
 62
7
100
AcDbLine
 10
383.229000
 20
9.288000
 30
0.0
 11
383.432000
 21
9.685000
 31
0.0
  0
LINE
  5
161
100
AcDbEntity
  8
0
 62
7
100
AcDbLine
 10
383.432000
 20
9.685000
 30
0.0
 11
383.502000
 21
10.125000
 31
0.0
  0
LINE
  5
162
100
AcDbEntity
  8
0
 62
7
100
AcDbLine
 10
383.502000
 20
10.125000
 30
0.0
 11
383.432000
 21
10.566000
 31
0.0
  0
LINE
  5
163
100
AcDbEntity
  8
0
 62
7
100
AcDbLine
 10
383.432000
 20
10.566000
 30
0.0
 11
383.229000
 21
10.963000
 31
0.0
  0
LINE
  5
164
100
AcDbEntity
  8
0
 62
7
100
AcDbLine
 10
383.229000
 20
10.963000
 30
0.0
 11
382.914000
 21
11.278000
 31
0.0
  0
LINE
  5
165
100
AcDbEntity
  8
0
 62
7
100
AcDbLine
 10
382.914000
 20
11.278000
 30
0.0
 11
382.517000
 21
11.481000
 31
0.0
  0
LINE
  5
166
100
AcDbEntity
  8
0
 62
7
100
AcDbLine
 10
382.517000
 20
11.481000
 30
0.0
 11
382.077000
 21
11.550000
 31
0.0
  0
LINE
  5
167
100
AcDbEntity
  8
0
 62
7
100
AcDbLine
 10
382.077000
 20
11.550000
 30
0.0
 11
381.636000
 21
11.481000
 31
0.0
  0
LINE
  5
168
100
AcDbEntity
  8
0
 62
7
100
AcDbLine
 10
307.246000
 20
11.481000
 30
0.0
 11
306.849000
 21
11.278000
 31
0.0
  0
LINE
  5
169
100
AcDbEntity
  8
0
 62
7
100
AcDbLine
 10
306.849000
 20
11.278000
 30
0.0
 11
306.533000
 21
10.963000
 31
0.0
  0
LINE
  5
16a
100
AcDbEntity
  8
0
 62
7
100
AcDbLine
 10
306.533000
 20
10.963000
 30
0.0
 11
306.331000
 21
10.566000
 31
0.0
  0
LINE
  5
16b
100
AcDbEntity
  8
0
 62
7
100
AcDbLine
 10
306.331000
 20
10.566000
 30
0.0
 11
306.261000
 21
10.125000
 31
0.0
  0
LINE
  5
16c
100
AcDbEntity
  8
0
 62
7
100
AcDbLine
 10
306.261000
 20
10.125000
 30
0.0
 11
306.331000
 21
9.685000
 31
0.0
  0
LINE
  5
16d
100
AcDbEntity
  8
0
 62
7
100
AcDbLine
 10
306.331000
 20
9.685000
 30
0.0
 11
306.533000
 21
9.288000
 31
0.0
  0
LINE
  5
16e
100
AcDbEntity
  8
0
 62
7
100
AcDbLine
 10
306.533000
 20
9.288000
 30
0.0
 11
306.849000
 21
8.973000
 31
0.0
  0
LINE
  5
16f
100
AcDbEntity
  8
0
 62
7
100
AcDbLine
 10
306.849000
 20
8.973000
 30
0.0
 11
307.246000
 21
8.770000
 31
0.0
  0
LINE
  5
170
100
AcDbEntity
  8
0
 62
7
100
AcDbLine
 10
307.246000
 20
8.770000
 30
0.0
 11
307.686000
 21
8.701000
 31
0.0
  0
LINE
  5
171
100
AcDbEntity
  8
0
 62
7
100
AcDbLine
 10
307.686000
 20
8.701000
 30
0.0
 11
308.127000
 21
8.770000
 31
0.0
  0
LINE
  5
172
100
AcDbEntity
  8
0
 62
7
100
AcDbLine
 10
308.127000
 20
8.770000
 30
0.0
 11
308.524000
 21
8.973000
 31
0.0
  0
LINE
  5
173
100
AcDbEntity
  8
0
 62
7
100
AcDbLine
 10
308.524000
 20
8.973000
 30
0.0
 11
308.839000
 21
9.288000
 31
0.0
  0
LINE
  5
174
100
AcDbEntity
  8
0
 62
7
100
AcDbLine
 10
308.839000
 20
9.288000
 30
0.0
 11
309.042000
 21
9.685000
 31
0.0
  0
LINE
  5
175
100
AcDbEntity
  8
0
 62
7
100
AcDbLine
 10
309.042000
 20
9.685000
 30
0.0
 11
309.111000
 21
10.125000
 31
0.0
  0
LINE
  5
176
100
AcDbEntity
  8
0
 62
7
100
AcDbLine
 10
309.111000
 20
10.125000
 30
0.0
 11
309.042000
 21
10.566000
 31
0.0
  0
LINE
  5
177
100
AcDbEntity
  8
0
 62
7
100
AcDbLine
 10
309.042000
 20
10.566000
 30
0.0
 11
308.839000
 21
10.963000
 31
0.0
  0
LINE
  5
178
100
AcDbEntity
  8
0
 62
7
100
AcDbLine
 10
308.839000
 20
10.963000
 30
0.0
 11
308.524000
 21
11.278000
 31
0.0
  0
LINE
  5
179
100
AcDbEntity
  8
0
 62
7
100
AcDbLine
 10
308.524000
 20
11.278000
 30
0.0
 11
308.127000
 21
11.481000
 31
0.0
  0
LINE
  5
17a
100
AcDbEntity
  8
0
 62
7
100
AcDbLine
 10
308.127000
 20
11.481000
 30
0.0
 11
307.686000
 21
11.550000
 31
0.0
  0
LINE
  5
17b
100
AcDbEntity
  8
0
 62
7
100
AcDbLine
 10
307.686000
 20
11.550000
 30
0.0
 11
307.246000
 21
11.481000
 31
0.0
  0
LINE
  5
17c
100
AcDbEntity
  8
0
 62
7
100
AcDbLine
 10
232.856000
 20
11.481000
 30
0.0
 11
232.459000
 21
11.278000
 31
0.0
  0
LINE
  5
17d
100
AcDbEntity
  8
0
 62
7
100
AcDbLine
 10
232.459000
 20
11.278000
 30
0.0
 11
232.143000
 21
10.963000
 31
0.0
  0
LINE
  5
17e
100
AcDbEntity
  8
0
 62
7
100
AcDbLine
 10
232.143000
 20
10.963000
 30
0.0
 11
231.941000
 21
10.566000
 31
0.0
  0
LINE
  5
17f
100
AcDbEntity
  8
0
 62
7
100
AcDbLine
 10
231.941000
 20
10.566000
 30
0.0
 11
231.871000
 21
10.125000
 31
0.0
  0
LINE
  5
180
100
AcDbEntity
  8
0
 62
7
100
AcDbLine
 10
231.871000
 20
10.125000
 30
0.0
 11
231.941000
 21
9.685000
 31
0.0
  0
LINE
  5
181
100
AcDbEntity
  8
0
 62
7
100
AcDbLine
 10
231.941000
 20
9.685000
 30
0.0
 11
232.143000
 21
9.288000
 31
0.0
  0
LINE
  5
182
100
AcDbEntity
  8
0
 62
7
100
AcDbLine
 10
232.143000
 20
9.288000
 30
0.0
 11
232.459000
 21
8.973000
 31
0.0
  0
LINE
  5
183
100
AcDbEntity
  8
0
 62
7
100
AcDbLine
 10
232.459000
 20
8.973000
 30
0.0
 11
232.856000
 21
8.770000
 31
0.0
  0
LINE
  5
184
100
AcDbEntity
  8
0
 62
7
100
AcDbLine
 10
232.856000
 20
8.770000
 30
0.0
 11
233.296000
 21
8.701000
 31
0.0
  0
LINE
  5
185
100
AcDbEntity
  8
0
 62
7
100
AcDbLine
 10
233.296000
 20
8.701000
 30
0.0
 11
233.736000
 21
8.770000
 31
0.0
  0
LINE
  5
186
100
AcDbEntity
  8
0
 62
7
100
AcDbLine
 10
233.736000
 20
8.770000
 30
0.0
 11
234.134000
 21
8.973000
 31
0.0
  0
LINE
  5
187
100
AcDbEntity
  8
0
 62
7
100
AcDbLine
 10
234.134000
 20
8.973000
 30
0.0
 11
234.449000
 21
9.288000
 31
0.0
  0
LINE
  5
188
100
AcDbEntity
  8
0
 62
7
100
AcDbLine
 10
234.449000
 20
9.288000
 30
0.0
 11
234.651000
 21
9.685000
 31
0.0
  0
LINE
  5
189
100
AcDbEntity
  8
0
 62
7
100
AcDbLine
 10
234.651000
 20
9.685000
 30
0.0
 11
234.721000
 21
10.125000
 31
0.0
  0
LINE
  5
18a
100
AcDbEntity
  8
0
 62
7
100
AcDbLine
 10
234.721000
 20
10.125000
 30
0.0
 11
234.651000
 21
10.566000
 31
0.0
  0
LINE
  5
18b
100
AcDbEntity
  8
0
 62
7
100
AcDbLine
 10
234.651000
 20
10.566000
 30
0.0
 11
234.449000
 21
10.963000
 31
0.0
  0
LINE
  5
18c
100
AcDbEntity
  8
0
 62
7
100
AcDbLine
 10
234.449000
 20
10.963000
 30
0.0
 11
234.134000
 21
11.278000
 31
0.0
  0
LINE
  5
18d
100
AcDbEntity
  8
0
 62
7
100
AcDbLine
 10
234.134000
 20
11.278000
 30
0.0
 11
233.736000
 21
11.481000
 31
0.0
  0
LINE
  5
18e
100
AcDbEntity
  8
0
 62
7
100
AcDbLine
 10
233.736000
 20
11.481000
 30
0.0
 11
233.296000
 21
11.550000
 31
0.0
  0
LINE
  5
18f
100
AcDbEntity
  8
0
 62
7
100
AcDbLine
 10
233.296000
 20
11.550000
 30
0.0
 11
232.856000
 21
11.481000
 31
0.0
  0
LINE
  5
190
100
AcDbEntity
  8
0
 62
7
100
AcDbLine
 10
158.466000
 20
11.481000
 30
0.0
 11
158.068000
 21
11.278000
 31
0.0
  0
LINE
  5
191
100
AcDbEntity
  8
0
 62
7
100
AcDbLine
 10
158.068000
 20
11.278000
 30
0.0
 11
157.753000
 21
10.963000
 31
0.0
  0
LINE
  5
192
100
AcDbEntity
  8
0
 62
7
100
AcDbLine
 10
157.753000
 20
10.963000
 30
0.0
 11
157.551000
 21
10.566000
 31
0.0
  0
LINE
  5
193
100
AcDbEntity
  8
0
 62
7
100
AcDbLine
 10
157.551000
 20
10.566000
 30
0.0
 11
157.481000
 21
10.125000
 31
0.0
  0
LINE
  5
194
100
AcDbEntity
  8
0
 62
7
100
AcDbLine
 10
157.481000
 20
10.125000
 30
0.0
 11
157.551000
 21
9.685000
 31
0.0
  0
LINE
  5
195
100
AcDbEntity
  8
0
 62
7
100
AcDbLine
 10
157.551000
 20
9.685000
 30
0.0
 11
157.753000
 21
9.288000
 31
0.0
  0
LINE
  5
196
100
AcDbEntity
  8
0
 62
7
100
AcDbLine
 10
157.753000
 20
9.288000
 30
0.0
 11
158.068000
 21
8.973000
 31
0.0
  0
LINE
  5
197
100
AcDbEntity
  8
0
 62
7
100
AcDbLine
 10
158.068000
 20
8.973000
 30
0.0
 11
158.466000
 21
8.770000
 31
0.0
  0
LINE
  5
198
100
AcDbEntity
  8
0
 62
7
100
AcDbLine
 10
158.466000
 20
8.770000
 30
0.0
 11
158.906000
 21
8.701000
 31
0.0
  0
LINE
  5
199
100
AcDbEntity
  8
0
 62
7
100
AcDbLine
 10
158.906000
 20
8.701000
 30
0.0
 11
159.346000
 21
8.770000
 31
0.0
  0
LINE
  5
19a
100
AcDbEntity
  8
0
 62
7
100
AcDbLine
 10
159.346000
 20
8.770000
 30
0.0
 11
159.743000
 21
8.973000
 31
0.0
  0
LINE
  5
19b
100
AcDbEntity
  8
0
 62
7
100
AcDbLine
 10
159.743000
 20
8.973000
 30
0.0
 11
160.059000
 21
9.288000
 31
0.0
  0
LINE
  5
19c
100
AcDbEntity
  8
0
 62
7
100
AcDbLine
 10
160.059000
 20
9.288000
 30
0.0
 11
160.261000
 21
9.685000
 31
0.0
  0
LINE
  5
19d
100
AcDbEntity
  8
0
 62
7
100
AcDbLine
 10
160.261000
 20
9.685000
 30
0.0
 11
160.331000
 21
10.125000
 31
0.0
  0
LINE
  5
19e
100
AcDbEntity
  8
0
 62
7
100
AcDbLine
 10
160.331000
 20
10.125000
 30
0.0
 11
160.261000
 21
10.566000
 31
0.0
  0
LINE
  5
19f
100
AcDbEntity
  8
0
 62
7
100
AcDbLine
 10
160.261000
 20
10.566000
 30
0.0
 11
160.059000
 21
10.963000
 31
0.0
  0
LINE
  5
1a0
100
AcDbEntity
  8
0
 62
7
100
AcDbLine
 10
160.059000
 20
10.963000
 30
0.0
 11
159.743000
 21
11.278000
 31
0.0
  0
LINE
  5
1a1
100
AcDbEntity
  8
0
 62
7
100
AcDbLine
 10
159.743000
 20
11.278000
 30
0.0
 11
159.346000
 21
11.481000
 31
0.0
  0
LINE
  5
1a2
100
AcDbEntity
  8
0
 62
7
100
AcDbLine
 10
159.346000
 20
11.481000
 30
0.0
 11
158.906000
 21
11.550000
 31
0.0
  0
LINE
  5
1a3
100
AcDbEntity
  8
0
 62
7
100
AcDbLine
 10
158.906000
 20
11.550000
 30
0.0
 11
158.466000
 21
11.481000
 31
0.0
  0
LINE
  5
1a4
100
AcDbEntity
  8
0
 62
7
100
AcDbLine
 10
84.075000
 20
11.481000
 30
0.0
 11
83.678000
 21
11.278000
 31
0.0
  0
LINE
  5
1a5
100
AcDbEntity
  8
0
 62
7
100
AcDbLine
 10
83.678000
 20
11.278000
 30
0.0
 11
83.363000
 21
10.963000
 31
0.0
  0
LINE
  5
1a6
100
AcDbEntity
  8
0
 62
7
100
AcDbLine
 10
83.363000
 20
10.963000
 30
0.0
 11
83.160000
 21
10.566000
 31
0.0
  0
LINE
  5
1a7
100
AcDbEntity
  8
0
 62
7
100
AcDbLine
 10
83.160000
 20
10.566000
 30
0.0
 11
83.091000
 21
10.125000
 31
0.0
  0
LINE
  5
1a8
100
AcDbEntity
  8
0
 62
7
100
AcDbLine
 10
83.091000
 20
10.125000
 30
0.0
 11
83.160000
 21
9.685000
 31
0.0
  0
LINE
  5
1a9
100
AcDbEntity
  8
0
 62
7
100
AcDbLine
 10
83.160000
 20
9.685000
 30
0.0
 11
83.363000
 21
9.288000
 31
0.0
  0
LINE
  5
1aa
100
AcDbEntity
  8
0
 62
7
100
AcDbLine
 10
83.363000
 20
9.288000
 30
0.0
 11
83.678000
 21
8.973000
 31
0.0
  0
LINE
  5
1ab
100
AcDbEntity
  8
0
 62
7
100
AcDbLine
 10
83.678000
 20
8.973000
 30
0.0
 11
84.075000
 21
8.770000
 31
0.0
  0
LINE
  5
1ac
100
AcDbEntity
  8
0
 62
7
100
AcDbLine
 10
84.075000
 20
8.770000
 30
0.0
 11
84.516000
 21
8.701000
 31
0.0
  0
LINE
  5
1ad
100
AcDbEntity
  8
0
 62
7
100
AcDbLine
 10
84.516000
 20
8.701000
 30
0.0
 11
84.956000
 21
8.770000
 31
0.0
  0
LINE
  5
1ae
100
AcDbEntity
  8
0
 62
7
100
AcDbLine
 10
84.956000
 20
8.770000
 30
0.0
 11
85.353000
 21
8.973000
 31
0.0
  0
LINE
  5
1af
100
AcDbEntity
  8
0
 62
7
100
AcDbLine
 10
85.353000
 20
8.973000
 30
0.0
 11
85.669000
 21
9.288000
 31
0.0
  0
LINE
  5
1b0
100
AcDbEntity
  8
0
 62
7
100
AcDbLine
 10
85.669000
 20
9.288000
 30
0.0
 11
85.871000
 21
9.685000
 31
0.0
  0
LINE
  5
1b1
100
AcDbEntity
  8
0
 62
7
100
AcDbLine
 10
85.871000
 20
9.685000
 30
0.0
 11
85.941000
 21
10.125000
 31
0.0
  0
LINE
  5
1b2
100
AcDbEntity
  8
0
 62
7
100
AcDbLine
 10
85.941000
 20
10.125000
 30
0.0
 11
85.871000
 21
10.566000
 31
0.0
  0
LINE
  5
1b3
100
AcDbEntity
  8
0
 62
7
100
AcDbLine
 10
85.871000
 20
10.566000
 30
0.0
 11
85.669000
 21
10.963000
 31
0.0
  0
LINE
  5
1b4
100
AcDbEntity
  8
0
 62
7
100
AcDbLine
 10
85.669000
 20
10.963000
 30
0.0
 11
85.353000
 21
11.278000
 31
0.0
  0
LINE
  5
1b5
100
AcDbEntity
  8
0
 62
7
100
AcDbLine
 10
85.353000
 20
11.278000
 30
0.0
 11
84.956000
 21
11.481000
 31
0.0
  0
LINE
  5
1b6
100
AcDbEntity
  8
0
 62
7
100
AcDbLine
 10
84.956000
 20
11.481000
 30
0.0
 11
84.516000
 21
11.550000
 31
0.0
  0
LINE
  5
1b7
100
AcDbEntity
  8
0
 62
7
100
AcDbLine
 10
84.516000
 20
11.550000
 30
0.0
 11
84.075000
 21
11.481000
 31
0.0
  0
LINE
  5
1b8
100
AcDbEntity
  8
0
 62
7
100
AcDbLine
 10
9.685000
 20
11.481000
 30
0.0
 11
9.288000
 21
11.278000
 31
0.0
  0
LINE
  5
1b9
100
AcDbEntity
  8
0
 62
7
100
AcDbLine
 10
9.288000
 20
11.278000
 30
0.0
 11
8.973000
 21
10.963000
 31
0.0
  0
LINE
  5
1ba
100
AcDbEntity
  8
0
 62
7
100
AcDbLine
 10
8.973000
 20
10.963000
 30
0.0
 11
8.770000
 21
10.566000
 31
0.0
  0
LINE
  5
1bb
100
AcDbEntity
  8
0
 62
7
100
AcDbLine
 10
8.770000
 20
10.566000
 30
0.0
 11
8.701000
 21
10.125000
 31
0.0
  0
LINE
  5
1bc
100
AcDbEntity
  8
0
 62
7
100
AcDbLine
 10
8.701000
 20
10.125000
 30
0.0
 11
8.770000
 21
9.685000
 31
0.0
  0
LINE
  5
1bd
100
AcDbEntity
  8
0
 62
7
100
AcDbLine
 10
8.770000
 20
9.685000
 30
0.0
 11
8.973000
 21
9.288000
 31
0.0
  0
LINE
  5
1be
100
AcDbEntity
  8
0
 62
7
100
AcDbLine
 10
8.973000
 20
9.288000
 30
0.0
 11
9.288000
 21
8.973000
 31
0.0
  0
LINE
  5
1bf
100
AcDbEntity
  8
0
 62
7
100
AcDbLine
 10
9.288000
 20
8.973000
 30
0.0
 11
9.685000
 21
8.770000
 31
0.0
  0
LINE
  5
1c0
100
AcDbEntity
  8
0
 62
7
100
AcDbLine
 10
9.685000
 20
8.770000
 30
0.0
 11
10.126000
 21
8.701000
 31
0.0
  0
LINE
  5
1c1
100
AcDbEntity
  8
0
 62
7
100
AcDbLine
 10
10.126000
 20
8.701000
 30
0.0
 11
10.566000
 21
8.770000
 31
0.0
  0
LINE
  5
1c2
100
AcDbEntity
  8
0
 62
7
100
AcDbLine
 10
10.566000
 20
8.770000
 30
0.0
 11
10.963000
 21
8.973000
 31
0.0
  0
LINE
  5
1c3
100
AcDbEntity
  8
0
 62
7
100
AcDbLine
 10
10.963000
 20
8.973000
 30
0.0
 11
11.278000
 21
9.288000
 31
0.0
  0
LINE
  5
1c4
100
AcDbEntity
  8
0
 62
7
100
AcDbLine
 10
11.278000
 20
9.288000
 30
0.0
 11
11.481000
 21
9.685000
 31
0.0
  0
LINE
  5
1c5
100
AcDbEntity
  8
0
 62
7
100
AcDbLine
 10
11.481000
 20
9.685000
 30
0.0
 11
11.551000
 21
10.125000
 31
0.0
  0
LINE
  5
1c6
100
AcDbEntity
  8
0
 62
7
100
AcDbLine
 10
11.551000
 20
10.125000
 30
0.0
 11
11.481000
 21
10.566000
 31
0.0
  0
LINE
  5
1c7
100
AcDbEntity
  8
0
 62
7
100
AcDbLine
 10
11.481000
 20
10.566000
 30
0.0
 11
11.278000
 21
10.963000
 31
0.0
  0
LINE
  5
1c8
100
AcDbEntity
  8
0
 62
7
100
AcDbLine
 10
11.278000
 20
10.963000
 30
0.0
 11
10.963000
 21
11.278000
 31
0.0
  0
LINE
  5
1c9
100
AcDbEntity
  8
0
 62
7
100
AcDbLine
 10
10.963000
 20
11.278000
 30
0.0
 11
10.566000
 21
11.481000
 31
0.0
  0
LINE
  5
1ca
100
AcDbEntity
  8
0
 62
7
100
AcDbLine
 10
10.566000
 20
11.481000
 30
0.0
 11
10.126000
 21
11.550000
 31
0.0
  0
LINE
  5
1cb
100
AcDbEntity
  8
0
 62
7
100
AcDbLine
 10
10.126000
 20
11.550000
 30
0.0
 11
9.685000
 21
11.481000
 31
0.0
  0
LINE
  5
1cc
100
AcDbEntity
  8
0
 62
7
100
AcDbLine
 10
15.124000
 20
129.428000
 30
0.0
 11
15.124000
 21
91.325000
 31
0.0
  0
LINE
  5
1cd
100
AcDbEntity
  8
0
 62
7
100
AcDbLine
 10
15.124000
 20
91.325000
 30
0.0
 11
15.125000
 21
91.325000
 31
0.0
  0
LINE
  5
1ce
100
AcDbEntity
  8
0
 62
7
100
AcDbLine
 10
15.125000
 20
91.325000
 30
0.0
 11
15.125000
 21
72.277000
 31
0.0
  0
LINE
  5
1cf
100
AcDbEntity
  8
0
 62
7
100
AcDbLine
 10
15.125000
 20
72.277000
 30
0.0
 11
15.124000
 21
72.277000
 31
0.0
  0
LINE
  5
1d0
100
AcDbEntity
  8
0
 62
7
100
AcDbLine
 10
15.124000
 20
72.277000
 30
0.0
 11
15.124000
 21
53.225000
 31
0.0
  0
LINE
  5
1d1
100
AcDbEntity
  8
0
 62
7
100
AcDbLine
 10
15.124000
 20
53.225000
 30
0.0
 11
15.125000
 21
53.225000
 31
0.0
  0
LINE
  5
1d2
100
AcDbEntity
  8
0
 62
7
100
AcDbLine
 10
15.125000
 20
53.225000
 30
0.0
 11
15.125000
 21
15.126000
 31
0.0
  0
LINE
  5
1d3
100
AcDbEntity
  8
0
 62
7
100
AcDbLine
 10
15.125000
 20
15.126000
 30
0.0
 11
377.077000
 21
15.126000
 31
0.0
  0
LINE
  5
1d4
100
AcDbEntity
  8
0
 62
7
100
AcDbLine
 10
377.077000
 20
15.126000
 30
0.0
 11
377.077000
 21
129.428000
 31
0.0
  0
LINE
  5
1d5
100
AcDbEntity
  8
0
 62
7
100
AcDbLine
 10
377.077000
 20
129.428000
 30
0.0
 11
15.124000
 21
129.428000
 31
0.0
  0
LINE
  5
1d6
100
AcDbEntity
  8
0
 62
7
100
AcDbLine
 10
381.636000
 20
73.631000
 30
0.0
 11
381.239000
 21
73.429000
 31
0.0
  0
LINE
  5
1d7
100
AcDbEntity
  8
0
 62
7
100
AcDbLine
 10
381.239000
 20
73.429000
 30
0.0
 11
380.924000
 21
73.114000
 31
0.0
  0
LINE
  5
1d8
100
AcDbEntity
  8
0
 62
7
100
AcDbLine
 10
380.924000
 20
73.114000
 30
0.0
 11
380.721000
 21
72.716000
 31
0.0
  0
LINE
  5
1d9
100
AcDbEntity
  8
0
 62
7
100
AcDbLine
 10
380.721000
 20
72.716000
 30
0.0
 11
380.652000
 21
72.276000
 31
0.0
  0
LINE
  5
1da
100
AcDbEntity
  8
0
 62
7
100
AcDbLine
 10
380.652000
 20
72.276000
 30
0.0
 11
380.721000
 21
71.836000
 31
0.0
  0
LINE
  5
1db
100
AcDbEntity
  8
0
 62
7
100
AcDbLine
 10
380.721000
 20
71.836000
 30
0.0
 11
380.924000
 21
71.438000
 31
0.0
  0
LINE
  5
1dc
100
AcDbEntity
  8
0
 62
7
100
AcDbLine
 10
380.924000
 20
71.438000
 30
0.0
 11
381.239000
 21
71.123000
 31
0.0
  0
LINE
  5
1dd
100
AcDbEntity
  8
0
 62
7
100
AcDbLine
 10
381.239000
 20
71.123000
 30
0.0
 11
381.636000
 21
70.921000
 31
0.0
  0
LINE
  5
1de
100
AcDbEntity
  8
0
 62
7
100
AcDbLine
 10
381.636000
 20
70.921000
 30
0.0
 11
382.077000
 21
70.851000
 31
0.0
  0
LINE
  5
1df
100
AcDbEntity
  8
0
 62
7
100
AcDbLine
 10
382.077000
 20
70.851000
 30
0.0
 11
382.517000
 21
70.921000
 31
0.0
  0
LINE
  5
1e0
100
AcDbEntity
  8
0
 62
7
100
AcDbLine
 10
382.517000
 20
70.921000
 30
0.0
 11
382.914000
 21
71.123000
 31
0.0
  0
LINE
  5
1e1
100
AcDbEntity
  8
0
 62
7
100
AcDbLine
 10
382.914000
 20
71.123000
 30
0.0
 11
383.229000
 21
71.438000
 31
0.0
  0
LINE
  5
1e2
100
AcDbEntity
  8
0
 62
7
100
AcDbLine
 10
383.229000
 20
71.438000
 30
0.0
 11
383.432000
 21
71.836000
 31
0.0
  0
LINE
  5
1e3
100
AcDbEntity
  8
0
 62
7
100
AcDbLine
 10
383.432000
 20
71.836000
 30
0.0
 11
383.502000
 21
72.276000
 31
0.0
  0
LINE
  5
1e4
100
AcDbEntity
  8
0
 62
7
100
AcDbLine
 10
383.502000
 20
72.276000
 30
0.0
 11
383.432000
 21
72.716000
 31
0.0
  0
LINE
  5
1e5
100
AcDbEntity
  8
0
 62
7
100
AcDbLine
 10
383.432000
 20
72.716000
 30
0.0
 11
383.229000
 21
73.114000
 31
0.0
  0
LINE
  5
1e6
100
AcDbEntity
  8
0
 62
7
100
AcDbLine
 10
383.229000
 20
73.114000
 30
0.0
 11
382.914000
 21
73.429000
 31
0.0
  0
LINE
  5
1e7
100
AcDbEntity
  8
0
 62
7
100
AcDbLine
 10
382.914000
 20
73.429000
 30
0.0
 11
382.517000
 21
73.631000
 31
0.0
  0
LINE
  5
1e8
100
AcDbEntity
  8
0
 62
7
100
AcDbLine
 10
382.517000
 20
73.631000
 30
0.0
 11
382.077000
 21
73.701000
 31
0.0
  0
LINE
  5
1e9
100
AcDbEntity
  8
0
 62
7
100
AcDbLine
 10
382.077000
 20
73.701000
 30
0.0
 11
381.636000
 21
73.631000
 31
0.0
  0
LINE
  5
1ea
100
AcDbEntity
  8
0
 62
7
100
AcDbLine
 10
9.685000
 20
73.631000
 30
0.0
 11
9.288000
 21
73.429000
 31
0.0
  0
LINE
  5
1eb
100
AcDbEntity
  8
0
 62
7
100
AcDbLine
 10
9.288000
 20
73.429000
 30
0.0
 11
8.973000
 21
73.114000
 31
0.0
  0
LINE
  5
1ec
100
AcDbEntity
  8
0
 62
7
100
AcDbLine
 10
8.973000
 20
73.114000
 30
0.0
 11
8.770000
 21
72.716000
 31
0.0
  0
LINE
  5
1ed
100
AcDbEntity
  8
0
 62
7
100
AcDbLine
 10
8.770000
 20
72.716000
 30
0.0
 11
8.701000
 21
72.276000
 31
0.0
  0
LINE
  5
1ee
100
AcDbEntity
  8
0
 62
7
100
AcDbLine
 10
8.701000
 20
72.276000
 30
0.0
 11
8.770000
 21
71.836000
 31
0.0
  0
LINE
  5
1ef
100
AcDbEntity
  8
0
 62
7
100
AcDbLine
 10
8.770000
 20
71.836000
 30
0.0
 11
8.973000
 21
71.438000
 31
0.0
  0
LINE
  5
1f0
100
AcDbEntity
  8
0
 62
7
100
AcDbLine
 10
8.973000
 20
71.438000
 30
0.0
 11
9.288000
 21
71.123000
 31
0.0
  0
LINE
  5
1f1
100
AcDbEntity
  8
0
 62
7
100
AcDbLine
 10
9.288000
 20
71.123000
 30
0.0
 11
9.685000
 21
70.921000
 31
0.0
  0
LINE
  5
1f2
100
AcDbEntity
  8
0
 62
7
100
AcDbLine
 10
9.685000
 20
70.921000
 30
0.0
 11
10.126000
 21
70.851000
 31
0.0
  0
LINE
  5
1f3
100
AcDbEntity
  8
0
 62
7
100
AcDbLine
 10
10.126000
 20
70.851000
 30
0.0
 11
10.566000
 21
70.921000
 31
0.0
  0
LINE
  5
1f4
100
AcDbEntity
  8
0
 62
7
100
AcDbLine
 10
10.566000
 20
70.921000
 30
0.0
 11
10.963000
 21
71.123000
 31
0.0
  0
LINE
  5
1f5
100
AcDbEntity
  8
0
 62
7
100
AcDbLine
 10
10.963000
 20
71.123000
 30
0.0
 11
11.278000
 21
71.438000
 31
0.0
  0
LINE
  5
1f6
100
AcDbEntity
  8
0
 62
7
100
AcDbLine
 10
11.278000
 20
71.438000
 30
0.0
 11
11.481000
 21
71.836000
 31
0.0
  0
LINE
  5
1f7
100
AcDbEntity
  8
0
 62
7
100
AcDbLine
 10
11.481000
 20
71.836000
 30
0.0
 11
11.551000
 21
72.276000
 31
0.0
  0
LINE
  5
1f8
100
AcDbEntity
  8
0
 62
7
100
AcDbLine
 10
11.551000
 20
72.276000
 30
0.0
 11
11.481000
 21
72.716000
 31
0.0
  0
LINE
  5
1f9
100
AcDbEntity
  8
0
 62
7
100
AcDbLine
 10
11.481000
 20
72.716000
 30
0.0
 11
11.278000
 21
73.114000
 31
0.0
  0
LINE
  5
1fa
100
AcDbEntity
  8
0
 62
7
100
AcDbLine
 10
11.278000
 20
73.114000
 30
0.0
 11
10.963000
 21
73.429000
 31
0.0
  0
LINE
  5
1fb
100
AcDbEntity
  8
0
 62
7
100
AcDbLine
 10
10.963000
 20
73.429000
 30
0.0
 11
10.566000
 21
73.631000
 31
0.0
  0
LINE
  5
1fc
100
AcDbEntity
  8
0
 62
7
100
AcDbLine
 10
10.566000
 20
73.631000
 30
0.0
 11
10.126000
 21
73.701000
 31
0.0
  0
LINE
  5
1fd
100
AcDbEntity
  8
0
 62
7
100
AcDbLine
 10
10.126000
 20
73.701000
 30
0.0
 11
9.685000
 21
73.631000
 31
0.0
  0
LINE
  5
1fe
100
AcDbEntity
  8
0
 62
7
100
AcDbLine
 10
84.075000
 20
135.782000
 30
0.0
 11
83.678000
 21
135.579000
 31
0.0
  0
LINE
  5
1ff
100
AcDbEntity
  8
0
 62
7
100
AcDbLine
 10
83.678000
 20
135.579000
 30
0.0
 11
83.363000
 21
135.264000
 31
0.0
  0
LINE
  5
200
100
AcDbEntity
  8
0
 62
7
100
AcDbLine
 10
83.363000
 20
135.264000
 30
0.0
 11
83.160000
 21
134.867000
 31
0.0
  0
LINE
  5
201
100
AcDbEntity
  8
0
 62
7
100
AcDbLine
 10
83.160000
 20
134.867000
 30
0.0
 11
83.091000
 21
134.426000
 31
0.0
  0
LINE
  5
202
100
AcDbEntity
  8
0
 62
7
100
AcDbLine
 10
83.091000
 20
134.426000
 30
0.0
 11
83.160000
 21
133.986000
 31
0.0
  0
LINE
  5
203
100
AcDbEntity
  8
0
 62
7
100
AcDbLine
 10
83.160000
 20
133.986000
 30
0.0
 11
83.363000
 21
133.589000
 31
0.0
  0
LINE
  5
204
100
AcDbEntity
  8
0
 62
7
100
AcDbLine
 10
83.363000
 20
133.589000
 30
0.0
 11
83.678000
 21
133.274000
 31
0.0
  0
LINE
  5
205
100
AcDbEntity
  8
0
 62
7
100
AcDbLine
 10
83.678000
 20
133.274000
 30
0.0
 11
84.075000
 21
133.071000
 31
0.0
  0
LINE
  5
206
100
AcDbEntity
  8
0
 62
7
100
AcDbLine
 10
84.075000
 20
133.071000
 30
0.0
 11
84.516000
 21
133.001000
 31
0.0
  0
LINE
  5
207
100
AcDbEntity
  8
0
 62
7
100
AcDbLine
 10
84.516000
 20
133.001000
 30
0.0
 11
84.956000
 21
133.071000
 31
0.0
  0
LINE
  5
208
100
AcDbEntity
  8
0
 62
7
100
AcDbLine
 10
84.956000
 20
133.071000
 30
0.0
 11
85.353000
 21
133.274000
 31
0.0
  0
LINE
  5
209
100
AcDbEntity
  8
0
 62
7
100
AcDbLine
 10
85.353000
 20
133.274000
 30
0.0
 11
85.669000
 21
133.589000
 31
0.0
  0
LINE
  5
20a
100
AcDbEntity
  8
0
 62
7
100
AcDbLine
 10
85.669000
 20
133.589000
 30
0.0
 11
85.871000
 21
133.986000
 31
0.0
  0
LINE
  5
20b
100
AcDbEntity
  8
0
 62
7
100
AcDbLine
 10
85.871000
 20
133.986000
 30
0.0
 11
85.941000
 21
134.426000
 31
0.0
  0
LINE
  5
20c
100
AcDbEntity
  8
0
 62
7
100
AcDbLine
 10
85.941000
 20
134.426000
 30
0.0
 11
85.871000
 21
134.867000
 31
0.0
  0
LINE
  5
20d
100
AcDbEntity
  8
0
 62
7
100
AcDbLine
 10
85.871000
 20
134.867000
 30
0.0
 11
85.669000
 21
135.264000
 31
0.0
  0
LINE
  5
20e
100
AcDbEntity
  8
0
 62
7
100
AcDbLine
 10
85.669000
 20
135.264000
 30
0.0
 11
85.353000
 21
135.579000
 31
0.0
  0
LINE
  5
20f
100
AcDbEntity
  8
0
 62
7
100
AcDbLine
 10
85.353000
 20
135.579000
 30
0.0
 11
84.956000
 21
135.782000
 31
0.0
  0
LINE
  5
210
100
AcDbEntity
  8
0
 62
7
100
AcDbLine
 10
84.956000
 20
135.782000
 30
0.0
 11
84.516000
 21
135.851000
 31
0.0
  0
LINE
  5
211
100
AcDbEntity
  8
0
 62
7
100
AcDbLine
 10
84.516000
 20
135.851000
 30
0.0
 11
84.075000
 21
135.782000
 31
0.0
  0
LINE
  5
212
100
AcDbEntity
  8
0
 62
7
100
AcDbLine
 10
158.466000
 20
135.782000
 30
0.0
 11
158.068000
 21
135.579000
 31
0.0
  0
LINE
  5
213
100
AcDbEntity
  8
0
 62
7
100
AcDbLine
 10
158.068000
 20
135.579000
 30
0.0
 11
157.753000
 21
135.264000
 31
0.0
  0
LINE
  5
214
100
AcDbEntity
  8
0
 62
7
100
AcDbLine
 10
157.753000
 20
135.264000
 30
0.0
 11
157.551000
 21
134.867000
 31
0.0
  0
LINE
  5
215
100
AcDbEntity
  8
0
 62
7
100
AcDbLine
 10
157.551000
 20
134.867000
 30
0.0
 11
157.481000
 21
134.426000
 31
0.0
  0
LINE
  5
216
100
AcDbEntity
  8
0
 62
7
100
AcDbLine
 10
157.481000
 20
134.426000
 30
0.0
 11
157.551000
 21
133.986000
 31
0.0
  0
LINE
  5
217
100
AcDbEntity
  8
0
 62
7
100
AcDbLine
 10
157.551000
 20
133.986000
 30
0.0
 11
157.753000
 21
133.589000
 31
0.0
  0
LINE
  5
218
100
AcDbEntity
  8
0
 62
7
100
AcDbLine
 10
157.753000
 20
133.589000
 30
0.0
 11
158.068000
 21
133.274000
 31
0.0
  0
LINE
  5
219
100
AcDbEntity
  8
0
 62
7
100
AcDbLine
 10
158.068000
 20
133.274000
 30
0.0
 11
158.466000
 21
133.071000
 31
0.0
  0
LINE
  5
21a
100
AcDbEntity
  8
0
 62
7
100
AcDbLine
 10
158.466000
 20
133.071000
 30
0.0
 11
158.906000
 21
133.001000
 31
0.0
  0
LINE
  5
21b
100
AcDbEntity
  8
0
 62
7
100
AcDbLine
 10
158.906000
 20
133.001000
 30
0.0
 11
159.346000
 21
133.071000
 31
0.0
  0
LINE
  5
21c
100
AcDbEntity
  8
0
 62
7
100
AcDbLine
 10
159.346000
 20
133.071000
 30
0.0
 11
159.743000
 21
133.274000
 31
0.0
  0
LINE
  5
21d
100
AcDbEntity
  8
0
 62
7
100
AcDbLine
 10
159.743000
 20
133.274000
 30
0.0
 11
160.059000
 21
133.589000
 31
0.0
  0
LINE
  5
21e
100
AcDbEntity
  8
0
 62
7
100
AcDbLine
 10
160.059000
 20
133.589000
 30
0.0
 11
160.261000
 21
133.986000
 31
0.0
  0
LINE
  5
21f
100
AcDbEntity
  8
0
 62
7
100
AcDbLine
 10
160.261000
 20
133.986000
 30
0.0
 11
160.331000
 21
134.426000
 31
0.0
  0
LINE
  5
220
100
AcDbEntity
  8
0
 62
7
100
AcDbLine
 10
160.331000
 20
134.426000
 30
0.0
 11
160.261000
 21
134.867000
 31
0.0
  0
LINE
  5
221
100
AcDbEntity
  8
0
 62
7
100
AcDbLine
 10
160.261000
 20
134.867000
 30
0.0
 11
160.059000
 21
135.264000
 31
0.0
  0
LINE
  5
222
100
AcDbEntity
  8
0
 62
7
100
AcDbLine
 10
160.059000
 20
135.264000
 30
0.0
 11
159.743000
 21
135.579000
 31
0.0
  0
LINE
  5
223
100
AcDbEntity
  8
0
 62
7
100
AcDbLine
 10
159.743000
 20
135.579000
 30
0.0
 11
159.346000
 21
135.782000
 31
0.0
  0
LINE
  5
224
100
AcDbEntity
  8
0
 62
7
100
AcDbLine
 10
159.346000
 20
135.782000
 30
0.0
 11
158.906000
 21
135.851000
 31
0.0
  0
LINE
  5
225
100
AcDbEntity
  8
0
 62
7
100
AcDbLine
 10
158.906000
 20
135.851000
 30
0.0
 11
158.466000
 21
135.782000
 31
0.0
  0
LINE
  5
226
100
AcDbEntity
  8
0
 62
7
100
AcDbLine
 10
232.856000
 20
135.782000
 30
0.0
 11
232.459000
 21
135.579000
 31
0.0
  0
LINE
  5
227
100
AcDbEntity
  8
0
 62
7
100
AcDbLine
 10
232.459000
 20
135.579000
 30
0.0
 11
232.143000
 21
135.264000
 31
0.0
  0
LINE
  5
228
100
AcDbEntity
  8
0
 62
7
100
AcDbLine
 10
232.143000
 20
135.264000
 30
0.0
 11
231.941000
 21
134.867000
 31
0.0
  0
LINE
  5
229
100
AcDbEntity
  8
0
 62
7
100
AcDbLine
 10
231.941000
 20
134.867000
 30
0.0
 11
231.871000
 21
134.426000
 31
0.0
  0
LINE
  5
22a
100
AcDbEntity
  8
0
 62
7
100
AcDbLine
 10
231.871000
 20
134.426000
 30
0.0
 11
231.941000
 21
133.986000
 31
0.0
  0
LINE
  5
22b
100
AcDbEntity
  8
0
 62
7
100
AcDbLine
 10
231.941000
 20
133.986000
 30
0.0
 11
232.143000
 21
133.589000
 31
0.0
  0
LINE
  5
22c
100
AcDbEntity
  8
0
 62
7
100
AcDbLine
 10
232.143000
 20
133.589000
 30
0.0
 11
232.459000
 21
133.274000
 31
0.0
  0
LINE
  5
22d
100
AcDbEntity
  8
0
 62
7
100
AcDbLine
 10
232.459000
 20
133.274000
 30
0.0
 11
232.856000
 21
133.071000
 31
0.0
  0
LINE
  5
22e
100
AcDbEntity
  8
0
 62
7
100
AcDbLine
 10
232.856000
 20
133.071000
 30
0.0
 11
233.296000
 21
133.001000
 31
0.0
  0
LINE
  5
22f
100
AcDbEntity
  8
0
 62
7
100
AcDbLine
 10
233.296000
 20
133.001000
 30
0.0
 11
233.736000
 21
133.071000
 31
0.0
  0
LINE
  5
230
100
AcDbEntity
  8
0
 62
7
100
AcDbLine
 10
233.736000
 20
133.071000
 30
0.0
 11
234.134000
 21
133.274000
 31
0.0
  0
LINE
  5
231
100
AcDbEntity
  8
0
 62
7
100
AcDbLine
 10
234.134000
 20
133.274000
 30
0.0
 11
234.449000
 21
133.589000
 31
0.0
  0
LINE
  5
232
100
AcDbEntity
  8
0
 62
7
100
AcDbLine
 10
234.449000
 20
133.589000
 30
0.0
 11
234.651000
 21
133.986000
 31
0.0
  0
LINE
  5
233
100
AcDbEntity
  8
0
 62
7
100
AcDbLine
 10
234.651000
 20
133.986000
 30
0.0
 11
234.721000
 21
134.426000
 31
0.0
  0
LINE
  5
234
100
AcDbEntity
  8
0
 62
7
100
AcDbLine
 10
234.721000
 20
134.426000
 30
0.0
 11
234.651000
 21
134.867000
 31
0.0
  0
LINE
  5
235
100
AcDbEntity
  8
0
 62
7
100
AcDbLine
 10
234.651000
 20
134.867000
 30
0.0
 11
234.449000
 21
135.264000
 31
0.0
  0
LINE
  5
236
100
AcDbEntity
  8
0
 62
7
100
AcDbLine
 10
234.449000
 20
135.264000
 30
0.0
 11
234.134000
 21
135.579000
 31
0.0
  0
LINE
  5
237
100
AcDbEntity
  8
0
 62
7
100
AcDbLine
 10
234.134000
 20
135.579000
 30
0.0
 11
233.736000
 21
135.782000
 31
0.0
  0
LINE
  5
238
100
AcDbEntity
  8
0
 62
7
100
AcDbLine
 10
233.736000
 20
135.782000
 30
0.0
 11
233.296000
 21
135.851000
 31
0.0
  0
LINE
  5
239
100
AcDbEntity
  8
0
 62
7
100
AcDbLine
 10
233.296000
 20
135.851000
 30
0.0
 11
232.856000
 21
135.782000
 31
0.0
  0
LINE
  5
23a
100
AcDbEntity
  8
0
 62
7
100
AcDbLine
 10
307.246000
 20
135.782000
 30
0.0
 11
306.849000
 21
135.579000
 31
0.0
  0
LINE
  5
23b
100
AcDbEntity
  8
0
 62
7
100
AcDbLine
 10
306.849000
 20
135.579000
 30
0.0
 11
306.533000
 21
135.264000
 31
0.0
  0
LINE
  5
23c
100
AcDbEntity
  8
0
 62
7
100
AcDbLine
 10
306.533000
 20
135.264000
 30
0.0
 11
306.331000
 21
134.867000
 31
0.0
  0
LINE
  5
23d
100
AcDbEntity
  8
0
 62
7
100
AcDbLine
 10
306.331000
 20
134.867000
 30
0.0
 11
306.261000
 21
134.426000
 31
0.0
  0
LINE
  5
23e
100
AcDbEntity
  8
0
 62
7
100
AcDbLine
 10
306.261000
 20
134.426000
 30
0.0
 11
306.331000
 21
133.986000
 31
0.0
  0
LINE
  5
23f
100
AcDbEntity
  8
0
 62
7
100
AcDbLine
 10
306.331000
 20
133.986000
 30
0.0
 11
306.533000
 21
133.589000
 31
0.0
  0
LINE
  5
240
100
AcDbEntity
  8
0
 62
7
100
AcDbLine
 10
306.533000
 20
133.589000
 30
0.0
 11
306.849000
 21
133.274000
 31
0.0
  0
LINE
  5
241
100
AcDbEntity
  8
0
 62
7
100
AcDbLine
 10
306.849000
 20
133.274000
 30
0.0
 11
307.246000
 21
133.071000
 31
0.0
  0
LINE
  5
242
100
AcDbEntity
  8
0
 62
7
100
AcDbLine
 10
307.246000
 20
133.071000
 30
0.0
 11
307.686000
 21
133.001000
 31
0.0
  0
LINE
  5
243
100
AcDbEntity
  8
0
 62
7
100
AcDbLine
 10
307.686000
 20
133.001000
 30
0.0
 11
308.127000
 21
133.071000
 31
0.0
  0
LINE
  5
244
100
AcDbEntity
  8
0
 62
7
100
AcDbLine
 10
308.127000
 20
133.071000
 30
0.0
 11
308.524000
 21
133.274000
 31
0.0
  0
LINE
  5
245
100
AcDbEntity
  8
0
 62
7
100
AcDbLine
 10
308.524000
 20
133.274000
 30
0.0
 11
308.839000
 21
133.589000
 31
0.0
  0
LINE
  5
246
100
AcDbEntity
  8
0
 62
7
100
AcDbLine
 10
308.839000
 20
133.589000
 30
0.0
 11
309.042000
 21
133.986000
 31
0.0
  0
LINE
  5
247
100
AcDbEntity
  8
0
 62
7
100
AcDbLine
 10
309.042000
 20
133.986000
 30
0.0
 11
309.111000
 21
134.426000
 31
0.0
  0
LINE
  5
248
100
AcDbEntity
  8
0
 62
7
100
AcDbLine
 10
309.111000
 20
134.426000
 30
0.0
 11
309.042000
 21
134.867000
 31
0.0
  0
LINE
  5
249
100
AcDbEntity
  8
0
 62
7
100
AcDbLine
 10
309.042000
 20
134.867000
 30
0.0
 11
308.839000
 21
135.264000
 31
0.0
  0
LINE
  5
24a
100
AcDbEntity
  8
0
 62
7
100
AcDbLine
 10
308.839000
 20
135.264000
 30
0.0
 11
308.524000
 21
135.579000
 31
0.0
  0
LINE
  5
24b
100
AcDbEntity
  8
0
 62
7
100
AcDbLine
 10
308.524000
 20
135.579000
 30
0.0
 11
308.127000
 21
135.782000
 31
0.0
  0
LINE
  5
24c
100
AcDbEntity
  8
0
 62
7
100
AcDbLine
 10
308.127000
 20
135.782000
 30
0.0
 11
307.686000
 21
135.851000
 31
0.0
  0
LINE
  5
24d
100
AcDbEntity
  8
0
 62
7
100
AcDbLine
 10
307.686000
 20
135.851000
 30
0.0
 11
307.246000
 21
135.782000
 31
0.0
  0
LINE
  5
24e
100
AcDbEntity
  8
0
 62
7
100
AcDbLine
 10
381.636000
 20
135.782000
 30
0.0
 11
381.239000
 21
135.579000
 31
0.0
  0
LINE
  5
24f
100
AcDbEntity
  8
0
 62
7
100
AcDbLine
 10
381.239000
 20
135.579000
 30
0.0
 11
380.924000
 21
135.264000
 31
0.0
  0
LINE
  5
250
100
AcDbEntity
  8
0
 62
7
100
AcDbLine
 10
380.924000
 20
135.264000
 30
0.0
 11
380.721000
 21
134.867000
 31
0.0
  0
LINE
  5
251
100
AcDbEntity
  8
0
 62
7
100
AcDbLine
 10
380.721000
 20
134.867000
 30
0.0
 11
380.652000
 21
134.426000
 31
0.0
  0
LINE
  5
252
100
AcDbEntity
  8
0
 62
7
100
AcDbLine
 10
380.652000
 20
134.426000
 30
0.0
 11
380.721000
 21
133.986000
 31
0.0
  0
LINE
  5
253
100
AcDbEntity
  8
0
 62
7
100
AcDbLine
 10
380.721000
 20
133.986000
 30
0.0
 11
380.924000
 21
133.589000
 31
0.0
  0
LINE
  5
254
100
AcDbEntity
  8
0
 62
7
100
AcDbLine
 10
380.924000
 20
133.589000
 30
0.0
 11
381.239000
 21
133.274000
 31
0.0
  0
LINE
  5
255
100
AcDbEntity
  8
0
 62
7
100
AcDbLine
 10
381.239000
 20
133.274000
 30
0.0
 11
381.636000
 21
133.071000
 31
0.0
  0
LINE
  5
256
100
AcDbEntity
  8
0
 62
7
100
AcDbLine
 10
381.636000
 20
133.071000
 30
0.0
 11
382.077000
 21
133.001000
 31
0.0
  0
LINE
  5
257
100
AcDbEntity
  8
0
 62
7
100
AcDbLine
 10
382.077000
 20
133.001000
 30
0.0
 11
382.517000
 21
133.071000
 31
0.0
  0
LINE
  5
258
100
AcDbEntity
  8
0
 62
7
100
AcDbLine
 10
382.517000
 20
133.071000
 30
0.0
 11
382.914000
 21
133.274000
 31
0.0
  0
LINE
  5
259
100
AcDbEntity
  8
0
 62
7
100
AcDbLine
 10
382.914000
 20
133.274000
 30
0.0
 11
383.229000
 21
133.589000
 31
0.0
  0
LINE
  5
25a
100
AcDbEntity
  8
0
 62
7
100
AcDbLine
 10
383.229000
 20
133.589000
 30
0.0
 11
383.432000
 21
133.986000
 31
0.0
  0
LINE
  5
25b
100
AcDbEntity
  8
0
 62
7
100
AcDbLine
 10
383.432000
 20
133.986000
 30
0.0
 11
383.502000
 21
134.426000
 31
0.0
  0
LINE
  5
25c
100
AcDbEntity
  8
0
 62
7
100
AcDbLine
 10
383.502000
 20
134.426000
 30
0.0
 11
383.432000
 21
134.867000
 31
0.0
  0
LINE
  5
25d
100
AcDbEntity
  8
0
 62
7
100
AcDbLine
 10
383.432000
 20
134.867000
 30
0.0
 11
383.229000
 21
135.264000
 31
0.0
  0
LINE
  5
25e
100
AcDbEntity
  8
0
 62
7
100
AcDbLine
 10
383.229000
 20
135.264000
 30
0.0
 11
382.914000
 21
135.579000
 31
0.0
  0
LINE
  5
25f
100
AcDbEntity
  8
0
 62
7
100
AcDbLine
 10
382.914000
 20
135.579000
 30
0.0
 11
382.517000
 21
135.782000
 31
0.0
  0
LINE
  5
260
100
AcDbEntity
  8
0
 62
7
100
AcDbLine
 10
382.517000
 20
135.782000
 30
0.0
 11
382.077000
 21
135.851000
 31
0.0
  0
LINE
  5
261
100
AcDbEntity
  8
0
 62
7
100
AcDbLine
 10
382.077000
 20
135.851000
 30
0.0
 11
381.636000
 21
135.782000
 31
0.0
  0
LINE
  5
262
100
AcDbEntity
  8
0
 62
7
100
AcDbLine
 10
9.685000
 20
135.782000
 30
0.0
 11
9.288000
 21
135.579000
 31
0.0
  0
LINE
  5
263
100
AcDbEntity
  8
0
 62
7
100
AcDbLine
 10
9.288000
 20
135.579000
 30
0.0
 11
8.973000
 21
135.264000
 31
0.0
  0
LINE
  5
264
100
AcDbEntity
  8
0
 62
7
100
AcDbLine
 10
8.973000
 20
135.264000
 30
0.0
 11
8.770000
 21
134.867000
 31
0.0
  0
LINE
  5
265
100
AcDbEntity
  8
0
 62
7
100
AcDbLine
 10
8.770000
 20
134.867000
 30
0.0
 11
8.701000
 21
134.426000
 31
0.0
  0
LINE
  5
266
100
AcDbEntity
  8
0
 62
7
100
AcDbLine
 10
8.701000
 20
134.426000
 30
0.0
 11
8.770000
 21
133.986000
 31
0.0
  0
LINE
  5
267
100
AcDbEntity
  8
0
 62
7
100
AcDbLine
 10
8.770000
 20
133.986000
 30
0.0
 11
8.973000
 21
133.589000
 31
0.0
  0
LINE
  5
268
100
AcDbEntity
  8
0
 62
7
100
AcDbLine
 10
8.973000
 20
133.589000
 30
0.0
 11
9.288000
 21
133.274000
 31
0.0
  0
LINE
  5
269
100
AcDbEntity
  8
0
 62
7
100
AcDbLine
 10
9.288000
 20
133.274000
 30
0.0
 11
9.685000
 21
133.071000
 31
0.0
  0
LINE
  5
26a
100
AcDbEntity
  8
0
 62
7
100
AcDbLine
 10
9.685000
 20
133.071000
 30
0.0
 11
10.126000
 21
133.001000
 31
0.0
  0
LINE
  5
26b
100
AcDbEntity
  8
0
 62
7
100
AcDbLine
 10
10.126000
 20
133.001000
 30
0.0
 11
10.566000
 21
133.071000
 31
0.0
  0
LINE
  5
26c
100
AcDbEntity
  8
0
 62
7
100
AcDbLine
 10
10.566000
 20
133.071000
 30
0.0
 11
10.963000
 21
133.274000
 31
0.0
  0
LINE
  5
26d
100
AcDbEntity
  8
0
 62
7
100
AcDbLine
 10
10.963000
 20
133.274000
 30
0.0
 11
11.278000
 21
133.589000
 31
0.0
  0
LINE
  5
26e
100
AcDbEntity
  8
0
 62
7
100
AcDbLine
 10
11.278000
 20
133.589000
 30
0.0
 11
11.481000
 21
133.986000
 31
0.0
  0
LINE
  5
26f
100
AcDbEntity
  8
0
 62
7
100
AcDbLine
 10
11.481000
 20
133.986000
 30
0.0
 11
11.551000
 21
134.426000
 31
0.0
  0
LINE
  5
270
100
AcDbEntity
  8
0
 62
7
100
AcDbLine
 10
11.551000
 20
134.426000
 30
0.0
 11
11.481000
 21
134.867000
 31
0.0
  0
LINE
  5
271
100
AcDbEntity
  8
0
 62
7
100
AcDbLine
 10
11.481000
 20
134.867000
 30
0.0
 11
11.278000
 21
135.264000
 31
0.0
  0
LINE
  5
272
100
AcDbEntity
  8
0
 62
7
100
AcDbLine
 10
11.278000
 20
135.264000
 30
0.0
 11
10.963000
 21
135.579000
 31
0.0
  0
LINE
  5
273
100
AcDbEntity
  8
0
 62
7
100
AcDbLine
 10
10.963000
 20
135.579000
 30
0.0
 11
10.566000
 21
135.782000
 31
0.0
  0
LINE
  5
274
100
AcDbEntity
  8
0
 62
7
100
AcDbLine
 10
10.566000
 20
135.782000
 30
0.0
 11
10.126000
 21
135.851000
 31
0.0
  0
LINE
  5
275
100
AcDbEntity
  8
0
 62
7
100
AcDbLine
 10
10.126000
 20
135.851000
 30
0.0
 11
9.685000
 21
135.782000
 31
0.0
  0
ENDSEC
  0
SECTION
  2
OBJECTS
  0
DICTIONARY
  5
C
330
0
100
AcDbDictionary
  3
ACAD_GROUP
350
D
  3
ACAD_MLINESTYLE
350
17
  0
DICTIONARY
  5
D
330
C
100
AcDbDictionary
  0
DICTIONARY
  5
1A
330
C
100
AcDbDictionary
  0
DICTIONARY
  5
17
330
C
100
AcDbDictionary
  3
STANDARD
350
18
  0
DICTIONARY
  5
19
330
C
100
AcDbDictionary
  0
ENDSEC
  0
EOF
